<?xml version="1.0" encoding="utf-8"?>
<!-- Generator: Adobe Illustrator 25.4.1, SVG Export Plug-In . SVG Version: 6.00 Build 0)  -->
<svg version="1.1" id="Calque_1" xmlns="http://www.w3.org/2000/svg" xmlns:xlink="http://www.w3.org/1999/xlink" x="0px" y="0px"
	 viewBox="0 0 765.9 269.5" style="enable-background:new 0 0 765.9 269.5;" xml:space="preserve">
<style type="text/css">
	.st0{fill:#F26951;}
	.st1{fill:#FFFFFF;}
	.st2{fill:#FFFBF5;}
	.st3{fill:#58ACBF;}
	.st4{fill:none;stroke:#58ACBF;stroke-width:2;stroke-linecap:round;stroke-miterlimit:10;}
	.st5{fill:#73BBC9;}
	.st6{opacity:0.4;fill:#73BBC9;}
	.st7{fill:#3899B0;}
</style>
<g>
	<g>
		<g>
			<path class="st0" d="M552.8,232.5l-2.4-0.9c0.1-0.2,7.5-22,2.1-68c-5.5-47,18.4-67.7,19.4-68.5l1.6,2
				c-0.2,0.2-23.9,20.7-18.5,66.3C560.5,210,553.1,231.6,552.8,232.5z"/>
			<path class="st0" d="M569.5,132.4c-8,0.7-14.8-1.6-14.8-1.6s6.3-3.6,14.3-4.3c8-0.7,14.8,1.6,14.8,1.6S577.6,131.6,569.5,132.4z"
				/>
			<path class="st0" d="M543.7,130.9c-4-7-4.6-14.2-4.6-14.2s5.8,4.3,9.8,11.3c4,7,4.6,14.2,4.6,14.2S547.6,137.9,543.7,130.9z"/>
		</g>
		<g>
			<path class="st0" d="M574.2,119.7c1.2,0.5,2.4,0.9,3.7,0.8c4.7-0.1,14.1-1.3,16.5-8c3.2-9,11.7-13.1,9.4-20.3
				c-2.2-7.2-11.8-22.7-22.5-22.9c-10.7-0.2-20.5-8.2-27.7,7.9c-7.2,16.1-15.7,14.4-10.8,25.1s10.7,18.7,17.4,19
				C566.1,121.6,571.5,118.5,574.2,119.7z"/>
			<path class="st1" d="M565.3,111.8c0.9,1,2,1.8,3.2,2.3c3.4,1.4,9.1,3,12.5-0.3c5-4.9,11.9-4.8,12.8-10.2
				c0.9-5.5-0.3-18.7-7.3-22.3s-10.8-12.1-20.7-3.9c-10,8.2-15,4.3-15.3,12.9s1.2,18.3,5.5,20.7C559.8,113,563.8,110.3,565.3,111.8z
				"/>
			<path class="st0" d="M562.9,105.6c0.4,0.9,0.9,1.8,1.7,2.5c2,1.9,5.7,4.5,9,3.1c4.9-2.2,9.8-0.3,11.8-4
				c2.1-3.7,4.6-13.4,0.6-17.9c-4-4.4-4.6-11.4-13.8-8.2c-9.3,3.3-11.9-0.8-14.3,5.2s-3.9,13.4-1.4,16.2
				C558.6,105,562.2,104.1,562.9,105.6z"/>
			<path class="st2" d="M564.6,99.1c0,0.6,0.1,1.2,0.4,1.8c0.7,1.5,2.2,3.9,4.4,3.8c3.3-0.1,5.6,2,7.6,0.4c2-1.6,5.7-6.6,4.4-10
				c-1.3-3.4,0-7.5-6-7.7c-6-0.2-6.5-3.1-9.3-0.2c-2.7,2.9-5.2,6.7-4.5,8.9C562.2,97.8,564.5,98.2,564.6,99.1z"/>
			
				<ellipse transform="matrix(0.6495 -0.7604 0.7604 0.6495 128.1449 468.358)" class="st1" cx="572.1" cy="95.2" rx="3.8" ry="3.8"/>
		</g>
	</g>
	<g>
		<g>
			<g>
				<g>
					<path class="st3" d="M417.7,51c0,0,1.2,3.8,4.7,10c2.3,4.1,9.9,14.1,12.7,12.4c1.8-1.1,1.8-2.8,1.8-2.8s2.4,0.4,3.5-2.1
						s-5-10.2-11.5-14.9c-4.1-2.9-8.8-4.7-8.8-4.7L417.7,51z"/>
					<path class="st3" d="M407.9,39.5c0,0-3.5-1.8-9.2-6.2c-3.7-2.9-12.5-11.9-10.3-14.4c1.4-1.6,3-1.4,3-1.4s0-2.4,2.6-3.1
						s9.4,6.5,13,13.6c2.3,4.5,3.4,9.4,3.4,9.4L407.9,39.5z"/>
				</g>
				<g>
					<path class="st3" d="M407.3,47.3c0,0-3.8,1.2-10,4.7c-4.1,2.3-14.1,9.9-12.4,12.7c1.1,1.8,2.8,1.8,2.8,1.8s-0.4,2.4,2.1,3.5
						c2.5,1.1,10.2-5,14.9-11.5c2.9-4.1,4.7-8.8,4.7-8.8L407.3,47.3z"/>
					<path class="st3" d="M418.7,37.4c0,0,1.8-3.5,6.2-9.2c2.9-3.7,11.9-12.5,14.4-10.3c1.6,1.4,1.4,3,1.4,3s2.4,0,3.1,2.6
						s-6.5,9.4-13.6,13c-4.5,2.3-9.4,3.4-9.4,3.4L418.7,37.4z"/>
				</g>
				<g>
					<path class="st3" d="M421.7,46.6c0,0,3.5,1.8,10.4,3.8c4.5,1.3,17,3,17.7-0.2c0.4-2-0.7-3.2-0.7-3.2s2-1.4,1-3.9
						c-1-2.5-10.8-3.7-18.6-2.4c-4.9,0.8-9.5,2.9-9.5,2.9L421.7,46.6z"/>
					<path class="st3" d="M406.7,45.4c0,0-3.8,1.2-10.9,2.2c-4.7,0.6-17.3,0.4-17.5-2.9c-0.1-2.1,1.2-3.1,1.2-3.1s-1.7-1.7-0.4-4
						c1.4-2.4,11.2-2,18.8,0.4c4.8,1.5,9,4.3,9,4.3L406.7,45.4z"/>
				</g>
				<g>
					<path class="st3" d="M411.7,51.3c0,0-1.8,3.5-3.8,10.4c-1.3,4.5-3,17,0.2,17.7c2,0.4,3.2-0.7,3.2-0.7s1.4,2,3.9,1
						c2.5-1,3.7-10.8,2.4-18.6c-0.8-4.9-2.9-9.5-2.9-9.5L411.7,51.3z"/>
					<path class="st3" d="M412.9,36.2c0,0-1.2-3.8-2.2-10.9c-0.6-4.7-0.4-17.3,2.9-17.5c2.1-0.1,3.1,1.2,3.1,1.2s1.7-1.7,4-0.4
						c2.4,1.4,2,11.2-0.4,18.8c-1.5,4.8-4.3,9-4.3,9L412.9,36.2z"/>
				</g>
			</g>
			<circle class="st1" cx="414.4" cy="43.9" r="7.3"/>
		</g>
		<path class="st4" d="M413.1,52.8c0,0-12.2,32.5-11.2,54.2c3.2,72.3-20.2,102-20.2,102"/>
	</g>
	<path class="st5" d="M707.1,200.4c3.5,2.4,5.8,5.4,6.9,6.8c0.1-0.1,0.1-0.2,0.2-0.3c1.7-2.7,3.6-5.7,5.9-8.9
		c-1.4-0.8-4.8-2.9-7.7-6.2c-3.8-4.4-5.3-9.3-5.3-9.3s4.6,2.2,8.4,6.6c2.8,3.2,4.3,6.7,5,8.3c1.9-2.6,3.9-5.4,6.2-8.2
		c-1.2-1.2-3.9-4-5.8-7.9c-2.6-5.2-2.8-10.3-2.8-10.3s3.9,3.3,6.5,8.5c1.8,3.6,2.4,7.2,2.6,9.1c2.3-2.8,4.7-5.6,7.3-8.3
		c-1-1.3-3.3-4.6-4.6-8.7c-1.7-5.5-1.2-10.6-1.2-10.6s3.4,3.9,5.1,9.4c1.2,3.8,1.3,7.4,1.2,9.3c1.8-1.9,3.6-3.7,5.6-5.5
		c-0.4-1.6-1.3-5.4-0.9-9.8c0.5-5.8,2.9-10.3,2.9-10.3s1.7,4.9,1.2,10.6c-0.3,3.5-1.3,6.5-2.1,8.4c1.4-1.2,2.8-2.5,4.2-3.6
		c1.1-1.7,3-4.3,5.7-6.5c4.4-3.7,9.3-5.2,9.3-5.2s-2.3,4.6-6.7,8.3c-2.7,2.2-5.5,3.7-7.4,4.4c-1.5,1.2-3,2.5-4.4,3.8
		c1.9-0.1,5.5-0.2,9.3,0.8c5.6,1.4,9.6,4.6,9.6,4.6s-5.1,0.8-10.7-0.6c-4.3-1.1-7.6-3.2-9-4.1c-2,1.8-3.8,3.6-5.6,5.5
		c1.7,0.3,5.4,1.3,9.1,3.5c4.9,3,7.9,7.2,7.9,7.2s-5.1-0.7-10-3.7c-3.8-2.3-6.4-5.3-7.4-6.6c-2.7,2.8-5.2,5.7-7.5,8.5
		c1.8,0.2,5.5,0.8,9.3,2.7c5.2,2.6,8.5,6.5,8.5,6.5s-5.1-0.2-10.3-2.8c-3.9-1.9-6.7-4.6-7.9-5.8c-2.3,2.8-4.4,5.6-6.2,8.2
		c1.8,0.1,5.5,0.6,9.3,2.3c5.3,2.4,8.7,6.2,8.7,6.2s-5.1,0-10.4-2.4c-3.9-1.8-6.8-4.3-8.1-5.5c-2.2,3.1-4.2,6.1-5.8,8.8
		c-0.1,0.1-0.2,0.3-0.2,0.4c1.1,0.2,5.5,1.1,9.7,3.6c4.9,3,7.9,7.2,7.9,7.2s-5.1-0.7-10-3.7c-4.2-2.6-7-6-7.7-7
		c-6.7,11-10.2,19.3-10.2,19.3l-1.3-0.5c0-0.1,3.4-8.3,10.1-19.2c-1.7-0.4-5.3-1.6-8.8-4c-4.8-3.3-7.5-7.6-7.5-7.6
		S702.3,197.1,707.1,200.4z"/>
	<g>
		<path class="st6" d="M237.4,188.7c-2.2,2.4-6.5,2.2-12-2.9c-5.5-5-11.7-18.7-11.7-18.7s14.3,4.9,19.8,9.9
			C239,182,239.7,186.3,237.4,188.7z"/>
		<path class="st6" d="M225.7,198.1c-2.9,1.5-6.8-0.3-10.2-6.9c-3.4-6.6-4.4-21.7-4.4-21.7s11.6,9.6,15,16.2
			C229.5,192.4,228.6,196.6,225.7,198.1z"/>
		<path class="st6" d="M194.2,141.4c-2.6,2-2.7,6.3,1.8,12.2c4.5,5.9,17.6,13.4,17.6,13.4s-3.6-14.6-8.1-20.6
			C201,140.5,196.8,139.4,194.2,141.4z"/>
		<path class="st6" d="M183.8,152.2c-1.8,2.8-0.4,6.8,5.9,10.8c6.3,4,21.2,6.3,21.2,6.3s-8.5-12.4-14.8-16.4
			C189.8,149,185.5,149.5,183.8,152.2z"/>
		<path class="st5" d="M198,181.4L198,181.4c-0.2-0.3-0.2-0.6,0-0.9l19.5-18.9c0.6-0.6,1.5-0.5,2.1,0.1l0,0c0.5,0.6,0.5,1.5-0.1,2
			l-20.6,17.7C198.7,181.7,198.3,181.7,198,181.4z"/>
	</g>
	<g>
		<g>
			<path class="st0" d="M274,53.3c0,0-4.7-13.7,3.1-29.5s-4.8-24.2-12-19.4C257.9,9.2,253.1,27.1,274,53.3z"/>
		</g>
		<g>
			<path class="st0" d="M285.9,64.2c0,0,5.1-13.5,21.2-20.8c16.1-7.3,11.7-21.7,3.2-22.6C301.7,20,286.5,30.8,285.9,64.2z"/>
		</g>
		<g>
			<path class="st0" d="M284.3,65.6c0,0-14.4-1.5-28.1,9.6s-24.7,0.7-21.6-7.3C237.6,59.8,254.1,51.1,284.3,65.6z"/>
		</g>
		<g>
			<path class="st0" d="M301.5,90.8c0,0-14.4-1.5-28.1,9.6s-24.7,0.7-21.6-7.3C254.9,85.1,271.3,76.4,301.5,90.8z"/>
		</g>
		<g>
			<path class="st0" d="M311.1,117.4c0,0-14.4-1.5-28.1,9.6s-24.7,0.7-21.6-7.3C264.5,111.7,280.9,103,311.1,117.4z"/>
		</g>
		<g>
			<path class="st0" d="M321.6,150.8c0,0-14.4-1.5-28.1,9.6s-24.7,0.7-21.6-7.3S291.4,136.4,321.6,150.8z"/>
		</g>
		<g>
			<path class="st0" d="M301.3,90.6c0,0,5.1-13.5,21.2-20.8c16.1-7.3,11.7-21.7,3.2-22.6C317.1,46.4,302,57.1,301.3,90.6z"/>
		</g>
		<g>
			<path class="st0" d="M313.3,119.9c0,0,5.1-13.5,21.2-20.8c16.1-7.3,11.7-21.7,3.2-22.6C329.1,75.7,313.9,86.4,313.3,119.9z"/>
		</g>
		<g>
			<path class="st0" d="M322.6,150.3c0,0,5.1-13.5,21.2-20.8c16.1-7.3,11.7-21.7,3.2-22.6C338.5,106,323.3,116.8,322.6,150.3z"/>
		</g>
		<g>
			<path class="st0" d="M270.2,48c1.2,1.4,2.3,2.8,3.4,4.2c3.4,4.2,6.5,8.5,9.5,12.9c0.1,0.2,0.2,0.3,0.3,0.5
				c5.1,7.6,9.7,15.4,13.9,23.4c0.3,0.6,0.6,1.2,1,1.9c4.3,8.6,8.1,17.3,11.5,26c0.1,0.2,0.1,0.4,0.2,0.6l0,0
				c4.2,11.1,7.6,22.2,10.5,33c0,0.2,0.1,0.3,0.1,0.5c4.6,17.6,7.5,34.3,9.4,49.1c2.4,18.8,3.3,35.9,3.5,49.8l3,0.1
				c-0.2-14-1.1-31.2-3.5-50.2c-1.9-15.1-4.9-32.4-9.7-50.5c-0.2-0.6-0.3-1.2-0.5-1.8c-2.5-9.3-5.5-18.8-9-28.4
				c-0.1-0.4-0.3-0.7-0.4-1.1c-3.4-9.2-7.4-18.4-11.9-27.5c0-0.1-0.1-0.1-0.1-0.2c0,0,0,0,0,0c-4.5-9-9.6-17.8-15.3-26.2
				c0-0.1-0.1-0.1-0.1-0.2c-4.1-6-8.4-11.8-13.2-17.4c-0.1-0.1-0.1-0.2-0.2-0.3c-0.5-0.6-1.5-0.7-2.1-0.2
				C269.7,46.5,269.7,47.4,270.2,48z"/>
		</g>
	</g>
	<g>
		<path class="st7" d="M517,216.8c22.5,0,41.5,15.1,47.4,35.7h-94.8C475.5,231.9,494.5,216.8,517,216.8z"/>
		<path class="st7" d="M286,199.9c33.2,0,61.1,22.2,69.8,52.6H216.2C224.9,222.2,252.8,199.9,286,199.9z"/>
		<path class="st7" d="M502.7,252.6c-10.7-37-53.1-64.7-103.8-64.7s-93.1,27.7-103.8,64.7H502.7z"/>
	</g>
	<g>
		<path class="st5" d="M114.9,135.6c-3.9,8.8-13.5,13-13.5,13s-3.1-10,0.8-18.7c3.9-8.8,13.5-13,13.5-13S118.9,126.9,114.9,135.6z"
			/>
		<path class="st5" d="M134,174.5c-5.3,8-15.4,10.6-15.4,10.6s-1.4-10.3,3.9-18.3c5.3-8,15.4-10.6,15.4-10.6S139.3,166.6,134,174.5z
			"/>
		<path class="st5" d="M77.3,108.4c6.5,7.1,6.6,17.5,6.6,17.5s-10.4-1-16.9-8.1c-6.5-7.1-6.6-17.5-6.6-17.5S70.8,101.3,77.3,108.4z"
			/>
		<path class="st5" d="M84.7,141.6c9.6,0.3,17.2,7.5,17.2,7.5s-8,6.7-17.6,6.4c-9.6-0.3-17.2-7.5-17.2-7.5S75.1,141.3,84.7,141.6z"
			/>
		<path class="st5" d="M101.3,177.4c9.6,0.3,17.2,7.5,17.2,7.5s-8,6.7-17.6,6.4c-9.6-0.3-17.2-7.5-17.2-7.5S91.7,177.1,101.3,177.4z
			"/>
		<g>
			<path class="st5" d="M134.8,261.3l-2,0c0-0.2-0.5-23-7.5-51.6c-4.1-16.7-9.6-32.2-16.3-45.8c-8.4-17.1-18.7-31.4-30.8-42.7
				l1.3-1.4c12.2,11.4,22.7,26,31.2,43.3c6.8,13.8,12.3,29.4,16.4,46.3C134.3,238.1,134.8,261.1,134.8,261.3z"/>
		</g>
	</g>
	<g>
		<path class="st5" d="M53.4,178.3c0.1,7.3-5.1,13.3-5.1,13.3s-5.4-5.9-5.4-13.2c-0.1-7.3,5.1-13.3,5.1-13.3S53.3,170.9,53.4,178.3z
			"/>
		<path class="st5" d="M79,199c-1.1,7.2-7.3,12.3-7.3,12.3s-4.3-6.7-3.2-13.9c1.1-7.2,7.3-12.3,7.3-12.3S80.2,191.8,79,199z"/>
		<path class="st5" d="M18.6,171.5c6.8,2.8,10.2,10,10.2,10s-7.5,2.6-14.3-0.2c-6.8-2.8-10.2-10-10.2-10S11.8,168.7,18.6,171.5z"/>
		<path class="st5" d="M34.4,192.1c6.7-2.9,14.3-0.3,14.3-0.3s-3.4,7.2-10.1,10.1c-6.7,2.9-14.3,0.3-14.3,0.3S27.6,195,34.4,192.1z"
			/>
		<path class="st5" d="M57.4,211.5c6.7-2.9,14.3-0.3,14.3-0.3s-3.4,7.2-10.1,10.1c-6.7,2.9-14.3,0.3-14.3,0.3S50.6,214.4,57.4,211.5
			z"/>
		<g>
			<path class="st5" d="M107.5,258.8l-1.3,0.7c-0.1-0.2-7.8-15.7-21.7-33.2c-8.2-10.3-17-19.2-26-26.5c-11.3-9.1-23-15.7-35-19.6
				l0.5-1.4c12.1,4,24,10.7,35.5,19.9c9.1,7.4,17.9,16.4,26.2,26.7C99.6,242.9,107.4,258.6,107.5,258.8z"/>
		</g>
	</g>
	<g>
		<path class="st5" d="M59.1,237c-18.9,0-34.8,12.7-39.8,30h79.5C93.9,249.7,78,237,59.1,237z"/>
		<path class="st5" d="M252.9,222.8c-27.8,0-51.3,18.7-58.6,44.2h117.2C304.2,241.5,280.8,222.8,252.9,222.8z"/>
		<path class="st5" d="M71.1,267c9-31.1,44.6-54.3,87.1-54.3c42.6,0,78.1,23.2,87.1,54.3H71.1z"/>
	</g>
	<g>
		<path class="st1" d="M169.5,255.6c-8.8,0-16.2,5.9-18.5,13.9h37C185.6,261.5,178.2,255.6,169.5,255.6z"/>
		<path class="st1" d="M259.5,249c-12.9,0-23.8,8.7-27.2,20.5h54.4C283.4,257.7,272.5,249,259.5,249z"/>
		<path class="st1" d="M175.1,269.5c4.2-14.4,20.7-25.2,40.5-25.2s36.3,10.8,40.5,25.2H175.1z"/>
	</g>
	<path class="st5" d="M511.8,244.2c0,0,8.3-63.9-31.3-76.7C480.4,167.5,511.5,208.9,511.8,244.2z"/>
	<path class="st5" d="M523.9,243.8c0,0,20.9-65.8-18.4-86.8C505.5,157.1,530.3,206.6,523.9,243.8z"/>
	<g>
		<g>
			<path class="st5" d="M640.8,171.1c0.2-0.1,0.3,0,0.5,0c0,0.2,0,0.2-0.2,0.4c0.2-0.1,0.2-0.2,0.2-0.2c0,0,0,0,0,0
				c0.1-0.1,0.3-0.3,1.1-0.9c20.7,10.8,28,0.2,43.5-10.9c9.4-6.7,23.4-12.1,33.7-18.5c6.2-3.9,11-8.1,12.6-13.2
				c-9.2-13-46.5-9.7-64.8-2.1c-13.9,5.7-25.3,14.7-27.1,28.1c-0.7,4.8-0.1,10.3,2,16.4C639.8,171.5,641.6,170.7,640.8,171.1z"/>
		</g>
		<g>
			<path class="st5" d="M645.3,117.3c0.1-0.1,0.2-0.1,0.3-0.1c0,0.1,0,0.2,0,0.3c0.2-0.2,0.1-0.2,0.1-0.1c0,0,0.1-0.2,0.6-0.9
				c16.6,2.3,19-6.6,26.9-17.9c0.4-0.6,0.9-1.2,1.3-1.8c8-10.4,22.8-21.2,22.4-30.9c-5.5-3.9-16.1-1.6-26.1,2.8
				c-7.1,3.2-13.9,7.4-18.3,11.4c-10.9,9.8-17.3,22.6-6.3,36.2C644.7,117.8,645.8,116.8,645.3,117.3z"/>
		</g>
		<g>
			<path class="st7" d="M619.9,233.1l1.8,0.1c2.2-34,8.6-82.3,26.5-119.1c10.7-21.9,20.4-29.3,20.5-29.4l-1.1-1.4
				c-0.4,0.3-10.2,7.8-21,30.1C628.6,150.4,622.2,198.9,619.9,233.1z"/>
		</g>
		<g>
			<path class="st7" d="M625.3,196.7c16.3-35.8,55.5-52.6,55.9-52.8l-0.7-1.6c-0.1,0-10.2,4.3-22.2,13c-11.1,8-26.1,21.6-34.7,40.7
				L625.3,196.7z"/>
		</g>
		<g>
			<path class="st5" d="M604,87.3c-0.3,2.4,1,5,2.8,7.7c2.7,4,6.7,8.1,8.9,12c3.9,6.8,4.7,12,14.3,11.6c0.2,0.4,0.3,0.5,0.3,0.5
				c0,0,0,0,0,0c0,0,0,0,0,0.1c0-0.1,0-0.1,0-0.2c0.1,0,0.1,0,0.2,0.1c-0.3-0.3,0.3,0.3-0.5-0.6c2.8-2.9,4-5.9,4.1-8.8
				c0.1-4.3-2.3-8.4-5.7-12.1C623,91.7,609.7,84,604,87.3z"/>
		</g>
		<g>
			<path class="st7" d="M633,149.2l1.8,0c0.1-14.3-3.4-29.1-10.5-44l-1.6,0.8C629.7,120.7,633.1,135.2,633,149.2z"/>
		</g>
	</g>
	<g>
		<path class="st5" d="M699.5,224.7c22.5,0,41.5,15.1,47.4,35.7h-94.8C658,239.8,677,224.7,699.5,224.7z"/>
		<path class="st5" d="M468.5,207.8c33.2,0,61.1,22.2,69.8,52.6H398.7C407.3,230,435.3,207.8,468.5,207.8z"/>
		<path class="st5" d="M685.2,260.4c-10.7-37-53.1-64.7-103.8-64.7c-50.7,0-93.1,27.7-103.8,64.7H685.2z"/>
	</g>
	<g>
		<path class="st1" d="M601.7,241.9c12.3,0,22.7,8.3,25.9,19.5h-51.8C579,250.2,589.4,241.9,601.7,241.9z"/>
		<path class="st1" d="M475.4,232.7c18.1,0,33.4,12.2,38.2,28.8h-76.3C442,244.9,457.3,232.7,475.4,232.7z"/>
		<path class="st1" d="M593.9,261.5c-5.9-20.2-29-35.4-56.8-35.4c-27.7,0-50.9,15.1-56.8,35.4H593.9z"/>
	</g>
</g>
</svg>
