<?xml version="1.0" encoding="utf-8"?>
<!-- Generator: Adobe Illustrator 25.4.1, SVG Export Plug-In . SVG Version: 6.00 Build 0)  -->
<svg version="1.1" id="Calque_1" xmlns="http://www.w3.org/2000/svg" xmlns:xlink="http://www.w3.org/1999/xlink" x="0px" y="0px"
	 viewBox="0 0 375 716.8" style="enable-background:new 0 0 375 716.8;" xml:space="preserve">
<style type="text/css">
	.st0{clip-path:url(#SVGID_00000053509132587474344190000008832866154625928590_);}
	.st1{fill:#F26951;}
	.st2{fill:#FFFFFF;}
	.st3{clip-path:url(#SVGID_00000109007054447691192390000002714437007174290360_);}
	.st4{fill:none;stroke:#3899B0;stroke-width:1.3285;stroke-miterlimit:10;}
	.st5{clip-path:url(#SVGID_00000150098968197741176120000008586036438123867041_);}
	.st6{fill:#3899B0;}
	.st7{fill:#73BBC9;}
	.st8{fill:#58ACBF;}
	.st9{fill:#F5CCB5;}
	.st10{fill:#1A1C2E;}
	.st11{fill:#535073;}
	.st12{fill:#33364A;}
	.st13{fill:#DADADA;}
	.st14{fill:#1A2B42;}
	.st15{fill:#1A1A1A;}
	.st16{fill:#EDBEA1;}
	.st17{fill:#2D334A;}
	.st18{fill:#5C6D87;}
	.st19{fill:#60647D;}
</style>
<g>
	<defs>
		<rect id="SVGID_1_" width="375" height="716.8"/>
	</defs>
	<clipPath id="SVGID_00000085213412700014514580000005876736962142650293_">
		<use xlink:href="#SVGID_1_"  style="overflow:visible;"/>
	</clipPath>
	<g style="clip-path:url(#SVGID_00000085213412700014514580000005876736962142650293_);">
		<g>
			<g>
				<path class="st1" d="M284.8,249.8c0.1-0.3,8.3-30.6,38.8-67.8c29.8-36.5,20.7-67.1,20.6-67.5l2.5-0.8
					c0.4,1.3,9.7,32.3-21.1,69.9c-30.1,36.8-38.2,66.5-38.2,66.8L284.8,249.8z"/>
				<path class="st1" d="M328.2,147.2c6.5,5.1,13.7,6.8,13.7,6.8s-3.4-6.5-10-11.6c-6.5-5.1-13.7-6.8-13.7-6.8
					S321.7,142.1,328.2,147.2z"/>
				<path class="st1" d="M351.4,160.2c7.3-3.9,11.8-9.7,11.8-9.7s-7.4,0.5-14.7,4.4c-7.3,3.9-11.8,9.7-11.8,9.7
					S344,164.1,351.4,160.2z"/>
			</g>
			<g>
				<path class="st1" d="M343.2,131.8c-1.3,0.3-2.7,0.5-4,0.2c-3.7-0.6-9.5-2.4-10.6-7.1c-1.6-7-7.7-10.7-5.4-15.9
					c2.2-5.2,10.6-16,18.6-15.3c8,0.7,16-4.5,20,8.1c4.1,12.6,10.6,12,6.1,19.6c-4.5,7.6-11.1,15.1-16.2,14.8
					C347.3,135.9,345.3,131.3,343.2,131.8z"/>
				<path class="st2" d="M348.8,127.8c-0.9,0.6-1.8,1-2.8,1.2c-2.8,0.5-7.4,0.8-9.4-2.3c-3-4.6-8.3-5.7-8-10
					c0.2-4.3,3.4-14.2,9.3-15.8c5.9-1.6,10.3-7.4,16.4,0.6c6.2,7.9,10.7,5.8,9.4,12.4c-1.3,6.6-4,13.7-7.7,14.8
					C352.8,129.6,350.1,126.9,348.8,127.8z"/>
				<path class="st1" d="M350.9,121.3c-0.4,0.5-0.8,1-1.3,1.3c-1.5,0.9-4,2.1-5.9,0.8c-2.7-1.9-6-1.4-6.8-3.9
					c-0.8-2.5-1.2-8.8,1.7-11c3-2.2,4.2-6.5,9.4-3.4c5.3,3.1,7.4,0.9,8.1,4.9c0.8,4,0.8,8.7-1.1,10.1
					C353.6,121.4,351.4,120.4,350.9,121.3z"/>
				
					<ellipse transform="matrix(0.7455 -0.6665 0.6665 0.7455 12.4237 259.9099)" class="st2" cx="346.5" cy="113.7" rx="3.9" ry="3.9"/>
			</g>
		</g>
		<g>
			<g>
				<defs>
					<path id="SVGID_00000054983963019341308270000016246716564098066586_" d="M285.9,555.8c0,0,47.1,19.8,24.2,76
						c0,0-7.7-2.8-15.8-9.1c0-2.3,0.2-6,1-9c0,0-2,3.7-2.6,7.7C279,610.1,265.5,589.2,285.9,555.8z"/>
				</defs>
				<use xlink:href="#SVGID_00000054983963019341308270000016246716564098066586_"  style="overflow:visible;fill:#73BBC9;"/>
				<clipPath id="SVGID_00000158004550650464451400000012407549656974747520_">
					<use xlink:href="#SVGID_00000054983963019341308270000016246716564098066586_"  style="overflow:visible;"/>
				</clipPath>
				<g style="clip-path:url(#SVGID_00000158004550650464451400000012407549656974747520_);">
					<path class="st4" d="M311.8,637.1c0,0-20.7-42-26.5-83.2"/>
					<path class="st4" d="M288.1,569.6c0,0-12.4,19.2-13.8,29.6"/>
					<path class="st4" d="M316.1,586.6c0,0-12.3-6.3-25.8-8.1"/>
					<path class="st4" d="M285.6,617.4c0,0,3.5-23,6.9-29.5"/>
					<path class="st4" d="M318.5,608.6c0,0-12.7-6.9-21.5-9.1"/>
					<path class="st4" d="M298.5,629.6c0,0-0.6-10.6,2.7-17.2"/>
					<path class="st4" d="M306,568.6c0,0-12.8-4.9-19-4.7"/>
					<path class="st4" d="M316.9,628.1c0,0-6.9-6.2-12.1-6.8"/>
				</g>
			</g>
		</g>
		<g>
			<g>
				<defs>
					<path id="SVGID_00000013873030878266860660000018220184664730092988_" d="M298.7,549.2c0,0,2.6,39.6,49.6,37
						c0,0-0.1-6.3-2.7-13.9c-1.7-0.5-4.4-1.3-6.9-1.6c0,0,3.2-0.6,6.3,0C340.4,557.8,328.4,542.6,298.7,549.2z"/>
				</defs>
				<use xlink:href="#SVGID_00000013873030878266860660000018220184664730092988_"  style="overflow:visible;fill:#73BBC9;"/>
				<clipPath id="SVGID_00000003104865327007645400000014215588511341287312_">
					<use xlink:href="#SVGID_00000013873030878266860660000018220184664730092988_"  style="overflow:visible;"/>
				</clipPath>
				<g style="clip-path:url(#SVGID_00000003104865327007645400000014215588511341287312_);">
					<path class="st4" d="M351.9,588.8c0,0-25.6-25.9-54.3-40.5"/>
					<path class="st4" d="M308.3,554.3c0,0,17.2-4.2,25.2-2.6"/>
					<path class="st4" d="M313.7,579.1c0,0-1.5-10.6,0.6-21"/>
					<path class="st4" d="M344,564.5c0,0-17.8-3.3-23.4-2.4"/>
					<path class="st4" d="M329.2,586.5c0,0-1.9-11-1.2-18.1"/>
					<path class="st4" d="M349.7,577.1c0,0-7.6-3.2-13.3-2.4"/>
					<path class="st4" d="M303,567.2c0,0-0.3-10.6,1.4-15.1"/>
					<path class="st4" d="M343.9,590.2c0,0-2.8-6.7-1.9-10.6"/>
				</g>
			</g>
		</g>
		<g>
			<path class="st1" d="M24.2,614.4l-0.2-2c7.7-0.8,15.6-0.9,23.2-0.9c6.2,0,12.6-0.1,18.8-0.5c33.1-2.4,65.6-17.2,89.1-40.5
				l1.5,1.5c-23.9,23.7-56.9,38.7-90.4,41.1c-6.3,0.5-12.8,0.5-19,0.5C39.6,613.6,31.8,613.6,24.2,614.4z"/>
			<path class="st1" d="M90,615.4c-0.9,4.2,1.4,8.5,2.3,12.7c0.9,4.2,1,9-1.6,12.5c-0.5,0.6-1.1,1.2-1.8,1.5c-0.7,0.3-1.5,0.2-2.2,0
				c-1.8-0.5-3.3-2-4.1-3.8c-0.8-1.7-1.1-3.7-1.2-5.6c-0.5-7,0.5-14.6,4.8-20.1c1.3-1.6,4.8-4.6,6.8-5.3
				C92.2,609.8,90.8,611.6,90,615.4z"/>
			<path class="st1" d="M78,610.7c0,0-27.2-9.9-33.3-29.7c-6.1-19.9-19.8-5.5-12,6.2C45.2,605.8,78,610.7,78,610.7z"/>
			<path class="st1" d="M63.1,612.5c0,0-17.4,13.8-14.9,27.4c2.6,13.6-9.5,18.2-13.6,7.8C30.6,637.4,50.5,612.3,63.1,612.5z"/>
			<path class="st1" d="M107.9,602.4c0,0-18.1,1.4-31-13.7c-12.9-15.1-17.4-2.5-12.3,3.7C71.8,601.2,85.1,605.6,107.9,602.4z"/>
			<path class="st1" d="M53,612.1c0,0-12.1-4.8-15-10.5c-2.9-5.7-7.5-1.5-6.3,1.3S35.8,611.2,53,612.1z"/>
			<path class="st1" d="M45.8,612.5c0,0-13.5,8.8-15.1,15.5c-1.9,8.2-15.1,13.2-13.7,3.7C18.2,623.7,40.4,611.2,45.8,612.5z"/>
			<path class="st1" d="M26.4,613.5c0,0-6.6-2.5-8.1-5.5s-5-4.2-5.3-1.1C12.6,610.2,17.6,613.9,26.4,613.5z"/>
			<path class="st1" d="M27,612.7c0,0-5.6,3-7.4,6.3c-1.8,3.3-6.2,4.3-7.3,0.8C11.2,616.3,20.5,611.7,27,612.7z"/>
			<path class="st1" d="M74.5,611.1c0,0-3.9,7.9-4.1,13.2c-0.2,5.4-3.9,9.8-6.4,6.4C61.5,627.3,68.1,614.8,74.5,611.1z"/>
		</g>
		<g>
			<path class="st6" d="M292.6,106.7c-2.8,5-8.6,7.1-8.6,7.1s-1.4-6.1,1.4-11.1c2.8-5,8.6-7.1,8.6-7.1S295.4,101.7,292.6,106.7z"/>
			<path class="st6" d="M302.1,130.8c-3.6,4.5-9.7,5.6-9.7,5.6s-0.4-6.2,3.2-10.7c3.6-4.5,9.7-5.6,9.7-5.6S305.7,126.3,302.1,130.8z
				"/>
			<path class="st6" d="M271.5,88.7c3.5,4.5,3.1,10.8,3.1,10.8s-6.1-1.1-9.7-5.6S261.8,83,261.8,83S267.9,84.1,271.5,88.7z"/>
			<path class="st6" d="M274.3,108.8c5.7,0.6,9.9,5.3,9.9,5.3s-5.1,3.6-10.8,3c-5.7-0.6-9.9-5.3-9.9-5.3S268.6,108.2,274.3,108.8z"
				/>
			<path class="st6" d="M282.5,130.9c5.7,0.6,9.9,5.3,9.9,5.3s-5.1,3.6-10.8,3c-5.7-0.6-9.9-5.3-9.9-5.3S276.8,130.3,282.5,130.9z"
				/>
			<g>
				<path class="st6" d="M298.6,182.5l-1.2-0.1c0-0.1,0.8-13.7-2.1-31.1c-1.7-10.2-4.2-19.6-7.6-28.1c-4.2-10.6-9.7-19.6-16.3-26.9
					l0.9-0.8c6.7,7.4,12.3,16.6,16.5,27.3c3.4,8.5,6,18.1,7.6,28.3C299.3,168.7,298.6,182.4,298.6,182.5z"/>
			</g>
		</g>
		<g>
			<g>
				<g>
					<path class="st7" d="M407.1,367.5c0,126.4-102.4,228.8-228.8,228.8c-124.5,0-225.8-99.4-228.8-223.2c-0.1-1.9-0.1-3.7-0.1-5.6
						c0-49.8,15.9-96,43-133.6c41.5-57.7,109.3-95.3,185.8-95.3c65.8,0,125.1,27.8,166.9,72.3c33.7,36,56,82.8,60.9,134.8
						C406.7,352.9,407.1,360.2,407.1,367.5z"/>
					<g>
						<path class="st8" d="M200.9,315.7l-8.5,12.4l-16.3,14.1c0,0-2.4,23.7-4.6,25.4c-2.2,1.7,8.5,14.1,8.5,14.1l6,15.2l18.2,2.3
							l21.4-5.6l23.7,1.7l9.6,3.9l-9,16.9l15.2,23.1l-8.5,25.4l6.2,23.7l7.9,20.9c0,0-3.4,10.1,0,10.1c3.4,0,16.9,0,16.9,0
							l33.3-24.8v-28.2c0,0,19.7-23.7,20.9-25.4c1.1-1.7,7.9-27.1,7.9-27.1l18-20.9l-8.5-13.5l-14.1-3.9L322,342.2l-7.9-19.7
							l-21.4-6.8l-16.3,9l-9-9l-9-8.5l-4.5-7.3l-25.4,7.9l-16.9-1.1L200.9,315.7z"/>
						<path class="st8" d="M33.5,388.9l-15.2,20.6l7.6,37.5l14.9,11.8l20.3,16.3l7.9,29.3l24.2,34.9c0,0,10.1,24.2,13,25.4
							c2.8,1.1,15.8,12.4,15.8,12.4l22.5-2.3v-7.3c0,0-17.5-18-18.6-20.3c-1.1-2.3-0.6-25.4,0-28.2c0.6-2.8,14.7-27.1,14.7-27.1
							l-3.9-17.5c0,0,12.4-16.9,12.4-19.7s-2.8-15.2-2.8-15.2l-3.4-21.3l-28.7-8.9l-21.4,2.5l-9-13.5L60,395.7L33.5,388.9z"/>
						<path class="st8" d="M377.3,334.3l-9.6,4.5l16.3,15.8l-16.3,15.2H353l-11.8-24.2L326,332l-11.8-9.6l19.2-17.5l-19.2-5.1
							l-9.6-7.3c0,0-14.6,0-20.8,4c-6.2,3.9-14.3-6.2-14.3-6.2l-19-8.5l-10.1,2.2l-13,13H211l-6.8,7.9l-14.7-10.7l12.4-12.4h20.3
							l3.9-6.2l-7.3-2.2l-0.6-6.2l9.6-3.4l-10.1-9l-7.9,2.2h-10.7v-5.6l16.9-10.1l15.2,15.8h5.6l7.9-7.3l7.9,2.2l14.1,5.1l13.5-2.8
							c0,0,16.3-15.2,16.3-16.9c0-1.7-7.9-5.6-7.9-5.6s-7.9,0-9.6,0c-1.7,0,4.5-14.1,4.5-14.1l-14.3,7.3c0,0,1.3,10.1,0,12.4
							c-1.3,2.2-7.7,6.2-7.7,6.2s-13-9.6-14.7-7.9c-1.7,1.7-7.9,0-7.9,0l-5.1-9.6l13.5-3.4l6.8-10.1l24.2-15.2
							c0,0,11.3,1.7,15.2,3.9c3.9,2.3,11.8,3.4,11.8,3.4l-8.5,9l7.9,9h14.1l22.5-9l3.4-2.7c33.7,36,56,82.8,60.9,134.8l-6.8-2.4
							L377.3,334.3z"/>
						<path class="st8" d="M71.8,290.3c0,3.4-9,14.7-9,14.7l-14.1,6.8l-16.3,15.8l-2.8,27.6l-4,14.7H13.2L7,358.5l-11.8-3.4
							l-11.3,10.7l1.7,11.3c0,0,14.1,9.6,14.6,11.8c0.6,2.3,3.4,9,3.4,9l14.7,7.3v7.9l-29.9-15.8l-31.5-8.5l-7.3-15.8
							c-0.1-1.9-0.1-3.7-0.1-5.6c0-49.8,15.9-96,43-133.6l1.6-1.1l13.2,10.7v10.7l-7.6,6.8l-13.5,4.5v5.1l14.7-1.7l11.3-5.6l11.8-9
							h9.6l-7.9,7.3l-13.5,14.7l-9,12.4l4.2,9l8.2-3.9l0.6,6.2l5.6,7.3l7.9-15.2l3.4-15.2l12.4-7.3l7.3,3.4h14.1
							C66.7,272.9,71.8,286.9,71.8,290.3z"/>
						<polygon class="st8" points="60,217.6 71.8,217.6 71.8,228.3 78,232.8 80.3,259.3 91,259.3 98.9,243.5 115.8,223.3 
							128.2,214.8 149,199.6 151.8,179.9 165.4,164.1 153,159.6 142.2,163.5 112.7,177.6 95.5,182.7 76.9,192.3 46.4,200.7 
							31.2,209.5 31.2,222.7 18.3,232.8 33.5,235.1 43.6,226.6 52.6,216.5 						"/>
					</g>
				</g>
			</g>
			<path class="st2" d="M41,231.7c-0.4-8.2-9.8-19.3-19.7-19.7c9.9-0.9,19-10.8,19.7-19.7c0.4,8.8,10.1,18.9,19.7,19.7
				C51.1,212.6,41.6,223.4,41,231.7z"/>
		</g>
		<g>
			<path class="st2" d="M198,160.3c0,0-11.2,2.6-16.1,7.8c-4.9,5.1-9.6,3.1-9.9,4.7c-0.3,1.6,1.2,8.5,3.2,7.8c2.1-0.7,5-5.7,8.7-5.4
				c3.7,0.3,10.8-0.4,15.8-3.8c5-3.4,2.4-4.2,8.5-7.2c3.7-1.8,1.4-6.6-6.1-3.4C202.2,160.8,200.5,159.6,198,160.3z"/>
			<g>
				<path class="st6" d="M194.5,145.2c1.5-2.7,1.5-6,0.7-9c-0.8-3-2.6-5.6-3.7-8.5c-2-5-2.5-10.9-0.6-15.9c0.2-0.5,0.4-1.1,0.5-1.6
					c-6.5-9.8-6.4,1.8-4.9,9.9c1.7,9.2,6.2,17.4,4.7,21.1c-0.7,1.8-1.9,6.3-2.6,10.8c0.3-0.4,0.6-0.8,0.9-1.2
					C191.1,148.9,193.2,147.4,194.5,145.2z"/>
				<path class="st2" d="M188.6,164.1c2.4,3.3,7.8,5.6,11.4,4.5c3.5-1.1,1.2-14.3,2.5-20.9c1.4-6.6,1.9-12.2-1.2-16.8
					c-2.5-3.9-5.7-12.1-6.7-14.8c-0.2-0.6-0.5-1.2-0.8-1.8c-0.9-1.6-1.7-2.9-2.4-4c-0.2,0.5-0.4,1.1-0.5,1.6
					c-1.8,5-1.3,10.9,0.6,15.9c1.1,2.9,2.9,5.5,3.7,8.5c0.8,3,0.8,6.3-0.7,9c-1.3,2.2-3.4,3.7-5,5.7c-0.3,0.4-0.6,0.8-0.9,1.2
					C187.7,157.1,187.3,162.3,188.6,164.1z"/>
			</g>
			<g>
				<path class="st6" d="M210,181.5c3.1,0.4,5.7,2.4,7.6,4.9c1.9,2.4,2.9,5.4,4.6,8.1c2.8,4.6,7.2,8.5,12.3,10
					c0.5,0.2,1.1,0.3,1.6,0.5c3.9,11.1-5.3,4-10.9-2c-6.3-6.8-10.2-15.4-14.1-16.4c-1.8-0.5-6.1-2.3-10.2-4.4c0.5,0,1,0,1.5,0
					C205,182,207.5,181.2,210,181.5z"/>
				<path class="st2" d="M191.4,174.9c-1.2-3.9,0.2-9.6,3.2-11.8c3-2.1,12.1,7.6,18.2,10.5c6.1,2.9,10.9,5.8,12.7,11
					c1.6,4.4,6.3,11.9,7.8,14.3c0.4,0.6,0.7,1.1,1,1.7c0.8,1.7,1.3,3.1,1.8,4.3c-0.5-0.2-1.1-0.4-1.6-0.5c-5.1-1.5-9.5-5.5-12.3-10
					c-1.6-2.6-2.7-5.6-4.6-8.1c-1.9-2.4-4.6-4.5-7.6-4.9c-2.5-0.3-5,0.5-7.5,0.6c-0.5,0-1,0-1.5,0
					C196.4,179.7,192,176.9,191.4,174.9z"/>
			</g>
		</g>
		<g>
			<path class="st9" d="M189.2,657.6c-0.1,0-0.2,0-0.3-0.1c-0.8-0.2-1.2-1-1-1.8l3-9.8c0.2-0.8,1-1.2,1.8-1c0.8,0.2,1.2,1,1,1.8
				l-3,9.8C190.5,657.3,189.9,657.7,189.2,657.6z"/>
			<path class="st10" d="M187.3,655.8c0,0-0.9,3.7,0,3.8c0.9,0.1,13.6,0.5,13.7-0.1c0.3-2-10.1-3.9-11.2-3.7
				C188.8,656.1,187.4,655.3,187.3,655.8z"/>
			<g>
				<g>
					<path class="st11" d="M168.2,621.5c2.6,0.2,5.3,0.5,7.9,0.8c2.6,0.3,5.3,0.6,7.9,0.9c2.6,0.3,5.3,0.7,7.8,1.1
						c1.3,0.2,2.6,0.4,3.8,0.7c0.6,0.1,1.2,0.3,1.7,0.4c0.3,0.1,0.5,0.1,0.7,0.2l0.3,0.1c0.1,0,0.1,0,0.1,0c0,0,0,0,0,0
						c0,0,0,0-0.1,0l0,0l-0.1-0.1c0,0,0,0-0.1-0.1c0,0-0.1-0.1-0.1-0.1c0,0-0.1-0.1-0.1-0.1c0-0.1-0.1-0.1-0.2-0.2
						c0,0-0.1-0.1-0.1-0.1l-0.1-0.2c0-0.1-0.1-0.1-0.1-0.2l0-0.1l0-0.1c0-0.1-0.1-0.2-0.1-0.3l0-0.1l0-0.1c0,0,0-0.1,0-0.1l0-0.1
						c0-0.1,0-0.1,0-0.2c0,0,0-0.1,0-0.1l0-0.1l0,0c0,0,0,0,0,0c0,0,0,0,0,0c0,0,0,0,0,0c0,0.1,0,0.2,0,0.3
						c-0.1,0.5-0.2,1.1-0.3,1.7c-0.3,1.2-0.7,2.5-1,3.7c-0.8,2.5-1.6,5.1-2.4,7.6c-1.7,5.1-3.5,10.1-5.3,15.2l4.4,1.8
						c2.2-4.9,4.4-9.8,6.6-14.8c1.1-2.5,2.1-5,3.1-7.5c0.5-1.3,1-2.6,1.5-3.9c0.2-0.7,0.5-1.4,0.7-2.2c0.1-0.2,0.1-0.4,0.1-0.7
						l0-0.2c0-0.1,0-0.2,0-0.2c0-0.2,0-0.4,0-0.6l0-0.2c0-0.1,0-0.2,0-0.3c0,0,0-0.1,0-0.2l0-0.2c0,0,0-0.1,0-0.1l0-0.2
						c0-0.1-0.1-0.2-0.1-0.3c0-0.1,0-0.1-0.1-0.1l-0.1-0.1c0-0.1-0.1-0.2-0.1-0.3c0-0.1-0.1-0.1-0.1-0.2c0-0.1-0.1-0.1-0.1-0.2
						c-0.1-0.1-0.2-0.2-0.2-0.3c-0.1-0.1-0.2-0.2-0.2-0.2c-0.1-0.1-0.1-0.1-0.2-0.2l-0.2-0.1l-0.1-0.1l-0.1-0.1l-0.1-0.1
						c-0.1-0.1-0.2-0.1-0.3-0.2l-0.2-0.1c-0.3-0.2-0.5-0.3-0.8-0.4c-0.2-0.1-0.4-0.2-0.6-0.3c-0.4-0.2-0.8-0.3-1.2-0.5
						c-0.7-0.3-1.4-0.5-2.1-0.7c-1.4-0.4-2.7-0.8-4.1-1.2c-2.7-0.7-5.3-1.3-8-2c-2.7-0.6-5.3-1.2-8-1.7c-2.7-0.6-5.3-1.1-8-1.6
						L168.2,621.5z"/>
				</g>
			</g>
			<path class="st11" d="M184.7,660.3l1.9,0.4l-3.2,14.8c-0.1,0.5-0.6,0.9-1.1,0.7l0,0c-0.5-0.1-0.9-0.6-0.7-1.1L184.7,660.3z"/>
			<g>
				<g>
					
						<rect x="231.9" y="647.4" transform="matrix(0.9861 -0.1659 0.1659 0.9861 -106.3281 47.6527)" class="st11" width="0.4" height="26"/>
				</g>
				<g>
					
						<rect x="224.1" y="650.9" transform="matrix(0.7711 -0.6367 0.6367 0.7711 -371.3989 294.7788)" class="st11" width="0.4" height="26"/>
				</g>
				<g>
					
						<rect x="219.1" y="657.9" transform="matrix(0.3494 -0.937 0.937 0.3494 -485.9854 641.9692)" class="st11" width="0.4" height="26"/>
				</g>
				<g>
					
						<rect x="205.5" y="679.3" transform="matrix(0.9863 -0.1651 0.1651 0.9863 -109.2006 45.3998)" class="st11" width="26" height="0.4"/>
				</g>
				<g>
					
						<rect x="209" y="687.1" transform="matrix(0.7713 -0.6365 0.6365 0.7713 -386.6912 298.5201)" class="st11" width="26" height="0.4"/>
				</g>
				<g>
					
						<rect x="216.1" y="692.1" transform="matrix(0.35 -0.9367 0.9367 0.35 -499.6535 664.574)" class="st11" width="26" height="0.4"/>
				</g>
				<g>
					
						<rect x="237.4" y="680.1" transform="matrix(0.9861 -0.1659 0.1659 0.9861 -111.6926 49.0225)" class="st11" width="0.4" height="26"/>
				</g>
				<g>
					
						<rect x="245.2" y="676.6" transform="matrix(0.7711 -0.6367 0.6367 0.7711 -382.8792 314.1313)" class="st11" width="0.4" height="26"/>
				</g>
				<g>
					
						<rect x="250.2" y="669.6" transform="matrix(0.3494 -0.937 0.937 0.3494 -476.6004 678.7253)" class="st11" width="0.4" height="26"/>
				</g>
				<g>
					
						<rect x="238.3" y="673.8" transform="matrix(0.9863 -0.1651 0.1651 0.9863 -107.8395 50.7392)" class="st11" width="26" height="0.4"/>
				</g>
				<g>
					
						<rect x="234.7" y="666" transform="matrix(0.7713 -0.6365 0.6365 0.7713 -367.3488 309.9986)" class="st11" width="26" height="0.4"/>
				</g>
				<g>
					
						<rect x="227.7" y="661" transform="matrix(0.3501 -0.9367 0.9367 0.3501 -462.9108 655.1676)" class="st11" width="26" height="0.4"/>
				</g>
			</g>
			<g>
				<g>
					
						<rect x="130.4" y="660.1" transform="matrix(0.1929 -0.9812 0.9812 0.1929 -532.1714 673.5428)" class="st11" width="26" height="0.4"/>
				</g>
				<g>
					
						<rect x="134.6" y="647.9" transform="matrix(0.9464 -0.323 0.323 0.9464 -206.2603 78.9688)" class="st11" width="0.4" height="26"/>
				</g>
				<g>
					
						<rect x="127.4" y="652.6" transform="matrix(0.6581 -0.753 0.753 0.6581 -457.5665 323.696)" class="st11" width="0.4" height="26"/>
				</g>
				<g>
					
						<rect x="123.6" y="660.4" transform="matrix(0.1934 -0.9811 0.9811 0.1934 -560.7814 664.6109)" class="st11" width="0.4" height="26"/>
				</g>
				<g>
					
						<rect x="111.4" y="681.8" transform="matrix(0.9465 -0.3227 0.3227 0.9465 -213.4051 76.6238)" class="st11" width="26" height="0.4"/>
				</g>
				<g>
					
						<rect x="116.2" y="688.9" transform="matrix(0.6585 -0.7526 0.7526 0.6585 -474.4836 332.551)" class="st11" width="26" height="0.4"/>
				</g>
				<g>
					
						<rect x="123.9" y="692.7" transform="matrix(0.1929 -0.9812 0.9812 0.1929 -569.3783 693.6036)" class="st11" width="26" height="0.4"/>
				</g>
				<g>
					
						<rect x="145.3" y="679.3" transform="matrix(0.9464 -0.323 0.323 0.9464 -215.8519 84.127)" class="st11" width="0.4" height="26"/>
				</g>
				<g>
					
						<rect x="152.5" y="674.5" transform="matrix(0.6581 -0.753 0.753 0.6581 -465.4828 350.0337)" class="st11" width="0.4" height="26"/>
				</g>
				<g>
					
						<rect x="156.2" y="666.8" transform="matrix(0.1934 -0.9811 0.9811 0.1934 -540.7751 701.8113)" class="st11" width="0.4" height="26"/>
				</g>
				<g>
					
						<rect x="142.9" y="671" transform="matrix(0.9465 -0.3227 0.3227 0.9465 -208.286 86.2246)" class="st11" width="26" height="0.4"/>
				</g>
				<g>
					
						<rect x="138.1" y="663.9" transform="matrix(0.6585 -0.7526 0.7526 0.6585 -448.1652 340.4698)" class="st11" width="26" height="0.4"/>
				</g>
			</g>
			
				<rect x="184.1" y="659.8" transform="matrix(1 1.694131e-03 -1.694131e-03 1 1.12 -0.3199)" class="st12" width="10.4" height="2.2"/>
			<g>
				<path class="st13" d="M183.3,673.9c-0.2,0-0.4-0.1-0.5-0.2c-0.4-0.3-0.4-0.8-0.1-1.2l33.8-39.3c0.3-0.4,0.8-0.4,1.2-0.1
					c0.4,0.3,0.4,0.8,0.1,1.2L184,673.6C183.8,673.8,183.6,673.9,183.3,673.9z"/>
			</g>
			<g>
				<path class="st13" d="M140.3,677.7c-0.1,0-0.3,0-0.4-0.1c-0.5-0.2-0.7-0.8-0.5-1.3l21.8-51.3c0.2-0.5,0.8-0.7,1.3-0.5
					c0.5,0.2,0.7,0.8,0.5,1.3l-21.8,51.3C141.1,677.5,140.7,677.8,140.3,677.7z"/>
			</g>
			<g>
				<path class="st13" d="M152.5,678.1c-7.1,0-12.3-0.4-12.4-0.4c-0.5,0-0.8-0.4-0.8-0.9c0-0.5,0.4-0.8,0.9-0.8
					c0.2,0,22.7,1.6,38.8-1.8c0.5-0.1,0.9,0.2,1,0.6c0.1,0.5-0.2,0.9-0.6,1C170.8,677.7,160.4,678.1,152.5,678.1z"/>
			</g>
			<g>
				<path class="st12" d="M234.8,708.1c-17.3,0-31.3-14.1-31.3-31.4s14.1-31.3,31.4-31.3s31.3,14.1,31.3,31.4
					C266.1,694.1,252.1,708.1,234.8,708.1z M234.9,648.8c-15.4,0-28,12.5-28,27.9s12.5,28,27.9,28c15.4,0,28-12.5,28-27.9
					C262.8,661.4,250.3,648.8,234.9,648.8z"/>
			</g>
			<g>
				<path class="st12" d="M140.1,707.9c-17.3,0-31.3-14.1-31.3-31.4s14.1-31.3,31.4-31.3s31.3,14.1,31.3,31.4
					S157.4,707.9,140.1,707.9z M140.2,648.7c-15.4,0-28,12.5-28,27.9c0,15.4,12.5,28,27.9,28c15.4,0,28-12.5,28-27.9
					C168.1,661.2,155.6,648.7,140.2,648.7z"/>
			</g>
			<circle class="st12" cx="182.5" cy="674.3" r="6.9"/>
			<circle class="st13" cx="182.5" cy="674.3" r="4.7"/>
			<g>
				<path class="st10" d="M182.6,682.9c0,0-0.1,0-0.1,0c-5.1-0.1-12.9-0.3-20.4-0.5c-8.1-0.2-16.5-0.5-22-0.6
					c-2.9,0-5.2-2.4-5.2-5.2c0-2.8,2.2-5,5.2-5.2l0,0c5.5-0.4,13.9-1.7,22-2.9c7.5-1.2,15.2-2.4,20.4-2.8c2.1-0.2,4.2,0.6,5.8,2.1
					c1.8,1.7,2.9,4.1,2.9,6.6c0,2.3-0.9,4.5-2.6,6.2C186.9,682,184.8,682.9,182.6,682.9z M140.2,672c-2.6,0.2-4.6,2.1-4.6,4.5
					c0,2.5,2,4.5,4.6,4.6c5.5,0.1,13.9,0.3,22,0.6c7.5,0.2,15.3,0.4,20.4,0.5c0,0,0.1,0,0.1,0c2,0,4-0.8,5.5-2.2
					c1.5-1.5,2.4-3.5,2.4-5.7c0-2.3-1-4.5-2.6-6.1c-1.5-1.4-3.4-2.1-5.3-1.9c-5.1,0.4-12.9,1.6-20.3,2.8
					C154.1,670.3,145.7,671.7,140.2,672L140.2,672z"/>
			</g>
			<g>
				<path class="st13" d="M216.4,632.9C216.4,632.9,216.4,632.9,216.4,632.9l-55.8-1.1c-0.6,0-1.2-0.4-1.1-0.9
					c0-0.5,0.6-0.9,1.2-0.9l55.8,1.1c0.6,0,1.2,0.4,1.1,0.9C217.5,632.5,217,632.9,216.4,632.9z"/>
			</g>
			<ellipse transform="matrix(0.2314 -0.9729 0.9729 0.2314 -552.9052 656.0734)" class="st14" cx="138.8" cy="678" rx="4" ry="4"/>
			<circle class="st13" cx="138.8" cy="678" r="1.5"/>
			<path class="st13" d="M235.4,676.1c-0.1-0.1-8.2-7-10.5-13.8c-2.2-6.4-7.6-31.9-8.5-36.5l4.9-1.9c0,0,0.1,0,0.1-0.1
				c0.4-0.2,0.5-0.6,0.4-1c-0.1-0.2-0.2-0.4-0.4-0.5c-0.1,0-0.2-0.1-0.3-0.1c-0.1,0-0.2,0-0.4,0.1l-0.9,0.4l-4.7,1.8
				c-0.4,0.2-0.6,0.6-0.5,1c0.3,1.2,6.3,30.3,8.8,37.4c2.5,7.2,10.7,14.2,11,14.5c0.2,0.1,0.4,0.2,0.5,0.2c0.2,0,0.5-0.1,0.6-0.3
				C235.8,676.9,235.8,676.4,235.4,676.1z"/>
			
				<ellipse transform="matrix(0.1619 -0.9868 0.9868 0.1619 -470.9753 798.9788)" class="st14" cx="234.9" cy="676.7" rx="3.6" ry="3.6"/>
			<path class="st12" d="M174.4,622.9c0-0.7-0.6-1.3-1.3-1.3l-14.4-0.6c-0.9,0-1.5,0.7-1.5,1.5l0,2.4c0,1,0.9,1.7,1.8,1.6l14.3-2.2
				C173.9,624.1,174.4,623.6,174.4,622.9L174.4,622.9z"/>
			<circle class="st13" cx="234.9" cy="676.7" r="1.5"/>
			<path class="st13" d="M225.5,622.7c0,0.2,0,0.4-0.1,0.6c-0.3,1.2-1.4,2.1-2.7,2.1c-0.9,0-1.6-0.4-2.1-1c-0.3-0.3-0.5-0.7-0.5-1.1
				c0-0.2-0.1-0.4-0.1-0.6c0-0.2,0-0.4,0.1-0.6c0.3-1.2,1.4-2.1,2.6-2.1C224.3,620,225.5,621.3,225.5,622.7z"/>
			<path class="st12" d="M223.8,622.7c0,0.1,0,0.2,0,0.2c-0.1,0.5-0.5,0.8-1,0.8c-0.3,0-0.6-0.2-0.8-0.4c-0.1-0.1-0.2-0.3-0.2-0.4
				c0-0.1,0-0.1,0-0.2c0-0.1,0-0.2,0-0.2c0.1-0.5,0.5-0.8,1-0.8C223.4,621.7,223.8,622.2,223.8,622.7z"/>
			<path class="st11" d="M173.6,688.7l-1.6-1.2l10.1-13.4c0.3-0.4,0.9-0.5,1.4-0.2l0,0c0.4,0.3,0.5,0.9,0.2,1.4L173.6,688.7z"/>
			
				<rect x="169.1" y="686.5" transform="matrix(1 1.694131e-03 -1.694131e-03 1 1.1651 -0.2943)" class="st12" width="10.4" height="2.2"/>
			<path class="st9" d="M152.3,700.9c-0.1,0-0.2,0-0.3-0.1c-0.8-0.2-1.2-1-0.9-1.8l3.1-9.8c0.2-0.7,1-1.2,1.8-0.9
				c0.8,0.2,1.2,1,0.9,1.8l-3.1,9.8C153.6,700.6,153,701,152.3,700.9z"/>
			<path class="st10" d="M151.2,699.2c0,0-2.3,3-1.6,3.4c0.8,0.5,12.2,6.1,12.5,5.6c1.1-1.7-7.6-7.7-8.6-8
				C152.5,700,151.5,698.7,151.2,699.2z"/>
			<path class="st9" d="M217.9,615.6c0,0,6.7,3,7.2,4.8c0.5,1.8-6.3-0.3-8.8-4L217.9,615.6z"/>
			<path class="st8" d="M218.1,614.3c-0.4,1.1-0.7,2.2-1.1,3.3c-17.6-5.3-24.8-13.7-25.5-31.8c-0.1-2.8,0.8-3.1,3.1-3
				c0.2-0.4,0.2-0.4,0,0c2.3,0.1,2.7,0.7,2.9,3.5C198.2,604.7,201.8,606.3,218.1,614.3z"/>
			<g>
				<path class="st11" d="M156.9,694.2c-1.5-0.5-3-1-4.5-1.6c12.8-28.4,16.2-54.8,7.7-84.6c4-1.2,6.8-0.2,10.8-1.3
					C175.3,637.4,168.7,665.9,156.9,694.2z"/>
			</g>
			<g>
				<g>
					<path class="st8" d="M159.3,608.5c3.2,1,6.5-0.4,9.6,1.3c2.1,1.2,4.1,2.9,6.1,4.3c0.7-11.5,2.1-22.5,14.6-25.2
						c10.6-2.3,9.5-12.2-0.5-13.6c-2-0.3-3.1-0.2-6.4,1C166.7,581.8,161.2,591.5,159.3,608.5z"/>
				</g>
			</g>
			<path class="st9" d="M198.6,571.6c-1.9,3.9-0.7,8.3,1.6,9.5c2.4,1.2,5-1.4,7-5.3c1.9-3.9,1-6.8-1.4-8S200.5,567.7,198.6,571.6z"
				/>
			<path class="st2" d="M196.2,572c-0.4,0.9-0.1,2.5,0.5,2.8c0.7,0.3,1.2-0.3,1.6-1.2c0.4-0.9,0.3-2-0.3-2.3S196.6,571.1,196.2,572z
				"/>
			<path class="st15" d="M199.2,568.8c0,0,2-2.1,4.4-2c2.4,0.1,6,2,5.2,5.9c0,0-0.9,2.7-4,1.3c-3.1-1.3-1.7-2.6-4-2
				c-2.3,0.6-2.9-1.2-3.4-1L199.2,568.8z"/>
			<path class="st9" d="M198.9,572.2l3.3,3.1c-0.4,0.5-4.5,4.7-6.3,6c-0.6,0.3-1.6-0.3-2.2-1.4c-0.5-1-0.6-2-0.1-2.5l0,0
				C194.7,576.6,197.4,573.8,198.9,572.2z"/>
			<path class="st15" d="M198.6,574.1c1,0.2,0.7,1.1,0.8,2.9c0,1.8,1.7,4.2,5,2.4c2.1-1.1-0.5,2-0.5,2c-1.5,1.2-2.8,1.4-4.2,0.7
				c-1.9-1-3.3-3.5-3.3-6.5C197,574.8,198,574,198.6,574.1z"/>
			<path class="st15" d="M204.6,579.5c0,0-0.1,0-0.1-0.1c-0.8-0.5-4.3-2.5-5.8-2.1c-1.6,0.5,1.5,1.3,2.8,1.4
				c1.3,0.1,1.6,0.9,2.2,1.4C204.3,580.6,205.3,580.5,204.6,579.5z"/>
			<path class="st9" d="M170.8,550.9c0,0,5.1-5.8,4.7-7.7c-0.4-1.9-5.8,3.1-6.6,7.7L170.8,550.9z"/>
			<path class="st8" d="M171.7,550.1c-1.2-0.8-2.3-1.6-3.4-2.5c-6.9,23.2-3.4,30.3,18.7,33.5c3.4,0.5,3.9-0.2,3.8-3.2
				c-0.1-2.3-1.3-2.5-4.3-2.9C166.7,572.6,168.1,571.8,171.7,550.1z"/>
		</g>
		<g>
			<g>
				<g>
					<path class="st9" d="M99.7,198.2c0,0,1.4,2.4,1,2.7c-0.4,0.3-11,3.4-11.9,3.2c-0.9-0.3,1.2-1.6,1.2-1.6s4.7-2.7,7.5-3.7
						C97.5,198.8,99.6,198.1,99.7,198.2z"/>
					<path class="st9" d="M92.2,162.4c-0.9-1.1-1.8-1.5-2.9-1.2c-1.3,0.3-2,1.6-1.6,2.9l10,34.8c0.2,0.5,0.7,0.9,1.3,0.7
						c0.6-0.1,0.9-0.7,0.8-1.3l-0.3-1.5C95.3,172.3,95.2,166.4,92.2,162.4z"/>
					<path class="st16" d="M88.2,130.5c-1.9-3.9-4.3-4-5.8-3.6c-0.1,0-0.2,0-0.3,0c-1.3,0.2-2.1,1.5-1.8,2.7l7.6,35.4
						c0.1,0.6,0.7,0.9,1.2,0.8c0.2,0,0.4-0.1,0.5-0.2c1.2-0.7,1.9-1.9,1.9-3.3C91.3,155.2,90.7,135.5,88.2,130.5z"/>
					<path class="st17" d="M93.4,200.4c1.2,0.2,3.2,0.1,5.3-0.5c0.7-0.2,1.3-0.4,1.9-0.6c0.4,0.9,0.7,2,0.3,2.2
						c-0.8,0.3-12.4,3.6-12.6,3.1C87.9,203.5,90.7,201.7,93.4,200.4z"/>
					<path class="st18" d="M80.3,130.1c0,0,3.5,21.4,6.5,33.7c3,12.3,5.6,22.3,5.6,22.3s6.2-1.2,6.8-1.7c0.6-0.6-3.3-22.1-5.9-25
						c0,0-2.8-28.4-4.6-31.9L80.3,130.1z"/>
					<path class="st16" d="M89.2,132.8c-0.9-4.2,0.8-5.8,2.3-6.4c0.1-0.1,0.2-0.1,0.3-0.2c1.1-0.6,2.6-0.2,3.1,1l16,32.4
						c0.3,0.5,0.1,1.1-0.4,1.4c-0.2,0.1-0.3,0.1-0.5,0.1c-1.3,0.2-2.7-0.3-3.5-1.4C102.2,154.1,90.4,138.3,89.2,132.8z"/>
					<path class="st9" d="M125.2,192.1c0,0,0,2.8,0.5,2.8c0.5,0,11.3-2.5,11.9-3.1c0.6-0.7-1.9-0.8-1.9-0.8s-5.4,0-8.4,0.5
						C127.4,191.5,125.2,191.9,125.2,192.1z"/>
					<path class="st9" d="M105.9,160.6c-0.1-1.5,0.2-2.4,1.3-3c1.1-0.6,2.6-0.1,3.2,1.1l17.1,34.1c0.3,0.5,0.1,1.2-0.4,1.5
						c-0.5,0.3-1.1,0.1-1.4-0.4l-0.8-1.4C110.5,170.4,106.5,165.7,105.9,160.6z"/>
					<path class="st17" d="M131.7,190.8c-1,0.8-2.7,1.6-4.8,2.2c-0.7,0.2-1.3,0.3-1.9,0.4c0.1,1,0.4,2.1,0.8,2
						c0.8-0.1,12.5-3,12.5-3.5C138.1,190.8,134.7,190.7,131.7,190.8z"/>
					<path class="st18" d="M85.5,129.5c0,0,11.9,24.6,18.5,28.8c0,0,0.4,7.7,10.1,21l7.5-1.9c0,0-9.5-18.7-11.3-22.6
						c-1.9-3.9-15.1-31.1-15.1-31.1L85.5,129.5z"/>
					<path class="st17" d="M74.8,75.8c5.2-3.2,14.7-0.5,15.6,6.2c0.1,0.6,0.1,1.3,0.4,1.8c0.4,0.9,1.3,1.4,2.2,1.7
						c2,0.7,4.2,1,6,2.2c2.9,1.8,4.2,6,2.8,9.4c-1.3,3.1-6.7,6.9-9.9,7c-3.2,0.1-6.2-1.5-8.4-3.8c-0.6-0.6-1.1-1.2-1.7-1.6
						c-1.3-0.7-2.8-0.6-4.2-1c-1.3-0.4-1.7-3.2-2.4-4.3c-1-1.5,0.3-3.4-0.5-5c-0.9-1.9-2.6-3.4-3.1-5.5
						C70.9,80.2,72.5,77.2,74.8,75.8z"/>
					<g>
						<g>
							<path class="st6" d="M97.3,128.4c0.4,0-3.7-13.3-4.6-14.6c-0.9-6-3.6-17.2-5.9-21.9c-2.8-5.8-4.4-7.6-9.7-4.8
								c-1.7,0.9-2,5.7-1.9,9.1s-0.6,3.9,2.3,9.5c1,2,2.1,16,1.9,20c-0.1,1.2,0.7,4.8,0.3,6.1c0.8,0.3,1.8,0.7,2.6,0.7
								C88,132.6,91.8,129,97.3,128.4z"/>
						</g>
					</g>
					<path class="st6" d="M79.8,91.8c1.3-2.7-1.1-3.5-1.2-3.5c-0.7-0.6-2.3-0.1-3,0.8l-12.8,18.7c-0.3,0.3,0.2,0.7,0.5,1
						c0.1,0.1,0.2,0.1,0.3,0.2c0.9,0.4,1.2,1.5,1.9,0.9C69.4,106.6,78.1,95.3,79.8,91.8z"/>
					<path class="st6" d="M81.1,91c-2-1.9-0.1-3.6-0.1-3.7c0.4-0.8,2-1,2.9-0.5l18.2,12.7c0.3,0.2,0,0.7-0.2,1.1
						c-0.1,0.1-0.1,0.2-0.2,0.3c-0.6,0.7-1.8,0.9-2.6,0.6C94.8,100.2,83.7,93.5,81.1,91z"/>
					<path class="st17" d="M80.1,84.4c0,0,3.5-2.5,2.8-6.5c-1-5.4-7.1-6.5-9.5-4c-2.2,2.3-1.1,4.5-0.7,5
						C73.1,79.3,80.1,84.4,80.1,84.4z"/>
					<path class="st9" d="M79.9,79l-4.4,0.8c0.1,0.6,1.2,6.2,2,8.3c0.3,0.6,1.5,0.6,2.5,0c1-0.5,1.5-1.4,1.4-2l0,0
						C81.1,84.9,80.3,81.1,79.9,79z"/>
					<path class="st9" d="M79.8,79.7c0.2,3.5-2.1,6.5-4.3,6.7c-2.2,0.1-3.4-2.7-3.6-6.2c-0.2-3.5,1.4-5.4,3.6-5.6
						C77.7,74.5,79.6,76.2,79.8,79.7z"/>
					<path class="st17" d="M73,74.9c0,0,2,4.3,6.6,4.8c2.4,0.2,2.2-3.3,2.2-3.3l-3-2.7c0,0-2.1-0.9-3.4-0.4
						C75.3,73.2,73,74.9,73,74.9z"/>
					<path class="st17" d="M72.1,77.9c0,0,3.4-2.3,3.6-3.8c0.2-1.5-1.7-0.8-1.7-0.8S71.8,74.9,72.1,77.9z"/>
					<path class="st17" d="M77.4,73.4c0,0-2-0.9-1.3-2.8c0.7-1.9,2.9-1.8,3.7-0.7c0.9,1.2,0.4,2.3-0.1,2.8
						C79.2,73.3,78.2,73.7,77.4,73.4z"/>
					<path class="st9" d="M81.8,80.5c-0.1,0.9-1.2,1.8-1.8,1.7c-0.6-0.1-0.7-0.8-0.5-1.7c0.1-0.9,0.8-1.6,1.4-1.5
						C81.5,79.2,81.9,79.7,81.8,80.5z"/>
					<path class="st9" d="M100.3,120.7c-0.1,0.3-0.2,0.6-0.4,0.8c-1.2,1.8-3.7,5.1-5,5.3c-1.8,0.2,0.9-5.5,4.6-7.8L100.3,120.7z"/>
					<g>
						<path class="st6" d="M100.4,120.8c1.6-4.8,3.3-15.8,3.1-19c-0.2-2.7-1.8-2.5-1.9-2.5c-0.8-0.2-2,0.8-2.2,1.7L98,120.4
							L100.4,120.8z"/>
					</g>
					<path class="st9" d="M47.2,100.2c-0.3,0.1-0.6,0.1-0.9,0c-2.2-0.3-6.2-1.1-6.9-2.3c-0.9-1.5,5.4-1.5,9.1,0.8L47.2,100.2z"/>
					<g>
						<path class="st6" d="M46.6,100.3c3.9,3.2,13.5,8.9,16.6,9.9c2.5,0.8,3-0.7,3-0.8c0.5-0.7,0-2.2-0.8-2.6l-17.6-8.5L46.6,100.3z
							"/>
					</g>
				</g>
			</g>
			<g>
				<g>
					<g>
						<path class="st19" d="M46.2,117.6c-1.9-2.9-4.5-15.9-4.8-17.4l0-0.1c0-0.1-1.6-13.5-4.9-18.9c-1.7-2.8-2.5-5.7-3.1-8.2
							c-0.7-2.6-1.3-4.9-2.7-6c-1.9-1.5-10.2-11.6-16.1-21.1c-4.5-7.1-7.1-16.6-7.2-17l1.9-0.5c0,0.1,2.6,9.7,6.9,16.5
							c6,9.5,14.1,19.3,15.7,20.6c2,1.5,2.6,4.1,3.4,7.1c0.6,2.4,1.3,5.1,2.9,7.6c3.5,5.6,5.1,18.7,5.2,19.7
							c0.8,4,3.1,14.5,4.5,16.7L46.2,117.6z"/>
						<path class="st19" d="M36.3,75.8l-2,0.5c-0.7-3.1,0.7-5.9,2.1-8.7c0.8-1.5,1.6-3.1,2-4.7c0.2-1,0.3-2,0.4-3
							c0.1-1.3,0.2-2.6,0.6-3.9c0.6-2.2,2-4,3.2-5.7c0.3-0.5,0.7-0.9,1-1.4c1.8-2.6,2.5-4.8,2.1-6.7l2-0.4c0.5,2.4-0.3,5.1-2.4,8.2
							c-0.3,0.5-0.7,1-1,1.4c-1.2,1.7-2.4,3.3-2.9,5.1c-0.3,1.1-0.4,2.2-0.5,3.5c-0.1,1.1-0.2,2.2-0.4,3.3c-0.4,1.8-1.3,3.5-2.1,5.1
							C37,71,35.7,73.4,36.3,75.8z"/>
						<path class="st19" d="M27.5,63.2c-1.3-4-0.6-8.2,0.1-12.3l0.1-0.5c0.6-3.9-0.6-16-2.3-19.5l1.8-0.9c1.9,3.9,3.2,16.4,2.5,20.7
							l-0.1,0.5c-0.6,3.8-1.3,7.8-0.1,11.3L27.5,63.2z"/>
						<path class="st19" d="M40.8,57.7l-0.6-0.9c0.5-0.4,1-0.9,1.5-1.3c0.6-0.5,1.1-1,1.8-1.5c1.2-0.9,2.5-1.5,3.8-2.1
							c1.8-0.9,3.6-1.7,4.8-3.1c0.6-0.6,1-1.4,1.5-2.1l5.1-8.3l0.9,0.6l-5.1,8.3c-0.5,0.8-1,1.6-1.6,2.3c-1.4,1.6-3.3,2.5-5.2,3.3
							c-1.2,0.6-2.5,1.2-3.6,2c-0.6,0.4-1.1,0.9-1.7,1.4C41.9,56.8,41.4,57.3,40.8,57.7z"/>
						<path class="st19" d="M52.2,49.7c0,0-0.1,0-0.1,0L52,49.2c0.3,0,0.5-0.4,0.7-1c0.3-1.1,0.4-2.2,0.5-3.3
							c0.1-1.1,0.2-2.2,0.5-3.4c0.3-1.2,0.9-2.5,1.4-3.7c0.5-1.2,1-2.5,1.3-3.6l0.5,0.1c-0.3,1.2-0.9,2.5-1.4,3.7
							c-0.5,1.2-1,2.5-1.3,3.6c-0.3,1.1-0.4,2.2-0.5,3.3c-0.1,1.1-0.2,2.2-0.5,3.4C53.2,48.6,52.9,49.5,52.2,49.7z"/>
						<path class="st19" d="M29.2,51.5l-1.1-0.2c0.4-2.2,2.5-3.6,4.2-4.8c0.3-0.2,0.5-0.3,0.8-0.5c3.4-2.4,6.1-5.8,7.4-9.7l1,0.4
							c-1.4,4.1-4.2,7.8-7.8,10.3c-0.3,0.2-0.5,0.4-0.8,0.5C31.3,48.6,29.5,49.7,29.2,51.5z"/>
						<path class="st19" d="M29.7,65c-0.8-0.5-1.8-0.5-3.2-0.2c0,0,0,0-0.1,0c-0.3,0.1-0.6,0.2-0.9,0.2c-0.9,0.3-1.8,0.5-2.7,0.5
							c-0.8,0-1.6-0.2-2.4-0.4c-0.9-0.3-1.8-0.5-2.7-0.4l-0.1-0.5c1-0.1,2,0.1,2.9,0.4c0.7,0.2,1.5,0.4,2.3,0.4
							c0.9,0,1.7-0.2,2.5-0.5c0.3-0.1,0.6-0.2,0.9-0.3c1.6-0.4,2.8-0.3,3.7,0.2L29.7,65z"/>
					</g>
					<path class="st19" d="M23.5,56.8c-1.1-1.1-2.7-1.4-4.1-1.6c-1.6-0.2-3.3-0.3-5-0.4C12,54.7,9.6,54.6,7.2,54
						c-1.6-0.4-2.7-0.9-3.6-1.6c-0.7-0.5-1.2-1.2-1.7-1.9c-0.2-0.2-0.4-0.5-0.5-0.7c-1.3-1.5-2.9-2.8-4.7-3.7l0.4-0.8
						c1.9,0.9,3.6,2.3,4.9,3.9c0.2,0.2,0.4,0.5,0.6,0.7c0.5,0.6,1,1.2,1.5,1.7c0.8,0.7,1.8,1.1,3.3,1.5c2.3,0.5,4.7,0.6,7,0.7
						c1.7,0.1,3.4,0.1,5.1,0.4c1.5,0.2,3.3,0.6,4.6,1.9L23.5,56.8z"/>
					<path class="st7" d="M5.1,32.8c-2.3-0.4-3.9-2.4-3.9-2.4s2.2-1.2,4.5-0.8C8.1,30.1,9.7,32,9.7,32S7.5,33.2,5.1,32.8z"/>
					<path class="st6" d="M28.3,22c0.6-1.5,2.1-2.2,2.1-2.2s0.5,1.6-0.2,3.1c-0.6,1.5-2.1,2.2-2.1,2.2S27.6,23.4,28.3,22z"/>
					<path class="st7" d="M10.2,22.7c-0.5,1.5-1.9,2.4-1.9,2.4S7.7,23.5,8.2,22c0.5-1.5,1.9-2.4,1.9-2.4S10.7,21.1,10.2,22.7z"/>
					<path class="st6" d="M-3.6,37.8c0.5,1.5,0,3.1,0,3.1s-1.5-0.9-2-2.4c-0.5-1.5,0-3.1,0-3.1S-4.1,36.3-3.6,37.8z"/>
					<path class="st6" d="M35.6,41.9c0.1,1.6-0.9,3-0.9,3s-1.2-1.2-1.2-2.8c-0.1-1.6,0.9-3,0.9-3S35.5,40.3,35.6,41.9z"/>
					<path class="st7" d="M45.3,27.2c-1.6,2.8-4.8,4-4.8,4s-0.6-3.4,1-6.2c1.6-2.8,4.8-4,4.8-4S46.9,24.4,45.3,27.2z"/>
					<path class="st7" d="M32.5,37.2c-0.8,3.1-3.6,5.2-3.6,5.2s-1.5-3.1-0.7-6.2C29,33,31.8,31,31.8,31S33.3,34.1,32.5,37.2z"/>
					<path class="st6" d="M43.6,36.6c-1.6,1.7-4.1,2-4.1,2s0.2-2.5,1.8-4.2c1.6-1.7,4.1-2,4.1-2S45.2,34.8,43.6,36.6z"/>
					<path class="st7" d="M20.3,23.8c-1.5-5.5,0.9-11,0.9-11s5,3.4,6.5,8.9c1.5,5.5-0.9,11-0.9,11S21.9,29.3,20.3,23.8z"/>
					<path class="st6" d="M62.3,36.6c-1.2,2-3.6,2.8-3.6,2.8S58.4,37,59.6,35c1.2-2,3.6-2.8,3.6-2.8S63.6,34.6,62.3,36.6z"/>
					<path class="st6" d="M55,37c0.3,1.6-0.6,3.1-0.6,3.1s-1.3-1.1-1.5-2.7c-0.3-1.6,0.6-3.1,0.6-3.1S54.7,35.4,55,37z"/>
					<path class="st7" d="M27.5,49.4c0.5,1.5-0.1,3.1-0.1,3.1s-1.5-0.9-2-2.4c-0.5-1.5,0.1-3.1,0.1-3.1S26.9,47.9,27.5,49.4z"/>
					<path class="st7" d="M22.5,62.3c0.3,1.6-0.6,3.1-0.6,3.1s-1.3-1.1-1.5-2.7c-0.3-1.6,0.6-3.1,0.6-3.1S22.2,60.7,22.5,62.3z"/>
					<path class="st7" d="M50.8,39.1c-1.1,4.2-4.8,6.9-4.8,6.9s-1.9-4.1-0.8-8.4c1.1-4.2,4.8-6.9,4.8-6.9S51.9,34.9,50.8,39.1z"/>
					<path class="st7" d="M41.2,31.1c0.7,3.9-1.4,7.5-1.4,7.5S36.7,36,36,32.1c-0.7-3.9,1.4-7.5,1.4-7.5S40.5,27.2,41.2,31.1z"/>
					<path class="st7" d="M24.8,33.8c3.8,3.4,4.6,8.7,4.6,8.7s-5.4-0.2-9.2-3.5c-3.8-3.4-4.6-8.7-4.6-8.7S21,30.4,24.8,33.8z"/>
					<path class="st6" d="M53,52.6c1.1,1.2,1.2,2.9,1.2,2.9s-1.7-0.2-2.8-1.4c-1.1-1.2-1.2-2.9-1.2-2.9S51.9,51.4,53,52.6z"/>
					<path class="st7" d="M60.2,37.3c1.7-1.2,3.8-1.1,3.8-1.1s-0.5,2.1-2.2,3.3c-1.7,1.2-3.8,1.1-3.8,1.1S58.6,38.5,60.2,37.3z"/>
					<path class="st7" d="M9.1,47.7c1.4,2.9,0.6,6.1,0.6,6.1s-3.1-1.4-4.4-4.2c-1.4-2.9-0.6-6.1-0.6-6.1S7.7,44.8,9.1,47.7z"/>
					<path class="st7" d="M13.3,68c-3.5,0.6-6.7-1.2-6.7-1.2s2.4-2.9,5.9-3.5c3.5-0.6,6.7,1.2,6.7,1.2S16.7,67.3,13.3,68z"/>
					<path class="st6" d="M16.2,63.5c-1.2-1.1-1.5-2.7-1.5-2.7s1.7,0,2.9,1.1c1.2,1.1,1.5,2.7,1.5,2.7S17.4,64.6,16.2,63.5z"/>
					<path class="st7" d="M9.7,44.9c-3.5-3-4.3-7.9-4.3-7.9s4.9,0.1,8.4,3.1c3.5,3,4.3,7.9,4.3,7.9S13.2,47.9,9.7,44.9z"/>
					<path class="st7" d="M60.1,30.4c-0.8,3.4-3.7,5.5-3.7,5.5s-1.6-3.3-0.8-6.6c0.8-3.4,3.7-5.5,3.7-5.5S60.9,27,60.1,30.4z"/>
					<path class="st7" d="M8.9,24.7c2.2,3.3,1.7,7.4,1.7,7.4s-4-1.2-6.1-4.5s-1.7-7.4-1.7-7.4S6.7,21.4,8.9,24.7z"/>
					<path class="st7" d="M20.4,44.2c-0.6,2.3-2.6,3.8-2.6,3.8s-1.1-2.2-0.6-4.5c0.6-2.3,2.6-3.8,2.6-3.8S20.9,41.9,20.4,44.2z"/>
					<path class="st7" d="M29.8,52.5c1.7-1.6,4.2-1.8,4.2-1.8s-0.3,2.5-2,4.1c-1.7,1.6-4.2,1.8-4.2,1.8S28.1,54.2,29.8,52.5z"/>
					<path class="st19" d="M44,134.5l-0.4,0c0-1-0.5-1.9-1-2.8c-0.3-0.6-0.6-1.2-0.8-1.9c-0.5-1.7-0.1-3.7,1.1-5
						c0.1-0.1,0.2-0.2,0.3-0.4c0.3-0.3,0.6-0.6,0.7-1c0.3-0.6,0.2-1.3,0.1-2c-0.1-0.6-0.2-1.2,0-1.8c0.2-0.8,0.6-1.4,1.1-1.9
						c0.1-0.2,0.2-0.3,0.4-0.5c0.4-0.5,1-1.5,0.6-2.4l0.3-0.2c0.5,1-0.2,2.2-0.6,2.8c-0.1,0.2-0.2,0.3-0.4,0.5
						c-0.5,0.6-0.9,1.1-1,1.8c-0.1,0.5,0,1.1,0,1.7c0.1,0.7,0.2,1.5-0.1,2.2c-0.2,0.4-0.5,0.8-0.8,1.1c-0.1,0.1-0.2,0.2-0.3,0.4
						c-1.1,1.3-1.5,3.1-1,4.7c0.2,0.6,0.5,1.2,0.8,1.8C43.4,132.5,43.9,133.4,44,134.5z"/>
					<path class="st19" d="M58.9,141l-0.4,0c0.4-4.5-1.1-9.2-4-12.6c-0.2-0.2-0.3-0.4-0.5-0.6c-0.6-0.7-1.3-1.4-1.7-2.3
						c-0.4-0.9-0.6-2-0.7-3c-0.2-1.3-0.3-2.6-1.1-3.5c-0.5-0.6-1.1-1-1.6-1.5c-0.8-0.6-1.5-1.2-2-2.1l0.3-0.2c0.5,0.8,1.2,1.4,1.9,2
						c0.6,0.5,1.2,0.9,1.7,1.5c0.8,1.1,1,2.4,1.2,3.7c0.1,1,0.2,2,0.6,2.8c0.4,0.8,1,1.5,1.6,2.2c0.2,0.2,0.3,0.4,0.5,0.6
						C57.8,131.6,59.4,136.4,58.9,141z"/>
					<path class="st19" d="M45.4,127.4c-0.3-0.6-0.2-1.3-0.2-1.9c0-0.4,0-0.8,0-1.2c-0.1-0.6-0.3-1.1-0.6-1.7
						c-0.2-0.4-0.4-0.7-0.5-1.1l0.4-0.1c0.1,0.4,0.3,0.7,0.5,1.1c0.3,0.6,0.6,1.2,0.7,1.8c0.1,0.4,0,0.8,0,1.2
						c0,0.6-0.1,1.2,0.2,1.7L45.4,127.4z"/>
					<path class="st19" d="M41.4,136.6c-0.2-0.7-0.4-1.5-0.3-2.3c0-0.4,0.2-0.7,0.3-1l0.8-2.5l0.4,0.1l-0.8,2.5
						c-0.1,0.3-0.2,0.6-0.2,1c-0.1,0.7,0.1,1.5,0.3,2.2L41.4,136.6z"/>
					<path class="st19" d="M52.3,140.8l-0.4,0.1c-0.2-1.2-0.2-2.4,0.1-3.6c0.1-0.5,0.3-1,0.5-1.4c0.4-1,0.7-1.9,0.7-2.9
						c-0.1-0.8-0.3-1.4-0.6-2.2c-0.3-0.7-0.6-1.5-0.7-2.3c-0.1-1,0.2-2,0.5-2.8l0.4,0.1c-0.3,0.9-0.6,1.8-0.5,2.7
						c0.1,0.7,0.3,1.4,0.6,2.2c0.3,0.7,0.6,1.5,0.7,2.3c0.1,1.1-0.3,2.1-0.7,3.1c-0.2,0.5-0.3,0.9-0.5,1.4
						C52.1,138.5,52.1,139.7,52.3,140.8z"/>
					<path class="st19" d="M47.5,132.7c-0.5-1.3-0.2-2.8,0.2-4c0.1-0.2,0.1-0.4,0.2-0.6c0.3-1,0.6-2.1,0.6-3.2
						c0-0.4-0.1-0.9-0.2-1.3l-1.5-7.7l0.4-0.1l1.5,7.7c0.1,0.4,0.2,0.9,0.2,1.4c0.1,1.1-0.3,2.3-0.6,3.3c-0.1,0.2-0.1,0.4-0.2,0.6
						c-0.3,1.2-0.6,2.5-0.2,3.8L47.5,132.7z"/>
					<path class="st19" d="M59.3,130.8c-1-0.8-2.3-1.8-2.9-3.3c-0.1-0.2-0.1-0.4-0.2-0.5c-0.1-0.2-0.1-0.4-0.2-0.5
						c-0.4-1.1-1.3-1.8-2.3-2.6c-0.9-0.7-1.8-1.5-2.3-2.6l0.3-0.2c0.5,1,1.4,1.7,2.2,2.5c0.9,0.8,1.9,1.6,2.4,2.7
						c0.1,0.2,0.1,0.4,0.2,0.6c0.1,0.2,0.1,0.3,0.2,0.5c0.5,1.3,1.7,2.3,2.7,3.1L59.3,130.8z"/>
					<path class="st19" d="M55.8,118.7c-0.3-0.6-1-1.1-2.1-1.3c-0.1,0-0.3-0.1-0.4-0.1c-0.8-0.2-1.6-0.4-2.2-0.9
						c-0.2-0.2-0.4-0.4-0.6-0.7c-0.2-0.3-0.4-0.5-0.6-0.7c-0.4-0.3-0.9-0.4-1.4-0.5c-0.1,0-0.2,0-0.3-0.1l0,0
						c-0.6-0.2-1.5-0.4-1.9-1l0.3-0.2c0.3,0.5,1.1,0.7,1.6,0.8l0,0c0.1,0,0.2,0,0.3,0.1c0.5,0.1,1.1,0.2,1.5,0.6
						c0.3,0.2,0.5,0.5,0.7,0.8c0.2,0.2,0.3,0.4,0.5,0.6c0.5,0.5,1.3,0.7,2.1,0.8c0.1,0,0.3,0.1,0.4,0.1c1.3,0.3,2,0.8,2.3,1.5
						L55.8,118.7z"/>
					<path class="st19" d="M46.2,121.8l-0.4,0.1c-0.1-0.5,0-0.9,0.1-1.4c0.1-0.4,0.2-0.8,0.1-1.1c0-0.1,0-0.2,0-0.4
						c0-0.1,0-0.2,0-0.3c0-0.3,0-0.5,0-0.8c0-0.7,0.2-1.3,0.3-1.9l0.4,0.1c-0.2,0.6-0.3,1.2-0.3,1.9c0,0.2,0,0.4,0,0.7
						c0,0.1,0,0.2,0,0.3c0,0.1,0,0.3,0,0.4c0,0.4-0.1,0.8-0.2,1.2C46.3,121,46.2,121.4,46.2,121.8z"/>
					<path class="st19" d="M60.5,127.6c-0.6,0.2-1.2-0.1-1.6-0.5c-0.4-0.4-0.7-0.8-1-1.3l-0.1-0.1c-0.3-0.5-0.6-1-1-1.3
						c-0.5-0.3-1-0.4-1.6-0.4c-0.6-0.1-1.3-0.1-1.9-0.6l0.2-0.3c0.5,0.4,1,0.4,1.7,0.5c0.6,0.1,1.2,0.1,1.8,0.5
						c0.5,0.3,0.8,0.9,1.1,1.4l0.1,0.1c0.3,0.4,0.5,0.9,0.9,1.2c0.4,0.4,1,0.5,1.4,0.4l0.1,0.3C60.6,127.5,60.5,127.6,60.5,127.6z"
						/>
					<path class="st19" d="M49.6,136.3l-0.4,0.1c-0.1-0.7-0.3-1.4-0.2-2.1c0-0.4,0.2-0.9,0.3-1.3c0.1-0.4,0.3-0.9,0.3-1.3
						c0.1-0.9-0.3-1.8-0.7-2.7c-0.4-0.8-0.7-1.7-0.7-2.6l0.4,0c0,0.9,0.3,1.7,0.7,2.5c0.4,0.9,0.8,1.8,0.7,2.8
						c0,0.5-0.2,0.9-0.3,1.4c-0.1,0.4-0.2,0.8-0.3,1.2C49.3,135,49.5,135.7,49.6,136.3z"/>
					<path class="st19" d="M56.6,139l-0.4-0.1c0.3-0.8,0-1.6-0.2-2.5c-0.2-0.6-0.3-1.2-0.4-1.8c0-0.6,0.1-1.2,0.2-1.7
						c0.1-0.2,0.1-0.5,0.1-0.7c0.2-0.9,0.1-1.7-0.3-2.2l0.3-0.2c0.4,0.6,0.6,1.4,0.4,2.5c0,0.2-0.1,0.5-0.2,0.7
						c-0.1,0.6-0.2,1.1-0.2,1.6c0,0.6,0.2,1.2,0.3,1.7C56.6,137.2,56.9,138.1,56.6,139z"/>
					<path class="st19" d="M46.2,133.4l-0.4,0.1c-0.1-0.5-0.4-0.9-0.7-1.3c-0.2-0.3-0.5-0.7-0.6-1.1c-0.1-0.3-0.2-0.6-0.3-0.9
						c0-0.1-0.1-0.3-0.1-0.4c-0.1-0.5-0.4-1.1-0.6-1.5c-0.1-0.2-0.3-0.4-0.4-0.6c-0.4-0.6-0.9-1.2-0.9-1.9l0.4,0
						c0,0.6,0.4,1.1,0.8,1.7c0.2,0.2,0.3,0.4,0.4,0.6c0.3,0.5,0.5,1.1,0.7,1.6c0,0.1,0.1,0.3,0.1,0.4c0.1,0.3,0.1,0.6,0.2,0.9
						c0.1,0.4,0.4,0.7,0.6,1C45.8,132.5,46.1,132.9,46.2,133.4z"/>
					<path class="st19" d="M50.4,127.6c-0.4-0.9-0.4-1.8-0.5-2.8c0-0.2,0-0.5,0-0.7c-0.1-0.9-0.3-2.2-1.1-3
						c-0.1-0.1-0.3-0.2-0.4-0.3c-0.3-0.2-0.6-0.5-0.8-0.9l0.3-0.2c0.2,0.3,0.4,0.5,0.7,0.7c0.1,0.1,0.3,0.2,0.4,0.4
						c1,0.9,1.2,2.3,1.3,3.3c0,0.2,0,0.5,0,0.7c0.1,0.9,0.1,1.8,0.5,2.7L50.4,127.6z"/>
					<path class="st19" d="M40.1,128l-0.4,0.1c-0.3-1.4,0-3,1-4.2c0.4-0.5,0.9-0.9,1.3-1.3c0.2-0.2,0.4-0.4,0.6-0.5
						c0.7-0.7,1.2-1.4,1.3-2.1l0.4,0.1c-0.2,1-0.9,1.8-1.4,2.3c-0.2,0.2-0.4,0.4-0.6,0.5c-0.4,0.4-0.9,0.8-1.3,1.2
						C40.1,125.2,39.8,126.6,40.1,128z"/>
					<path class="st19" d="M55.7,116.3c-0.6-0.6-1.5-0.6-2-0.6c-0.3,0-0.7,0.1-1,0.1c-0.4,0.1-0.8,0.1-1.2,0.1c0,0-0.1,0-0.1,0
						c-0.2,0-0.5,0-0.6-0.2l0.3-0.3c0.1,0.1,0.2,0,0.3,0c0,0,0.1,0,0.1,0c0.4,0,0.8-0.1,1.2-0.1c0.3-0.1,0.7-0.1,1.1-0.1
						c0.7,0,1.6,0,2.3,0.7L55.7,116.3z"/>
					<path class="st19" d="M41.4,120.7l-0.2-0.3c0.5-0.2,0.9-0.7,1.2-1.5c0.1-0.1,0.1-0.3,0.1-0.4c0.2-0.6,0.4-1.1,0.8-1.6
						c0.4-0.5,1-0.8,1.4-1.1l1.1-0.6l0.2,0.3l-1.1,0.6c-0.5,0.3-1,0.6-1.3,1c-0.3,0.4-0.5,0.9-0.7,1.5c0,0.1-0.1,0.3-0.2,0.4
						C42.5,119.9,42,120.4,41.4,120.7z"/>
					<path class="st19" d="M55.2,143.1l-0.4,0.1c-0.2-1.4-0.4-2.8-0.9-4.2c0-0.1-0.1-0.2-0.1-0.3c-0.1-0.4-0.3-0.8-0.3-1.2
						c0-0.2,0-0.4,0-0.6c0-0.2,0-0.4,0-0.6c0-0.2-0.1-0.7-0.5-0.9l0.2-0.3c0.4,0.2,0.6,0.6,0.7,1.2c0,0.2,0,0.4,0,0.7
						c0,0.2,0,0.4,0,0.6c0,0.4,0.2,0.7,0.3,1.1c0,0.1,0.1,0.2,0.1,0.3C54.8,140.2,55,141.7,55.2,143.1z"/>
					<path class="st7" d="M-6.4,45.5c-3.2-2.7-4-7-4-7s4.4,0,7.6,2.7c3.2,2.7,4,7,4,7S-3.2,48.2-6.4,45.5z"/>
					<path class="st7" d="M-1.7,54.9C-5,55-7.8,52.8-7.8,52.8s2.7-2.3,6-2.4c3.4-0.1,6.1,2.1,6.1,2.1S1.7,54.9-1.7,54.9z"/>
				</g>
			</g>
		</g>
	</g>
</g>
</svg>
