<?xml version="1.0" encoding="utf-8"?>
<!-- Generator: Adobe Illustrator 25.4.1, SVG Export Plug-In . SVG Version: 6.00 Build 0)  -->
<svg version="1.1" id="Calque_1" xmlns="http://www.w3.org/2000/svg" xmlns:xlink="http://www.w3.org/1999/xlink" x="0px" y="0px"
	 viewBox="0 0 983.4 552.4" style="enable-background:new 0 0 983.4 552.4;" xml:space="preserve">
<style type="text/css">
	.st0{fill:#F26951;}
	.st1{fill:#FFFFFF;}
	.st2{clip-path:url(#SVGID_00000005976337864484998390000018222031367312221618_);}
	.st3{fill:none;stroke:#3899B0;stroke-width:2;stroke-miterlimit:10;}
	.st4{clip-path:url(#SVGID_00000008110517863774240300000016068829531437683369_);}
	.st5{fill:none;stroke:#3899B0;stroke-width:1.3285;stroke-miterlimit:10;}
	.st6{clip-path:url(#SVGID_00000021112580788339985470000008237821057251585436_);}
	.st7{clip-path:url(#SVGID_00000122698633250326770750000011446540334385900212_);}
	.st8{fill:#73BBC9;}
	.st9{fill:#3899B0;}
	.st10{fill:#58ACBF;}
	.st11{fill:#F5CCB5;}
	.st12{fill:#1A1C2E;}
	.st13{fill:#535073;}
	.st14{fill:#33364A;}
	.st15{fill:#DADADA;}
	.st16{fill:#1A2B42;}
	.st17{fill:#1A1A1A;}
	.st18{fill:#EDBEA1;}
	.st19{fill:#2D334A;}
	.st20{fill:#5C6D87;}
	.st21{fill:#60647D;}
	.st22{opacity:0.4;fill:#58ACBF;}
</style>
<g>
	<g>
		<g>
			<g>
				<g>
					<path class="st0" d="M687.1,282.5c0.1,0,14.2-1.6,31.3-0.7c15.9,0.8,37.7,4,51.8,14.4l-1.1,1.4c-26.3-19.5-81.3-13.5-81.9-13.4
						L687.1,282.5z"/>
				</g>
				<g>
					
						<ellipse transform="matrix(0.637 -0.7709 0.7709 0.637 51.1296 702.361)" class="st0" cx="771.3" cy="296.9" rx="8.6" ry="8.6"/>
				</g>
				<g>
					<path class="st0" d="M725,286.8c2.4,2.4,3.5,5.3,3.5,5.3s-2.9-1.1-5.3-3.5c-2.4-2.4-3.5-5.3-3.5-5.3S722.5,284.3,725,286.8z"/>
				</g>
				<g>
					<path class="st0" d="M749.4,289.5c2.4,2.4,3.5,5.3,3.5,5.3s-2.9-1.1-5.3-3.5c-2.4-2.4-3.5-5.3-3.5-5.3S747,287.1,749.4,289.5z"
						/>
				</g>
			</g>
			<g>
				<g>
					<path class="st0" d="M686.1,263.4l0.1-1.8c29.9,2.3,78.6-7.4,79.1-7.5l0.4,1.7C765.2,256,716.3,265.8,686.1,263.4z"/>
				</g>
				<g>
					
						<ellipse transform="matrix(0.1366 -0.9906 0.9906 0.1366 412.921 982.8591)" class="st0" cx="770.3" cy="254.6" rx="8.6" ry="8.6"/>
				</g>
				<g>
					<path class="st0" d="M742,262.5c2.4,2.4,3.5,5.3,3.5,5.3s-2.9-1.1-5.3-3.5c-2.4-2.4-3.5-5.3-3.5-5.3S739.6,260.1,742,262.5z"/>
				</g>
				<g>
					<path class="st0" d="M726.6,255.8c-1.8,2.9-4.4,4.6-4.4,4.6s0.4-3.1,2.2-6c1.8-2.9,4.4-4.6,4.4-4.6S728.5,252.9,726.6,255.8z"
						/>
				</g>
				<g>
					<path class="st0" d="M754.5,253.2c-1.8,2.9-4.4,4.6-4.4,4.6s0.4-3.1,2.2-6c1.8-2.9,4.4-4.6,4.4-4.6S756.3,250.2,754.5,253.2z"
						/>
				</g>
			</g>
			<g>
				<g>
					<path class="st0" d="M684.8,271.9c0.6-0.1,61.1-6.8,111.1,11.9l-0.6,1.7c-49.6-18.6-109.6-11.9-110.2-11.8L684.8,271.9z"/>
				</g>
				<g>
					
						<ellipse transform="matrix(6.600424e-02 -0.9978 0.9978 6.600424e-02 460.6154 1061.0808)" class="st0" cx="797.1" cy="284.5" rx="8.6" ry="8.6"/>
				</g>
				<g>
					<path class="st0" d="M755.8,271c-2.9,1.8-6,2.2-6,2.2s1.7-2.6,4.6-4.4s6-2.2,6-2.2S758.7,269.1,755.8,271z"/>
				</g>
				<g>
					<path class="st0" d="M776.6,274.9c-2.9,1.8-6,2.2-6,2.2s1.7-2.6,4.6-4.4c2.9-1.8,6-2.2,6-2.2S779.5,273.1,776.6,274.9z"/>
				</g>
			</g>
		</g>
	</g>
	<circle class="st1" cx="575.9" cy="294.9" r="6.7"/>
	<circle class="st1" cx="368.5" cy="263.6" r="6.7"/>
	<g>
		<g>
			<path class="st0" d="M677,370.4c0.4,0.2,38.2,17.3,80.6,65c41.5,46.7,83.5,41.2,84,41.2l0.5,3.4c-1.8,0.3-44.3,5.8-87.1-42.3
				c-41.9-47.2-79-64-79.4-64.1L677,370.4z"/>
			<path class="st0" d="M802.1,448.8c-8,7.5-11.8,16.5-11.8,16.5s9.3-3.1,17.3-10.6c8-7.5,11.8-16.5,11.8-16.5
				S810.2,441.3,802.1,448.8z"/>
			<path class="st0" d="M780.2,476.4c3.6,10.4,10.3,17.5,10.3,17.5s0.9-9.7-2.6-20.1c-3.6-10.4-10.3-17.5-10.3-17.5
				S776.6,466,780.2,476.4z"/>
		</g>
		<g>
			<path class="st0" d="M819.1,471.7c-0.1-1.8,0-3.6,0.6-5.3c1.6-4.7,5.1-12,11.5-12.4c9.5-0.7,15.6-7.8,22-3.7
				c6.4,4,18.7,17.2,16.1,27.6s2.5,21.9-14.8,24.5s-17.9,11.3-26.9,3.8c-8.9-7.5-17.5-17.8-16-24.3
				C812.9,476.2,819.3,474.5,819.1,471.7z"/>
			<path class="st1" d="M823.2,479.8c-0.6-1.3-1-2.6-1-4c-0.1-3.8,0.6-9.9,5-11.9c6.6-3,9.2-9.6,14.7-8.4
				c5.6,1.2,17.8,7.5,18.7,15.5s7.5,15-4.2,21.4c-11.7,6.4-9.9,12.8-18.2,9.7c-8.3-3.1-17.1-8.2-17.7-13.3
				C819.9,484.7,824.1,481.8,823.2,479.8z"/>
			<path class="st0" d="M831.3,483.9c-0.6-0.6-1.1-1.2-1.5-2c-0.9-2.1-1.9-5.7,0.2-7.9c3.1-3.2,3-7.5,6.5-8.1
				c3.5-0.6,11.8,0.2,14.1,4.6c2.3,4.4,7.6,6.8,2.4,13.1c-5.2,6.3-2.7,9.5-8.1,9.6c-5.4,0.1-11.5-0.8-13.1-3.5
				C830.5,487.4,832.2,484.9,831.3,483.9z"/>
			
				<ellipse transform="matrix(0.8419 -0.5396 0.5396 0.8419 -125.8104 530.2928)" class="st1" cx="842.1" cy="479.9" rx="5.2" ry="5.2"/>
		</g>
	</g>
	<g>
		<g>
			<defs>
				<path id="SVGID_1_" d="M314.7,388.7c0,0-38,56.9-106.1,12.5c0,0,5.7-9.4,15.9-18.5c3,0.6,7.8,1.8,11.7,3.6c0,0-4.3-3.6-9.5-5.4
					C244.9,365.8,275.9,353.4,314.7,388.7z"/>
			</defs>
			<use xlink:href="#SVGID_1_"  style="overflow:visible;fill:#73BBC9;"/>
			<clipPath id="SVGID_00000161610601157535738500000005438071643036070579_">
				<use xlink:href="#SVGID_1_"  style="overflow:visible;"/>
			</clipPath>
			<g style="clip-path:url(#SVGID_00000161610601157535738500000005438071643036070579_);">
				<path class="st3" d="M201,402.2c0,0,60.5-16.7,116.2-13.8"/>
				<path class="st3" d="M296,388.2c0,0-22.1-21.2-35.5-25.7"/>
				<path class="st3" d="M266.4,420.7c0,0,11.4-14.6,17.2-31.9"/>
				<path class="st3" d="M233.7,372.7c0,0,29.4,10.4,37.1,16.6"/>
				<path class="st3" d="M236.9,418.3c0,0,12.3-14.9,17.5-26"/>
				<path class="st3" d="M214.3,386.7c0,0,14.1,1.8,21.9,7.9"/>
				<path class="st3" d="M292.7,412c0,0,9.6-15.6,10.9-23.8"/>
				<path class="st3" d="M211.7,411.2c0,0,9.9-7.6,12-14.2"/>
			</g>
		</g>
	</g>
	<g>
		<g>
			<defs>
				<path id="SVGID_00000017507065251214490880000015166757883477437630_" d="M590.3,450.6c0,0,49.7,20.9,25.5,80.1
					c0,0-8.1-3-16.7-9.6c0-2.4,0.2-6.3,1-9.5c0,0-2.1,3.9-2.8,8.1C582.9,507.9,568.8,485.9,590.3,450.6z"/>
			</defs>
			<use xlink:href="#SVGID_00000017507065251214490880000015166757883477437630_"  style="overflow:visible;fill:#73BBC9;"/>
			<clipPath id="SVGID_00000149360491467741943920000012533290006149547697_">
				<use xlink:href="#SVGID_00000017507065251214490880000015166757883477437630_"  style="overflow:visible;"/>
			</clipPath>
			<g style="clip-path:url(#SVGID_00000149360491467741943920000012533290006149547697_);">
				<path class="st5" d="M617.6,536.4c0,0-21.9-44.3-27.9-87.7"/>
				<path class="st5" d="M592.6,465.1c0,0-13.1,20.2-14.6,31.2"/>
				<path class="st5" d="M622.1,483.1c0,0-13-6.6-27.2-8.5"/>
				<path class="st5" d="M590,515.6c0,0,3.7-24.3,7.3-31.1"/>
				<path class="st5" d="M624.7,506.3c0,0-13.3-7.3-22.7-9.6"/>
				<path class="st5" d="M603.6,528.5c0,0-0.7-11.2,2.9-18.1"/>
				<path class="st5" d="M611.5,464.1c0,0-13.5-5.1-20-4.9"/>
				<path class="st5" d="M622.9,526.9c0,0-7.3-6.5-12.7-7.1"/>
			</g>
		</g>
	</g>
	<g>
		<g>
			<defs>
				<path id="SVGID_00000139995823349547818650000011179720639423461533_" d="M586.2,438.7c0,0,3.6,53.8,67.4,50.2
					c0,0-0.2-8.6-3.6-18.9c-2.3-0.7-6-1.8-9.3-2.2c0,0,4.4-0.8,8.6,0C642.7,450.5,626.5,429.9,586.2,438.7z"/>
			</defs>
			<use xlink:href="#SVGID_00000139995823349547818650000011179720639423461533_"  style="overflow:visible;fill:#73BBC9;"/>
			<clipPath id="SVGID_00000130606758142992371920000014556670607692384161_">
				<use xlink:href="#SVGID_00000139995823349547818650000011179720639423461533_"  style="overflow:visible;"/>
			</clipPath>
			<g style="clip-path:url(#SVGID_00000130606758142992371920000014556670607692384161_);">
				<path class="st5" d="M658.3,492.5c0,0-34.7-35.1-73.8-55"/>
				<path class="st5" d="M599.1,445.7c0,0,23.4-5.7,34.3-3.6"/>
				<path class="st5" d="M606.5,479.4c0,0-2-14.4,0.8-28.5"/>
				<path class="st5" d="M647.7,459.6c0,0-24.2-4.4-31.8-3.2"/>
				<path class="st5" d="M627.6,489.4c0,0-2.5-15-1.7-24.6"/>
				<path class="st5" d="M655.4,476.7c0,0-10.3-4.3-18.1-3.2"/>
				<path class="st5" d="M592,463.2c0,0-0.4-14.4,1.9-20.5"/>
				<path class="st5" d="M647.6,494.5c0,0-3.7-9-2.6-14.4"/>
			</g>
		</g>
	</g>
	<g>
		<g>
			<defs>
				<path id="SVGID_00000129175114363940929250000013129973245988525995_" d="M659.5,160.6c0,0,10.3-88.7,115.7-77.7
					c0,0-1,14.3-7.5,30.9c-3.8,1-10.1,2.5-15.7,2.8c0,0,7.2,1.6,14.2,0.7C754.1,145.8,725.5,178.6,659.5,160.6z"/>
			</defs>
			<use xlink:href="#SVGID_00000129175114363940929250000013129973245988525995_"  style="overflow:visible;fill:#73BBC9;"/>
			<clipPath id="SVGID_00000054266811484350317600000001904516651207076260_">
				<use xlink:href="#SVGID_00000129175114363940929250000013129973245988525995_"  style="overflow:visible;"/>
			</clipPath>
			<g style="clip-path:url(#SVGID_00000054266811484350317600000001904516651207076260_);">
				<path class="st3" d="M783.4,77.4c0,0-60.3,55.3-126.7,85.1"/>
				<path class="st3" d="M681.5,150.2c0,0,38.3,11.4,56.5,8.7"/>
				<path class="st3" d="M696.5,94.9c0,0-4.5,23.7-1,47.2"/>
				<path class="st3" d="M763,131.1c0,0-40.4,5.4-52.9,2.8"/>
				<path class="st3" d="M732.2,80.1c0,0-5.4,24.6-4.8,40.6"/>
				<path class="st3" d="M777.3,103.3c0,0-17.5,6.3-30.2,3.8"/>
				<path class="st3" d="M671.1,120.6c0,0-1.9,23.8,1.5,34.2"/>
				<path class="st3" d="M765.7,73.4c0,0-6.9,14.7-5.5,23.6"/>
			</g>
		</g>
	</g>
	<g>
		<path class="st0" d="M185,484.4l-0.3-2.7c10.2-1.1,20.6-1.1,30.7-1.2c8.2,0,16.7-0.1,25-0.7c43.9-3.2,87-22.8,118.2-53.8l1.9,1.9
			c-31.7,31.5-75.4,51.3-119.9,54.5c-8.4,0.6-16.9,0.6-25.2,0.7C205.4,483.3,195,483.4,185,484.4z"/>
		<path class="st0" d="M272.2,485.7c-1.1,5.6,1.9,11.3,3.1,16.9c1.2,5.6,1.3,12-2.2,16.5c-0.6,0.8-1.4,1.6-2.4,2
			c-0.9,0.3-1.9,0.3-2.9,0c-2.5-0.7-4.4-2.7-5.4-5c-1.1-2.3-1.4-4.9-1.6-7.4c-0.7-9.3,0.6-19.3,6.4-26.7c1.7-2.2,6.4-6.1,9-7
			C275.2,478.3,273.2,480.7,272.2,485.7z"/>
		<path class="st0" d="M256.4,479.5c0,0-36.1-13.1-44.1-39.4c-8-26.3-26.3-7.4-15.9,8.3C212.8,473,256.4,479.5,256.4,479.5z"/>
		<path class="st0" d="M236.6,481.8c0,0-23.1,18.3-19.7,36.4c3.4,18.1-12.7,24.1-18,10.3C193.5,514.8,219.8,481.6,236.6,481.8z"/>
		<path class="st0" d="M296,468.5c0,0-24,1.9-41.2-18.2s-23.1-3.4-16.3,5C248.1,466.9,265.8,472.8,296,468.5z"/>
		<path class="st0" d="M223.2,481.4c0,0-16-6.3-19.9-13.9c-3.8-7.6-9.9-2-8.4,1.7C196.4,472.9,200.4,480.2,223.2,481.4z"/>
		<path class="st0" d="M213.7,481.9c0,0-17.9,11.6-20,20.6c-2.6,10.8-20,17.5-18.2,4.9C177,496.7,206.4,480.2,213.7,481.9z"/>
		<path class="st0" d="M187.9,483.2c0,0-8.8-3.3-10.7-7.3c-2-4-6.6-5.5-7.1-1.4C169.6,478.8,176.2,483.7,187.9,483.2z"/>
		<path class="st0" d="M188.7,482.2c0,0-7.5,4-9.8,8.4c-2.3,4.4-8.2,5.7-9.7,1C167.8,486.9,180.1,480.8,188.7,482.2z"/>
		<path class="st0" d="M251.7,480c0,0-5.2,10.4-5.4,17.5c-0.3,7.1-5.1,13-8.5,8.5C234.4,501.5,243.2,484.9,251.7,480z"/>
	</g>
	<g>
		<path class="st1" d="M518.9,103.1c-13.8,0-25.5,9.3-29.1,21.9H548C544.4,112.4,532.7,103.1,518.9,103.1z"/>
		<path class="st1" d="M598.3,103.1c-13.8,0-25.5,9.3-29.1,21.9h58.2C623.8,112.4,612.1,103.1,598.3,103.1z"/>
		<path class="st1" d="M560.5,93.7c-19.7,0-36.4,13.2-41.5,31.3H602C596.9,106.9,580.2,93.7,560.5,93.7z"/>
	</g>
	<g>
		<path class="st8" d="M652.3,48.9c2.1,7.3,9.1,11.7,9.1,11.7s3.7-7.4,1.6-14.6c-2.1-7.3-9.1-11.7-9.1-11.7S650.2,41.6,652.3,48.9z"
			/>
		<path class="st8" d="M632.6,76.9c3.3,6.8,11,10,11,10s2.4-7.9-0.9-14.7c-3.3-6.8-11-10-11-10S629.3,70,632.6,76.9z"/>
		<path class="st8" d="M685.3,32.1c-6,4.7-7.3,12.8-7.3,12.8s8.3,0.4,14.3-4.3c6-4.7,7.3-12.8,7.3-12.8S691.3,27.4,685.3,32.1z"/>
		<path class="st8" d="M675.5,57c-7.6-0.9-14.4,3.8-14.4,3.8s5.5,6.1,13.2,7c7.6,0.9,14.4-3.8,14.4-3.8S683.1,57.9,675.5,57z"/>
		<path class="st8" d="M658.1,82.9c-7.6-0.9-14.4,3.8-14.4,3.8s5.5,6.1,13.2,7c7.6,0.9,14.4-3.8,14.4-3.8S665.7,83.8,658.1,82.9z"/>
		<g>
			<path class="st8" d="M621.7,144.1l1.5,0.3c0-0.2,3.1-17.8,12.1-39.1c5.2-12.5,11.4-23.9,18.3-33.7c8.7-12.3,18.5-22.2,29.4-29.6
				l-0.9-1.3c-11,7.5-21,17.5-29.8,30c-7,9.9-13.2,21.4-18.5,34C624.8,126.2,621.7,143.9,621.7,144.1z"/>
		</g>
	</g>
	<path class="st8" d="M679.2,319.7c0,0,56.2-4.5,90,73c0,0-37.2-59.6-89.3-68.6L679.2,319.7z"/>
	<path class="st8" d="M694.9,329c0,0,42.3,18.8,58.8,67.3c0,0-36.2-54.8-58.7-58.2L694.9,329z"/>
	<g>
		<path class="st8" d="M374.2,510.9c4.1-4.3,10.5-4.8,10.5-4.8s-0.2,6.4-4.3,10.7c-4.1,4.3-10.5,4.8-10.5,4.8
			S370.1,515.2,374.2,510.9z"/>
		<path class="st8" d="M371.1,484.5c4.7-3.5,11.1-3,11.1-3s-1.3,6.3-6,9.8c-4.7,3.5-11.1,3-11.1,3S366.3,488,371.1,484.5z"/>
		<path class="st8" d="M390.5,534.3c-2.3-5.4-0.3-11.5-0.3-11.5s5.8,2.7,8.1,8.1c2.3,5.4,0.3,11.5,0.3,11.5S392.8,539.8,390.5,534.3
			z"/>
		<path class="st8" d="M393,513.6c-5.5-2.1-8.4-7.8-8.4-7.8s6-2.2,11.5-0.1c5.5,2.1,8.4,7.8,8.4,7.8S398.5,515.7,393,513.6z"/>
		<path class="st8" d="M390.6,489.4c-5.5-2.1-8.4-7.8-8.4-7.8s6-2.2,11.5-0.1c5.5,2.1,8.4,7.8,8.4,7.8S396.1,491.6,390.6,489.4z"/>
		<g>
			<path class="st8" d="M388.2,434l1.1,0.4c0,0.1-4.4,13.4-6.1,31.4c-1,10.5-1,20.6,0.2,29.9c1.4,11.6,4.5,22,9.2,31l-1.1,0.6
				c-4.8-9.1-7.9-19.7-9.3-31.4c-1.1-9.4-1.2-19.5-0.2-30.2C383.8,447.6,388.1,434.1,388.2,434z"/>
		</g>
	</g>
	<g>
		<path class="st8" d="M706.2,439.1c-8.2,0.6-14.3,7-14.3,7s7,5.4,15.2,4.8c8.2-0.6,14.3-7,14.3-7S714.3,438.5,706.2,439.1z"/>
		<path class="st8" d="M680.7,412.5c-7.9,1.9-13,9.2-13,9.2s7.8,4.2,15.8,2.2c7.9-1.9,13-9.2,13-9.2S688.6,410.6,680.7,412.5z"/>
		<path class="st8" d="M716.9,477.2c-3.8-7.3-12.1-10.4-12.1-10.4s-2.2,8.6,1.6,15.9c3.8,7.3,12.1,10.4,12.1,10.4
			S720.7,484.4,716.9,477.2z"/>
		<path class="st8" d="M692.6,461.5c2.6-7.8-1-15.9-1-15.9s-7.7,4.5-10.2,12.2c-2.6,7.8,1,15.9,1,15.9S690,469.3,692.6,461.5z"/>
		<path class="st8" d="M668.8,437.8c2.6-7.8-1-15.9-1-15.9s-7.7,4.5-10.2,12.2c-2.6,7.8,1,15.9,1,15.9S666.3,445.6,668.8,437.8z"/>
		<g>
			<path class="st8" d="M611.6,386.5L611,388c0.2,0.1,18.2,7.1,39,21.1c12.2,8.2,22.9,17.1,31.9,26.4c11.2,11.7,19.6,24.2,25.1,37.1
				l1.5-0.7c-5.6-13.1-14.1-25.7-25.5-37.6c-9-9.5-19.9-18.4-32.2-26.7C630,393.7,611.8,386.6,611.6,386.5z"/>
		</g>
	</g>
	<g>
		<path class="st9" d="M387.4,25c-2.9,5.3-9.1,7.5-9.1,7.5s-1.5-6.4,1.4-11.7c2.9-5.3,9.1-7.5,9.1-7.5S390.4,19.6,387.4,25z"/>
		<path class="st9" d="M397.5,50.4c-3.8,4.8-10.2,5.9-10.2,5.9s-0.4-6.6,3.4-11.3c3.8-4.8,10.2-5.9,10.2-5.9S401.2,45.6,397.5,50.4z
			"/>
		<path class="st9" d="M365.1,5.9c3.7,4.8,3.3,11.3,3.3,11.3s-6.5-1.2-10.2-5.9S354.9,0,354.9,0S361.4,1.2,365.1,5.9z"/>
		<path class="st9" d="M368.1,27.2c6,0.7,10.4,5.6,10.4,5.6s-5.4,3.8-11.4,3.1s-10.4-5.6-10.4-5.6S362.1,26.5,368.1,27.2z"/>
		<path class="st9" d="M376.8,50.5c6,0.7,10.4,5.6,10.4,5.6s-5.4,3.8-11.4,3.1c-6-0.7-10.4-5.6-10.4-5.6S370.8,49.8,376.8,50.5z"/>
		<g>
			<path class="st9" d="M393.7,104.9l-1.2-0.1c0-0.1,0.8-14.5-2.2-32.8c-1.7-10.7-4.4-20.7-8-29.6c-4.4-11.1-10.2-20.7-17.2-28.4
				l0.9-0.8c7.1,7.8,13,17.5,17.5,28.8c3.6,9,6.3,19.1,8,29.9C394.5,90.3,393.7,104.8,393.7,104.9z"/>
		</g>
	</g>
	<path class="st8" d="M468.8,519.8c-16.4,11.8-0.9,26.5-0.9,26.5s-2.5-2.4,2.2-11.3c3.4-6.5,1.5-11.9,0.3-14.3
		c4.4,2.4,8.9,4.5,13.4,6.4c-9.5,16.8,10,24,10,24s-3.2-1.2-2.4-11.2c0.4-5.1-1.4-8.8-3.2-11.1c4.8,1.8,9.6,3.3,14.6,4.6
		c-2.9,20.4,18.6,19.1,18.6,19.1s-3.4,0.2-6.7-9.3c-1.6-4.6-4.4-7.1-6.8-8.6c3.9,0.9,7.8,1.6,11.8,2.1c16.4,11.4,25.2-7.9,25.2-7.9
		s-1.4,3.1-11.4,1.6c-7.5-1.1-12,2.6-13.8,4.5c-4.2-0.6-8.3-1.3-12.4-2.3c2.9-0.6,7.2-2.3,10.4-7.4c5.2-8.6,8.5-7.7,8.5-7.7
		s-20.5-5.7-22.2,14.3c-5.7-1.4-11.2-3.2-16.7-5.3c2.9-0.3,7.9-1.8,11.4-7.6c5.2-8.6,8.5-7.7,8.5-7.7s-20.5-5.7-22.2,14.4
		c-0.1,0-0.1,0-0.2-0.1c-0.1,0-0.1-0.1-0.1-0.1c0,0,0,0,0,0c-4.4-1.8-8.8-3.8-13-6.1c2.8-0.3,8-1.7,11.6-7.6
		c5.2-8.6,8.5-7.7,8.5-7.7s-20.4-5.7-22.2,14.2c-4-2.2-7.8-4.6-11.6-7.2c-1.3-0.9-2.6-1.8-3.8-2.7c2.7-0.2,8.2-1.4,12.1-7.7
		c5.2-8.6,8.5-7.7,8.5-7.7s-20.4-5.7-22.2,14.2c-4.9-3.7-9.7-7.8-14.3-12.2c2.3,0.5,8.5,1.2,14.2-4.3c7.2-7,10.2-5.4,10.2-5.4
		s-18.8-10.7-25.2,8.9c-7.9-7.6-15.2-16.3-22-25.8c-21-29.7-29.1-58.3-29.2-58.6l-1.6,0.4c0.1,0.3,8.2,29.2,29.4,59.1
		c6.7,9.5,14,18.1,21.9,25.7c-16.6,11.8-1,26.6-1,26.6s-2.5-2.4,2.2-11.3c3.1-5.9,1.9-10.8,0.7-13.5c4.6,4.3,9.3,8.3,14.2,12
		c-17.4,11.9-1.5,26.9-1.5,26.9s-2.5-2.4,2.2-11.3c3.9-7.6,0.8-13.6-0.2-15.2c1.5,1.1,3.1,2.2,4.6,3.3
		C460.9,515.1,464.8,517.5,468.8,519.8z"/>
	<path class="st10" d="M610,80.9c0,0-8.1-8.3-15.9-1.4c0.9-2.4,1.8-5,2.9-7.7c0.3-0.7,0.6-1.4,0.9-2.1c2.1,1.3,9.2,4.9,16.2,0.1
		c0,0-7.8-8.1-15.6-1.7c1.3-3.3,2.7-6.3,4-9.1c1.6,1,9.2,5.4,16.5,0.3c0,0-8.1-8.4-16-1.3c1.5-3.2,3-6.1,4.5-8.7
		c1.1,0.8,9,5.7,16.7,0.4c0,0-8.4-8.7-16.4-1c1.4-2.5,2.7-4.8,4.1-6.8c2.4,0.9,10,3.1,15.9-2.8c0,0-7.3-5.3-13.5-0.9
		c1.6-2.2,3-4.2,4.3-5.8c10.8-1.4,9.5-13.2,9.5-13.2c-8.7,2.5-10.1,11.3-10.3,13c-1.6,2-3.1,4-4.6,6.2c2.5-7.8-5.6-13-5.6-13
		c-3.4,8,2,14.5,3.5,16c0,0-0.1,0.1-0.1,0.1c0,0,0,0,0.1,0c-1.3,2-2.5,4-3.6,6c1.1-10.5-10.4-12.2-10.4-12.2
		c0.2,8.8,7.9,12.4,9.8,13.2c-1.6,2.9-3.1,5.9-4.5,8.7c1.1-10.4-10.4-12.1-10.4-12.1c0.2,8.9,8.1,12.5,9.9,13.2
		c-1.7,3.6-3.3,7.2-4.6,10.4c2-11.4-10.3-13.2-10.3-13.2c0.2,9.7,9.6,13.1,10.2,13.3c0,0,0,0.1,0,0.1c0,0,0,0,0,0c0,0,0,0,0,0
		c-0.3,0.8-0.6,1.5-0.9,2.3c-1,2.7-2,5.2-2.8,7.6C594.6,68.7,583,67,583,67c0.2,9.2,8.6,12.7,10,13.3c-3.1,8.8-4.7,14.9-4.7,15
		l0.7,0.2c0-0.1,1.6-6.1,4.6-14.7C595.6,81.9,602.9,85.8,610,80.9z"/>
	<path class="st8" d="M285,120.7c0,0-16.9,18.4-1.7,33.8c-5.1-1.4-10.6-3-16.3-4.8c-1.5-0.5-3.1-1-4.6-1.4
		c2.5-4.6,9.6-20.3-0.9-34.2c0,0-16.3,17.8-2.4,33.1c-6.9-2.3-13.4-4.6-19.4-6.9c2.1-3.6,10.6-20.2-0.6-34.8c0,0-17,18.5-1.5,34
		c-6.8-2.7-13-5.3-18.6-8c1.5-2.5,11.3-19.9-0.3-35.2c0,0-17.5,19.1-0.8,34.7c-5.3-2.5-10.2-5-14.6-7.4c1.7-5.1,5.8-21.5-7-33.1
		c0,0-10.5,16.3-0.8,28.6c-4.8-2.9-8.9-5.6-12.4-8.2c-3.8-22.6-28.5-17.8-28.5-17.8c5.9,17.9,24.4,19.3,28.1,19.4
		c4.2,3,8.7,5.9,13.2,8.6c-16.5-4-26.8,13.9-26.8,13.9c17.1,5.9,30.2-6.7,33.3-10c0.1,0.1,0.2,0.1,0.3,0.2c0,0,0,0,0.1-0.1
		c4.2,2.3,8.5,4.5,12.9,6.6c-22-0.5-24.7,24-24.7,24c18.5-1.8,25.5-18.8,26.9-22.9c6.2,2.9,12.5,5.6,18.7,8c-22-0.5-24.6,24-24.6,24
		c18.7-1.9,25.6-19.2,27-23.1c7.8,3,15.3,5.6,22.2,7.9c-24-2.2-26.8,23.8-26.8,23.8c20.3-2,26.8-22.3,27.2-23.7c0.1,0,0.1,0,0.2,0.1
		c0,0,0,0,0,0c0,0,0,0,0,0c1.7,0.5,3.3,1.1,4.9,1.5c5.7,1.8,11.1,3.3,16.2,4.7c-22.2-0.7-24.9,24-24.9,24
		c19.3-1.9,26.1-20.3,27.1-23.4c18.6,5,31.7,7.4,31.8,7.5l0.3-1.5c-0.2,0-12.9-2.4-31.2-7.3C288.1,151,295.8,135,285,120.7z"/>
	<g>
		<g>
			<g>
				<path class="st0" d="M376.7,146l-0.4,0.8c-0.2-0.1-16-8.1-35.3-21.7c-11.3-8-21.6-16.3-30.5-24.6c-11.2-10.5-20.3-21.1-27-31.7
					l0.7-0.5c6.7,10.5,15.8,21.1,26.9,31.5c8.9,8.4,19.2,16.6,30.4,24.6C360.7,137.9,376.5,145.9,376.7,146z"/>
			</g>
			<path class="st0" d="M310.3,99.4c0,0-26.8-39.2-38.5-47.5C271.8,51.9,287,85.3,310.3,99.4z"/>
			<path class="st0" d="M313.5,102.8c0,0-20.8-34.1-24.2-48.1C289.3,54.7,312.9,83.4,313.5,102.8z"/>
			<path class="st0" d="M319.3,107.9c0,0-9.6-28.4-8.6-52.6C310.8,55.3,324.5,89.5,319.3,107.9z"/>
			<path class="st0" d="M330.7,117c0,0,1.4-21.6,8.8-37.9C339.5,79.1,339.4,105.6,330.7,117z"/>
			<path class="st0" d="M330.8,117.1c0,0-21.6,2-37.6,10C293.2,127.1,319.6,126.2,330.8,117.1z"/>
			<path class="st0" d="M326.1,113.6c0,0-5.9-33.3,1.8-58.6C327.8,55,331.8,86.8,326.1,113.6z"/>
			<path class="st0" d="M313.8,102.8c0,0-33.9-18.3-46.8-20.9C266.9,81.9,296.5,103.1,313.8,102.8z"/>
			<path class="st0" d="M319.3,107.9c0,0-27.8-7.3-50.5-4.7C268.8,103.2,302.4,114.1,319.3,107.9z"/>
			<path class="st0" d="M326.3,113.1c0,0-30.1-3.6-51.8,4.7C274.5,117.8,303.2,119.7,326.3,113.1z"/>
		</g>
	</g>
	<g>
		<g>
			<path class="st10" d="M770.3,332.9c0.2-0.2,0.3-0.3,0.4-0.4c-0.2-0.1-0.2-0.2-0.5-0.2c0.2-0.1,0.3-0.1,0.3-0.1c0,0,0,0,0,0
				c0.1,0,0.5-0.1,1.6-0.4c5.4-26.2,20.1-25,41.1-30.8c12.7-3.5,27.7-12.1,40.8-16.5c7.9-2.7,15.1-3.9,20.8-1.6
				c4.9,17.6-25.1,48.3-45,59c-15.1,8.1-31.3,11.8-44.6,3.7c-4.8-2.9-9.2-7.3-13.1-13.6C769.3,333.6,771.3,332.5,770.3,332.9z"/>
		</g>
		<g>
			<path class="st10" d="M821.3,367.8c0.2-0.1,0.2-0.1,0.4-0.2c-0.1-0.1-0.1-0.2-0.3-0.2c0.3,0,0.2,0,0.2,0c0,0,0.3,0,1.2,0.1
				c10-16.4,19.7-12.1,35.3-10.9c0.8,0.1,1.7,0.1,2.6,0.1c15,0.4,35.3-4.9,43.6,2.5c-0.5,7.7-10.2,15.5-21.4,21.1
				c-7.9,4-16.7,7-23.3,8c-16.6,2.5-32.5-1-36.7-20.6C820.5,368,822.1,367.7,821.3,367.8z"/>
		</g>
		<g>
			<path class="st8" d="M700.2,306.6l1.2-1.6c31.8,22.6,79.3,51.9,124.9,62.6c27.1,6.4,40.8,3.1,40.9,3.1l0.5,2
				c-0.6,0.1-14.3,3.4-41.9-3.1C779.9,358.7,732.2,329.3,700.2,306.6z"/>
		</g>
		<g>
			<path class="st8" d="M736.5,328.1c43.6,11.5,86.8-11.2,87.3-11.5l1,1.8c-0.1,0.1-11.2,5.9-27.5,10.3c-15.1,4-38,7.5-61.2,1.4
				L736.5,328.1z"/>
		</g>
		<g>
			<path class="st10" d="M818.1,426.1c-2.3-1.4-3.8-4.5-4.8-8.1c-1.6-5.3-2.4-11.8-4.3-16.6c-3.2-8.3-7.2-12.9,0.1-21
				c-0.2-0.5-0.3-0.6-0.3-0.6c0,0,0,0,0,0c0,0,0,0,0-0.1c0.1,0.1,0.1,0.1,0.2,0.1c0-0.1,0-0.1,0-0.2c0.1,0.4,0-0.5,0.2,0.8
				c4.6-0.4,8.1,0.7,10.7,2.7c3.8,3,5.8,8.2,6.6,13.8C827.8,406.1,825.1,423.5,818.1,426.1z"/>
		</g>
		<g>
			<path class="st8" d="M784.1,355.6l1.3-1.6c12.8,10.2,23.4,24,31.5,41.1L815,396C807,379.2,796.6,365.7,784.1,355.6z"/>
		</g>
	</g>
	<g>
		<g>
			<g>
				<path class="st8" d="M710.8,279.7c0,119-96.5,215.4-215.4,215.4c-117.2,0-212.6-93.6-215.4-210.2c0-1.8-0.1-3.5-0.1-5.3
					c0-46.9,15-90.4,40.5-125.8c39.1-54.3,102.9-89.7,174.9-89.7c62,0,117.8,26.2,157.1,68c31.8,33.9,52.7,78,57.4,126.9
					C710.5,265.9,710.8,272.8,710.8,279.7z"/>
				<g>
					<path class="st10" d="M516.7,230.9l-8,11.7l-15.4,13.3c0,0-2.2,22.3-4.3,23.9c-2.1,1.6,8,13.3,8,13.3l5.7,14.3l17.1,2.1
						l20.2-5.3l22.3,1.6l9,3.7l-8.5,15.9l14.3,21.8l-8,23.9l5.8,22.3l7.4,19.6c0,0-3.2,9.6,0,9.6s15.9,0,15.9,0l31.3-23.3v-26.5
						c0,0,18.6-22.3,19.6-23.9s7.4-25.5,7.4-25.5l17-19.6l-8-12.7l-13.3-3.7l-21.8-31.3l-7.4-18.6l-20.2-6.4l-15.4,8.5l-8.5-8.5
						l-8.5-8l-4.2-6.9l-23.9,7.4l-15.9-1.1L516.7,230.9z"/>
					<path class="st10" d="M359.1,299.9l-14.3,19.4l7.2,35.3l14.1,11.1l19.1,15.4l7.4,27.6l22.8,32.9c0,0,9.6,22.8,12.2,23.9
						c2.7,1.1,14.9,11.7,14.9,11.7l21.2-2.1v-6.9c0,0-16.4-17-17.5-19.1c-1.1-2.1-0.5-23.9,0-26.5c0.5-2.7,13.8-25.5,13.8-25.5
						l-3.7-16.4c0,0,11.7-15.9,11.7-18.6c0-2.7-2.7-14.3-2.7-14.3l-3.2-20l-27.1-8.4l-20.2,2.4l-8.5-12.7l-22.3-2.7L359.1,299.9z"/>
					<path class="st10" d="M682.8,248.4l-9,4.3l15.4,14.9l-15.4,14.3H660L648.8,259l-14.3-12.7l-11.1-9l18-16.4l-18-4.8l-9-6.9
						c0,0-13.8,0-19.6,3.7c-5.8,3.7-13.4-5.8-13.4-5.8l-17.9-8l-9.6,2.1l-12.2,12.2h-15.4l-6.4,7.4l-13.8-10.1l11.7-11.7h19.1
						l3.7-5.8l-6.9-2.1l-0.5-5.8l9-3.2l-9.6-8.5l-7.4,2.1h-10.1v-5.3l15.9-9.6l14.3,14.9h5.3l7.4-6.9l7.4,2.1l13.3,4.8l12.7-2.6
						c0,0,15.4-14.3,15.4-15.9c0-1.6-7.4-5.3-7.4-5.3s-7.4,0-9,0c-1.6,0,4.3-13.3,4.3-13.3l-13.4,6.9c0,0,1.2,9.6,0,11.7
						c-1.2,2.1-7.3,5.8-7.3,5.8s-12.2-9-13.8-7.4c-1.6,1.6-7.4,0-7.4,0l-4.8-9l12.7-3.2l6.4-9.6l22.8-14.3c0,0,10.6,1.6,14.3,3.7
						c3.7,2.1,11.1,3.2,11.1,3.2l-8,8.5l7.4,8.5h13.3l21.2-8.5l3.2-2.5c31.8,33.9,52.7,78,57.4,126.9l-6.4-2.3L682.8,248.4z"/>
					<path class="st10" d="M395.2,207c0,3.2-8.5,13.8-8.5,13.8l-13.3,6.4L358,242l-2.6,26l-3.7,13.8H340l-5.8-10.6L323,268
						l-10.6,10.1l1.6,10.6c0,0,13.3,9,13.8,11.1c0.5,2.1,3.2,8.5,3.2,8.5l13.8,6.9v7.4l-28.1-14.9l-29.7-8L280,285
						c0-1.8-0.1-3.5-0.1-5.3c0-46.9,15-90.4,40.5-125.8l1.5-1.1l12.5,10.1V173l-7.2,6.4l-12.7,4.2v4.8l13.8-1.6l10.6-5.3l11.1-8.5h9
						l-7.4,6.9l-12.7,13.8l-8.5,11.7l4,8.5l7.7-3.7l0.5,5.8l5.3,6.9l7.4-14.3l3.2-14.3l11.7-6.9l6.9,3.2h13.3
						C390.4,190.6,395.2,203.8,395.2,207z"/>
					<polygon class="st10" points="384,138.5 395.2,138.5 395.2,148.6 401,152.9 403.1,177.8 413.2,177.8 420.6,163 436.6,143.9 
						448.2,135.9 467.9,121.6 470.5,103 483.3,88.1 471.6,83.9 461.5,87.6 433.6,100.9 417.5,105.6 399.9,114.7 371.3,122.6 
						357,130.9 357,143.3 344.8,152.9 359.1,155 368.6,147 377.1,137.5 					"/>
				</g>
			</g>
		</g>
		<path class="st1" d="M366.2,151.8c-0.4-7.7-9.2-18.2-18.5-18.5c9.3-0.9,17.9-10.1,18.5-18.5c0.4,8.3,9.5,17.8,18.5,18.5
			C375.7,133.8,366.8,144,366.2,151.8z"/>
	</g>
	<g>
		<path class="st1" d="M511.5,79.3c0,0-11.8,2.8-17,8.2c-5.2,5.4-10.1,3.3-10.4,5s1.2,9,3.4,8.3c2.2-0.7,5.3-6,9.2-5.7
			c3.9,0.3,11.4-0.4,16.7-4c5.2-3.6,2.5-4.4,9-7.6c3.9-1.9,1.4-7-6.4-3.6C516,79.9,514.1,78.6,511.5,79.3z"/>
		<g>
			<path class="st9" d="M507.8,63.4c1.6-2.8,1.6-6.4,0.7-9.5c-0.9-3.1-2.7-5.9-3.9-8.9c-2.1-5.2-2.6-11.5-0.7-16.8
				c0.2-0.5,0.4-1.1,0.6-1.7c-6.9-10.3-6.7,1.9-5.2,10.5c1.7,9.7,6.6,18.3,5,22.3c-0.8,1.9-2,6.6-2.8,11.4c0.3-0.4,0.6-0.9,0.9-1.3
				C504.2,67.3,506.5,65.7,507.8,63.4z"/>
			<path class="st1" d="M501.6,83.3c2.5,3.4,8.3,5.9,12,4.7c3.7-1.2,1.2-15,2.7-22.1c1.4-7,2-12.8-1.2-17.7
				c-2.7-4.1-6-12.8-7.1-15.7c-0.2-0.7-0.5-1.3-0.9-1.9c-0.9-1.7-1.7-3.1-2.5-4.2c-0.2,0.6-0.4,1.1-0.6,1.7
				c-1.9,5.3-1.4,11.5,0.7,16.8c1.2,3,3,5.8,3.9,8.9c0.9,3.1,0.9,6.7-0.7,9.5c-1.3,2.3-3.6,3.9-5.3,6c-0.3,0.4-0.6,0.8-0.9,1.3
				C500.7,76,500.3,81.5,501.6,83.3z"/>
		</g>
		<g>
			<path class="st9" d="M524.2,101.7c3.2,0.4,6,2.5,8,5.1c2,2.6,3.1,5.7,4.8,8.5c2.9,4.8,7.6,9,13,10.6c0.6,0.2,1.1,0.4,1.7,0.6
				c4.1,11.7-5.5,4.2-11.5-2.1c-6.7-7.2-10.7-16.2-14.8-17.3c-1.9-0.5-6.5-2.4-10.8-4.6c0.5,0,1.1,0,1.6,0
				C518.9,102.2,521.6,101.4,524.2,101.7z"/>
			<path class="st1" d="M504.6,94.7c-1.2-4.1,0.2-10.2,3.4-12.4c3.2-2.2,12.8,8,19.2,11.1c6.5,3.1,11.5,6.1,13.4,11.6
				c1.6,4.6,6.6,12.5,8.2,15.1c0.4,0.6,0.7,1.2,1,1.8c0.8,1.7,1.4,3.2,1.9,4.5c-0.6-0.2-1.1-0.4-1.7-0.6c-5.4-1.6-10.1-5.8-13-10.6
				c-1.7-2.8-2.8-5.9-4.8-8.5c-2-2.6-4.8-4.7-8-5.1c-2.6-0.3-5.3,0.5-8,0.6c-0.5,0-1.1,0-1.6,0C509.9,99.8,505.2,96.8,504.6,94.7z"
				/>
		</g>
	</g>
	<g>
		<path class="st8" d="M87.8,385c0,0-7.4,4.3-9.8,9c-2.4,4.7-6.1,4.3-6,5.5s2.7,5.8,4,4.9c1.3-0.9,2.4-5.1,5.1-5.7
			c2.7-0.6,7.7-2.6,10.4-6.2c2.8-3.5,0.8-3.5,4.5-7c2.2-2.1-0.5-5-5.1-1.1C90.9,384.5,89.4,384,87.8,385z"/>
		<g>
			<path class="st9" d="M82,375.1c0.5-2.2-0.2-4.6-1.5-6.6c-1.2-1.9-3.1-3.4-4.5-5.2c-2.5-3.1-4.1-7.2-3.9-11.2c0-0.4,0-0.8,0-1.3
				c-6.8-5.6-4.1,2.7-1.3,8.1c3.2,6.2,8.2,11,8,14c-0.1,1.4,0,4.9,0.5,8.3c0.1-0.4,0.2-0.7,0.4-1.1C80.3,378.4,81.5,376.9,82,375.1z
				"/>
			<path class="st8" d="M81.9,389.8c2.4,1.8,6.8,2.3,9.1,0.7c2.3-1.6-2.3-10.4-2.8-15.5c-0.5-5-1.3-9.1-4.5-11.7
				c-2.7-2.2-6.7-7.4-8-9.1c-0.3-0.4-0.6-0.8-1-1.1c-1-0.9-1.8-1.7-2.6-2.3c0,0.4,0,0.8,0,1.3c-0.2,4,1.4,8.1,3.9,11.2
				c1.4,1.8,3.3,3.3,4.5,5.2c1.2,1.9,2,4.3,1.5,6.6c-0.4,1.8-1.6,3.4-2.3,5.1c-0.1,0.3-0.3,0.7-0.4,1.1
				C79.7,385,80.6,388.8,81.9,389.8z"/>
		</g>
		<g>
			<path class="st9" d="M101,397.5c2.3-0.4,4.6,0.5,6.5,1.8c1.9,1.3,3.3,3.2,5,4.7c3,2.6,7,4.5,11,4.5c0.4,0,0.8,0,1.3,0
				c5.2,7-2.9,4-8.2,0.9c-6-3.5-10.6-8.8-13.6-8.6c-1.4,0.1-4.9-0.3-8.3-0.9c0.4-0.1,0.7-0.2,1.1-0.3C97.5,399,99.1,397.9,101,397.5
				z"/>
			<path class="st8" d="M86.3,396.9c-1.7-2.5-1.9-6.9-0.3-9.1c1.7-2.2,10.3,2.8,15.3,3.5c5,0.7,9,1.8,11.5,5.1
				c2.1,2.8,7.1,7.1,8.7,8.5c0.4,0.3,0.7,0.7,1.1,1c0.9,1,1.6,1.9,2.2,2.7c-0.4,0-0.8,0-1.3,0c-4,0-8-1.8-11-4.5
				c-1.7-1.5-3.1-3.4-5-4.7c-1.9-1.3-4.2-2.2-6.5-1.8c-1.9,0.3-3.5,1.5-5.2,2.1c-0.4,0.1-0.7,0.2-1.1,0.3
				C90.9,399.3,87.2,398.2,86.3,396.9z"/>
		</g>
	</g>
	<g>
		<path class="st8" d="M19.7,418.5c0,0-8.4,1.7-12.2,5.4c-3.8,3.7-7.2,2.1-7.5,3.3c-0.3,1.2,0.7,6.4,2.2,5.9
			c1.5-0.5,3.9-4.1,6.6-3.8c2.8,0.3,8.1,0,11.9-2.5c3.8-2.4,1.9-3.1,6.5-5.1c2.8-1.3,1.2-4.9-4.4-2.7C22.8,419,21.5,418,19.7,418.5z
			"/>
		<g>
			<path class="st9" d="M17.4,407.2c1.2-2,1.3-4.5,0.7-6.7c-0.5-2.2-1.8-4.2-2.6-6.4c-1.3-3.7-1.6-8.2-0.1-11.9
				c0.2-0.4,0.3-0.8,0.4-1.2c-4.6-7.4-4.8,1.2-3.9,7.3c1,6.9,4.2,13.1,3,15.8c-0.6,1.3-1.5,4.6-2.2,8c0.2-0.3,0.4-0.6,0.7-0.9
				C14.8,409.8,16.4,408.8,17.4,407.2z"/>
			<path class="st8" d="M12.6,421.1c1.7,2.5,5.7,4.4,8.4,3.6c2.6-0.8,1.2-10.6,2.4-15.5c1.2-4.9,1.7-9-0.5-12.5
				c-1.8-2.9-4-9.2-4.7-11.2c-0.2-0.5-0.4-0.9-0.6-1.4c-0.6-1.2-1.2-2.2-1.7-3c-0.1,0.4-0.3,0.8-0.4,1.2c-1.5,3.7-1.2,8.1,0.1,11.9
				c0.8,2.2,2,4.2,2.6,6.4c0.5,2.2,0.5,4.7-0.7,6.7c-1,1.6-2.6,2.7-3.9,4.1c-0.2,0.3-0.5,0.6-0.7,0.9
				C12.1,415.9,11.7,419.8,12.6,421.1z"/>
		</g>
		<g>
			<path class="st9" d="M28.2,434.6c2.3,0.4,4.2,1.9,5.6,3.8c1.4,1.9,2.1,4.1,3.2,6.1c2,3.5,5.2,6.5,9,7.8c0.4,0.1,0.8,0.3,1.2,0.4
				c2.7,8.3-4,2.9-8-1.8c-4.6-5.2-7.2-11.7-10.1-12.6c-1.4-0.4-4.5-1.8-7.5-3.5c0.4,0,0.7,0,1.1,0C24.4,434.8,26.3,434.3,28.2,434.6
				z"/>
			<path class="st8" d="M14.4,429.2c-0.8-2.9,0.4-7.2,2.7-8.7s8.9,6,13.4,8.3c4.5,2.3,8,4.6,9.2,8.5c1.1,3.3,4.4,9,5.5,10.8
				c0.3,0.4,0.5,0.9,0.7,1.3c0.5,1.3,0.9,2.3,1.2,3.2c-0.4-0.1-0.8-0.3-1.2-0.4c-3.8-1.3-7-4.3-9-7.8c-1.1-2-1.9-4.2-3.2-6.1
				c-1.4-1.9-3.3-3.4-5.6-3.8c-1.9-0.3-3.7,0.3-5.6,0.3c-0.4,0-0.7,0-1.1,0C18.1,433,14.9,430.8,14.4,429.2z"/>
		</g>
	</g>
	<g>
		<path class="st11" d="M222.8,276.6c0,0.1,0,0.2-0.1,0.4c-0.3,1-1.4,1.6-2.4,1.3l-13-4c-1-0.3-1.6-1.4-1.3-2.4
			c0.3-1,1.4-1.6,2.4-1.3l13,4C222.4,274.9,222.9,275.8,222.8,276.6z"/>
		<path class="st12" d="M220.5,279.1c0,0,4.9,1.2,5,0s0.7-18-0.1-18.1c-2.7-0.3-5.2,13.4-4.9,14.8
			C220.8,277.2,219.8,279,220.5,279.1z"/>
		<g>
			<g>
				<path class="st13" d="M175,304.5c0.3-3.5,0.7-7,1.1-10.5c0.4-3.5,0.8-7,1.2-10.5c0.4-3.5,0.9-7,1.5-10.4c0.3-1.7,0.6-3.4,0.9-5
					c0.2-0.8,0.4-1.6,0.5-2.3c0.1-0.4,0.2-0.7,0.3-1l0.1-0.4c0-0.1,0.1-0.2,0-0.2c0,0,0,0,0,0c0,0,0,0-0.1,0.1l-0.1,0.1l-0.1,0.1
					c0,0-0.1,0.1-0.1,0.1c0,0-0.1,0.1-0.1,0.1c0,0-0.1,0.1-0.2,0.2c-0.1,0.1-0.1,0.1-0.3,0.2c-0.1,0-0.1,0.1-0.2,0.1l-0.2,0.1
					c-0.1,0-0.2,0.1-0.3,0.1l-0.1,0.1l-0.2,0.1c-0.1,0-0.2,0.1-0.4,0.1l-0.2,0l-0.1,0c-0.1,0-0.1,0-0.2,0l-0.2,0c-0.1,0-0.1,0-0.2,0
					c0,0-0.1,0-0.1,0l-0.1,0l-0.1,0c0,0,0,0,0,0c0,0,0,0,0,0c0,0,0,0,0,0c0.1,0,0.2,0,0.4,0c0.6,0.1,1.4,0.3,2.2,0.5
					c1.6,0.4,3.3,0.9,4.9,1.4c3.3,1,6.7,2.1,10.1,3.2c6.7,2.2,13.4,4.6,20.1,7l2.4-5.9c-6.5-3-13-5.9-19.6-8.7
					c-3.3-1.4-6.6-2.8-10-4.1c-1.7-0.7-3.4-1.3-5.2-1.9c-0.9-0.3-1.8-0.6-3-0.9c-0.3-0.1-0.6-0.1-0.9-0.2l-0.3,0c-0.1,0-0.2,0-0.3,0
					c-0.2,0-0.5,0-0.9,0l-0.3,0c-0.1,0-0.3,0-0.4,0c-0.1,0-0.2,0-0.2,0l-0.3,0c0,0-0.1,0-0.2,0l-0.2,0.1c-0.2,0-0.3,0.1-0.4,0.1
					c-0.1,0-0.1,0.1-0.2,0.1l-0.2,0.1c-0.1,0.1-0.2,0.1-0.3,0.2c-0.1,0.1-0.2,0.1-0.3,0.2c-0.1,0.1-0.2,0.1-0.2,0.2
					c-0.2,0.1-0.3,0.2-0.4,0.3c-0.1,0.1-0.2,0.2-0.3,0.3c-0.1,0.1-0.2,0.2-0.3,0.3l-0.2,0.2l-0.1,0.1l-0.1,0.1l-0.2,0.2
					c-0.1,0.1-0.2,0.2-0.2,0.3l-0.2,0.3c-0.2,0.4-0.4,0.7-0.6,1c-0.2,0.3-0.3,0.6-0.4,0.9c-0.2,0.5-0.4,1-0.6,1.5
					c-0.4,1-0.7,1.9-1,2.8c-0.6,1.8-1.1,3.6-1.6,5.4c-0.9,3.6-1.8,7.1-2.6,10.6c-0.8,3.5-1.6,7-2.3,10.6c-0.7,3.5-1.4,7-2.1,10.6
					L175,304.5z"/>
			</g>
		</g>
		<path class="st13" d="M226.4,282.6l0.6-2.6l19.6,4.3c0.7,0.2,1.1,0.8,1,1.5l0,0.1c-0.2,0.7-0.8,1.1-1.5,1L226.4,282.6z"/>
		<g>
			<g>
				
					<rect x="209.2" y="219.5" transform="matrix(0.9861 -0.1659 0.1659 0.9861 -33.3164 40.6113)" class="st13" width="34.5" height="0.5"/>
			</g>
			<g>
				
					<rect x="214" y="229.9" transform="matrix(0.7711 -0.6367 0.6367 0.7711 -93.6073 199.8887)" class="st13" width="34.5" height="0.5"/>
			</g>
			<g>
				
					<rect x="223.3" y="236.5" transform="matrix(0.3494 -0.937 0.937 0.3494 -65.3645 379.3663)" class="st13" width="34.5" height="0.5"/>
			</g>
			<g>
				
					<rect x="251.6" y="220.6" transform="matrix(0.9863 -0.1651 0.1651 0.9863 -35.8141 44.8508)" class="st13" width="0.5" height="34.5"/>
			</g>
			<g>
				
					<rect x="262" y="215.9" transform="matrix(0.7713 -0.6365 0.6365 0.7713 -88.3844 220.217)" class="st13" width="0.5" height="34.5"/>
			</g>
			<g>
				
					<rect x="268.6" y="206.6" transform="matrix(0.35 -0.9367 0.9367 0.35 -34.8867 397.3175)" class="st13" width="0.5" height="34.5"/>
			</g>
			<g>
				
					<rect x="252.7" y="212.2" transform="matrix(0.9861 -0.1659 0.1659 0.9861 -31.5007 47.7234)" class="st13" width="34.5" height="0.5"/>
			</g>
			<g>
				
					<rect x="248" y="201.8" transform="matrix(0.7711 -0.6367 0.6367 0.7711 -67.9479 215.1103)" class="st13" width="34.5" height="0.5"/>
			</g>
			<g>
				
					<rect x="238.7" y="195.2" transform="matrix(0.3494 -0.937 0.937 0.3494 -16.6304 366.9229)" class="st13" width="34.5" height="0.5"/>
			</g>
			<g>
				
					<rect x="244.3" y="177.1" transform="matrix(0.9863 -0.1651 0.1651 0.9863 -28.7347 43.0462)" class="st13" width="0.5" height="34.5"/>
			</g>
			<g>
				
					<rect x="233.9" y="181.9" transform="matrix(0.7713 -0.6365 0.6365 0.7713 -73.1653 194.5714)" class="st13" width="0.5" height="34.5"/>
			</g>
			<g>
				
					<rect x="227.3" y="191.2" transform="matrix(0.3501 -0.9367 0.9367 0.3501 -47.3163 348.5872)" class="st13" width="0.5" height="34.5"/>
			</g>
		</g>
		<g>
			<g>
				
					<rect x="226.1" y="320.2" transform="matrix(0.1929 -0.9812 0.9812 0.1929 -148.4 494.4244)" class="st13" width="0.5" height="34.5"/>
			</g>
			<g>
				
					<rect x="209.9" y="348.5" transform="matrix(0.9464 -0.323 0.323 0.9464 -100.5045 92.0731)" class="st13" width="34.5" height="0.5"/>
			</g>
			<g>
				
					<rect x="216.2" y="358" transform="matrix(0.6581 -0.753 0.753 0.6581 -189.9424 298.3092)" class="st13" width="34.5" height="0.5"/>
			</g>
			<g>
				
					<rect x="226.5" y="363.1" transform="matrix(0.1934 -0.9811 0.9811 0.1934 -159.8766 532.1631)" class="st13" width="34.5" height="0.5"/>
			</g>
			<g>
				
					<rect x="254.8" y="345.3" transform="matrix(0.9465 -0.3227 0.3227 0.9465 -103.3443 101.7149)" class="st13" width="0.5" height="34.5"/>
			</g>
			<g>
				
					<rect x="264.3" y="339" transform="matrix(0.6585 -0.7526 0.7526 0.6585 -177.7092 320.7569)" class="st13" width="0.5" height="34.5"/>
			</g>
			<g>
				
					<rect x="269.3" y="328.7" transform="matrix(0.1929 -0.9812 0.9812 0.1929 -121.8431 543.7778)" class="st13" width="0.5" height="34.5"/>
			</g>
			<g>
				
					<rect x="251.6" y="334.3" transform="matrix(0.9464 -0.323 0.323 0.9464 -93.6655 104.7902)" class="st13" width="34.5" height="0.5"/>
			</g>
			<g>
				
					<rect x="245.3" y="324.8" transform="matrix(0.6581 -0.753 0.753 0.6581 -155.0219 308.8052)" class="st13" width="34.5" height="0.5"/>
			</g>
			<g>
				
					<rect x="235" y="319.8" transform="matrix(0.1934 -0.9811 0.9811 0.1934 -110.5534 505.6374)" class="st13" width="34.5" height="0.5"/>
			</g>
			<g>
				
					<rect x="240.6" y="303.6" transform="matrix(0.9465 -0.3227 0.3227 0.9465 -90.6528 94.9039)" class="st13" width="0.5" height="34.5"/>
			</g>
			<g>
				
					<rect x="231.1" y="309.9" transform="matrix(0.6585 -0.7526 0.7526 0.6585 -167.21 285.862)" class="st13" width="0.5" height="34.5"/>
			</g>
		</g>
		
			<rect x="220.3" y="275" transform="matrix(1.694131e-03 -1 1 1.694131e-03 -49.5621 503.1961)" class="st14" width="13.8" height="2.9"/>
		<g>
			<path class="st15" d="M244.4,284.4c0,0.3-0.1,0.5-0.3,0.7c-0.4,0.5-1.1,0.5-1.6,0.1l-52.1-44.8c-0.5-0.4-0.5-1.1-0.1-1.6
				c0.4-0.5,1.1-0.5,1.6-0.1l52.1,44.8C244.3,283.8,244.4,284.1,244.4,284.4z"/>
		</g>
		<g>
			<path class="st15" d="M249.5,341.5c0,0.2,0,0.3-0.1,0.5c-0.3,0.7-1,1-1.7,0.7l-68-28.9c-0.7-0.3-1-1-0.7-1.7c0.3-0.7,1-1,1.7-0.7
				l68,28.9C249.2,340.5,249.5,341,249.5,341.5z"/>
		</g>
		<g>
			<path class="st15" d="M250,325.3c0,9.4-0.5,16.2-0.5,16.4c0,0.6-0.6,1.1-1.2,1c-0.6,0-1.1-0.6-1-1.2c0-0.3,2.1-30.1-2.4-51.4
				c-0.1-0.6,0.3-1.2,0.9-1.3c0.6-0.1,1.2,0.3,1.3,0.9C249.5,301.1,250.1,314.8,250,325.3z"/>
		</g>
		<g>
			<path class="st14" d="M289.7,216.2c0,22.9-18.7,41.5-41.6,41.4c-22.9,0-41.5-18.7-41.4-41.6c0-22.9,18.7-41.5,41.6-41.4
				C271.2,174.6,289.8,193.3,289.7,216.2z M211.2,216c0,20.4,16.6,37.1,37,37.1c20.4,0,37.1-16.6,37.1-37c0-20.4-16.6-37.1-37-37.1
				C227.8,179,211.2,195.6,211.2,216z"/>
		</g>
		<g>
			<path class="st14" d="M289.5,341.8c0,22.9-18.7,41.5-41.6,41.4c-22.9,0-41.5-18.7-41.4-41.6c0-22.9,18.7-41.5,41.6-41.4
				C270.9,300.2,289.5,318.9,289.5,341.8z M210.9,341.6c0,20.4,16.6,37.1,37,37.1c20.4,0,37.1-16.6,37.1-37
				c0-20.4-16.6-37.1-37-37.1C227.6,304.6,211,321.2,210.9,341.6z"/>
		</g>
		<circle class="st14" cx="244.9" cy="285.5" r="9.1"/>
		<circle class="st15" cx="244.9" cy="285.5" r="6.2"/>
		<g>
			<path class="st12" d="M256.4,285.4c0,0.1,0,0.1,0,0.2c-0.1,6.8-0.4,17.1-0.7,27c-0.3,10.8-0.6,21.9-0.7,29.1
				c-0.1,3.8-3.2,6.9-6.9,6.9c-3.7,0-6.7-3-6.9-6.9l0,0c-0.5-7.3-2.2-18.4-3.9-29.1c-1.6-9.9-3.2-20.2-3.7-27
				c-0.2-2.8,0.8-5.5,2.8-7.7c2.2-2.4,5.4-3.8,8.7-3.8c3.1,0,6,1.2,8.2,3.4C255.2,279.7,256.4,282.5,256.4,285.4z M241.9,341.6
				c0.2,3.5,2.8,6.1,6,6.1c3.3,0,6-2.7,6-6c0.1-7.3,0.4-18.4,0.7-29.1c0.3-9.9,0.6-20.2,0.7-27c0,0,0-0.1,0-0.1c0-2.7-1-5.3-3-7.2
				c-2-2-4.7-3.2-7.6-3.2c-3.1,0-6,1.3-8.1,3.5c-1.8,2-2.7,4.5-2.5,7c0.5,6.8,2.1,17.1,3.7,27C239.7,323.2,241.5,334.3,241.9,341.6
				L241.9,341.6z"/>
		</g>
		<g>
			<path class="st15" d="M190,240.6C190,240.6,190,240.6,190,240.6l-1.5,74c0,0.9-0.6,1.5-1.3,1.5c-0.7,0-1.2-0.7-1.2-1.6l1.5-74
				c0-0.9,0.6-1.5,1.3-1.5C189.5,239.1,190,239.8,190,240.6z"/>
		</g>
		
			<ellipse transform="matrix(0.2314 -0.9729 0.9729 0.2314 -142.1891 507.0463)" class="st16" cx="249.8" cy="343.5" rx="5.3" ry="5.3"/>
		<circle class="st15" cx="249.8" cy="343.5" r="2"/>
		<path class="st15" d="M247.3,215.4c-0.1,0.1-9.2,10.9-18.2,14c-8.4,2.9-42.3,10.1-48.4,11.3l-2.5-6.5c0,0,0-0.1-0.1-0.1
			c-0.3-0.5-0.9-0.7-1.4-0.5c-0.3,0.1-0.5,0.3-0.6,0.6c-0.1,0.1-0.1,0.3-0.1,0.4c0,0.2,0,0.3,0.1,0.5l0.5,1.2l2.4,6.2
			c0.2,0.5,0.7,0.8,1.3,0.7c1.6-0.3,40.2-8.4,49.6-11.6c9.6-3.3,18.8-14.2,19.2-14.6c0.2-0.2,0.3-0.5,0.3-0.7c0-0.3-0.1-0.6-0.4-0.9
			C248.4,214.8,247.7,214.9,247.3,215.4z"/>
		
			<ellipse transform="matrix(0.1619 -0.9868 0.9868 0.1619 -5.2182 426.0445)" class="st16" cx="248.2" cy="216.1" rx="4.8" ry="4.8"/>
		<path class="st14" d="M176.8,296.3c-1,0-1.7,0.8-1.8,1.7l-0.9,19.1c0,1.1,0.9,2,2,2.1l3.2,0c1.3,0,2.3-1.2,2.1-2.4l-2.9-18.9
			C178.4,296.9,177.7,296.3,176.8,296.3L176.8,296.3z"/>
		<circle class="st15" cx="248.2" cy="216.1" r="2"/>
		<path class="st15" d="M176.6,228.5c0.3,0,0.5,0,0.8,0.1c1.6,0.3,2.8,1.8,2.8,3.5c0,1.1-0.5,2.1-1.3,2.8c-0.4,0.3-0.9,0.6-1.5,0.7
			c-0.2,0.1-0.5,0.1-0.8,0.1c-0.3,0-0.5,0-0.8-0.1c-1.6-0.4-2.8-1.8-2.8-3.5C173,230.1,174.6,228.5,176.6,228.5z"/>
		<path class="st14" d="M176.6,230.7c0.1,0,0.2,0,0.3,0c0.6,0.1,1.1,0.7,1.1,1.4c0,0.4-0.2,0.8-0.5,1.1c-0.2,0.1-0.4,0.2-0.6,0.3
			c-0.1,0-0.2,0-0.3,0c-0.1,0-0.2,0-0.3,0c-0.6-0.1-1.1-0.7-1.1-1.4C175.2,231.3,175.8,230.7,176.6,230.7z"/>
		<path class="st13" d="M264.1,297.3l-1.6,2.1L244.7,286c-0.6-0.4-0.7-1.2-0.3-1.8l0,0c0.4-0.6,1.2-0.7,1.8-0.3L264.1,297.3z"/>
		
			<rect x="255.6" y="294.9" transform="matrix(1.694131e-03 -1 1 1.694131e-03 -34.2728 558.4117)" class="st14" width="13.8" height="2.9"/>
		<path class="st11" d="M280.3,325.5c0,0.1,0,0.2-0.1,0.4c-0.3,1-1.4,1.5-2.4,1.2l-13-4.2c-1-0.3-1.5-1.4-1.2-2.4
			c0.3-1,1.4-1.5,2.4-1.2l13,4.2C279.8,323.8,280.4,324.7,280.3,325.5z"/>
		<path class="st12" d="M277.9,327c0,0,3.9,3.1,4.5,2.1c0.6-1,8.1-16.1,7.4-16.5c-2.3-1.4-10.3,10.1-10.6,11.4
			C279,325.4,277.3,326.6,277.9,327z"/>
		<path class="st11" d="M167.2,238.5c0,0,3.9-8.9,6.3-9.5c2.4-0.6-0.4,8.3-5.2,11.7L167.2,238.5z"/>
		<path class="st10" d="M165.5,238.3c1.5,0.5,3,1,4.4,1.4c-7,23.4-18.2,32.8-42.1,33.9c-3.7,0.2-4.1-1-4-4.1c-0.5-0.3-0.5-0.3,0,0
			c0.2-3,0.9-3.6,4.7-3.8C152.7,264.7,154.8,259.9,165.5,238.3z"/>
		<g>
			<path class="st13" d="M271.4,319.5c-0.6,2-1.3,4-2.1,5.9c-37.7-17-72.6-21.4-112.2-10.2c-1.6-5.3-0.2-9-1.7-14.3
				C196,295.1,233.8,303.9,271.4,319.5z"/>
		</g>
		<g>
			<g>
				<path class="st10" d="M157.7,316.2c1.3-4.3-0.6-8.6,1.7-12.7c1.6-2.8,3.8-5.4,5.8-8.1c-15.3-0.9-29.8-2.8-33.5-19.3
					c-3.1-14-16.2-12.6-18.1,0.7c-0.4,2.7-0.2,4.1,1.3,8.6C122.3,306.4,135.2,313.8,157.7,316.2z"/>
			</g>
		</g>
		<path class="st11" d="M108.7,264.2c5.1,2.5,11.1,1,12.6-2.1c1.5-3.1-1.9-6.7-7-9.2c-5.1-2.5-9-1.3-10.5,1.9
			S103.6,261.7,108.7,264.2z"/>
		<path class="st1" d="M109.4,267.4c1.2,0.6,3.3,0.2,3.7-0.7c0.4-0.9-0.4-1.6-1.6-2.1c-1.2-0.6-2.7-0.4-3.1,0.4
			C108,265.8,108.2,266.8,109.4,267.4z"/>
		<path class="st17" d="M105.1,263.4c0,0-2.8-2.7-2.7-5.9c0.1-3.2,2.7-8,7.8-6.9c0,0,3.5,1.2,1.8,5.3c-1.8,4.1-3.4,2.3-2.6,5.3
			s-1.6,3.9-1.4,4.5L105.1,263.4z"/>
		<path class="st11" d="M109.6,263.7l4.1-4.4c0.6,0.6,6.3,6,8,8.4c0.4,0.8-0.4,2.1-1.9,2.9c-1.3,0.7-2.7,0.7-3.3,0.2l0,0
			C115.4,269.3,111.7,265.7,109.6,263.7z"/>
		<path class="st17" d="M112.1,264.1c0.3-1.3,1.4-1,3.9-1c2.4-0.1,5.5-2.3,3.2-6.7c-1.5-2.8,2.7,0.7,2.7,0.7c1.6,2,1.8,3.8,0.9,5.6
			c-1.3,2.6-4.7,4.3-8.6,4.3C113.1,266.3,111.9,265,112.1,264.1z"/>
		<path class="st17" d="M119.2,256.2c0,0,0,0.1-0.1,0.2c-0.6,1-3.3,5.7-2.7,7.7c0.7,2.2,1.8-2,1.8-3.7s1.1-2.1,1.9-2.9
			C120.8,256.7,120.5,255.3,119.2,256.2z"/>
		<path class="st11" d="M81.3,301.1c0,0-7.7-6.7-10.3-6.2c-2.5,0.5,4.1,7.7,10.2,8.8L81.3,301.1z"/>
		<path class="st10" d="M80.3,299.8c-1.1,1.6-2.1,3.1-3.3,4.5c30.7,9.1,40.2,4.5,44.5-24.8c0.7-4.5-0.2-5.2-4.2-5
			c-3,0.1-3.3,1.7-3.8,5.8C110.1,306.5,109,304.7,80.3,299.8z"/>
	</g>
	<g>
		<g>
			<g>
				<path class="st11" d="M685.3,233.1c0,0-3,2.2-3.4,1.7c-0.4-0.5-6-14.1-5.8-15.3s2.3,1.4,2.3,1.4s4.1,5.9,5.9,9.5
					C684.3,230.4,685.5,233.1,685.3,233.1z"/>
				<path class="st11" d="M731.5,218.5c1.3-1.4,1.8-2.5,1.2-4c-0.6-1.6-2.4-2.4-4-1.8l-44.5,17.9c-0.7,0.3-1.1,1.1-0.8,1.8
					c0.3,0.7,1,1.1,1.8,0.9l2-0.6C718.9,224,726.7,223,731.5,218.5z"/>
				<path class="st18" d="M773.2,209c4.9-3,4.7-6.2,4-8.1c0-0.1,0-0.3-0.1-0.4c-0.5-1.7-2.2-2.6-3.9-2.1l-45.6,14.8
					c-0.7,0.2-1.1,1-0.9,1.7c0.1,0.2,0.2,0.5,0.4,0.6c1,1.5,2.8,2.3,4.6,2C740.9,216.4,766.8,212.9,773.2,209z"/>
				<path class="st19" d="M681.6,225.1c-0.1,1.7,0.3,4.2,1.3,6.9c0.3,0.9,0.7,1.7,1,2.4c-1.2,0.6-2.5,1.2-2.8,0.6
					c-0.5-1-6.4-15.8-5.7-16.2C676.7,218.2,679.5,221.8,681.6,225.1z"/>
				<path class="st20" d="M772.6,198.6c0,0-27.8,7.5-43.6,13c-15.8,5.6-28.6,10.4-28.6,10.4s2.4,8.1,3.2,8.8
					c0.8,0.7,28.8-7.2,32.2-11.1c0,0,37-7.5,41.5-10.3L772.6,198.6z"/>
				<path class="st18" d="M770.2,210.7c5.5-1.8,7.8,0.3,8.8,2.2c0.1,0.1,0.2,0.2,0.3,0.3c1,1.4,0.5,3.4-0.9,4.3l-40.7,25.4
					c-0.6,0.4-1.5,0.2-1.9-0.4c-0.1-0.2-0.2-0.4-0.2-0.7c-0.5-1.7,0.1-3.6,1.4-4.8C743.8,230.6,763.1,213,770.2,210.7z"/>
				<path class="st11" d="M696.8,266c0,0-3.7,0.3-3.7,1c0,0.7,4.7,14.6,5.7,15.3c1,0.8,0.8-2.6,0.8-2.6s-0.7-7.1-1.8-11
					C697.8,268.8,697,266,696.8,266z"/>
				<path class="st11" d="M735.8,236.3c1.9-0.3,3.2,0,4.1,1.3c1,1.4,0.5,3.4-1,4.4l-42.7,27.1c-0.7,0.4-1.5,0.3-2-0.4
					c-0.4-0.6-0.3-1.5,0.4-2l1.8-1.3C723.4,243.8,729.1,237.8,735.8,236.3z"/>
				<path class="st19" d="M699.3,274.4c-1.2-1.2-2.5-3.4-3.5-6c-0.3-0.9-0.6-1.7-0.8-2.5c-1.3,0.3-2.7,0.8-2.6,1.4
					c0.3,1.1,5.6,16.1,6.3,16C700.1,282.9,699.9,278.4,699.3,274.4z"/>
				<path class="st20" d="M774,205.4c0,0-30.8,18.9-35.5,28.2c0,0-10.1,1.6-26.4,16.1l3.5,9.7c0,0,23.4-15,28.3-17.9
					c4.9-3,39-24.1,39-24.1L774,205.4z"/>
				<path class="st19" d="M843.5,184c4.9,6.4,2.6,19.3-6.1,21.4c-0.8,0.2-1.7,0.3-2.4,0.7c-1.1,0.7-1.6,1.9-1.9,3.1
					c-0.7,2.7-0.8,5.6-2.1,8.2c-2.1,4-7.4,6.3-12,5c-4.3-1.3-10-8-10.6-12.1c-0.6-4.2,1.1-8.3,3.8-11.6c0.7-0.8,1.4-1.6,1.9-2.5
					c0.8-1.8,0.4-3.8,0.8-5.7c0.3-1.8,3.9-2.7,5.4-3.8c1.9-1.5,4.5,0,6.6-1.3c2.4-1.5,4.2-3.8,6.9-4.8
					C837.2,179.5,841.3,181.2,843.5,184z"/>
				<g>
					<g>
						<path class="st9" d="M777,220.7c0.1,0.5,17-6.6,18.6-8c7.8-2,22.3-7,28.1-10.6c7.3-4.5,9.5-6.8,5.1-13.4
							c-1.4-2.1-7.7-1.9-12.2-1.3s-5.2-0.2-12.2,4.3c-2.5,1.6-20.8,4.9-26.1,5.2c-1.5,0.1-6.3,1.6-8,1.3c-0.3,1.1-0.7,2.5-0.6,3.6
							C770.4,209,775.6,213.5,777,220.7z"/>
					</g>
				</g>
				<path class="st9" d="M823.1,192.8c3.7,1.3,4.5-2,4.5-2c0.7-1-0.2-3.1-1.4-3.9l-26.4-14.4c-0.4-0.3-0.9,0.4-1.2,0.8
					c-0.1,0.1-0.2,0.3-0.2,0.5c-0.4,1.2-1.8,1.8-0.9,2.7C802.1,181,818.2,191,823.1,192.8z"/>
				<path class="st9" d="M824.2,194.4c2.2-2.8,4.7-0.6,4.8-0.6c1.1,0.4,1.6,2.5,1.1,3.7l-14.3,25.7c-0.2,0.4-1,0.1-1.5-0.1
					c-0.2-0.1-0.3-0.2-0.4-0.3c-0.9-0.8-1.4-2.2-1.1-3.3C813.9,213.7,821.3,198.1,824.2,194.4z"/>
				<path class="st19" d="M832.9,192.1c0,0,3.8,4.3,9,2.8c7-2.1,7.7-10.2,4-13.1c-3.4-2.6-6.1-0.9-6.7-0.2
					C838.6,182.3,832.9,192.1,832.9,192.1z"/>
				<path class="st11" d="M839.9,191.3l-1.6-5.6c-0.8,0.2-8.1,2.4-10.6,3.8c-0.7,0.5-0.6,2,0.3,3.4c0.8,1.2,2,1.8,2.8,1.6l0,0
					C832.4,193.5,837.2,192.1,839.9,191.3z"/>
				<path class="st11" d="M839,191.2c-4.6,0.7-8.9-1.9-9.4-4.7c-0.5-2.8,3.1-4.8,7.7-5.5c4.6-0.7,7.4,1.2,7.8,4
					C845.6,187.8,843.6,190.4,839,191.2z"/>
				<path class="st19" d="M844.5,181.6c0,0-5.4,3.2-5.4,9.3c0,3.1,4.7,2.4,4.7,2.4l3.1-4.3c0,0,0.9-2.9,0.1-4.5
					C847,184.4,844.5,181.6,844.5,181.6z"/>
				<path class="st19" d="M840.4,180.8c0,0,3.5,4.2,5.5,4.3c1.9,0.1,0.8-2.3,0.8-2.3S844.3,180,840.4,180.8z"/>
				<path class="st19" d="M847,187.2c0,0,0.9-2.8,3.5-2.1c2.6,0.7,2.8,3.6,1.4,4.7c-1.5,1.3-2.9,0.8-3.7,0.3
					C847.3,189.5,846.8,188.2,847,187.2z"/>
				<path class="st11" d="M838.2,193.9c-1.2-0.1-2.6-1.3-2.5-2.1c0-0.8,1-1,2.2-0.9c1.2,0.1,2.2,0.8,2.2,1.7
					C839.9,193.3,839.3,194,838.2,193.9z"/>
				<path class="st11" d="M787.7,223.7c-0.4-0.1-0.8-0.2-1.2-0.4c-2.6-1.4-7.3-4.2-7.6-5.9c-0.5-2.3,7.4,0.5,10.9,5.1L787.7,223.7z"
					/>
				<g>
					<path class="st9" d="M787.5,223.8c6.6,1.4,21.3,2.3,25.5,1.6c3.5-0.6,3.1-2.7,3.1-2.8c0.1-1.1-1.3-2.6-2.6-2.6l-25.9,0.6
						L787.5,223.8z"/>
				</g>
				<path class="st11" d="M807.6,150.9c-0.1-0.4-0.2-0.8-0.1-1.2c0.2-2.9,0.6-8.4,2.1-9.5c1.9-1.4,2.7,6.9,0.1,12.1L807.6,150.9z"/>
				<g>
					<path class="st9" d="M807.4,150.1c-3.7,5.6-10,19-10.8,23.2c-0.7,3.5,1.4,3.9,1.5,3.9c1,0.5,2.9-0.2,3.4-1.4l8.9-24.3
						L807.4,150.1z"/>
				</g>
			</g>
		</g>
		<g>
			<g>
				<g>
					<path class="st21" d="M784.6,151.9c3.5-2.9,20.4-8.1,22.3-8.7l0.1,0c0.2,0,17.6-3.9,24.3-8.9c3.4-2.6,7.1-4,10.4-5.2
						c3.3-1.2,6.2-2.3,7.5-4.3c1.7-2.7,14-14.9,25.7-24.1c8.8-6.8,21-11.5,21.5-11.7l0.9,2.5c-0.1,0-12.4,4.7-20.8,11.3
						c-11.7,9.1-23.6,21.1-25.1,23.4c-1.8,2.8-5.1,4-8.9,5.4c-3.1,1.1-6.6,2.4-9.7,4.8c-7,5.3-23.9,9.1-25.3,9.4
						c-5.1,1.6-18.8,6.1-21.4,8.2L784.6,151.9z"/>
					<path class="st21" d="M838.4,133.3l-0.9-2.5c4-1.4,7.9,0.2,11.7,1.7c2.1,0.8,4.3,1.7,6.4,2c1.3,0.2,2.6,0.1,4,0.1
						c1.7,0,3.4-0.1,5.2,0.3c3,0.6,5.5,2.1,8,3.5c0.6,0.4,1.3,0.8,2,1.1c3.7,2,6.6,2.7,9.1,1.9l0.8,2.6c-3.1,1-6.8,0.3-11.1-2.1
						c-0.7-0.4-1.4-0.8-2-1.2c-2.4-1.4-4.6-2.7-7.1-3.2c-1.5-0.3-3-0.3-4.6-0.2c-1.4,0-2.9,0-4.4-0.1c-2.4-0.3-4.8-1.2-7.1-2.1
						C844.8,133.5,841.5,132.2,838.4,133.3z"/>
					<path class="st21" d="M853.8,120c5.1-2.3,10.8-1.9,16.2-1.5l0.7,0c5.2,0.3,21-2.9,25.4-5.6l1.4,2.3c-4.9,3-21.2,6.4-27,6
						l-0.7,0c-5.1-0.3-10.4-0.7-15,1.3L853.8,120z"/>
					<path class="st21" d="M862.8,136.9l1-1c0.6,0.6,1.3,1.2,1.9,1.8c0.7,0.7,1.5,1.4,2.2,2.1c1.3,1.4,2.3,3.1,3.3,4.7
						c1.4,2.3,2.7,4.5,4.7,6c0.9,0.7,2,1.2,3,1.7l11.6,5.7l-0.6,1.3l-11.6-5.7c-1.1-0.5-2.2-1.1-3.2-1.8c-2.3-1.7-3.7-4.1-5.1-6.4
						c-0.9-1.6-1.9-3.2-3.1-4.5c-0.6-0.7-1.3-1.3-2.1-2C864.2,138.2,863.5,137.6,862.8,136.9z"/>
					<path class="st21" d="M874.9,150.8c0-0.1,0-0.1-0.1-0.2l0.7-0.1c0.1,0.4,0.6,0.7,1.5,0.8c1.5,0.3,3,0.3,4.4,0.2
						c1.4,0,2.9,0,4.5,0.3c1.6,0.3,3.4,0.8,5,1.3c1.7,0.5,3.4,1,5,1.3l-0.1,0.7c-1.6-0.3-3.4-0.8-5-1.3c-1.7-0.5-3.4-1-5-1.3
						c-1.5-0.3-3-0.3-4.4-0.2c-1.4,0-2.9,0-4.5-0.3C876.5,152,875.2,151.8,874.9,150.8z"/>
					<path class="st21" d="M869.5,120.7l0.1-1.4c3,0.3,5.1,2.8,6.9,5c0.3,0.3,0.5,0.6,0.8,1c3.6,4.2,8.5,7.2,13.8,8.5l-0.3,1.4
						c-5.6-1.4-10.8-4.5-14.6-9c-0.3-0.3-0.5-0.6-0.8-1C873.7,123,871.9,120.9,869.5,120.7z"/>
					<path class="st21" d="M851.7,123.1c0.5-1.1,0.5-2.5-0.2-4.2c0,0,0-0.1,0-0.1c-0.1-0.4-0.3-0.7-0.4-1.1c-0.5-1.1-0.9-2.2-1-3.5
						c-0.1-1.1,0.1-2.2,0.2-3.2c0.2-1.3,0.4-2.5,0.1-3.6l0.7-0.2c0.3,1.3,0.1,2.6-0.1,3.9c-0.2,1-0.3,2-0.2,3c0.1,1.1,0.5,2.2,1,3.3
						c0.2,0.4,0.3,0.8,0.4,1.1c0.8,2,0.8,3.6,0.2,4.9L851.7,123.1z"/>
				</g>
				<path class="st21" d="M861.8,113.8c1.3-1.6,1.5-3.8,1.6-5.6c0.1-2.2-0.1-4.5-0.2-6.6c-0.2-3.1-0.4-6.4,0-9.6
					c0.3-2.1,0.8-3.7,1.7-5c0.6-0.9,1.4-1.7,2.2-2.5c0.3-0.3,0.6-0.5,0.8-0.8c1.9-1.9,3.3-4.2,4.3-6.6l1.1,0.4c-1,2.6-2.5,5-4.5,7
					c-0.3,0.3-0.6,0.6-0.9,0.8c-0.8,0.7-1.5,1.4-2.1,2.3c-0.8,1.1-1.2,2.6-1.5,4.5c-0.4,3.1-0.2,6.3,0,9.4c0.1,2.2,0.3,4.5,0.2,6.7
					c-0.1,2-0.3,4.4-1.9,6.3L861.8,113.8z"/>
				<path class="st8" d="M891,86.5c0.3-3.1,2.6-5.5,2.6-5.5s1.9,2.7,1.6,5.8c-0.3,3.1-2.6,5.5-2.6,5.5S890.7,89.6,891,86.5z"/>
				<path class="st9" d="M908.3,115.5c2,0.6,3.2,2.5,3.2,2.5s-2.1,0.8-4.1,0.2c-2-0.6-3.2-2.5-3.2-2.5S906.3,114.9,908.3,115.5z"/>
				<path class="st8" d="M905,91.8c-2.1-0.5-3.4-2.2-3.4-2.2s2-1,4.1-0.6c2.1,0.5,3.4,2.2,3.4,2.2S907.1,92.3,905,91.8z"/>
				<path class="st9" d="M883.2,75.6c-1.9,0.9-4.1,0.4-4.1,0.4s0.9-2,2.8-2.9c1.9-0.9,4.1-0.4,4.1-0.4S885.1,74.7,883.2,75.6z"/>
				<path class="st9" d="M883,127.8c-2.1,0.3-4-0.8-4-0.8s1.5-1.7,3.6-2c2.1-0.3,4,0.8,4,0.8S885.1,127.5,883,127.8z"/>
				<path class="st8" d="M903.7,138.7c-3.9-1.8-6-5.8-6-5.8s4.4-1.2,8.3,0.5c3.9,1.8,6,5.8,6,5.8S907.6,140.4,903.7,138.7z"/>
				<path class="st8" d="M888.8,123.1c-4.3-0.6-7.3-4-7.3-4s3.9-2.4,8.1-1.7c4.3,0.6,7.3,4,7.3,4S893,123.7,888.8,123.1z"/>
				<path class="st9" d="M891.1,137.7c-2.5-1.9-3.2-5.2-3.2-5.2s3.3-0.1,5.8,1.8c2.5,1.9,3.2,5.2,3.2,5.2S893.6,139.6,891.1,137.7z"
					/>
				<path class="st8" d="M904.9,105.3c7.1-2.8,14.6-0.2,14.6-0.2s-3.9,7-10.9,9.8c-7.1,2.8-14.6,0.2-14.6,0.2
					S897.8,108.1,904.9,105.3z"/>
				<path class="st9" d="M893.5,162.5c-2.8-1.3-4.2-4.3-4.2-4.3s3.2-0.8,6,0.5c2.8,1.3,4.2,4.3,4.2,4.3S896.3,163.8,893.5,162.5z"/>
				<path class="st9" d="M892.1,152.7c-2.1,0.5-4.1-0.4-4.1-0.4s1.3-1.8,3.4-2.4c2.1-0.5,4.1,0.4,4.1,0.4S894.1,152.2,892.1,152.7z"
					/>
				<path class="st8" d="M872,118.1c-1.9,0.9-4.1,0.3-4.1,0.3s1-2,2.9-3c1.9-0.9,4.1-0.3,4.1-0.3S874,117.2,872,118.1z"/>
				<path class="st8" d="M854.4,113.2c-2.1,0.5-4.1-0.4-4.1-0.4s1.3-1.8,3.4-2.4c2.1-0.5,4.1,0.4,4.1,0.4S856.5,112.7,854.4,113.2z"
					/>
				<path class="st8" d="M888.7,147.5c-5.7-0.9-9.7-5.5-9.7-5.5s5.2-3.1,10.9-2.2c5.7,0.9,9.7,5.5,9.7,5.5S894.4,148.4,888.7,147.5z
					"/>
				<path class="st8" d="M898,133.8c-5,1.4-10.1-0.8-10.1-0.8s3.1-4.6,8.2-6c5-1.4,10.1,0.8,10.1,0.8S903,132.4,898,133.8z"/>
				<path class="st8" d="M892.3,112.6c-3.9,5.5-10.8,7.2-10.8,7.2s-0.5-7.1,3.4-12.6c3.9-5.5,10.8-7.2,10.8-7.2
					S896.2,107.1,892.3,112.6z"/>
				<path class="st9" d="M871.2,152.2c-1.4,1.6-3.7,1.9-3.7,1.9s0.1-2.3,1.5-3.9c1.4-1.6,3.7-1.9,3.7-1.9S872.6,150.6,871.2,152.2z"
					/>
				<path class="st8" d="M892.3,159.8c1.8,2,1.9,4.9,1.9,4.9s-2.9-0.4-4.7-2.5c-1.8-2-1.9-4.9-1.9-4.9S890.5,157.7,892.3,159.8z"/>
				<path class="st8" d="M871.9,93.7c-3.6,2.2-8,1.6-8,1.6s1.4-4.2,5-6.4c3.6-2.2,8-1.6,8-1.6S875.5,91.5,871.9,93.7z"/>
				<path class="st8" d="M845.7,101.8c-1.3-4.5,0.7-9.1,0.7-9.1s4.1,2.8,5.4,7.3c1.3,4.5-0.7,9.1-0.7,9.1S847,106.4,845.7,101.8z"/>
				<path class="st9" d="M852,105.2c1.2-1.8,3.4-2.3,3.4-2.3s0.2,2.3-1.1,4c-1.2,1.8-3.4,2.3-3.4,2.3S850.7,106.9,852,105.2z"/>
				<path class="st8" d="M875.7,94.1c3.5-5,9.8-6.7,9.8-6.7s0.5,6.5-3,11.5c-3.5,5-9.8,6.7-9.8,6.7S872.1,99.1,875.7,94.1z"/>
				<path class="st8" d="M901.4,158.6c-4.5-0.6-7.8-4.2-7.8-4.2s4.1-2.6,8.6-1.9c4.5,0.6,7.8,4.2,7.8,4.2S906,159.2,901.4,158.6z"/>
				<path class="st8" d="M902.2,90.4c-4.1,3.3-9.6,3.2-9.6,3.2s1.1-5.4,5.1-8.7c4.1-3.3,9.6-3.2,9.6-3.2S906.3,87.1,902.2,90.4z"/>
				<path class="st8" d="M877.9,108.1c-3.1-0.4-5.3-2.9-5.3-2.9s2.8-1.8,5.9-1.3c3.1,0.4,5.3,2.9,5.3,2.9S881,108.5,877.9,108.1z"/>
				<path class="st8" d="M868.2,121.6c2.4,2,3,5.3,3,5.3s-3.3,0-5.7-2.1c-2.4-2-3-5.3-3-5.3S865.8,119.6,868.2,121.6z"/>
				<path class="st21" d="M762,151.2l-0.1-0.5c1.3-0.2,2.4-0.9,3.5-1.7c0.8-0.5,1.5-1,2.4-1.4c2.2-0.9,4.8-0.6,6.8,0.7
					c0.2,0.1,0.3,0.3,0.5,0.4c0.5,0.3,0.9,0.7,1.4,0.8c0.8,0.3,1.7,0.1,2.7-0.2c0.8-0.2,1.6-0.4,2.4-0.3c1,0.1,1.9,0.7,2.7,1.2
					c0.2,0.1,0.4,0.3,0.7,0.4c0.7,0.4,2.1,1.1,3.2,0.5l0.2,0.4c-1.3,0.8-2.9,0-3.7-0.5c-0.2-0.1-0.5-0.3-0.7-0.4
					c-0.8-0.5-1.6-1-2.5-1.1c-0.7-0.1-1.5,0.1-2.2,0.3c-1,0.2-2,0.5-2.9,0.1c-0.6-0.2-1.1-0.6-1.5-0.9c-0.2-0.1-0.3-0.3-0.5-0.4
					c-1.8-1.3-4.3-1.5-6.3-0.7c-0.8,0.3-1.6,0.8-2.3,1.3C764.6,150.2,763.4,151,762,151.2z"/>
				<path class="st21" d="M755.4,171.8l0-0.5c5.9,0,11.9-2.6,16-7c0.2-0.2,0.5-0.5,0.7-0.7c0.8-0.9,1.7-1.9,2.8-2.5
					c1.2-0.7,2.5-1,3.8-1.3c1.7-0.4,3.3-0.8,4.5-1.9c0.7-0.7,1.2-1.5,1.7-2.3c0.7-1.1,1.4-2.2,2.5-3l0.3,0.4c-1,0.7-1.7,1.8-2.4,2.8
					c-0.5,0.8-1.1,1.7-1.8,2.4c-1.3,1.3-3,1.7-4.7,2c-1.3,0.3-2.6,0.6-3.7,1.2c-1,0.6-1.9,1.5-2.7,2.4c-0.2,0.3-0.5,0.5-0.7,0.8
					C767.6,169.1,761.5,171.7,755.4,171.8z"/>
				<path class="st21" d="M771.5,152.1c0.8-0.4,1.6-0.5,2.5-0.5c0.5,0,1.1-0.1,1.5-0.2c0.8-0.2,1.4-0.6,2.1-1
					c0.4-0.3,0.9-0.6,1.4-0.8l0.2,0.4c-0.5,0.2-0.9,0.5-1.3,0.8c-0.7,0.4-1.4,0.9-2.3,1.1c-0.5,0.1-1.1,0.2-1.6,0.2
					c-0.8,0-1.6,0.1-2.2,0.5L771.5,152.1z"/>
				<path class="st21" d="M758.9,148.1c0.9-0.3,1.9-0.7,3-0.7c0.5,0,0.9,0.1,1.4,0.2l3.4,0.7l-0.1,0.5l-3.4-0.7
					c-0.4-0.1-0.9-0.2-1.3-0.2c-1,0-1.9,0.3-2.8,0.7L758.9,148.1z"/>
				<path class="st21" d="M754.8,163l-0.1-0.5c1.5-0.4,3.2-0.5,4.7-0.3c0.7,0.1,1.3,0.3,1.9,0.4c1.4,0.4,2.7,0.7,4,0.5
					c1-0.2,1.9-0.6,2.8-1.1c0.9-0.5,1.9-1,2.9-1.2c1.3-0.2,2.6,0,3.8,0.3l-0.1,0.5c-1.2-0.2-2.4-0.5-3.6-0.3c-1,0.2-1.8,0.6-2.8,1.1
					c-0.9,0.5-1.9,1-3,1.2c-1.4,0.2-2.8-0.1-4.2-0.5c-0.6-0.2-1.3-0.3-1.9-0.4C757.8,162.5,756.2,162.6,754.8,163z"/>
				<path class="st21" d="M764.9,155.6c1.7-0.8,3.6-0.6,5.3-0.3c0.3,0,0.5,0.1,0.8,0.1c1.4,0.3,2.9,0.5,4.3,0.3
					c0.6-0.1,1.1-0.3,1.7-0.4l9.9-3l0.1,0.5l-9.9,3c-0.6,0.2-1.2,0.3-1.8,0.4c-1.5,0.2-3-0.1-4.5-0.3c-0.3,0-0.5-0.1-0.8-0.1
					c-1.6-0.3-3.4-0.5-5,0.3L764.9,155.6z"/>
				<path class="st21" d="M768.9,170.9c1-1.5,2.1-3.3,3.9-4.2c0.2-0.1,0.5-0.2,0.7-0.3c0.2-0.1,0.5-0.2,0.7-0.3
					c1.4-0.7,2.2-2,3.1-3.3c0.9-1.3,1.7-2.6,3.1-3.4l0.2,0.4c-1.3,0.7-2.1,2-3,3.2c-0.9,1.3-1.8,2.7-3.3,3.5
					c-0.2,0.1-0.5,0.2-0.7,0.3c-0.2,0.1-0.4,0.2-0.6,0.3c-1.7,0.9-2.8,2.5-3.7,4L768.9,170.9z"/>
				<path class="st21" d="M784.4,164.7c0.8-0.4,1.3-1.4,1.5-2.9c0-0.2,0-0.3,0.1-0.5c0.1-1.1,0.2-2.2,0.9-3.1
					c0.2-0.3,0.5-0.6,0.8-0.9c0.3-0.3,0.6-0.6,0.9-1c0.3-0.6,0.4-1.2,0.5-1.9c0-0.1,0-0.3,0.1-0.4l0,0c0.1-0.9,0.3-2,1-2.6l0.3,0.4
					c-0.6,0.4-0.7,1.5-0.8,2.3l0,0c0,0.1,0,0.3,0,0.4c-0.1,0.7-0.2,1.5-0.6,2.1c-0.3,0.4-0.6,0.7-0.9,1.1c-0.3,0.3-0.5,0.5-0.7,0.8
					c-0.6,0.8-0.7,1.8-0.8,2.8c0,0.2,0,0.3-0.1,0.5c-0.2,1.7-0.8,2.8-1.7,3.3L784.4,164.7z"/>
				<path class="st21" d="M779,152.5l-0.1-0.5c0.6-0.2,1.2-0.1,1.9,0c0.5,0.1,1,0.1,1.5,0c0.2,0,0.3-0.1,0.5-0.1
					c0.1,0,0.3-0.1,0.4-0.1c0.4-0.1,0.7-0.1,1-0.1c0.9,0,1.8,0,2.6,0.2l-0.1,0.5c-0.8-0.1-1.7-0.2-2.5-0.2c-0.3,0-0.6,0-0.9,0.1
					c-0.1,0-0.2,0.1-0.4,0.1c-0.2,0-0.3,0.1-0.5,0.1c-0.5,0.1-1.1,0-1.6,0C780,152.4,779.5,152.3,779,152.5z"/>
				<path class="st21" d="M773.3,172c-0.3-0.8,0-1.6,0.4-2.2c0.4-0.6,1-1.1,1.6-1.5l0.1-0.1c0.6-0.4,1.2-0.9,1.5-1.5
					c0.3-0.6,0.3-1.4,0.3-2.2c0-0.9,0-1.8,0.5-2.5l0.4,0.3c-0.4,0.6-0.4,1.4-0.4,2.3c0,0.8,0,1.7-0.4,2.4c-0.4,0.7-1,1.2-1.7,1.7
					l-0.1,0.1c-0.5,0.4-1.1,0.8-1.5,1.4c-0.4,0.6-0.6,1.4-0.3,1.9l-0.4,0.2C773.4,172.1,773.3,172.1,773.3,172z"/>
				<path class="st21" d="M760.3,158.8l-0.1-0.5c0.9-0.3,1.8-0.5,2.7-0.5c0.6,0,1.2,0.1,1.7,0.2c0.6,0.1,1.2,0.2,1.7,0.2
					c1.2,0,2.3-0.6,3.4-1.2c1-0.6,2.1-1.2,3.4-1.3l0,0.5c-1.1,0.1-2.2,0.7-3.2,1.2c-1.1,0.6-2.3,1.3-3.6,1.3c-0.6,0-1.2-0.1-1.8-0.2
					c-0.6-0.1-1.1-0.2-1.6-0.2C762,158.3,761.1,158.6,760.3,158.8z"/>
				<path class="st21" d="M757.7,168.4l0.1-0.5c1.1,0.2,2.2-0.2,3.3-0.6c0.8-0.3,1.6-0.6,2.4-0.7c0.8-0.1,1.5,0,2.3,0.1
					c0.3,0,0.6,0.1,1,0.1c1.3,0.1,2.2-0.1,2.8-0.7l0.3,0.4c-0.7,0.7-1.8,0.9-3.2,0.8c-0.3,0-0.7-0.1-1-0.1c-0.7-0.1-1.4-0.2-2.2-0.1
					c-0.8,0.1-1.5,0.4-2.3,0.7C760.1,168.2,758.9,168.7,757.7,168.4z"/>
				<path class="st21" d="M763.7,154l-0.2-0.5c0.6-0.2,1.1-0.6,1.6-1.1c0.4-0.4,0.9-0.7,1.4-1c0.4-0.2,0.8-0.3,1.2-0.5
					c0.2-0.1,0.4-0.1,0.6-0.2c0.7-0.3,1.4-0.6,1.9-1.1c0.2-0.2,0.5-0.4,0.7-0.6c0.7-0.6,1.4-1.3,2.4-1.4l0,0.5
					c-0.8,0.1-1.4,0.6-2.1,1.3c-0.2,0.2-0.5,0.5-0.8,0.7c-0.6,0.5-1.3,0.9-2.1,1.1c-0.2,0.1-0.4,0.1-0.6,0.2
					c-0.4,0.1-0.8,0.2-1.1,0.4c-0.5,0.2-0.9,0.6-1.3,0.9C764.9,153.3,764.3,153.7,763.7,154z"/>
				<path class="st21" d="M772,158.8c1.1-0.6,2.4-0.8,3.6-1c0.3,0,0.6-0.1,0.9-0.2c1.2-0.2,2.9-0.7,3.9-1.9c0.1-0.2,0.3-0.4,0.4-0.6
					c0.3-0.4,0.6-0.9,1-1.2l0.3,0.4c-0.4,0.2-0.6,0.6-0.9,1.1c-0.1,0.2-0.3,0.4-0.4,0.6c-1,1.4-2.9,1.9-4.2,2.1
					c-0.3,0.1-0.6,0.1-0.9,0.2c-1.2,0.2-2.4,0.4-3.4,1L772,158.8z"/>
				<path class="st21" d="M770.1,145.2l-0.2-0.5c1.9-0.6,4-0.3,5.6,0.7c0.7,0.4,1.3,1,1.9,1.6c0.3,0.2,0.5,0.5,0.8,0.7
					c1,0.8,2,1.4,3,1.4l0,0.5c-1.4-0.1-2.5-0.9-3.3-1.5c-0.3-0.2-0.5-0.5-0.8-0.7c-0.6-0.5-1.1-1.1-1.8-1.5
					C773.7,144.9,771.8,144.7,770.1,145.2z"/>
				<path class="st21" d="M787.5,164.2c0.7-0.8,0.6-2,0.5-2.7c-0.1-0.4-0.2-0.9-0.3-1.3c-0.1-0.5-0.3-1.1-0.4-1.6c0-0.1,0-0.1,0-0.2
					c0-0.3-0.1-0.6,0.1-0.9l0.4,0.3c-0.1,0.1,0,0.3,0,0.5c0,0.1,0,0.1,0,0.2c0.1,0.5,0.2,1,0.3,1.5c0.1,0.4,0.2,0.9,0.3,1.4
					c0.1,0.9,0.2,2.1-0.6,3.1L787.5,164.2z"/>
				<path class="st21" d="M779.8,146l0.4-0.2c0.4,0.6,1.1,1.1,2.2,1.4c0.2,0,0.4,0.1,0.6,0.1c0.8,0.2,1.5,0.4,2.2,0.8
					c0.7,0.5,1.2,1.1,1.6,1.8l1,1.3l-0.4,0.3l-1-1.3c-0.4-0.6-0.9-1.2-1.5-1.6c-0.6-0.4-1.3-0.6-2-0.7c-0.2,0-0.4-0.1-0.6-0.1
					C781.1,147.3,780.2,146.7,779.8,146z"/>
				<path class="st21" d="M752.1,167.1l-0.1-0.5c1.8-0.4,3.7-0.9,5.4-1.7c0.1-0.1,0.2-0.1,0.3-0.2c0.5-0.2,1-0.5,1.5-0.6
					c0.3-0.1,0.6-0.1,0.8-0.1c0.3,0,0.5-0.1,0.8-0.1c0.3-0.1,0.9-0.3,1.1-0.8l0.5,0.2c-0.2,0.5-0.7,0.9-1.4,1.1
					c-0.3,0.1-0.6,0.1-0.9,0.1c-0.3,0-0.5,0.1-0.8,0.1c-0.5,0.1-1,0.3-1.4,0.6c-0.1,0.1-0.2,0.1-0.3,0.2
					C755.9,166.2,754,166.7,752.1,167.1z"/>
				<path class="st8" d="M872.7,73c3.1-4.6,8.7-6.2,8.7-6.2s0.6,5.8-2.6,10.4c-3.1,4.6-8.7,6.2-8.7,6.2S869.5,77.6,872.7,73z"/>
				<path class="st8" d="M860.9,80.4c-0.5-4.4,2-8.4,2-8.4s3.4,3.2,4,7.6c0.5,4.4-2,8.4-2,8.4S861.4,84.8,860.9,80.4z"/>
			</g>
		</g>
	</g>
	<g>
		<path class="st9" d="M60,265.5c4.1,2.5,9.2,1.5,9.2,1.5s-1.5-5-5.6-7.4c-4.1-2.5-9.2-1.5-9.2-1.5S55.9,263,60,265.5z"/>
		<path class="st9" d="M63.1,286.8c4.4,1.8,9.3,0,9.3,0s-2.3-4.6-6.7-6.4c-4.4-1.8-9.3,0-9.3,0S58.7,285,63.1,286.8z"/>
		<path class="st9" d="M67.7,243.8c-0.7,4.7,2.2,9,2.2,9s4-3.3,4.6-8.1c0.7-4.7-2.2-9-2.2-9S68.4,239,67.7,243.8z"/>
		<path class="st9" d="M74,259.4c-3.8,2.8-4.9,7.9-4.9,7.9s5.2,0.5,9-2.3c3.8-2.8,4.9-7.9,4.9-7.9S77.9,256.6,74,259.4z"/>
		<path class="st9" d="M77.3,278.7c-3.8,2.8-4.9,7.9-4.9,7.9s5.2,0.5,9-2.3s4.9-7.9,4.9-7.9S81.1,275.9,77.3,278.7z"/>
		<g>
			<path class="st9" d="M87.2,322.5l0.8-0.5c-0.1-0.1-6.2-9.6-11.4-23.2c-3-8-5.1-15.8-6.2-23.3c-1.4-9.3-1.2-18.1,0.6-26.1
				l-0.9-0.2c-1.8,8.1-2,17-0.6,26.5c1.1,7.6,3.2,15.5,6.3,23.5C80.9,312.8,87.1,322.4,87.2,322.5z"/>
		</g>
	</g>
	<g>
		<path class="st22" d="M905.6,225c1.1,2,4.1,2.6,8.7,0.1c4.6-2.5,11.2-10.8,11.2-10.8s-10.6,0.9-15.2,3.4S904.5,223,905.6,225z"/>
		<path class="st22" d="M912,233.4c1.7,1.5,4.7,1,8.2-3c3.4-3.9,6.7-14,6.7-14s-9.6,4.6-13,8.5C910.4,228.9,910.3,231.9,912,233.4z"
			/>
		<path class="st22" d="M943.2,200c1.5,1.8,0.8,4.8-3.3,8c-4.1,3.3-14.3,6.1-14.3,6.1s4.9-9.4,9-12.7
			C938.7,198.2,941.7,198.2,943.2,200z"/>
		<path class="st22" d="M948.4,209.2c0.7,2.2-0.9,4.7-5.9,6.4c-5,1.7-15.5,0.7-15.5,0.7s7.9-7.1,12.9-8.7
			C944.9,206,947.7,207,948.4,209.2z"/>
		<path class="st10" d="M933.7,226.7L933.7,226.7c0.2-0.1,0.3-0.4,0.1-0.6l-10.1-16.2c-0.3-0.5-0.9-0.6-1.4-0.3l0,0
			c-0.5,0.3-0.6,1-0.3,1.4l11,15.6C933.3,226.8,933.5,226.9,933.7,226.7z"/>
	</g>
	<g>
		<path class="st22" d="M956.1,417.3c-1.7,1.2-1.9,3.9,0.8,7.8c2.7,3.9,10.9,9,10.9,9s-1.9-9.4-4.7-13.3S957.9,416.1,956.1,417.3z"
			/>
		<path class="st22" d="M949.2,424c-1.2,1.7-0.4,4.3,3.5,7c3.9,2.7,13.3,4.6,13.3,4.6s-5.1-8.1-9-10.8
			C953.2,422.1,950.4,422.2,949.2,424z"/>
		<path class="st22" d="M982.5,448.5c-1.5,1.5-4.2,1.2-7.6-2.1c-3.4-3.3-7-12.2-7-12.2s9,3.5,12.4,6.8
			C983.7,444.3,984,447,982.5,448.5z"/>
		<path class="st22" d="M974.8,454.2c-1.9,0.9-4.4-0.3-6.4-4.6s-2.3-13.9-2.3-13.9s7.2,6.4,9.2,10.7
			C977.4,450.7,976.7,453.4,974.8,454.2z"/>
		<path class="st10" d="M957.5,442.8L957.5,442.8c0.1,0.2,0.4,0.2,0.6,0.1l13.6-10.8c0.4-0.3,0.5-0.9,0.1-1.3l0,0
			c-0.3-0.4-0.9-0.4-1.3-0.1l-12.9,11.6C957.4,442.4,957.4,442.7,957.5,442.8z"/>
	</g>
	<path class="st1" d="M203.9,45.3c-0.2-4.4-5.3-10.4-10.7-10.7c5.4-0.5,10.3-5.8,10.7-10.7c0.2,4.8,5.4,10.2,10.7,10.7
		C209.4,34.9,204.3,40.8,203.9,45.3z"/>
	<path class="st1" d="M457.7,41.5c-0.1-2.6-3.1-6.2-6.3-6.3c3.2-0.3,6.1-3.5,6.3-6.3c0.1,2.8,3.2,6.1,6.3,6.3
		C460.9,35.3,457.9,38.8,457.7,41.5z"/>
	<path class="st1" d="M718.3,69.6c-0.1-2.6-3.1-6.2-6.3-6.3c3.2-0.3,6.1-3.5,6.3-6.3c0.1,2.8,3.2,6.1,6.3,6.3
		C721.6,63.4,718.5,66.9,718.3,69.6z"/>
	<path class="st1" d="M742.9,48.2c-0.1-1.9-2.2-4.4-4.5-4.5c2.3-0.2,4.4-2.5,4.5-4.5c0.1,2,2.3,4.3,4.5,4.5
		C745.2,43.8,743,46.3,742.9,48.2z"/>
</g>
</svg>
