<?xml version="1.0" encoding="utf-8"?>
<!-- Generator: Adobe Illustrator 25.4.1, SVG Export Plug-In . SVG Version: 6.00 Build 0)  -->
<svg version="1.1" id="Calque_1" xmlns="http://www.w3.org/2000/svg" xmlns:xlink="http://www.w3.org/1999/xlink" x="0px" y="0px"
	 viewBox="0 0 782.9 374.6" style="enable-background:new 0 0 782.9 374.6;" xml:space="preserve">
<style type="text/css">
	.st0{fill:#73BBC9;}
	.st1{fill:#3899B0;}
	.st2{fill:#58ACBF;}
	.st3{fill:#EAC1AB;}
	.st4{fill:#FFFFFF;}
	.st5{fill:none;stroke:#58ACBF;stroke-width:2;stroke-linecap:round;stroke-miterlimit:10;}
	.st6{fill:#F26951;}
	.st7{fill:#FFFBF5;}
	.st8{fill:#FFFFFF;stroke:#FFFFFF;stroke-miterlimit:10;}
</style>
<g>
	<g>
		<g>
			<path class="st0" d="M67,353.6l-0.5-0.3c0.1-0.3,13.5-25.9,5.8-35.2c-0.6-0.7-1.1-1.3-1.6-2c-7.9-9.3-12.6-15-2-26.1
				c5.3-5.6,7.2-13.6,4.9-20.9c-2.5-8.1-9.4-14-19-16.2c-4.5-1-10.9-3.1-15.7-7.1c-2.9-2.4-3.9-4.4-3.9-4.5l0.6-0.3
				c0,0.1,4,7.8,19.2,11.3c9.8,2.2,16.9,8.3,19.5,16.6c2.3,7.5,0.3,15.8-5.1,21.5c-10.2,10.8-5.8,15.9,2.1,25.3
				c0.5,0.6,1.1,1.3,1.6,2c3.4,4,3.4,11.3,0.2,21.6C70.5,347,67.1,353.6,67,353.6z"/>
		</g>
		<g>
			
				<ellipse transform="matrix(4.764928e-02 -0.9989 0.9989 4.764928e-02 -248.3387 357.2733)" class="st0" cx="63.2" cy="308.9" rx="3.6" ry="3.6"/>
		</g>
		<g>
			
				<ellipse transform="matrix(0.6859 -0.7277 0.7277 0.6859 -165.8398 120.6724)" class="st0" cx="56.9" cy="252.4" rx="3.6" ry="3.6"/>
		</g>
		<g>
			
				<ellipse transform="matrix(0.6859 -0.7277 0.7277 0.6859 -163.0211 99.668)" class="st0" cx="33.9" cy="238.7" rx="3.6" ry="3.6"/>
		</g>
		<g>
			
				<ellipse transform="matrix(0.5673 -0.8235 0.8235 0.5673 -187.5718 153.2238)" class="st0" cx="52" cy="255.1" rx="3.6" ry="3.6"/>
		</g>
		<g>
			<circle class="st0" cx="61.7" cy="306" r="2.8"/>
		</g>
		<g>
			<ellipse transform="matrix(0.6772 -0.7358 0.7358 0.6772 -185.08 148.0412)" class="st0" cx="76.2" cy="285" rx="3.6" ry="3.6"/>
		</g>
		<g>
			<circle class="st0" cx="76.3" cy="264.9" r="3.6"/>
		</g>
		<g>
			<path class="st0" d="M63.4,298.3c0.4-0.9,1.4-1.4,2.3-1c0.9,0.4,1.4,1.4,1,2.3c-0.4,0.9-1.4,1.4-2.3,1
				C63.5,300.2,63,299.2,63.4,298.3z"/>
		</g>
		<g>
			<path class="st0" d="M63.5,293.2c0.4-0.9,1.4-1.4,2.3-1c0.9,0.4,1.4,1.4,1,2.3c-0.4,0.9-1.4,1.4-2.3,1
				C63.6,295.2,63.1,294.1,63.5,293.2z"/>
		</g>
		<g>
			<path class="st0" d="M71,276.6c0.4-0.9,1.4-1.4,2.3-1c0.9,0.4,1.4,1.4,1,2.3c-0.4,0.9-1.4,1.4-2.3,1
				C71.2,278.5,70.7,277.5,71,276.6z"/>
		</g>
		<g>
			<path class="st0" d="M69.9,260.1c0.4-0.9,1.4-1.4,2.3-1c0.9,0.4,1.4,1.4,1,2.3c-0.4,0.9-1.4,1.4-2.3,1
				C70,262.1,69.6,261,69.9,260.1z"/>
		</g>
		<g>
			<path class="st0" d="M60.9,256c0.4-0.9,1.4-1.4,2.3-1c0.9,0.4,1.4,1.4,1,2.3c-0.4,0.9-1.4,1.4-2.3,1C61,258,60.5,257,60.9,256z"
				/>
		</g>
		<g>
			<circle class="st0" cx="63.3" cy="254.4" r="1.8"/>
		</g>
		<g>
			<path class="st0" d="M43.1,247.2c0.4-0.9,1.4-1.4,2.3-1c0.9,0.4,1.4,1.4,1,2.3s-1.4,1.4-2.3,1C43.2,249.1,42.8,248.1,43.1,247.2z
				"/>
		</g>
		<g>
			<ellipse transform="matrix(0.4283 -0.9037 0.9037 0.4283 -200.72 173.8486)" class="st0" cx="37" cy="245.5" rx="1.8" ry="1.8"/>
		</g>
	</g>
	<g>
		<g>
			<path class="st0" d="M75,350.2l-4.3-8.5c0-0.1-2.8-5.7-4.1-12.7c-1.7-9.3-0.1-16.7,4.7-21.4c2.3-2.2,4.6-4.1,6.7-5.8
				c3.4-2.8,6.4-5.1,8-8.2c1.7-3.2,1.6-7.1-0.3-12.2c-3.6-9.8-3-18.7-1.9-24.4c1.2-6.2,3.3-10.2,3.4-10.2l0.5,0.3
				c0,0-2.1,3.9-3.3,10.1c-1.1,5.6-1.7,14.4,1.9,24.1c4.2,11.3-0.9,15.4-7.9,21c-2.1,1.7-4.4,3.5-6.7,5.7c-3.2,3.2-6.7,9.4-4.5,20.8
				c1.3,6.9,4,12.5,4.1,12.5l4.3,8.5L75,350.2z"/>
		</g>
		<g>
			
				<ellipse transform="matrix(0.7947 -0.607 0.607 0.7947 -170.2119 108.9354)" class="st0" cx="75.9" cy="306.1" rx="3.6" ry="3.6"/>
		</g>
		<g>
			
				<ellipse transform="matrix(0.9128 -0.4084 0.4084 0.9128 -92.5447 56.8249)" class="st0" cx="86.8" cy="245.1" rx="3.6" ry="3.6"/>
		</g>
		<g>
			
				<ellipse transform="matrix(0.9422 -0.3351 0.3351 0.9422 -78.6762 42.6394)" class="st0" cx="84.2" cy="249.3" rx="3.6" ry="3.6"/>
		</g>
		<g>
			
				<ellipse transform="matrix(0.7947 -0.607 0.607 0.7947 -148.4861 108.7571)" class="st0" cx="86.5" cy="273.9" rx="3.6" ry="3.6"/>
		</g>
		<g>
			
				<ellipse transform="matrix(0.4226 -0.9063 0.9063 0.4226 -215.6958 250.9755)" class="st0" cx="89.1" cy="294.8" rx="3.6" ry="3.6"/>
		</g>
		<g>
			<path class="st0" d="M84.3,290.8c0.1-1,1-1.7,2-1.5c1,0.1,1.7,1,1.5,2c-0.1,1-1,1.7-2,1.5C84.8,292.7,84.1,291.8,84.3,290.8z"/>
		</g>
		<g>
			<path class="st0" d="M87.2,277.6c0.1-1,1-1.7,2-1.5c1,0.1,1.7,1,1.5,2c-0.1,1-1,1.7-2,1.5C87.8,279.5,87.1,278.6,87.2,277.6z"/>
		</g>
		<g>
			<path class="st0" d="M81.8,265c0.1-1,1-1.7,2-1.5c1,0.1,1.7,1,1.5,2c-0.1,1-1,1.7-2,1.5C82.4,266.8,81.7,266,81.8,265z"/>
		</g>
		<g>
			<path class="st0" d="M74.6,301.4c0.1-1,1-1.7,2-1.5s1.7,1,1.5,2s-1,1.7-2,1.5C75.2,303.3,74.5,302.4,74.6,301.4z"/>
		</g>
		<g>
			<path class="st0" d="M80,301c0.1-1,1-1.7,2-1.5s1.7,1,1.5,2s-1,1.7-2,1.5C80.6,302.9,79.9,302,80,301z"/>
		</g>
		<g>
			<circle class="st0" cx="85.4" cy="261.2" r="1.8"/>
		</g>
		<g>
			
				<ellipse transform="matrix(0.9422 -0.3351 0.3351 0.9422 -88.4171 43.6795)" class="st0" cx="82.4" cy="278.1" rx="3.6" ry="3.6"/>
		</g>
	</g>
	<g>
		<path class="st1" d="M464,318c25.4,0,46.8,17,53.4,40.3H410.6C417.2,335,438.6,318,464,318z"/>
		<path class="st1" d="M203.7,298.9c37.4,0,68.9,25.1,78.7,59.3H125.1C134.8,324,166.4,298.9,203.7,298.9z"/>
		<path class="st1" d="M447.9,358.2c-12.1-41.7-59.9-72.9-117-72.9s-104.9,31.2-117,72.9H447.9z"/>
	</g>
	<path class="st2" d="M662.9,299.8c4.1,3.5,6.8,7.5,7.9,9.4c0.1-0.1,0.2-0.3,0.3-0.4c2.5-3.2,5.3-6.8,8.5-10.6
		c-1.7-1.2-5.8-4.2-9-8.8c-4.3-6-5.6-12.4-5.6-12.4s5.6,3.3,9.9,9.3c3.2,4.4,4.7,9,5.3,11.2c2.7-3.1,5.6-6.3,8.8-9.6
		c-1.4-1.6-4.5-5.6-6.4-10.7c-2.6-6.9-2.3-13.4-2.3-13.4s4.6,4.7,7.2,11.6c1.8,4.8,2.2,9.5,2.3,11.8c3.2-3.2,6.6-6.5,10.3-9.7
		c-1.1-1.8-3.6-6.2-4.7-11.6c-1.5-7.2-0.2-13.6-0.2-13.6s3.8,5.3,5.3,12.5c1.1,5,0.7,9.6,0.5,11.9c2.5-2.1,5.1-4.2,7.7-6.3
		c-0.4-2.1-1-7.1,0-12.5c1.3-7.3,5-12.7,5-12.7s1.5,6.4,0.2,13.6c-0.8,4.4-2.5,8.1-3.6,10.4c1.9-1.4,3.8-2.8,5.8-4.1
		c1.6-2,4.3-5.1,8-7.6c6.1-4.2,12.5-5.4,12.5-5.4s-3.4,5.6-9.5,9.8c-3.7,2.5-7.4,4-9.9,4.7c-2.1,1.4-4.1,2.8-6,4.3
		c2.4,0,7,0.4,11.7,2.1c6.9,2.5,11.7,7,11.7,7s-6.5,0.4-13.5-2.1c-5.3-1.9-9.3-5-10.9-6.3c-2.7,2-5.3,4.1-7.8,6.3
		c2.1,0.6,6.7,2.3,11.1,5.5c5.9,4.4,9.1,10.1,9.1,10.1s-6.4-1.5-12.3-5.9c-4.5-3.4-7.4-7.4-8.6-9.2c-3.8,3.3-7.3,6.6-10.6,9.9
		c2.2,0.5,6.9,1.7,11.5,4.5c6.3,3.9,10,9.2,10,9.2s-6.5-0.9-12.8-4.8c-4.7-2.9-8-6.7-9.3-8.4c-3.2,3.3-6.2,6.6-8.9,9.7
		c2.2,0.4,6.9,1.5,11.6,4.1c6.4,3.6,10.3,8.9,10.3,8.9s-6.5-0.7-12.9-4.3c-4.8-2.7-8.2-6.3-9.6-8c-3.2,3.7-6,7.3-8.4,10.4
		c-0.1,0.2-0.2,0.3-0.4,0.5c1.4,0.4,6.8,2,11.9,5.8c5.9,4.4,9.1,10.1,9.1,10.1s-6.4-1.5-12.3-5.9c-5.1-3.8-8.2-8.5-8.9-9.8
		c-9.9,13.1-15.2,23.2-15.3,23.3l-1.6-0.8c0.1-0.1,5.4-10.1,15.1-23.1c-2.1-0.8-6.6-2.7-10.7-6.2c-5.7-4.7-8.6-10.6-8.6-10.6
		S657.2,295,662.9,299.8z"/>
	<path class="st0" d="M41.5,353c0,0-3.5-52.9-37.5-56.9C4,296.1,35.7,324.6,41.5,353z"/>
	<path class="st0" d="M49.5,352.9c0,0,8.8-68.1-33.4-81.7C16.2,271.2,49.3,315.3,49.5,352.9z"/>
	<g>
		<g>
			<g>
				<path class="st3" d="M368.1,299c0,0-9.6-36.5-10.7-40.7c-1.1-4.2-2.8-19.9-7.4-23.6c-7.4-6-20.9-12.8-23.1-13.9
					c-1.4-0.7-6.5-6.1-9.9-7.7c-3.4-1.6-10.6-6.8-13.7-9.5c-3.2-2.7-5.3-10.1-9.2-9.7c-3.9,0.5-6.9,6.8-5.3,13.8
					c2.1,8.9,14.4,17.8,17.6,20.5c3.2,2.7,3.4,3.6,0.5,5.9c-2.9,2.2-27.7-3-30-4.4c-2.3-1.4-13.6-9.8-13.6-9.8s-5.7-19.3-6.5-22.6
					c-0.8-3.3,0.2-19-2.5-21.8c-2.7-2.8-4.6-2.3-6.6-0.3c-2,2-2.5,18.1-2.5,18.1s-2.7-17.2-2.9-20.1s-3.1-7.2-6.6-7.3
					c-3.5-0.1-4.3,4.4-4.3,4.4l0.7,20.8c0,0,0-2-3.2-0.7c-3.2,1.3,0.4,21.4,0.4,23.4c0,2,6.3,15.4,8.1,18.4
					c1.8,3.1,27.3,24.5,30,25.7c6.9,3,46.9,9.7,52.1,15.2c2.5,2.7,9.9,35.4,9.9,35.4L368.1,299z"/>
				<polygon class="st0" points="327.3,309.4 374.5,294.6 390.1,356.5 336.2,356.7 				"/>
			</g>
			<g>
				<path class="st3" d="M476.6,301.2c0,0,8.4-36.8,9.3-41.1c0.9-4.3,2.1-19.9,6.6-23.8c7.2-6.3,20.5-13.6,22.6-14.7
					c1.3-0.7,6.3-6.3,9.6-8.1c3.3-1.8,10.3-7.2,13.4-10c3.1-2.8,4.9-10.3,8.8-10c3.9,0.3,7.2,6.5,5.7,13.6
					c-1.8,9-13.8,18.3-16.9,21.1c-3.1,2.8-3.3,3.8-0.3,5.9c3,2.1,27.6-4,29.9-5.5c2.3-1.5,13.2-10.3,13.2-10.3s5-19.5,5.7-22.8
					c0.7-3.3-0.9-19,1.7-21.9c2.6-2.9,4.5-2.5,6.6-0.6c2.1,1.9,3.1,18,3.1,18s2.1-17.2,2.2-20.2s2.8-7.3,6.3-7.6
					c3.5-0.2,4.4,4.3,4.4,4.3l0,20.8c0,0-0.1-2,3.1-0.8s0.4,21.4,0.4,23.4c0.1,2-5.8,15.6-7.5,18.7c-1.7,3.1-26.4,25.4-29.1,26.7
					c-6.8,3.3-46.6,11.3-51.5,16.9c-2.4,2.8-8.6,35.8-8.6,35.8L476.6,301.2z"/>
				<polygon class="st0" points="517.7,310.2 470.1,297.1 455.9,349.5 509.8,361.1 				"/>
			</g>
		</g>
		<g>
			<g>
				<path class="st1" d="M399.9,173.6c-0.3-0.1-0.5-0.1-0.7-0.2c0,0.2,0,0.4,0.1,0.7c-0.2-0.2-0.3-0.3-0.3-0.3c0,0,0,0,0,0
					c-0.1-0.1-0.4-0.4-1.5-1.5c-32.8,11.6-41.4-5.6-62-25.2c-12.5-11.8-32.1-22.8-45.9-34.4c-8.3-7-14.5-14.3-15.8-22.2
					c16.3-17.3,70.8-4.5,96.1,10.5c19.3,11.4,34.3,26.9,34.2,47.2c0,7.3-2,15.2-6.4,23.8C401.3,174.3,398.7,172.8,399.9,173.6z"/>
			</g>
			<g>
				<path class="st1" d="M404.5,93.2c-0.2-0.2-0.3-0.2-0.5-0.3c0,0.2-0.1,0.3-0.1,0.5c-0.2-0.4-0.1-0.3-0.1-0.2
					c0-0.1-0.2-0.3-0.7-1.4c-25-0.1-26.7-13.8-36-32.1c-0.5-1-1-1.9-1.6-2.9c-9.7-17-29.2-36.1-26.6-50.3c8.9-4.6,24.2,1,38,9.6
					c9.9,6.2,19,13.9,24.6,20.7c14,16.8,20.8,37,1.7,54.8C405.2,94,403.8,92.3,404.5,93.2z"/>
			</g>
			<g>
				<path class="st0" d="M417.7,269.6l-2.6-0.2c3.9-50.7,4.5-123.4-14.2-181.6c-11.1-34.6-24-47.6-24.1-47.7l1.9-1.9
					c0.5,0.5,13.4,13.6,24.8,48.8C422.2,145.5,421.6,218.6,417.7,269.6z"/>
			</g>
			<g>
				<path class="st0" d="M417.3,214.6c-16.5-56.3-71-89.3-71.6-89.7l1.3-2.3c0.1,0.1,14.1,8.5,30,23.8c14.7,14.2,34,37.4,42.7,67.4
					L417.3,214.6z"/>
			</g>
			<g>
				<path class="st1" d="M471.7,57.5c0,3.6-2.5,7.2-5.8,10.9c-4.8,5.3-11.6,10.6-15.6,15.9c-7.1,9.2-9.5,16.7-23.5,14.1
					c-0.4,0.5-0.5,0.7-0.5,0.7c0,0,0,0,0,0c0,0,0,0-0.1,0.1c0-0.1,0-0.2,0-0.3c-0.1,0-0.2,0-0.3,0.1c0.4-0.4-0.5,0.4,0.8-0.8
					c-3.6-4.9-4.7-9.5-4.2-13.8c0.8-6.3,5.2-11.9,11-16.6C442.8,60.1,464,51.5,471.7,57.5z"/>
			</g>
			<g>
				<path class="st0" d="M416,142.9l-2.6-0.3c2.8-21.1,11.1-42.3,24.7-62.8l2.2,1.5C426.9,101.5,418.7,122.2,416,142.9z"/>
			</g>
		</g>
		<g>
			<g>
				<g>
					<g>
						<path class="st2" d="M327.7,168.5c0,0,3.1,1.4,8.9,2.7c3.9,0.9,14.4,1.8,14.9-1c0.3-1.7-0.7-2.7-0.7-2.7s1.6-1.3,0.7-3.3
							s-9.2-2.6-15.8-1.2c-4.1,0.9-7.9,2.8-7.9,2.8L327.7,168.5z"/>
						<path class="st2" d="M315,168.2c0,0-3.1,1.2-9.1,2.3c-3.9,0.7-14.5,1.1-14.8-1.6c-0.2-1.7,0.8-2.7,0.8-2.7s-1.5-1.3-0.5-3.4
							c1-2,9.3-2.2,15.8-0.5c4.1,1.1,7.8,3.2,7.8,3.2L315,168.2z"/>
					</g>
					<g>
						<path class="st2" d="M319.5,172.9c0,0-1.4,3.1-2.7,8.9c-0.9,3.9-1.8,14.4,1,14.9c1.7,0.3,2.7-0.7,2.7-0.7s1.3,1.6,3.3,0.7
							c2.1-0.9,2.6-9.2,1.2-15.8c-0.9-4.1-2.8-7.9-2.8-7.9L319.5,172.9z"/>
						<path class="st2" d="M319.8,160.2c0,0-1.2-3.1-2.3-9.1c-0.7-3.9-1.1-14.5,1.6-14.8c1.7-0.2,2.7,0.8,2.7,0.8s1.3-1.5,3.4-0.5
							c2,1,2.2,9.3,0.5,15.8c-1.1,4.1-3.2,7.8-3.2,7.8L319.8,160.2z"/>
					</g>
					<g>
						<path class="st2" d="M327.2,163.4c0,0,3.1-1.2,8.2-4.4c3.4-2.1,11.5-9,9.9-11.2c-1-1.4-2.4-1.4-2.4-1.4s0.2-2-1.9-2.8
							c-2.1-0.8-8.4,4.7-12,10.3c-2.3,3.5-3.6,7.6-3.6,7.6L327.2,163.4z"/>
						<path class="st2" d="M318,172.2c0,0-1.3,3.1-4.8,8c-2.3,3.3-9.5,11-11.7,9.3c-1.4-1.1-1.3-2.5-1.3-2.5s-2,0.1-2.7-2
							c-0.7-2.2,5.1-8.2,10.8-11.5c3.6-2.1,7.7-3.2,7.7-3.2L318,172.2z"/>
					</g>
					<g>
						<path class="st2" d="M324.5,172.4c0,0,1.2,3.1,4.4,8.2c2.1,3.4,9,11.5,11.2,9.9c1.4-1,1.4-2.4,1.4-2.4s2,0.2,2.8-1.9
							c0.8-2.1-4.7-8.4-10.3-12c-3.5-2.3-7.6-3.6-7.6-3.6L324.5,172.4z"/>
						<path class="st2" d="M315.8,163.2c0,0-3.1-1.3-8-4.8c-3.3-2.3-11-9.5-9.3-11.7c1.1-1.4,2.5-1.3,2.5-1.3s-0.1-2,2-2.7
							c2.2-0.7,8.2,5.1,11.5,10.8c2.1,3.6,3.2,7.7,3.2,7.7L315.8,163.2z"/>
					</g>
				</g>
				<circle class="st4" cx="321.4" cy="166.6" r="6.2"/>
			</g>
			<path class="st5" d="M326.3,172.4c0,0,13.5,26,27.6,37.6c47.1,38.7,52.4,70.1,52.4,70.1"/>
		</g>
		<g>
			<g>
				<g>
					<g>
						<path class="st2" d="M510,48.5c0,0,0.8,3.3,3.3,8.8c1.6,3.6,7.3,12.6,9.8,11.3c1.6-0.8,1.7-2.2,1.7-2.2s2,0.5,3.1-1.5
							c1.1-2-3.5-8.9-8.6-13.3c-3.2-2.7-7-4.6-7-4.6L510,48.5z"/>
						<path class="st2" d="M502.5,38.2c0,0-2.8-1.7-7.3-5.8c-2.9-2.7-9.6-10.9-7.7-12.8c1.3-1.2,2.6-0.9,2.6-0.9s0.1-2,2.4-2.4
							c2.2-0.4,7.4,6.1,9.9,12.3c1.6,3.9,2.2,8.1,2.2,8.1L502.5,38.2z"/>
					</g>
					<g>
						<path class="st2" d="M501.5,44.7c0,0-3.3,0.8-8.8,3.3c-3.6,1.6-12.6,7.3-11.3,9.8c0.8,1.6,2.2,1.7,2.2,1.7s-0.5,2,1.5,3.1
							c2,1.1,8.9-3.5,13.3-8.6c2.7-3.2,4.6-7,4.6-7L501.5,44.7z"/>
						<path class="st2" d="M511.8,37.2c0,0,1.7-2.8,5.8-7.3c2.7-2.9,10.9-9.6,12.8-7.7c1.2,1.3,0.9,2.6,0.9,2.6s2,0.1,2.4,2.4
							s-6.1,7.4-12.3,9.9c-3.9,1.6-8.1,2.2-8.1,2.2L511.8,37.2z"/>
					</g>
					<g>
						<path class="st2" d="M513.7,45.1c0,0,2.8,1.8,8.5,3.9c3.7,1.4,14.1,3.7,14.9,1.1c0.5-1.7-0.4-2.8-0.4-2.8s1.8-1,1.1-3.2
							c-0.6-2.2-8.8-3.8-15.5-3.3c-4.2,0.3-8.2,1.7-8.2,1.7L513.7,45.1z"/>
						<path class="st2" d="M501.1,43.1c0,0-3.2,0.8-9.3,1c-4,0.2-14.5-0.9-14.5-3.6c0-1.8,1.2-2.5,1.2-2.5s-1.3-1.5,0-3.4
							c1.3-1.9,9.6-0.9,15.7,1.7c3.9,1.6,7.3,4.2,7.3,4.2L501.1,43.1z"/>
					</g>
					<g>
						<path class="st2" d="M505,48.4c0,0-1.8,2.8-3.9,8.5c-1.4,3.7-3.7,14.1-1.1,14.9c1.7,0.5,2.8-0.4,2.8-0.4s1,1.8,3.2,1.1
							s3.8-8.8,3.3-15.5c-0.3-4.2-1.7-8.2-1.7-8.2L505,48.4z"/>
						<path class="st2" d="M507,35.8c0,0-0.8-3.2-1-9.3c-0.2-4,0.9-14.5,3.6-14.5c1.8,0,2.5,1.2,2.5,1.2s1.5-1.3,3.4,0
							c1.9,1.3,0.9,9.6-1.7,15.7c-1.6,3.9-4.2,7.3-4.2,7.3L507,35.8z"/>
					</g>
				</g>
				<circle class="st4" cx="507.7" cy="42.4" r="6.2"/>
			</g>
			<path class="st5" d="M506,49.7c0,0-27.7,27-45.8,77c-7.7,21-30.5,126.3-30.5,126.3"/>
		</g>
		<g>
			<g>
				<g>
					<path class="st6" d="M448.8,286.2l2.4-0.4c0-0.2-3.3-22.2,9.7-64.9c13.3-43.7-5.8-67.5-6.6-68.5l-1.9,1.6
						c0.2,0.2,19.1,23.8,6.2,66.2C445.4,263.6,448.7,285.3,448.8,286.2z"/>
					<path class="st6" d="M450.2,188.2c7.5,2.1,14.4,1,14.4,1s-5.3-4.5-12.8-6.6c-7.5-2.1-14.4-1-14.4-1S442.7,186.1,450.2,188.2z"
						/>
					<path class="st6" d="M475.1,191.3c5-6,6.8-12.7,6.8-12.7s-6.2,3-11.2,9.1c-5,6-6.8,12.7-6.8,12.7S470.1,197.3,475.1,191.3z"/>
				</g>
				<g>
					<path class="st6" d="M448,175.4c-1.2,0.3-2.4,0.4-3.6,0.2c-4.5-0.9-13.2-3.7-14.3-10.4c-1.4-9.1-8.8-14.5-5.5-21
						c3.4-6.5,15.1-19.5,25.3-17.8c10.2,1.6,20.9-4.3,25,12.3c4,16.5,12.5,16.4,5.9,25.7c-6.5,9.3-13.4,16-19.8,15.1
						C455.3,178.6,450.7,174.7,448,175.4z"/>
					<path class="st4" d="M457.8,169.4c-1,0.7-2.2,1.4-3.4,1.6c-3.4,0.8-9.1,1.3-11.8-2.4c-3.9-5.5-10.5-6.6-10.4-11.9
						c0.1-5.4,3.5-17.7,10.8-20c7.2-2.3,12.3-9.6,20.4-0.1c8,9.5,13.5,6.7,12.3,14.9c-1.2,8.2-4.3,17.2-8.8,18.7
						C462.9,171.5,459.5,168.2,457.8,169.4z"/>
					<path class="st6" d="M461.2,163.9c-0.6,0.8-1.2,1.5-2,2.1c-2.3,1.4-6.2,3.3-9.1,1.4c-4.2-2.9-9.2-2-10.6-5.8
						c-1.3-3.8-2.1-13.6,2.5-17.1c4.6-3.5,6.3-10.1,14.5-5.4c8.2,4.7,11.4,1.3,12.6,7.4s1.4,13.4-1.5,15.7
						C465.4,164.1,462.1,162.6,461.2,163.9z"/>
					<path class="st7" d="M460.7,157.5c-0.1,0.6-0.3,1.1-0.7,1.6c-1,1.3-2.8,3.3-4.8,2.8c-3.1-0.7-5.7,1-7.3-0.9
						c-1.6-1.9-4.2-7.2-2.4-10.2c1.8-3,1.3-7.1,7-6.3c5.7,0.8,6.8-1.9,8.9,1.4c2.1,3.2,3.8,7.3,2.7,9.2
						C463.1,156.7,460.9,156.6,460.7,157.5z"/>
					
						<ellipse transform="matrix(0.8643 -0.503 0.503 0.8643 -15.0313 249.1804)" class="st4" cx="454.2" cy="152.4" rx="3.7" ry="3.7"/>
				</g>
			</g>
			<g>
				<g>
					<path class="st6" d="M461,278.9c0.2-0.3,23-34,33.9-95.4c10.7-60.2,48.5-77.1,48.9-77.2l-1.3-3.1c-1.6,0.7-39.9,17.8-50.9,79.8
						c-10.8,60.7-33.2,93.7-33.4,94.1L461,278.9z"/>
					<path class="st6" d="M525.2,149.6c-10.5-2.1-18.3-7.7-18.3-7.7s9.3-2.1,19.8,0c10.5,2.1,18.3,7.7,18.3,7.7
						S535.7,151.7,525.2,149.6z"/>
					<path class="st6" d="M492.9,137.8c-2.4-10.5-0.4-19.8-0.4-19.8s5.8,7.6,8.1,18.1c2.4,10.5,0.4,19.8,0.4,19.8
						S495.2,148.3,492.9,137.8z"/>
				</g>
				<g>
					<path class="st6" d="M527.7,121.8c0.8,1.6,1.8,3,3.2,4.2c3.7,3.1,10.4,7.3,16,4.4c8.3-4.3,17-1.5,20.2-8.1
						c3.3-6.6,6.8-23.9-0.7-31.2c-7.5-7.3-9.1-19.5-24.9-12.9c-15.8,6.6-20.8-0.3-24.4,10.6c-3.6,10.8-5.5,23.7-0.9,28.5
						C520.1,121.3,526.4,119.3,527.7,121.8z"/>
					<path class="st4" d="M526.9,113c0.2,1.3,0.5,2.6,1.2,3.8c1.9,3.2,5.5,7.9,10.3,7.3c7-0.9,12.5,3.3,16.6-0.6
						c4-3.9,11-15.3,7.6-22.5c-3.4-7.2-1.4-16.3-14.4-15.7c-13,0.6-14.8-5.6-20.2,1.2s-10.1,15.6-8,20.1
						C521.7,110.6,526.7,110.9,526.9,113z"/>
					<path class="st6" d="M531.6,105.4c-0.2,0.8-0.3,1.6-0.2,2.4c0.3,2.2,1.3,5.8,4.2,6.5c4.2,1.1,6.4,4.7,9.5,3.4
						c3.2-1.3,9.7-6.2,9.4-11c-0.3-4.8,2.9-9.6-4.7-12.1c-7.5-2.6-7.1-6.5-11.7-3.8c-4.6,2.7-9.2,6.6-9.1,9.6
						C529.1,102.9,531.9,104.1,531.6,105.4z"/>
					
						<ellipse transform="matrix(1.967245e-02 -0.9998 0.9998 1.967245e-02 428.7491 643.7811)" class="st4" cx="542.7" cy="103.3" rx="5" ry="5"/>
				</g>
			</g>
		</g>
	</g>
	<g>
		<path class="st1" d="M697.9,338.4c18.8,0,34.6,12.6,39.5,29.8h-79C663.3,351,679.1,338.4,697.9,338.4z"/>
		<path class="st1" d="M505.3,324.3c27.7,0,51,18.5,58.2,43.9H447.1C454.3,342.9,477.7,324.3,505.3,324.3z"/>
		<path class="st1" d="M686,368.2c-8.9-30.9-44.3-54-86.6-54s-77.6,23.1-86.6,54H686z"/>
	</g>
	<g>
		<path class="st4" d="M677.9,358.3c10.3,0,18.9,6.9,21.6,16.3h-43.2C659,365.2,667.7,358.3,677.9,358.3z"/>
		<path class="st4" d="M572.7,350.6c15.1,0,27.9,10.1,31.8,24h-63.6C544.8,360.7,557.6,350.6,572.7,350.6z"/>
		<path class="st4" d="M671.4,374.6c-4.9-16.9-24.2-29.5-47.3-29.5c-23.1,0-42.4,12.6-47.3,29.5H671.4z"/>
	</g>
	<g>
		<path class="st4" d="M424.6,354.9c10.3,0,18.9,6.9,21.6,16.3H403C405.7,361.8,414.4,354.9,424.6,354.9z"/>
		<path class="st4" d="M319.4,347.2c15.1,0,27.9,10.1,31.8,24h-63.6C291.5,357.3,304.2,347.2,319.4,347.2z"/>
		<path class="st4" d="M418.1,371.2c-4.9-16.9-24.2-29.5-47.3-29.5c-23.1,0-42.4,12.6-47.3,29.5H418.1z"/>
	</g>
	<g>
		<path class="st2" d="M199.5,350.3c13.5,0,24.8,9,28.3,21.4h-56.7C174.7,359.3,186,350.3,199.5,350.3z"/>
		<path class="st2" d="M61.3,340.1c19.8,0,36.6,13.3,41.7,31.5H19.6C24.8,353.5,41.5,340.1,61.3,340.1z"/>
		<path class="st2" d="M190.9,371.6c-6.4-22.2-31.8-38.7-62.1-38.7s-55.7,16.5-62.1,38.7H190.9z"/>
	</g>
	<g>
		<path class="st0" d="M75.8,156l69-19.8c0,0,8.9,30.1,13,37.6s31.4,56.7,31.4,56.7l-60.8,30.1c0,0-6.1-13.7-13.7-26
			c-7.5-12.3-18.4-21.2-25.3-35.5C82.7,184.7,76.5,165.5,75.8,156z"/>
		<g>
			<line class="st8" x1="90.2" y1="171.3" x2="136.6" y2="156"/>
			<line class="st8" x1="93.6" y1="182.3" x2="139" y2="165.2"/>
			<line class="st8" x1="98.7" y1="193.5" x2="144.2" y2="173"/>
			<line class="st8" x1="104.9" y1="203.8" x2="149.3" y2="182.9"/>
			<line class="st8" x1="112" y1="212.7" x2="153.7" y2="192.2"/>
			<line class="st8" x1="119.9" y1="220.9" x2="161" y2="199.2"/>
			<line class="st8" x1="126.4" y1="228.4" x2="165.1" y2="207.9"/>
		</g>
	</g>
	<g>
		<path class="st0" d="M776.9,152.2L736,211.6c0,0-26.1-17.7-34-20.9c-8-3.2-60.5-24-60.5-24l28-62.1c0,0,13.5,6.7,27.2,11.4
			c13.7,4.7,27.8,4.7,42.3,11.4S770.2,145.2,776.9,152.2z"/>
		<g>
			<line class="st8" x1="755.9" y1="149.4" x2="729.7" y2="191"/>
			<line class="st8" x1="746.3" y1="143.1" x2="722" y2="185.3"/>
			<line class="st8" x1="735.1" y1="137.6" x2="713" y2="182.5"/>
			<line class="st8" x1="723.8" y1="133.6" x2="702.7" y2="178.1"/>
			<line class="st8" x1="712.6" y1="131.3" x2="693.3" y2="173.8"/>
			<line class="st8" x1="701.3" y1="129.9" x2="683.2" y2="172.9"/>
			<line class="st8" x1="691.5" y1="128.2" x2="674.5" y2="168.8"/>
		</g>
	</g>
</g>
</svg>
