<?xml version="1.0" encoding="utf-8"?>
<!-- Generator: Adobe Illustrator 26.0.3, SVG Export Plug-In . SVG Version: 6.00 Build 0)  -->
<svg version="1.1" id="Calque_1" xmlns="http://www.w3.org/2000/svg" xmlns:xlink="http://www.w3.org/1999/xlink" x="0px" y="0px"
	 viewBox="0 0 1218.1 362.7" style="enable-background:new 0 0 1218.1 362.7;" xml:space="preserve">
<style type="text/css">
	.st0{fill:#FFFFFF;}
	.st1{fill:#74BBC8;}
	.st2{clip-path:url(#SVGID_00000006705628255522130150000012184469625724037777_);}
	.st3{fill:#808291;}
	.st4{fill:#AA9D7A;}
	.st5{fill:#EBC3AC;}
	.st6{fill:#707289;}
	.st7{fill:#535173;}
	.st8{fill:#F39D7C;}
	.st9{fill:#3C3E54;}
	.st10{fill:#383E56;}
	.st11{fill:#2C334A;}
	.st12{fill:#D2C3BD;}
	.st13{fill:none;stroke:#EE7D65;stroke-width:3.1419;stroke-miterlimit:10;}
	.st14{fill:#AE7D61;}
	.st15{fill:#555A6E;}
	.st16{fill:#A07055;}
	.st17{fill:#685F6A;}
	.st18{fill:#59ABBF;}
	.st19{fill:#3998AF;}
	.st20{fill:#F4D7C9;}
	.st21{fill:#C48C41;}
	.st22{fill:#EC6952;}
</style>
<g>
	<circle class="st0" cx="960.3" cy="97.1" r="9.1"/>
	<circle class="st0" cx="297.1" cy="158" r="9.1"/>
	<circle class="st0" cx="982.2" cy="131" r="5.1"/>
	<circle class="st0" cx="715.3" cy="48.1" r="5.1"/>
	<circle class="st0" cx="445.1" cy="71.3" r="5.1"/>
	<path class="st1" d="M1097.2,48.8c-3.7,0-7.2,1.2-10,3.2c-6.6-8-18.1-13.3-31.3-13.3c-10,0-19.2,3.1-25.8,8.2
		c-3.9-2.5-8.6-3.9-13.6-3.9c-11.6,0-21.4,7.8-24.4,18.4h27.5h21.3h39.8h11.5h21.6C1111.7,54.1,1105.1,48.8,1097.2,48.8z"/>
	<g>
		<defs>
			<rect id="SVGID_1_" x="240.3" width="766.1" height="333.6"/>
		</defs>
		<clipPath id="SVGID_00000025429602111445417790000017762343166577795460_">
			<use xlink:href="#SVGID_1_"  style="overflow:visible;"/>
		</clipPath>
		<g style="clip-path:url(#SVGID_00000025429602111445417790000017762343166577795460_);">
			<g>
				<path class="st3" d="M744.7,289.4c0,0-1.2,22.1,0,42.5H819c0,0,3.2-22.9-9.4-53L744.7,289.4z"/>
				<path class="st4" d="M766.8,98.5c0,0-17-6.5-18-23.8c-1.4-23.2,22.3-34.1,34.8-26.2c11.5,7.3,9.3,17.2,7.9,19.7
					C790.1,70.6,766.8,98.5,766.8,98.5z"/>
				<path class="st5" d="M890.6,125.6c3.2,1.6,7,1.7,10.2,0.1c8.3-4,23.7-12.1,25.2-17.6c2-7.6-26.4,1.3-37.3,16.6L890.6,125.6z"/>
				<g>
					<path class="st6" d="M897.8,126.8c-8.5,19.6-33.4,59.3-43,68.9c-8,7.9-12.7,3-12.9,2.8c-3-1.7-4.3-8-2.1-11.4l49.4-65.7
						L897.8,126.8z"/>
				</g>
				<g>
					<path class="st7" d="M741.8,296.2c-1.7,0.3,1.4-58,3.8-64.2c-2.3-25.5-5.4-71.6-1-92.8c5.6-26.6,12.4-38.2,37-32.3
						c7.7,1.9,20.5,18.1,23.5,32.3c3,14.2-5.9,25.5-4.4,57.5c0.6,14,5.9,53.7,10.9,70c1.4,4.7,4.9,19.8,4.9,25.3
						c-3,2.2-6.8,4.8-10.1,5.6C784,303.4,765,292.7,741.8,296.2z"/>
				</g>
				<path class="st7" d="M773.6,126.8c-6.1-10.9,3.8-15,4-15.2c2.6-2.7,9.8-1.1,12.8,2.3l62.7,81c1.1,1.2-0.8,3.1-2,4.3
					c-0.4,0.4-0.9,0.7-1.4,0.8c-3.5,1.7-8.5,0.8-11.7-1.6C821.3,186.3,781.6,141,773.6,126.8z"/>
				<path class="st7" d="M765.1,127.7c2.4-11.2-8.1-12.7-8.4-12.9c-3.3-1.8-9.5,1.1-11.2,4.9l-33.6,87c-0.7,1.3,1.7,2.6,3.2,3.5
					c0.5,0.3,1,0.4,1.5,0.4c3.8,0.8,8.2-1.2,10.4-4C738.9,192.1,762,142.3,765.1,127.7z"/>
				<g>
					<path class="st8" d="M639.8,223.6c18.6-10.5,62.4-27.2,75.8-29c11.1-1.5,11.9,5.3,12,5.5c1.4,3.1-1.4,9-5.2,10.4l-79,22.7
						L639.8,223.6z"/>
				</g>
				<path class="st5" d="M761.7,76.6l18.6-1.3c0.2,2.5,1.5,26.7,0.3,35.8c-0.8,2.8-5.4,3.9-10.4,2.6c-4.5-1.2-7.7-4-7.7-6.6l0,0
					C763.1,101.6,762.3,85.5,761.7,76.6z"/>
				<path class="st5" d="M763,79.3c2.8,14.7,15.3,24.6,24.3,22.9c9-1.7,11-14.4,8.2-29.1c-2.8-14.7-11.5-20.7-20.5-19
					C766,55.8,760.2,64.6,763,79.3z"/>
				<path class="st4" d="M789.6,56c0,0,1.3,18.5-16.9,25.1c-9.4,3.4-11.5-10.1-11.5-10.1V53.8c0,0,5,1.8,8.2-3
					C773.3,45.1,789.6,56,789.6,56z"/>
				<path class="st4" d="M766.4,51.1c0,0,7.4-5.7,2.5-12.7c-5-6.9-13.6-4.4-15.6,1c-2.2,6,0.7,9.7,3.2,11.4
					C759,52.6,763.4,52.9,766.4,51.1z"/>
				<path class="st5" d="M640.1,224.4c-1.1-0.6-2.4-1.1-3.7-1.3c-9.1-1.7-26.3-4.2-30.7-0.6c-5.8,4.7,19.4,13.6,37.2,9.3
					L640.1,224.4z"/>
				<path class="st4" d="M766,61.8c-28.5-10.5-55.7,10.4-54.8,35.2c0.1,2.3,0.4,4.7-0.2,7c-1,3.5-4.1,6-7.2,7.9
					c-7,4.3-15.1,7.1-21.1,12.8c-9.6,9-9.8,24-4.5,36.1c12,27.3,43,24.9,54.1,6.4c1.6-2.6,4.7-14.6,12.7-16.1
					c52-10.1,27.4-28.4,30-44.1c1.3-7.9,7.5-14.5,7.9-22.5C783.6,74.4,775.5,65.3,766,61.8z"/>
				<path class="st5" d="M775.9,78.8c1.5,3.4,6.7,6.3,9.2,5.3c2.5-1.1,1.9-4.1,0.5-7.5c-1.5-3.4-4.8-5.7-7.3-4.7
					C775.8,73,774.5,75.4,775.9,78.8z"/>
			</g>
			<g>
				<path class="st7" d="M552,120c-9.5-5.9-27,6.8-27.3,7c-2.6,2.3-1.6,8.8,1.3,11.6l82.6,55.2c1,1.1,2.9-0.6,4-1.6
					c0.4-0.3,0.6-0.8,0.8-1.2c1.7-3.1,2.3-10.5,0.4-13.5C603.9,162,564.3,127.7,552,120z"/>
				<path class="st0" d="M590.5,529.9c0,0-3,10.3-1.2,11c1.8,0.6,44.4,2.4,47.5,0.6s-6.1-4.9-6.1-4.9s-20.1-5.5-31.6-6.7
					C599,529.9,590.5,529.3,590.5,529.9z"/>
				<path class="st0" d="M549.4,394.6c1.7-5.2,18.3-10.9,22.8-11.6c4.9-0.7,9.5,2.7,10.1,7.7l16.2,138.2c0.3,2.2-1.3,4.2-3.4,4.5
					c-2.2,0.3-4.2-1.1-4.6-3.3l-1.1-5.9C560.3,444.9,544.8,413.2,549.4,394.6z"/>
				<path class="st0" d="M514.7,271c1-16.6,25.6-22.8,31.6-23.5c0.4-0.1,0.8-0.3,1.2-0.4c4.9-1.1,9.7,2.1,10.6,7l25.6,136.8
					c0.4,2.2-1,4.2-3.1,4.7c-0.7,0.2-1.4,0.1-2.1-0.1c-5.1-0.6-26-1.8-27.9-6.7C540.5,363.3,513.4,292.6,514.7,271z"/>
				<path class="st9" d="M615.9,531.9c-4.4,1.9-11.7,3.2-20,3.2c-2.7,0-5.2-0.1-7.6-0.4c-0.6,3.8-0.8,8.1,1,8.4
					c3.2,0.4,49.5,1.8,49.8-0.4C639.6,538.5,627.2,534.4,615.9,531.9z"/>
				<path class="st0" d="M455.5,529.9c0,0,3,10.3,1.2,11s-44.4,2.4-47.5,0.6s6.1-4.9,6.1-4.9s20.1-5.5,31.6-6.7
					C447,529.9,455.5,529.3,455.5,529.9z"/>
				<path class="st0" d="M496.6,394.6c-1.7-5.2-18.3-10.9-22.8-11.6c-4.9-0.7-9.5,2.7-10.1,7.7l-16.2,138.2
					c-0.3,2.2,1.3,4.2,3.4,4.5c2.2,0.3,4.2-1.1,4.6-3.3l1.1-5.9C485.7,444.9,501.2,413.2,496.6,394.6z"/>
				<path class="st0" d="M531.4,271c-1-16.6-25.6-22.8-31.6-23.5c-0.4-0.1-0.8-0.3-1.2-0.4c-4.9-1.1-9.7,2.1-10.6,7l-25.6,136.8
					c-0.4,2.2,1,4.2,3.1,4.7c0.7,0.2,1.4,0.1,2.1-0.1c5.1-0.6,26-1.8,27.9-6.7C505.6,363.3,532.6,292.6,531.4,271z"/>
				<path class="st9" d="M430.2,531.9c4.4,1.9,11.7,3.2,20,3.2c2.7,0,5.2-0.1,7.6-0.4c0.6,3.8,0.8,8.1-1,8.4
					c-3.2,0.4-49.5,1.8-49.8-0.4C406.5,538.5,418.9,534.4,430.2,531.9z"/>
				<path class="st10" d="M488,239c0,0-17.5,33.5-23.9,88.8c-6.4,55.4-18.3,70.5-18.3,70.5s24.7,31.5,66.9,19.9
					c42.2-11.6,66.5-33.4,81.7-31.1c0,0-17.5-134-25.7-140.3L488,239z"/>
				<path class="st0" d="M679.5,175.9c0.3-3.6,2.3-6.8,5.3-8.7c7.8-4.9,22.8-13.7,28.2-12c7.5,2.3-15.1,21.6-33.8,22.7L679.5,175.9z
					"/>
				<path class="st0" d="M381.4,155.8c-3.3-0.1-6.3-1.8-8.2-4.5c-4.9-6.9-13.6-20.2-12.3-25.3c1.7-6.9,20.5,12.7,22.4,29.8
					L381.4,155.8z"/>
				<path class="st7" d="M521.1,155.1c8.4-8.5,2-39.5,1.9-39.7c-1.7-3-8.6-3.2-12.3-0.7l-77,73.2c-1.3,0.8,0,3,0.7,4.3
					c0.3,0.4,0.6,0.8,1,1c2.7,2.3,10.3,4.1,13.8,2.8C467.6,188.8,510.2,166.2,521.1,155.1z"/>
				<path class="st11" d="M539.4,49.6c-5.2-0.5-14.5,2.3-17.3,7.1c-2.8,4.8-0.9,6.9,3.6,9.5c4.5,2.6,19.5,2.9,23.3-1
					C554.8,59.2,547.6,50.3,539.4,49.6z"/>
				<path class="st0" d="M523.2,81.5l19.6-1.1c0.1,2.2,4,24.1,2.9,32c-0.7,2.4-7.7,2.6-12,1.4c-3.9-1.1-9.2-2-9.2-4.2l-0.9-1.5
					C524.3,103.4,523.7,89.3,523.2,81.5z"/>
				<path class="st12" d="M522.6,83.3c5.4,13.4,19.1,20.5,27.3,17.2c8.2-3.3,10.3-17.2,4.9-30.7c-5.4-13.4-17.4-16.1-25.6-12.8
					C521.1,60.4,517.2,69.9,522.6,83.3z"/>
				<path class="st11" d="M515.3,61.8c4.3-7.8,17.4-16.5,28.6-6.9c0,0,5.1,5.3,1,11.7L534.6,83c-1.7,0.8-9-6.3-8.5-4.5l1.2,3.8
					c-2.5,6.3-8.5,5.7-8.7,7.3l-4.3-9.7C514.3,80,510.9,69.6,515.3,61.8z"/>
				<path class="st13" d="M525.7,96.4"/>
				<path class="st7" d="M521.2,109.7c-3.1-0.1-5.4,2.8-4.6,5.8c0.6,2.2,1.2,7,1,17.1c-0.3,18.5-9.2,23.7-16.4,24.4
					c-2,0.2-3.7,1.7-4.1,3.7c-2.3,11.6-9.5,47.3-9.8,54c-0.4,8-21.5,60.7-14.8,63.9c6.7,3.2,57-8.5,66.2-7.8
					c9.3,0.6,31.7,5.9,35,2.5c3.1-3.2,4.1-24.3-0.3-35.6c-0.4-1.1-0.4-2.4,0.1-3.5c0.9-2.1,1.8-6.3-1.1-12.3
					c-4.4-8.9-4.1-40-3.2-42.6c0.9-2.6,11.2-23,9.8-29.5c0,0-1.6-7.4-7-15.7c-3.7-5.8-11.2-13.5-16.6-18.7
					c-5.3-5.1-11.8-8.6-19-10.1c-4.5-0.9-9-0.9-10.9,1.8c-4.6,6.4,0.9,3.1-4.1,2.8C521.3,109.8,521.3,109.8,521.2,109.7z"/>
				<g>
					<path class="st0" d="M380.6,146.8l-4.7,7.6c8.4,5.5,22.2,15.5,35.2,24.4l5.2-19.3L380.6,146.8z"/>
					<path class="st3" d="M455.6,181.5c1.5-2.8-0.8-8.3-4.2-9.7l-35-12.4l-5.2,19.3c12.3,8.3,23.9,15.5,29.8,16.7
						C451,197.4,455.5,181.8,455.6,181.5z"/>
				</g>
				<g>
					<path class="st0" d="M685.6,167.5c-9.4,0.2-24.7-0.3-39.3-0.4l-3.5,21l44.4-11.4L685.6,167.5z"/>
					<path class="st3" d="M610,170c-9.5,4-4.4,19.4-4.4,19.7c0.4,3.1,5.3,6.5,8.9,5.7l28.3-7.3l3.5-21
						C630.7,167.1,615.9,167.6,610,170z"/>
				</g>
				<path class="st11" d="M452.8,154.4c-11.8-17.1-3.7-48.5,19.7-51.6c2.2-0.3,4.5-0.4,6.5-1.2c3.1-1.4,4.6-4.4,5.7-7.3
					c2.3-6.6,3-13.8,6.8-19.7c6.1-9.5,20.6-13.8,32.7-9.3c11.1,4.2,18.5,14.9,19.3,25.3c0.8,10.4-4.3,20.4-12.1,27.7
					c-1.9,1.8-4.1,3.5-5.4,5.8c-2.4,4.1-1.7,9.3-3,14c-1.2,4.3-4.1,8.1-8.2,10.5c-5.3,3.1-12,3.9-17.7,6.5
					c-6.6,3-11.8,8.5-19.1,10.1C468.7,167.3,458.1,162,452.8,154.4z"/>
				<path class="st12" d="M534,82.9c2.2,2.9,7.8,4.4,9.9,2.8s0.9-4.3-1.3-7.2c-2.2-2.9-5.9-4.3-7.9-2.7
					C532.5,77.4,531.9,80,534,82.9z"/>
			</g>
			<g>
				<g>
					<path class="st0" d="M594.8,638.2c-0.4-0.1-0.8-0.2-1.2-0.4c-3.3-1.4-4.8-5.3-3.3-8.6l18.8-42.7c1.4-3.3,5.3-4.8,8.6-3.3
						c3.3,1.4,4.8,5.3,3.3,8.6l-18.8,42.7C600.8,637.3,597.7,638.8,594.8,638.2z"/>
				</g>
				<g>
					<path class="st0" d="M662.1,644.3c-0.4-0.1-0.8-0.2-1.2-0.4c-3.3-1.4-4.8-5.3-3.3-8.6l18.8-42.7c1.4-3.3,5.3-4.8,8.6-3.3
						c3.3,1.4,4.8,5.3,3.3,8.6l-18.8,42.7C668.1,643.4,665.1,644.9,662.1,644.3z"/>
				</g>
				<path class="st9" d="M606,630.2c-2,1.1-6,1.8-10.6,1.6c-2.5-0.1-4.8-0.5-6.7-1c-1.4-0.4-2.8,0.4-3.2,1.8
					c-1.1,4.8-2.4,12.1,0.2,12.6c3.9,0.6,59.8,5.1,60.3,2.5C647.2,640.8,620.3,633.1,606,630.2z"/>
				<path class="st9" d="M674.1,633.5c-2,1.1-6,1.8-10.6,1.6c-2.5-0.1-4.8-0.5-6.7-1c-1.4-0.4-2.8,0.4-3.2,1.8
					c-1.1,4.8-2.4,12.1,0.2,12.6c3.9,0.6,59.8,5.1,60.3,2.5C715.3,644.1,688.5,636.4,674.1,633.5z"/>
				<path class="st7" d="M687.3,613.8l-23.9-1.2c13-74.8,52.9-168.8,52.9-168.8c-13.6-34.1-29.3-115.9-29.8-118.6
					c0.5,2.9,15.1,95.5,15.1,117.2c0,22.1-85.7,168.2-85.7,168.2l-20.4-1c27.7-111.5,74.1-172,74.1-172c-15-32.3-24-88.7-28.7-128
					c-3-25.3-4.3-43.5-4.3-43.5l18.4-1.6l53.7-4.8c14.9,16,41.6,171.5,41.7,187.3C750.4,463,687.3,613.8,687.3,613.8z"/>
				<path class="st14" d="M805,129.6c1.5-3.6,4.5-6.3,8.3-7.3c9.6-2.6,27.9-6.8,33-3.3c6.9,4.8-22.5,17.5-42.1,12.6L805,129.6z"/>
				<g>
					<path class="st15" d="M807.3,125.9c-20,11.4-59.7,42.6-68.8,54c-7.6,9.5-1.7,13.9-1.5,14.2c2.1,3,9.1,3.7,12.5,0.9l64.7-60.4
						L807.3,125.9z"/>
				</g>
				<path class="st1" d="M676.6,101c-10.8-8.1-16.5,2-16.8,2.2c-3.2,2.5-2.6,10.3,0.7,14l77.9,78.1c1.1,1.4,3.4-0.5,4.9-1.5
					c0.5-0.4,0.8-0.8,1-1.3c2.3-3.5,2-9,0-12.8C733.8,160.2,690.7,111.5,676.6,101z"/>
				<path class="st5" d="M479.3,103.2c-2-3.3-5.4-5.5-9.3-5.9c-9.9-1.1-28.6-2.5-33.1,1.7c-6.1,5.8,24.9,13.9,43.5,6.1L479.3,103.2z
					"/>
				<g>
					<path class="st1" d="M476.5,99.9c21.5,8.2,65.5,33.1,76.2,43c8.9,8.2,3.8,13.5,3.7,13.8c-1.6,3.3-8.4,5.1-12.2,2.8l-73.1-50
						L476.5,99.9z"/>
				</g>
				<path class="st1" d="M641.6,91.2c12.9-4.1,15,7.3,15.1,7.6c2.2,3.4-1,10.6-5.3,13l-99.2,48.2c-1.5,0.9-3.1-1.6-4.1-3
					c-0.3-0.5-0.5-1.1-0.5-1.6c-1-4,1.1-9.2,4.2-12C568.2,128.4,624.8,96.5,641.6,91.2z"/>
				<g>
					<path class="st1" d="M618.6,184.9c0.1,2.6,0.3,5.3,0.5,7.9c0.5,6.2,1.2,12.5,2.1,19c0.4,2.6,0.7,5.3,1.2,7.9
						c0.9,5.6,2,11.2,3.2,17c0.5,2.5,1.1,5.1,1.8,7.8c0.9,4,2,8,3.1,12.1c0.7,2.5,1.4,5.1,2.2,7.6c1,3.4,2,6.8,3.2,10.3
						c7.4-1.9,15-2.9,22.7-2.9c12.6,0,25.3,2.7,37.9,1.1c6.4-0.8,12.6-2.7,18.6-5.1c-0.7-1.9-1.4-3.7-2.1-5.5
						c-1-2.6-1.9-5.1-2.9-7.6c-1-2.8-2.1-5.6-3-8.3c-0.4-1.1-0.8-2.3-1.2-3.4c-0.5-1.4-1-2.9-1.5-4.3c-1.8-5.1-3.4-9.9-4.9-14.6
						c-0.8-2.6-1.6-5.2-2.4-7.7c-1.3-4.2-2.4-8.2-3.5-12.1c-0.7-2.8-1.4-5.4-2.1-8c-0.4-1.8-0.9-3.6-1.3-5.4
						c-6.6-28.5-6.9-47.1-4.3-60.1c2.4-11.8-1.7-23.9-10.8-31.6l-3.6-3c-13.9-11.8-34.3-7.9-43.5,6.3c-1.7,2.7-3.1,5.7-3.9,9
						c-1.7,7.1-3.2,15.2-4.1,24.4c-0.3,3.4-0.6,6.8-0.9,10.3C618,158.5,617.8,171.4,618.6,184.9z"/>
				</g>
				<path class="st5" d="M637,68.3c13.7,14.6,35,16.8,43.9,8.4s2-24.2-11.7-38.8c-13.7-14.6-27.9-15.2-36.8-6.8
					C623.5,39.5,623.3,53.7,637,68.3z"/>
				<path class="st11" d="M626.2,61c0,0-5.7-12.2-1.6-22.5s18.7-22.9,33.9-12.9c0,0,10.2,8.1-0.7,19.5
					c-10.8,11.4-13.9,3.3-14.9,14.1s-10,10.7-10,13L626.2,61z"/>
				<path class="st5" d="M636.5,61.5l20.5-4.8c0.7,2.8,6.5,29.5,6.8,39.9c-0.3,3.2-5.3,5.4-11.1,4.8c-5.2-0.5-9.3-3.1-9.8-6l0,0
					C642.6,89.1,638.8,71.3,636.5,61.5z"/>
				<path class="st11" d="M641.5,83.5c0,0-14.2-7.3-17.6-18.2c-3.4-11,1.5-29.7,23.2-29.4c0,0,15.5,1.4,13.3,17s-13.2,9.2-6.5,19
					c0.6,0.8,1,1.6,1.4,2.3c3.1,6.4-3.7,13.3-10.3,10.6L641.5,83.5z"/>
				<path class="st5" d="M650.5,67.3c3.2,3.4,10.7,4.5,13.1,2.2c2.5-2.3,0.5-5.6-2.7-9c-3.2-3.4-8.2-4.7-10.6-2.4
					C647.8,60.4,647.3,63.9,650.5,67.3z"/>
				<path class="st11" d="M684.7,63.9c0,0-1.1,4.7-5.8,5c-4.7,0.3-12.4,1-13.1-4.9c-0.8-5.9-5.4-3.5-5.6-1.2
					c-0.2,2.3,2.5,7.4,1.6,10.2c-0.9,2.8-3.9,6-2.9,7c1.1,1,8.4,7,15,5.9c3.1-0.5,11.9-2.8,13.5-8C689,72.7,690.1,67.3,684.7,63.9z"
					/>
			</g>
			<g>
				<path class="st12" d="M679.5,175.9c0.3-3.6,2.3-6.8,5.3-8.7c7.8-4.9,22.8-13.7,28.2-12c7.5,2.3-15.1,21.6-33.8,22.7L679.5,175.9
					z"/>
				<g>
					<path class="st12" d="M685.6,167.5c-9.4,0.2-24.7-0.3-39.3-0.4l-3.5,21l44.4-11.4L685.6,167.5z"/>
					<path class="st7" d="M610,170c-9.5,4-4.4,19.4-4.4,19.7c0.4,3.1,5.3,6.5,8.9,5.7l28.3-7.3l3.5-21
						C630.7,167.1,615.9,167.6,610,170z"/>
				</g>
			</g>
			<g>
				<g>
					<path class="st7" d="M639.8,223.6c18.6-10.5,62.4-27.2,75.8-29c11.1-1.5,11.9,5.3,12,5.5c1.4,3.1-1.4,9-5.2,10.4l-79,22.7
						L639.8,223.6z"/>
				</g>
				<path class="st5" d="M640.1,224.4c-1.1-0.6-2.4-1.1-3.7-1.3c-9.1-1.7-26.3-4.2-30.7-0.6c-5.8,4.7,19.4,13.6,37.2,9.3
					L640.1,224.4z"/>
			</g>
			<g>
				<path class="st11" d="M902.4,49.8c-0.1,1.9-1.5,3.7-1.9,5.5c-0.4,1.9,0.2,4-0.5,5.8c-0.7,1.8-2.5,3-3.5,4.6
					c-1,1.6-1.1,3.9-2.3,5.3c-1.2,1.5-3.3,2.1-4.7,3.3c-0.7,0.6-1.3,1.5-1.9,2.3c-0.6,0.8-1.2,1.6-2,2.1c-1.6,1-3.8,0.9-5.5,1.7
					c-1.7,0.8-3.1,2.5-5,3c-1.8,0.5-3.9-0.3-5.8-0.1c-1.9,0.2-3.7,1.4-5.7,1.3c-1.9-0.1-3.7-1.5-5.5-1.9c-1.9-0.4-4,0.2-5.8-0.5
					c-1.8-0.7-3-2.5-4.6-3.5c-1.6-1-3.9-1.1-5.3-2.3c-1.5-1.2-2.1-3.3-3.3-4.7c-1.3-1.4-3.3-2.2-4.4-3.8c-1-1.6-0.9-3.8-1.7-5.5
					c-0.8-1.7-2.5-3.1-3-5c-0.5-1.8,0.3-3.9,0.1-5.8c-0.2-1.9-1.4-3.7-1.3-5.6c0.1-1.9,1.5-3.7,1.9-5.5c0.4-1.9-0.2-4,0.5-5.8
					c0.7-1.8,2.5-3,3.5-4.6c1-1.6,1.1-3.9,2.3-5.3c1.2-1.5,3.3-2.1,4.7-3.3c1.4-1.3,2.2-3.3,3.8-4.4c1.6-1,3.8-0.9,5.5-1.7
					c1.7-0.8,3.1-2.5,5-3c1.5-0.4,3.2,0.1,4.8,0.1c0.3,0,0.7,0,1,0c1.9-0.2,3.7-1.4,5.6-1.3c1.9,0.1,3.7,1.5,5.5,1.9
					c1.9,0.4,4-0.2,5.8,0.5c1.8,0.7,3,2.5,4.6,3.5c1.6,1,3.9,1.1,5.3,2.3c1.5,1.2,2.1,3.3,3.3,4.7c1.3,1.4,3.3,2.2,4.4,3.8
					c1,1.6,0.9,3.8,1.7,5.5c0.8,1.7,2.5,3.1,3,5c0.5,1.8-0.3,3.9-0.1,5.8C901.3,46,902.5,47.9,902.4,49.8z"/>
				<path class="st16" d="M872.7,62.5l-17.8,1.4c0.2,2.4,2.4,25.6,4.9,34c1.1,2.5,5.7,3,10.2,1c4.1-1.8,6.7-4.9,6.4-7.4l0,0
					C874.9,86.4,873.4,71,872.7,62.5z"/>
				<path class="st16" d="M885,277.9c0.8-19.8-8.4-25.6-15.4-27.1c-0.4-0.2-0.9-0.4-1.4-0.6c-5.6-1.9-11.7,1.3-13.4,7l-46.4,159
					c-0.7,2.5,0.7,5.1,3.1,6c0.8,0.3,1.7,0.3,2.5,0.1c6.1-0.1,11.8-3.5,14.7-9.1C843.6,384.3,883.9,303.6,885,277.9z"/>
				<path class="st16" d="M825.5,428c-0.5-6.5-2.4-10.4-7.4-12.5c-5.5-2.3-11.8,0.5-13.8,6L744.8,576c-0.9,2.4,1.8,6,4.3,7
					s5.2-0.1,6.3-2.5l3-6.5C810.1,472.8,825.5,450.8,825.5,428z"/>
				<path class="st16" d="M936.9,410.6c-4.3-4.8-8.3-6.7-13.5-5.3c-5.7,1.6-9,7.6-7.2,13.3L963.8,577c0.8,2.5,5.1,3.6,7.7,2.9
					c2.5-0.7,4-3.3,3.4-5.8l-1.7-7C952.1,455.4,950.9,428.5,936.9,410.6z"/>
				<path class="st16" d="M911.7,257.3c-9.3-17.5-20.2-17.8-27-15.6c-0.5,0-1,0.1-1.5,0.2c-5.8,1.2-9.4,7-8,12.8l40.1,160.8
					c0.6,2.5,3.2,4.1,5.7,3.6c0.9-0.2,1.6-0.6,2.2-1.1c5.2-3.2,8.4-9,8.1-15.3C929.6,370.1,923.8,280.1,911.7,257.3z"/>
				<path class="st9" d="M960,572.7c1.9,1,5.6,1.4,9.8,1.1c2.3-0.2,4.4-0.6,6.2-1.2c1.3-0.4,2.6,0.3,3,1.6
					c1.2,4.4,2.6,11.1,0.2,11.6c-3.5,0.7-54.9,6.8-55.4,4.5C922.5,584,946.9,575.9,960,572.7z"/>
				<path class="st9" d="M743.2,571.5c1.4,1.6,4.7,3.3,8.8,4.5c2.2,0.6,4.4,1,6.2,1.1c1.3,0.1,2.4,1.2,2.2,2.5
					c-0.4,4.5-1.5,11.3-3.9,10.9c-3.6-0.6-53.7-13-53.4-15.4C704.1,568.8,729.8,569.8,743.2,571.5z"/>
				<path class="st17" d="M851.3,244.8c0,0-50.4,159.4-51.9,169.9c0,0-37.5,91.4-46,126.3l21.3,6.1c0,0,52.8-87.2,55.3-124.2
					c0,0,60-123.4,60.3-145.2c0.3-21.8,0-28.2,0-28.2L851.3,244.8z"/>
				<path class="st17" d="M874.9,288.6c0,0,31.3,114.7,34.2,124.1c3,9.4,42.6,134.6,42.6,134.6H975c0,0-14.2-116.9-36.9-142.5
					c0,0-2.4-123.3-19.4-155.1l-39.8-1.4L874.9,288.6z"/>
				<g>
					<defs>
						<path id="SVGID_00000084515953460586158900000000798802634082654851_" d="M938.1,404.8c0,0-2.4-123.3-19.4-155.1l-39.8-1.4
							l-27.6-3.4c0,0-50.4,159.4-51.9,169.9c0,0-37.5,91.4-46,126.3l21.3,6.1c0,0,52.8-87.2,55.3-124.2c0,0,33.7-69.3,50.7-113.2
							c9.2,33.6,26.3,95.9,28.4,102.8c3,9.4,42.6,134.6,42.6,134.6H975C975,547.2,960.8,430.3,938.1,404.8z"/>
					</defs>
					<clipPath id="SVGID_00000160154591700387193440000017869302170038452367_">
						<use xlink:href="#SVGID_00000084515953460586158900000000798802634082654851_"  style="overflow:visible;"/>
					</clipPath>
				</g>
				<path class="st16" d="M921.3,243.3c3.5,0.8,6.4,3.2,7.9,6.4c3.8,8.3,10.4,24.3,8,29.4c-3.3,7-19.3-17.7-17.9-36.3L921.3,243.3z"
					/>
				<path class="st18" d="M892.2,94.8c-10.5-6.7-15,2.9-15.3,3.1c-2.8,2.5-1.7,9.7,1.6,12.8l76.6,66.6c1.1,1.2,3.1-0.6,4.4-1.7
					c0.4-0.4,0.7-0.8,0.9-1.3c1.9-3.3,1.2-8.4-0.9-11.7C948.4,145.3,905.8,103.5,892.2,94.8z"/>
				<g>
					<path class="st18" d="M928.7,249.7c11.6-17.7,30.9-60,33.6-73.1c2.2-10.9-4.5-12.1-4.7-12.2c-3-1.6-9,0.8-10.6,4.5l-27.5,76.7
						L928.7,249.7z"/>
				</g>
				<g>
					<path class="st18" d="M851.6,200.6c0.7-7.6,0.6-28.8,0.4-31.3c-1-16.4-3.4-26.2-4.7-39c-0.7-7.4-1.6-14.4-0.3-19.8
						c2.1-8.5,8.3-22.7,29.4-19.1c19.8,3.3,24.8,22.9,27.7,37.5c6.6,33.6,13.1,87.8,19.2,125.5c-7.4,4.4-15,6.1-23.1,5.7
						c-17.2-0.7-33.5-7.1-50.7-7.6c0,0-0.1,0-0.1-0.1C848.8,235.9,850.2,216.7,851.6,200.6z"/>
				</g>
				<path class="st16" d="M698.8,146.5c-3.2,1.6-6.9,1.6-10.1,0c-8.2-4-23.5-12.1-24.9-17.6c-1.9-7.5,26.2,1.4,36.8,16.7
					L698.8,146.5z"/>
				<path class="st18" d="M864.3,115.1c10.1-7.2,2.9-15,2.8-15.3c-1.2-3.5-8.3-5.2-12.5-3.3l-90.3,46.3c-1.5,0.6-0.6,3.1,0,4.7
					c0.2,0.5,0.5,0.9,0.9,1.3c2.4,3,7.3,4.3,11.2,3.5C796.5,148.5,851.2,124.5,864.3,115.1z"/>
				<g>
					<path class="st18" d="M695,147.7c20.8,4.2,67.2,6.4,80.4,4c11-2,9.6-8.6,9.6-8.9c0.4-3.4-4.1-8.1-8.1-8.2l-81.4,2.9L695,147.7z
						"/>
				</g>
				<path class="st11" d="M836.1,49.3c0,0-3.2-6.9-0.5-11.8c2.6-4.6,7.1-9.6,25-5.9c2.6,0.5,4.4,2.8,4.3,5.4l-0.1,7.4L836.1,49.3z"
					/>
				<path class="st16" d="M870,63.1c-1.7,10.7-3.9,19.4-10.8,23.9c-2.4,1.6-5.4,2.9-8.9,3.3c-2.2,0.3-4.6,0.2-7.2-0.4
					c-2.2-0.5-4.1-1.2-5.6-2.1c-3.1-1.9-4.9-4.6-5.7-8c-0.6-2.2-0.8-4.8-0.7-7.5c0.1-4.5,0.9-9.6,1.7-15.1
					c2.7-16.8,12.4-24,22.7-22.3C865.8,36.4,872.7,46.3,870,63.1z"/>
				<path class="st11" d="M854.5,52.9l-3.9,24.5c-0.7,4.6-4.1,8.3-8.6,9.4l-4.4,1.1c-3.1-1.9-4.9-4.6-5.7-8
					c-0.6-2.2-0.8-4.8-0.7-7.5l0.9,0.2c1.1,0.3,1.9,1.2,1.9,2.4l0.2,5.1c0.1,1.8,1.8,3.2,3.6,2.7l2.9-0.7c2.5-0.6,4.5-2.7,4.9-5.3
					l3.9-24.5L854.5,52.9z"/>
				<path class="st11" d="M861.4,40.4l-10.8-1.7c-3.6-0.6-7.3,0.2-10.4,2.2l-4.2,2.7l6.6-9.3l9.2-1.9l10.9,2.5L861.4,40.4z"/>
				<path class="st11" d="M902.4,49.8c-0.1,1.9-1.5,3.7-1.9,5.5c-0.4,1.9,0.2,4-0.5,5.8c-0.7,1.8-2.5,3-3.5,4.6
					c-1,1.6-1.1,3.9-2.3,5.3c-1.2,1.5-3.3,2.1-4.7,3.3c-0.7,0.6-1.3,1.5-1.9,2.3c-0.3,0-0.7,0-1,0c-1.9,0.2-3.7,1.4-5.6,1.3
					c-1.9-0.1-3.7-1.5-5.5-1.9c-1.9-0.4-4,0.2-5.8-0.5c-1.8-0.7-3-2.5-4.6-3.5c-1.6-1-3.9-1.1-5.3-2.3c-1.5-1.2-2.1-3.3-3.3-4.7
					c-1.3-1.4-3.3-2.2-4.4-3.8c-1-1.6-0.9-3.8-1.7-5.5c-0.8-1.7-2.5-3.1-3-5c-0.5-1.8,0.3-3.9,0.1-5.8c-0.2-1.9-1.4-3.7-1.3-5.7
					c0.1-1.9,1.5-3.7,1.9-5.5c0.4-1.9-0.2-4,0.5-5.8c0.7-1.8,2.5-3,3.5-4.6c1-1.6,1.1-3.9,2.3-5.3c1.2-1.5,3.3-2.1,4.7-3.3
					c0.7-0.6,1.3-1.5,1.9-2.3c0.3,0,0.7,0,1,0c1.9-0.2,3.7-1.4,5.6-1.3c1.9,0.1,3.7,1.5,5.5,1.9c1.9,0.4,4-0.2,5.8,0.5
					c1.8,0.7,3,2.5,4.6,3.5c1.6,1,3.9,1.1,5.3,2.3c1.5,1.2,2.1,3.3,3.3,4.7c1.3,1.4,3.3,2.2,4.4,3.8c1,1.6,0.9,3.8,1.7,5.5
					c0.8,1.7,2.5,3.1,3,5c0.5,1.8-0.3,3.9-0.1,5.8C901.3,46,902.5,47.9,902.4,49.8z"/>
				<path class="st16" d="M859.9,61.9c-0.6,3.6-4.9,7.7-7.5,7.3c-2.6-0.4-2.8-3.5-2.3-7.1c0.6-3.6,3.2-6.7,5.9-6.3
					C858.6,56.2,860.5,58.2,859.9,61.9z"/>
			</g>
			<g>
				<path class="st0" d="M357.5,257.1c3.4,1.1,6,3.8,7.2,7.2c2.9,8.7,8,25.2,5.1,30c-3.9,6.7-17.5-19.5-14.2-37.8L357.5,257.1z"/>
				<g>
					<path class="st19" d="M362.9,258.9c-11.7-17.7-42.8-52.1-53.9-59.8c-9.2-6.3-12.9-0.7-13.1-0.5c-2.7,2.1-2.8,8.6,0,11.5
						l59.5,55.6L362.9,258.9z"/>
				</g>
				<path class="st20" d="M370.8,84.4c12.2,15.6,33,19.8,42.5,12.4c9.6-7.4,4.3-23.7-7.9-39.3c-12.2-15.6-26.1-17.6-35.7-10.1
					C360.2,54.8,358.6,68.8,370.8,84.4z"/>
				<path class="st21" d="M360.8,76.2c0,0-4.5-12.6,0.5-22.3c5-9.7,20.6-20.9,34.7-9.5c0,0,9.3,9-2.5,19.2
					c-11.7,10.2-14,1.9-16,12.5c-2,10.5-10.8,9.6-11,11.9L360.8,76.2z"/>
				<path class="st20" d="M371.9,77.5l18.7-2.6c0.4,2.6,3.3,27,2.7,36.3c-0.6,2.9-5.2,4.4-10.4,3.3c-4.6-0.9-8.1-3.6-8.3-6.2l0,0
					C375.1,102.8,373.2,86.4,371.9,77.5z"/>
				<path class="st21" d="M373.8,99.9c0,0-13.3-8.5-15.6-19.6c-2.3-11.1,4.2-29.1,25.6-26.9c0,0,15.2,2.8,11.5,18
					c-3.6,15.2-11.7,9.2-6,19.4c0.5,0.9,0.9,1.7,1.1,2.4c2.5,6.6-4.9,12.7-11.2,9.5L373.8,99.9z"/>
				<path class="st7" d="M353.2,85.3c0,0,11.2,15,16.9,15c5.4,0,9.2-2.7,14.7-18.9s8.9-36.9,6.5-40.4c-2.4-3.5-16.7-9.5-40.9,14.6
					C326.3,80,353.2,85.3,353.2,85.3z"/>
				<path class="st20" d="M384.2,84.7c2.8,3.6,10.1,5.5,12.7,3.4c2.6-2.1,1-5.5-1.8-9.2s-7.6-5.4-10.3-3.3
					C382.2,77.7,381.4,81.1,384.2,84.7z"/>
				<path class="st17" d="M429.4,265.5c0,0,38.2,162.8,38.8,173.4c0,0,30.4,94,36.3,129.5l-21.7,4.5c0,0-46.1-90.9-45.7-128
					c0,0-50.5-127.6-49.1-149.3s2.1-28.1,2.1-28.1L429.4,265.5z"/>
				<path class="st17" d="M409.7,300.7c0,0-23.2,116.5-25.6,126.1c-2.3,9.6-33.2,137.2-33.2,137.2l-23.2,1.6c0,0,6-117.6,27-144.7
					c0,0-6.1-123.1,8.6-156.1l39.6-4.2L409.7,300.7z"/>
				<path class="st20" d="M524.9,228c1-3.4,3.5-6.2,6.9-7.5c8.5-3.3,24.8-9,29.8-6.3c6.8,3.7-18.8,18.3-37.2,15.8L524.9,228z"/>
				<path class="st18" d="M403.4,117.3c-8.5-9.1-15.3-0.9-15.6-0.7c-3.3,1.7-4,8.9-1.6,12.8l57.7,83.5c0.8,1.4,3.2,0.2,4.7-0.6
					c0.5-0.2,0.9-0.6,1.2-1c2.7-2.8,3.3-7.8,2.1-11.6C445.4,180.2,414.5,129.1,403.4,117.3z"/>
				<g>
					<path class="st18" d="M528.8,221.2c-19.1-9.1-63.6-22.5-77-23.3c-11.1-0.7-11.4,6.1-11.5,6.3c-1.2,3.2,2,8.8,5.9,9.9l79.7,16.8
						L528.8,221.2z"/>
				</g>
				<path class="st19" d="M377.4,130.2c6.2-10.8-3.6-14.9-3.8-15.1c-2.6-2.7-9.7-1.2-12.7,2.2l-63,79.6c-1.1,1.2,0.8,3.1,1.9,4.3
					c0.4,0.4,0.8,0.7,1.3,0.8c3.4,1.7,8.4,0.8,11.7-1.4C329.5,188.8,369.3,144.2,377.4,130.2z"/>
				<g>
					<path class="st18" d="M361.7,216.9c0.7-7.6,0.6-28.8,0.4-31.3c-1-16.4-3.4-26.2-4.7-39c-0.7-7.4-1.6-14.4-0.3-19.8
						c2.1-8.5,8.3-22.7,29.4-19.1c19.8,3.3,24.8,22.9,27.7,37.5c6.6,33.6,13.1,87.8,19.2,125.5c-7.4,4.4-15,6.1-23.1,5.7
						c-17.2-0.7-33.5-7.1-50.7-7.6c0,0-0.1,0-0.1-0.1C358.9,252.3,360.2,233.1,361.7,216.9z"/>
				</g>
				<g>
					<defs>
						<path id="SVGID_00000171692288679186938300000005601641661400882319_" d="M451.8,197.9c-0.2,0-0.4,0-0.6,0
							c-7.5-20.5-36.7-68.7-47.6-80.4c-4-4.8-9.4-8.5-16.9-9.8c-13.6-2.3-21,2.7-25.1,8.9c-0.3,0.2-0.5,0.5-0.7,0.7l-63,79.6
							c-0.1,0.1-0.1,0.1-0.2,0.2c-1.1,0.7-1.7,1.5-1.8,1.6c-2.7,2.1-2.8,8.6,0,11.5l59.5,55.6l4.1-3.7c0,2.3,0.1,4.5,0.2,6.8
							c0,0.1,0.1,0.1,0.1,0.1c17.2,0.5,33.5,6.9,50.7,7.6c8.1,0.4,15.7-1.4,23.1-5.7c-4.4-27-8.9-62.3-13.6-92.6l20.4,29.6
							c0.6,2,1.9,4,3.7,5.3c0.2,0.2,0.3,0.3,0.6,0.4c0.5,0.3,1.1,0.6,1.6,0.7l79.7,16.8l2.9-9.7
							C509.7,212.2,465.2,198.8,451.8,197.9z M311.7,201.2c0.4-0.2,0.8-0.4,1.1-0.7c10.6-7.5,30.5-28.1,45.7-45.7
							c1.3,9.3,2.9,18.1,3.7,30.8c0.2,2.5,0.2,23.7-0.4,31.3c-1,11.5-2,24.6-2.2,37.2C347.1,237.1,323.2,210.7,311.7,201.2z"/>
					</defs>
					<clipPath id="SVGID_00000116234750559582993860000009583315466157119374_">
						<use xlink:href="#SVGID_00000171692288679186938300000005601641661400882319_"  style="overflow:visible;"/>
					</clipPath>
				</g>
			</g>
			<g>
				<path class="st5" d="M891,125.6c3.2,1.6,7,1.7,10.2,0.1c8.3-4,23.7-12.1,25.2-17.6c2-7.6-26.4,1.3-37.3,16.6L891,125.6z"/>
				<g>
					<path class="st7" d="M897.8,126.8c-8.5,19.6-33.4,59.3-43,68.9c-8,7.9-12.7,3-12.9,2.8c-3-1.7-4.3-8-2.1-11.4l49.4-65.7
						L897.8,126.8z"/>
				</g>
			</g>
			<path class="st5" d="M805,129.6c1.5-3.6,4.5-6.3,8.3-7.3c9.6-2.6,27.9-6.8,33-3.3c6.9,4.8-22.5,17.5-42.1,12.6L805,129.6z"/>
			<path class="st1" d="M807.3,125.9c-20,11.4-59.7,42.6-68.8,54c-7.6,9.5-1.7,13.9-1.5,14.2c2.1,3,9.1,3.7,12.5,0.9l64.7-60.4
				L807.3,125.9z"/>
			<g>
				<path class="st12" d="M381.4,155.8c-3.3-0.1-6.3-1.8-8.2-4.5c-4.9-6.9-13.6-20.2-12.3-25.3c1.7-6.9,20.5,12.7,22.4,29.8
					L381.4,155.8z"/>
				<g>
					<path class="st12" d="M380.6,146.8l-4.7,7.6c8.4,5.5,22.2,15.5,35.2,24.4l5.2-19.3L380.6,146.8z"/>
					<path class="st7" d="M455.6,181.5c1.5-2.8-0.8-8.3-4.2-9.7l-35-12.4l-5.2,19.3c12.3,8.3,23.9,15.5,29.8,16.7
						C451,197.4,455.5,181.8,455.6,181.5z"/>
				</g>
			</g>
		</g>
	</g>
	<g>
		<g>
			<path class="st1" d="M115.6,293.3c0-0.2-4-23.3-14.9-55c-6.4-18.6-13.9-36.4-22.3-53.1c-10.5-20.8-22.4-39.8-35.4-56.4l-2.8,2.2
				c29.1,37.1,47.1,79.5,57.1,108.4c10.8,31.4,14.8,54.2,14.8,54.4L115.6,293.3z"/>
		</g>
		<g>
			<path class="st1" d="M33.3,110.4c8.7,11.5,11.7,24,11.7,24s-11.2-6.2-20-17.8c-8.7-11.5-11.7-24-11.7-24S24.6,98.8,33.3,110.4z"
				/>
		</g>
		<g>
			<path class="st1" d="M61.6,120.5c-2,14.3-8.7,25.3-8.7,25.3s-3.5-12.3-1.5-26.7c2-14.3,8.7-25.3,8.7-25.3S63.6,106.2,61.6,120.5z
				"/>
		</g>
		<g>
			<path class="st1" d="M26.4,150.2C11.9,150.6,0,145.8,0,145.8s11.6-5.5,26.1-6c14.5-0.4,26.4,4.4,26.4,4.4S40.9,149.7,26.4,150.2z
				"/>
		</g>
		<g>
			<path class="st1" d="M40.4,174.9c-13.7,4.6-26.5,3.5-26.5,3.5s9.5-8.6,23.2-13.2s26.5-3.5,26.5-3.5S54.2,170.3,40.4,174.9z"/>
		</g>
		<g>
			<path class="st1" d="M54,199.4c-14.1,3.4-26.7,1.1-26.7,1.1s10.2-7.8,24.3-11.1c14.1-3.4,26.7-1.1,26.7-1.1S68.1,196.1,54,199.4z
				"/>
		</g>
		<g>
			<path class="st1" d="M65.2,223.8c-14.2,2.9-26.7,0.1-26.7,0.1s10.5-7.4,24.7-10.3c14.2-2.9,26.7-0.1,26.7-0.1
				S79.4,220.9,65.2,223.8z"/>
		</g>
		<g>
			<path class="st1" d="M75.2,253.8c-13.7,4.6-26.5,3.5-26.5,3.5s9.5-8.6,23.2-13.2c13.7-4.6,26.5-3.5,26.5-3.5
				S88.9,249.2,75.2,253.8z"/>
		</g>
		<g>
			<path class="st1" d="M81.7,143.5C74.4,156,64,163.6,64,163.6s1.4-12.7,8.7-25.3c7.3-12.5,17.6-20.1,17.6-20.1
				S88.9,130.9,81.7,143.5z"/>
		</g>
		<g>
			<path class="st1" d="M113.4,202.5c-11.7,8.6-24.2,11.4-24.2,11.4s6.4-11.1,18.1-19.7c11.7-8.6,24.2-11.4,24.2-11.4
				S125.1,193.9,113.4,202.5z"/>
		</g>
		<g>
			<path class="st1" d="M125.3,236c-13.4,5.4-26.3,5-26.3,5s9-9.2,22.4-14.5c13.4-5.4,26.3-5,26.3-5S138.8,230.6,125.3,236z"/>
		</g>
		<g>
			<path class="st1" d="M98.5,172.4c-9.1,11.3-20.5,17.2-20.5,17.2s3.3-12.4,12.4-23.7c9.1-11.3,20.5-17.2,20.5-17.2
				S107.6,161.1,98.5,172.4z"/>
		</g>
	</g>
	<g>
		<g>
			<path class="st1" d="M179.2,284.5c0-0.2-2.9-17-3.1-41.3c-0.1-14.3,0.7-28.4,2.4-41.8c2.1-16.8,5.7-32.7,10.6-47.2l2.4,0.8
				c-11,32.5-13,65.9-12.9,88.2c0.2,24.1,3,40.7,3,40.9L179.2,284.5z"/>
		</g>
		<g>
			<path class="st1" d="M191.3,139.1c-3.2,10-2.2,19.3-2.2,19.3s6.2-7,9.4-17c3.2-10,2.2-19.3,2.2-19.3S194.5,129,191.3,139.1z"/>
		</g>
		<g>
			<path class="st1" d="M174.4,152.9c4.8,9.4,12.1,15.2,12.1,15.2s-0.6-9.3-5.4-18.7c-4.8-9.4-12.1-15.2-12.1-15.2
				S169.5,143.5,174.4,152.9z"/>
		</g>
		<g>
			<path class="st1" d="M205.8,164.7c10-3.2,17-9.4,17-9.4s-9.3-1-19.3,2.2c-10,3.2-17,9.4-17,9.4S195.7,167.9,205.8,164.7z"/>
		</g>
		<g>
			<path class="st1" d="M202.1,185.1c10.5-0.2,19-4.1,19-4.1s-8.6-3.6-19.1-3.4c-10.5,0.2-19,4.1-19,4.1S191.6,185.2,202.1,185.1z"
				/>
		</g>
		<g>
			<path class="st1" d="M198.7,205.2c10.5-1.1,18.6-5.7,18.6-5.7s-8.9-2.8-19.4-1.7c-10.5,1.1-18.6,5.7-18.6,5.7
				S188.3,206.3,198.7,205.2z"/>
		</g>
		<g>
			<path class="st1" d="M196.9,224.6c10.4-1.5,18.4-6.4,18.4-6.4s-9-2.5-19.4-1c-10.4,1.5-18.4,6.4-18.4,6.4
				S186.5,226.1,196.9,224.6z"/>
		</g>
		<g>
			<path class="st1" d="M197.4,247.6c10.5-0.2,19-4.1,19-4.1s-8.6-3.6-19.1-3.4c-10.5,0.2-19,4.1-19,4.1S186.9,247.8,197.4,247.6z"
				/>
		</g>
		<g>
			<path class="st1" d="M166.2,173.5c8,6.8,17,9.5,17,9.5s-4.1-8.4-12.1-15.2c-8-6.8-17-9.5-17-9.5S158.2,166.7,166.2,173.5z"/>
		</g>
		<g>
			<path class="st1" d="M158.7,221.7c10.1,3.1,19.4,1.9,19.4,1.9s-7.1-6.1-17.2-9.1c-10.1-3.1-19.4-1.9-19.4-1.9
				S148.6,218.7,158.7,221.7z"/>
		</g>
		<g>
			<path class="st1" d="M158.7,247.6c10.5,0.4,19.2-3,19.2-3s-8.4-4.1-18.9-4.5c-10.5-0.4-19.2,3-19.2,3S148.2,247.2,158.7,247.6z"
				/>
		</g>
		<g>
			<path class="st1" d="M161.6,197.5c9,5.5,18.2,6.8,18.2,6.8s-5.3-7.7-14.3-13.2c-9-5.5-18.2-6.8-18.2-6.8S152.7,191.9,161.6,197.5
				z"/>
		</g>
	</g>
	<path class="st19" d="M297.4,281.8c-8.1,0-15.6,2.4-21.9,6.5c-10.6-12-26.1-19.6-43.5-19.6c-12,0-23.2,3.7-32.5,9.9
		c-12.9-8.2-29.3-13.2-47.3-13.2c-35.6,0-65.3,19.4-72.8,45.4h96.7h48.9h33.8h29H336C331.2,294.1,315.7,281.8,297.4,281.8z"/>
	<g>
		<path class="st18" d="M1077.9,192.9c-4,7.8-12.9,11.3-12.9,11.3s-2.4-9.2,1.5-17.1s12.9-11.3,12.9-11.3S1081.9,185.1,1077.9,192.9
			z"/>
		<path class="st18" d="M1093.7,229.3c-5.2,7.1-14.6,9-14.6,9s-0.9-9.5,4.3-16.6s14.6-9,14.6-9S1098.9,222.2,1093.7,229.3z"/>
		<path class="st18" d="M1044.7,166.4c5.6,6.7,5.3,16.3,5.3,16.3s-9.4-1.4-15.1-8.1c-5.6-6.7-5.3-16.3-5.3-16.3
			S1039,159.7,1044.7,166.4z"/>
		<path class="st18" d="M1050,197.1c8.8,0.7,15.3,7.6,15.3,7.6s-7.6,5.8-16.4,5.1c-8.8-0.7-15.3-7.6-15.3-7.6
			S1041.3,196.4,1050,197.1z"/>
		<path class="st18" d="M1063.7,230.5c8.8,0.7,15.3,7.6,15.3,7.6s-7.6,5.8-16.4,5.1c-8.8-0.7-15.3-7.6-15.3-7.6
			S1054.9,229.8,1063.7,230.5z"/>
		<g>
			<path class="st18" d="M1090.8,308.5l-1.8,0c0-0.2,0.5-21-4.7-47.4c-3-15.5-7.4-29.8-13-42.6c-6.9-15.9-15.8-29.5-26.3-40.3
				l1.3-1.2c10.7,11,19.6,24.7,26.7,40.8c5.6,12.9,10,27.3,13.1,42.9C1091.3,287.3,1090.8,308.3,1090.8,308.5z"/>
		</g>
	</g>
	<g>
		<path class="st18" d="M1128.7,148.5c5.8,10.8,18.3,15.3,18.3,15.3s3.1-12.9-2.7-23.7c-5.8-10.8-18.3-15.3-18.3-15.3
			S1122.9,137.7,1128.7,148.5z"/>
		<path class="st18" d="M1107.9,199.5c7.5,9.7,20.5,12.1,20.5,12.1s0.9-13.2-6.6-22.9c-7.5-9.7-20.5-12.1-20.5-12.1
			S1100.4,189.9,1107.9,199.5z"/>
		<path class="st18" d="M1174.1,110.5c-7.6,9.6-6.9,22.8-6.9,22.8s13.1-2.2,20.7-11.8c7.6-9.6,6.9-22.8,6.9-22.8
			S1181.7,101,1174.1,110.5z"/>
		<path class="st18" d="M1167.6,153.4c-12.2,1.2-21.1,11.1-21.1,11.1s10.8,7.8,22.9,6.5c12.2-1.2,21.1-11.1,21.1-11.1
			S1179.8,152.1,1167.6,153.4z"/>
		<path class="st18" d="M1149.6,200.3c-12.2,1.2-21.1,11.1-21.1,11.1s10.8,7.8,22.9,6.5c12.2-1.2,21.1-11.1,21.1-11.1
			S1161.8,199.1,1149.6,200.3z"/>
		<g>
			<path class="st18" d="M1114.4,309.8l2.5-0.1c0-0.3-1.3-29.3,5-66.1c3.7-21.6,9.4-41.7,16.7-59.6c9.2-22.4,21-41.5,35.3-56.9
				l-1.8-1.7c-14.5,15.6-26.5,35-35.8,57.7c-7.4,18.1-13.1,38.4-16.8,60.2C1113.1,280.3,1114.4,309.5,1114.4,309.8z"/>
		</g>
	</g>
	<path class="st1" d="M1183.9,291.8c-7.7,0-14.8,2.5-20.6,6.6c-13.7-16.6-37.5-27.5-64.6-27.5c-20.7,0-39.5,6.4-53.3,16.8
		c-8.1-5.1-17.7-8.1-28-8.1c-23.9,0-44.1,16-50.3,38h56.8h43.9h82.1h23.8h44.5C1213.8,302.7,1200.1,291.8,1183.9,291.8z"/>
	<path class="st1" d="M815.8,321.1c-8.5,0-16.4,2.5-23.1,6.8c-12.6-15.7-32-25.7-53.7-25.7c-17.2,0-32.9,6.3-44.9,16.7
		c-13.9-9.4-32.1-15.1-52-15.1c-37.9,0-69.6,20.7-77.6,48.4h108.3h47h55h30.6h51.6C851.8,334.2,835.3,321.1,815.8,321.1z"/>
	<path class="st19" d="M960.4,303.5c-30.9,0-58.1,12.5-73.7,31.4c-6.6-4.8-14.8-7.6-23.6-7.6c-18.5,0-34.2,12.4-39,29.4h50.8h27.2
		h143.7C1037.1,326.2,1002.1,303.5,960.4,303.5z"/>
	<g>
		<g>
			<path class="st19" d="M978.6,340.5l-8.8-17.4c-0.1-0.1-5.7-11.7-8.4-25.9c-3.6-18.9-0.3-34,9.5-43.5c4.7-4.6,9.5-8.4,13.7-11.8
				c7-5.6,13.1-10.5,16.2-16.6c3.4-6.6,3.3-14.5-0.5-24.8c-7.3-20-6.1-38.1-3.8-49.8c2.5-12.7,6.8-20.7,6.8-20.8l1.1,0.6
				c0,0.1-4.3,8-6.7,20.5c-2.3,11.5-3.4,29.4,3.8,49.1c8.5,23.1-1.8,31.4-16.1,42.8c-4.2,3.4-9,7.2-13.6,11.7
				c-6.6,6.5-13.6,19.1-9.2,42.4c2.6,14,8.2,25.4,8.3,25.5l8.8,17.4L978.6,340.5z"/>
		</g>
		<g>
			
				<ellipse transform="matrix(0.7947 -0.607 0.607 0.7947 49.1254 646.5908)" class="st19" cx="980.5" cy="250.7" rx="7.3" ry="7.3"/>
		</g>
		<g>
			
				<ellipse transform="matrix(0.9128 -0.4084 0.4084 0.9128 35.8118 420.4875)" class="st19" cx="1002.6" cy="126.4" rx="7.3" ry="7.3"/>
		</g>
		<g>
			
				<ellipse transform="matrix(0.9422 -0.3351 0.3351 0.9422 12.4337 341.9899)" class="st19" cx="997.4" cy="135" rx="7.3" ry="7.3"/>
		</g>
		<g>
			<ellipse transform="matrix(0.7947 -0.607 0.607 0.7947 93.411 646.2267)" class="st19" cx="1002.1" cy="185" rx="7.3" ry="7.3"/>
		</g>
		<g>
			
				<ellipse transform="matrix(0.4226 -0.9063 0.9063 0.4226 375.43 1044.3688)" class="st19" cx="1007.3" cy="227.5" rx="7.3" ry="7.3"/>
		</g>
		<g>
			<path class="st19" d="M997.4,219.6c0.3-2,2.1-3.4,4.1-3.1c2,0.3,3.4,2.1,3.1,4.1c-0.3,2-2.1,3.4-4.1,3.1S997.1,221.5,997.4,219.6
				z"/>
		</g>
		<g>
			<path class="st19" d="M1003.5,192.5c0.3-2,2.1-3.4,4.1-3.1c2,0.3,3.4,2.1,3.1,4.1c-0.3,2-2.1,3.4-4.1,3.1
				C1004.6,196.3,1003.2,194.5,1003.5,192.5z"/>
		</g>
		<g>
			<path class="st19" d="M992.5,166.8c0.3-2,2.1-3.4,4.1-3.1s3.4,2.1,3.1,4.1c-0.3,2-2.1,3.4-4.1,3.1S992.2,168.8,992.5,166.8z"/>
		</g>
		<g>
			<path class="st19" d="M977.7,241c0.3-2,2.1-3.4,4.1-3.1s3.4,2.1,3.1,4.1s-2.1,3.4-4.1,3.1C978.9,244.8,977.5,243,977.7,241z"/>
		</g>
		<g>
			<path class="st19" d="M988.8,240.2c0.3-2,2.1-3.4,4.1-3.1c2,0.3,3.4,2.1,3.1,4.1s-2.1,3.4-4.1,3.1S988.6,242.2,988.8,240.2z"/>
		</g>
		<g>
			
				<ellipse transform="matrix(0.7355 -0.6776 0.6776 0.7355 156.6708 719.4408)" class="st19" cx="999.7" cy="159.1" rx="3.6" ry="3.6"/>
		</g>
		<g>
			
				<ellipse transform="matrix(0.9422 -0.3351 0.3351 0.9422 -7.4228 344.1103)" class="st19" cx="993.6" cy="193.6" rx="7.3" ry="7.3"/>
		</g>
	</g>
	<g>
		<g>
			<path class="st22" d="M295.6,327.6c-0.1-0.3-9.2-29-3.9-74.9c5.2-45-18.1-65-18.4-65.2l1.6-1.9c1,0.8,24.6,21.1,19.3,67.4
				c-5.2,45.4,3.7,73.6,3.8,73.9L295.6,327.6z"/>
			<path class="st22" d="M277.5,222.1c7.9,0.7,14.6-1.6,14.6-1.6s-6.2-3.5-14.1-4.2c-7.9-0.7-14.6,1.6-14.6,1.6
				S269.5,221.4,277.5,222.1z"/>
			<path class="st22" d="M302.9,220.7c3.9-6.9,4.5-14,4.5-14s-5.7,4.2-9.6,11.1c-3.9,6.9-4.5,14-4.5,14S299,227.6,302.9,220.7z"/>
		</g>
		<g>
			<path class="st22" d="M281.6,201.9c-0.9,0.9-1.9,1.8-3.1,2.3c-3.3,1.4-8.9,3-12.3-0.2c-5-4.8-11.7-4.7-12.7-10.1
				c-0.9-5.4,0.3-18.4,7.1-22c6.8-3.6,10.6-11.9,20.4-3.9s14.8,4.2,15.1,12.7c0.3,8.5-1.2,18-5.4,20.4
				C287.1,203.1,283,200.4,281.6,201.9z"/>
			<path class="st0" d="M284,195.8c-0.4,0.9-0.9,1.8-1.7,2.4c-2,1.9-5.6,4.5-8.8,3c-4.8-2.1-9.6-0.3-11.7-3.9
				c-2-3.6-4.6-13.2-0.6-17.6c4-4.4,4.5-11.3,13.6-8.1c9.1,3.2,11.7-0.8,14,5.1c2.4,6,3.9,13.2,1.4,16
				C288.2,195.2,284.6,194.3,284,195.8z"/>
			<path class="st22" d="M282.3,189.4c0,0.6-0.1,1.2-0.4,1.8c-0.7,1.5-2.2,3.8-4.3,3.7c-3.2-0.1-5.5,2-7.5,0.4
				c-2-1.6-5.6-6.5-4.3-9.8c1.3-3.4,0-7.4,5.9-7.6c5.9-0.2,6.4-3.1,9.1-0.3c2.7,2.9,5.2,6.6,4.4,8.7
				C284.6,188.2,282.4,188.5,282.3,189.4z"/>
			
				<ellipse transform="matrix(0.2671 -0.9637 0.9637 0.2671 22.6528 400.8984)" class="st0" cx="274.9" cy="185.6" rx="3.7" ry="3.7"/>
		</g>
	</g>
	<path class="st1" d="M403.7,307.3c-8.9,0-17.2,2.6-24.1,7c-11.9-9-28.1-14.5-46-14.5c-23.4,0-43.9,9.5-55.7,23.7
		c-5-3.6-11.1-5.7-17.8-5.7c-14,0-25.8,9.4-29.5,22.2H269h20.5h70.8h37.8h49C441.7,321.1,424.3,307.3,403.7,307.3z"/>
	<path class="st19" d="M563.5,327c-4.5,0-8.7,1.3-12.1,3.6c-5.9-6.6-14.5-10.9-24.1-10.9c-8,0-15.2,2.9-20.9,7.7
		c-3.8-3-8.3-5.3-13.4-7c0.9-2.6,2.7-7.2,5.3-12.6c1.2-2.5,2.7-5.4,4.5-8.4c1.1-0.3,5.2-1.2,10.8-0.7c0.1,1.2,0.9,2.2,2,2.6
		c1.5,0.5,3.1-0.4,3.6-1.9c0.5-1.5-0.4-3.1-1.9-3.6c-1.3-0.4-2.8,0.2-3.4,1.4c-4.4-0.5-8-0.1-10,0.3c3.3-5.4,7.4-11.1,12.4-16.2
		c0.2,0.2,0.5,0.3,0.8,0.4c1.5,0.5,3.1-0.4,3.6-1.9c0.5-1.5-0.4-3.1-1.9-3.6c-1.5-0.5-3.1,0.4-3.6,1.9c-0.2,0.7-0.1,1.4,0.1,2
		c-2.4,2.4-4.6,5-6.6,7.6c0.4-2.7,0.7-6.7,0.2-10.7c0.7-0.3,1.3-1,1.5-1.8c0.5-1.5-0.4-3.1-1.9-3.6c-1.5-0.5-3.1,0.4-3.6,1.9
		c-0.5,1.5,0.4,3.1,1.9,3.6c0.2,0.1,0.4,0.1,0.5,0.1c0.7,6-0.5,12.2-0.7,13.2c-4.2,6-7.5,11.9-9.8,16.7c-2.7,5.5-4.5,10.1-5.4,12.8
		c-3.8-1.1-7.8-1.8-12-2c0.6-4.5,1.6-13,1.8-23.5c0.2-8.8-0.1-20.1-1.8-32.1c0.5-1.6,3.5-11.8,9.1-20c0.3,0.1,0.6,0.2,0.9,0.2
		c2.6,0.5,5.1-1.2,5.6-3.8c0.5-2.6-1.2-5.1-3.8-5.6c-2.6-0.5-5.1,1.2-5.6,3.8c-0.3,1.4,0.1,2.8,0.9,3.8c-3.7,5.5-6.3,11.7-7.9,16
		c-1-5.4-2.2-10.9-3.9-16.3c0.9-0.7,1.5-1.7,1.7-2.9c0.5-2.6-1.2-5.1-3.8-5.6c-2.6-0.5-5.1,1.2-5.6,3.8c-0.5,2.6,1.2,5.1,3.8,5.6
		c0.5,0.1,1,0.1,1.5,0c3.4,11.3,5.1,22.9,5.9,33.4c-2.7-2.1-7.6-5.5-14.5-8.1c0-2.3-1.6-4.2-3.9-4.7c-2.6-0.5-5.1,1.2-5.6,3.8
		c-0.5,2.6,1.2,5.1,3.8,5.6c2,0.4,4-0.6,5-2.3c8.7,3.4,14,7.9,15.4,9.2c0.3,5.8,0.3,11.2,0.2,15.9c-0.2,10.7-1.2,19.2-1.8,23.5
		c-19.6,0.1-35.9,10.8-40.1,25.1h59.5h21.1h24.7h16.1h26.6C582.2,333.8,573.6,327,563.5,327z"/>
	<path class="st0" d="M754.8,336c-5.3,0-10.2,1.5-14.3,4.1c-7.7-9.8-19.7-16.1-33.1-16.2c-10.6-0.1-20.4,3.7-27.9,10.1
		c-8.6-5.9-19.8-9.5-32.1-9.6c-23.5-0.2-43.2,12.4-48.3,29.6l67.1,0.6l29.1,0.2l34.1,0.3l18.9,0.2l32,0.3
		C777,344.3,766.9,336.1,754.8,336z"/>
	<path class="st0" d="M1043.2,343.3c-5.3,0-10.2,1.5-14.3,4.1c-7.7-9.8-19.7-16.1-33.1-16.2c-10.6-0.1-20.4,3.7-27.9,10.1
		c-8.6-5.9-19.8-9.5-32.1-9.6c-23.5-0.2-43.2,12.4-48.3,29.6l67.1,0.6l29.1,0.2l34.1,0.3l18.9,0.2l32,0.3
		C1065.4,351.6,1055.3,343.4,1043.2,343.3z"/>
	<path class="st1" d="M807.9,342c0,0-3.5-53.1-37.6-57.1C770.3,284.9,802.1,313.5,807.9,342z"/>
	<path class="st1" d="M816,341.9c0,0,8.8-68.3-33.5-81.9C782.5,260,815.7,304.3,816,341.9z"/>
</g>
</svg>
