<?xml version="1.0" encoding="utf-8"?>
<!-- Generator: Adobe Illustrator 26.0.3, SVG Export Plug-In . SVG Version: 6.00 Build 0)  -->
<svg version="1.1" id="Calque_1" xmlns="http://www.w3.org/2000/svg" xmlns:xlink="http://www.w3.org/1999/xlink" x="0px" y="0px"
	 viewBox="0 0 373.1 143.9" style="enable-background:new 0 0 373.1 143.9;" xml:space="preserve">
<style type="text/css">
	.st0{fill:#FFFFFF;}
	.st1{clip-path:url(#SVGID_00000130639791650265323040000011892945213495109033_);}
	.st2{fill:#828392;}
	.st3{fill:#AB9E7A;}
	.st4{fill:#EDC4AD;}
	.st5{fill:#6F728A;}
	.st6{fill:#535073;}
	.st7{fill:#F69E7B;}
	.st8{fill:#3B3E54;}
	.st9{fill:#383E56;}
	.st10{fill:#2D334A;}
	.st11{fill:#D3C4BE;}
	.st12{fill:none;stroke:#FB7F64;stroke-width:1.2466;stroke-miterlimit:10;}
	.st13{fill:#AF7D61;}
	.st14{fill:#54596E;}
	.st15{fill:#73BBC9;}
	.st16{fill:#A17055;}
	.st17{fill:#685F6A;}
	.st18{fill:#58ACBF;}
	.st19{fill:#3899B0;}
	.st20{fill:#F4D8C9;}
	.st21{fill:#C48C41;}
	.st22{fill:#F26951;}
</style>
<g>
	<circle class="st0" cx="330.1" cy="38.5" r="3.6"/>
	<circle class="st0" cx="67" cy="62.7" r="3.6"/>
	<circle class="st0" cx="338.8" cy="52" r="2"/>
	<circle class="st0" cx="232.9" cy="19.1" r="2"/>
	<circle class="st0" cx="125.7" cy="28.3" r="2"/>
	<g>
		<defs>
			<rect id="SVGID_1_" x="44.5" width="304" height="132.4"/>
		</defs>
		<clipPath id="SVGID_00000073719907602703999540000017333238930636585917_">
			<use xlink:href="#SVGID_1_"  style="overflow:visible;"/>
		</clipPath>
		<g style="clip-path:url(#SVGID_00000073719907602703999540000017333238930636585917_);">
			<g>
				<path class="st2" d="M244.6,114.8c0,0-0.5,8.8,0,16.9h29.5c0,0,1.3-9.1-3.7-21L244.6,114.8z"/>
				<path class="st3" d="M253.4,39.1c0,0-6.8-2.6-7.2-9.4c-0.5-9.2,8.8-13.5,13.8-10.4c4.6,2.9,3.7,6.8,3.1,7.8
					C262.6,28,253.4,39.1,253.4,39.1z"/>
				<path class="st4" d="M302.5,49.8c1.3,0.6,2.8,0.7,4.1,0c3.3-1.6,9.4-4.8,10-7c0.8-3-10.5,0.5-14.8,6.6L302.5,49.8z"/>
				<g>
					<path class="st5" d="M305.4,50.3c-3.4,7.8-13.3,23.5-17.1,27.3c-3.2,3.1-5,1.2-5.1,1.1c-1.2-0.7-1.7-3.2-0.8-4.5l19.6-26.1
						L305.4,50.3z"/>
				</g>
				<g>
					<path class="st6" d="M243.4,117.5c-0.7,0.1,0.6-23,1.5-25.5c-0.9-10.1-2.2-28.4-0.4-36.8c2.2-10.6,4.9-15.2,14.7-12.8
						c3.1,0.7,8.2,7.2,9.3,12.8c1.2,5.6-2.3,10.1-1.8,22.8c0.3,5.6,2.3,21.3,4.3,27.8c0.6,1.9,1.9,7.8,1.9,10
						c-1.2,0.9-2.7,1.9-4,2.2C260.2,120.4,252.6,116.1,243.4,117.5z"/>
				</g>
				<path class="st6" d="M256.1,50.3c-2.4-4.3,1.5-5.9,1.6-6c1-1.1,3.9-0.5,5.1,0.9l24.9,32.1c0.4,0.5-0.3,1.2-0.8,1.7
					c-0.2,0.2-0.3,0.3-0.5,0.3c-1.4,0.7-3.4,0.3-4.7-0.6C275,73.9,259.2,55.9,256.1,50.3z"/>
				<path class="st6" d="M252.7,50.7c0.9-4.5-3.2-5.1-3.3-5.1c-1.3-0.7-3.8,0.4-4.4,1.9L231.6,82c-0.3,0.5,0.7,1.1,1.3,1.4
					c0.2,0.1,0.4,0.2,0.6,0.2c1.5,0.3,3.2-0.5,4.1-1.6C242.3,76.2,251.5,56.5,252.7,50.7z"/>
				<g>
					<path class="st7" d="M203,88.7c7.4-4.2,24.8-10.8,30.1-11.5c4.4-0.6,4.7,2.1,4.8,2.2c0.6,1.2-0.5,3.6-2.1,4.1l-31.3,9L203,88.7
						z"/>
				</g>
				<path class="st4" d="M251.3,30.4l7.4-0.5c0.1,1,0.6,10.6,0.1,14.2c-0.3,1.1-2.1,1.6-4.1,1c-1.8-0.5-3-1.6-3.1-2.6l0,0
					C251.9,40.3,251.6,33.9,251.3,30.4z"/>
				<path class="st4" d="M251.9,31.5c1.1,5.8,6.1,9.8,9.6,9.1c3.6-0.7,4.4-5.7,3.2-11.5c-1.1-5.8-4.6-8.2-8.1-7.5
					C253.1,22.1,250.7,25.6,251.9,31.5z"/>
				<path class="st3" d="M262.4,22.2c0,0,0.5,7.3-6.7,10c-3.7,1.4-4.6-4-4.6-4v-6.8c0,0,2,0.7,3.3-1.2
					C255.9,17.9,262.4,22.2,262.4,22.2z"/>
				<path class="st3" d="M253.2,20.3c0,0,3-2.3,1-5c-2-2.8-5.4-1.7-6.2,0.4c-0.9,2.4,0.3,3.8,1.3,4.5C250.3,20.9,252,21,253.2,20.3z
					"/>
				<path class="st4" d="M203.1,89c-0.4-0.3-0.9-0.4-1.5-0.5c-3.6-0.7-10.4-1.7-12.2-0.3c-2.3,1.9,7.7,5.4,14.8,3.7L203.1,89z"/>
				<path class="st3" d="M253,24.5c-11.3-4.1-22.1,4.1-21.8,14c0,0.9,0.2,1.9-0.1,2.8c-0.4,1.4-1.6,2.4-2.9,3.1
					c-2.8,1.7-6,2.8-8.4,5.1c-3.8,3.6-3.9,9.5-1.8,14.3c4.8,10.8,17.1,9.9,21.5,2.5c0.6-1,1.8-5.8,5.1-6.4
					c20.6-4,10.9-11.3,11.9-17.5c0.5-3.1,3-5.8,3.1-8.9C260,29.5,256.8,25.9,253,24.5z"/>
				<path class="st4" d="M257,31.3c0.6,1.4,2.7,2.5,3.6,2.1c1-0.4,0.8-1.6,0.2-3c-0.6-1.4-1.9-2.3-2.9-1.9
					C256.9,28.9,256.4,29.9,257,31.3z"/>
			</g>
			<g>
				<path class="st6" d="M168.1,47.6c-3.8-2.3-10.7,2.7-10.8,2.8c-1,0.9-0.6,3.5,0.5,4.6l32.8,21.9c0.4,0.4,1.1-0.3,1.6-0.7
					c0.1-0.1,0.3-0.3,0.3-0.5c0.7-1.2,0.9-4.2,0.2-5.4C188.7,64.3,173,50.6,168.1,47.6z"/>
				<path class="st0" d="M183.4,210.2c0,0-1.2,4.1-0.5,4.3c0.7,0.2,17.6,1,18.8,0.2c1.2-0.7-2.4-1.9-2.4-1.9s-8-2.2-12.6-2.7
					C186.8,210.2,183.4,210,183.4,210.2z"/>
				<path class="st0" d="M167.1,156.6c0.7-2.1,7.3-4.3,9.1-4.6c2-0.3,3.8,1.1,4,3.1l6.4,54.8c0.1,0.9-0.5,1.7-1.4,1.8
					c-0.9,0.1-1.7-0.4-1.8-1.3L183,208C171.4,176.5,165.3,163.9,167.1,156.6z"/>
				<path class="st0" d="M153.3,107.5c0.4-6.6,10.2-9,12.5-9.3c0.2-0.1,0.3-0.1,0.5-0.1c1.9-0.4,3.8,0.8,4.2,2.8l10.2,54.3
					c0.2,0.9-0.4,1.7-1.2,1.9c-0.3,0.1-0.6,0-0.8,0c-2-0.2-10.3-0.7-11.1-2.7C163.6,144.2,152.8,116.1,153.3,107.5z"/>
				<path class="st8" d="M193.5,211c-1.8,0.8-4.7,1.3-8,1.3c-1.1,0-2.1-0.1-3-0.1c-0.2,1.5-0.3,3.2,0.4,3.3
					c1.3,0.1,19.7,0.7,19.8-0.1C202.9,213.6,198,212,193.5,211z"/>
				<path class="st0" d="M129.9,210.2c0,0,1.2,4.1,0.5,4.3c-0.7,0.2-17.6,1-18.8,0.2c-1.2-0.7,2.4-1.9,2.4-1.9s8-2.2,12.6-2.7
					C126.5,210.2,129.9,210,129.9,210.2z"/>
				<path class="st0" d="M146.2,156.6c-0.7-2.1-7.3-4.3-9.1-4.6c-2-0.3-3.8,1.1-4,3.1l-6.4,54.8c-0.1,0.9,0.5,1.7,1.4,1.8
					c0.9,0.1,1.7-0.4,1.8-1.3l0.4-2.3C141.8,176.5,148,163.9,146.2,156.6z"/>
				<path class="st0" d="M159.9,107.5c-0.4-6.6-10.2-9-12.5-9.3c-0.2-0.1-0.3-0.1-0.5-0.1c-1.9-0.4-3.8,0.8-4.2,2.8l-10.2,54.3
					c-0.2,0.9,0.4,1.7,1.2,1.9c0.3,0.1,0.6,0,0.8,0c2-0.2,10.3-0.7,11.1-2.7C149.7,144.2,160.5,116.1,159.9,107.5z"/>
				<path class="st8" d="M119.8,211c1.8,0.8,4.7,1.3,8,1.3c1.1,0,2.1-0.1,3-0.1c0.2,1.5,0.3,3.2-0.4,3.3c-1.3,0.1-19.7,0.7-19.8-0.1
					C110.4,213.6,115.3,212,119.8,211z"/>
				<path class="st9" d="M142.7,94.8c0,0-7,13.3-9.5,35.2s-7.3,28-7.3,28s9.8,12.5,26.6,7.9s26.4-13.3,32.4-12.3
					c0,0-6.9-53.2-10.2-55.7L142.7,94.8z"/>
				<path class="st0" d="M218.7,69.8c0.1-1.4,0.9-2.7,2.1-3.5c3.1-1.9,9.1-5.4,11.2-4.8c3,0.9-6,8.6-13.4,9L218.7,69.8z"/>
				<path class="st0" d="M100.4,61.8c-1.3,0-2.5-0.7-3.3-1.8c-1.9-2.7-5.4-8-4.9-10c0.7-2.7,8.1,5.1,8.9,11.8L100.4,61.8z"/>
				<path class="st6" d="M155.9,61.5c3.3-3.4,0.8-15.7,0.7-15.8c-0.7-1.2-3.4-1.3-4.9-0.3l-30.6,29c-0.5,0.3,0,1.2,0.3,1.7
					c0.1,0.2,0.2,0.3,0.4,0.4c1.1,0.9,4.1,1.6,5.5,1.1C134.6,74.9,151.6,65.9,155.9,61.5z"/>
				<path class="st10" d="M163.1,19.7c-2.1-0.2-5.7,0.9-6.8,2.8c-1.1,1.9-0.4,2.7,1.4,3.8s7.7,1.2,9.3-0.4
					C169.2,23.5,166.4,20,163.1,19.7z"/>
				<path class="st0" d="M156.7,32.4l7.8-0.4c0.1,0.9,1.6,9.6,1.1,12.7c-0.3,1-3,1-4.8,0.5c-1.5-0.4-3.6-0.8-3.7-1.7l-0.4-0.6
					C157.1,41,156.9,35.4,156.7,32.4z"/>
				<path class="st11" d="M156.5,33.1c2.1,5.3,7.6,8.1,10.9,6.8c3.3-1.3,4.1-6.8,2-12.2c-2.1-5.3-6.9-6.4-10.1-5.1
					C155.9,24,154.3,27.7,156.5,33.1z"/>
				<path class="st10" d="M153.6,24.5c1.7-3.1,6.9-6.6,11.3-2.7c0,0,2,2.1,0.4,4.7l-4.1,6.5c-0.7,0.3-3.6-2.5-3.4-1.8l0.5,1.5
					c-1,2.5-3.4,2.2-3.4,2.9l-1.7-3.8C153.2,31.7,151.8,27.6,153.6,24.5z"/>
				<path class="st12" d="M157.7,38.3"/>
				<path class="st6" d="M155.9,43.5c-1.2-0.1-2.2,1.1-1.8,2.3c0.2,0.9,0.5,2.8,0.4,6.8c-0.1,7.3-3.7,9.4-6.5,9.7
					c-0.8,0.1-1.5,0.7-1.6,1.5c-0.9,4.6-3.8,18.8-3.9,21.4c-0.1,3.2-8.5,24.1-5.9,25.3c2.7,1.3,22.6-3.4,26.3-3.1
					c3.7,0.3,12.6,2.3,13.9,1c1.2-1.3,1.6-9.6-0.1-14.1c-0.2-0.5-0.2-0.9,0-1.4c0.4-0.8,0.7-2.5-0.5-4.9c-1.7-3.5-1.6-15.9-1.3-16.9
					c0.3-1,4.5-9.1,3.9-11.7c0,0-0.6-2.9-2.8-6.2c-1.5-2.3-4.5-5.3-6.6-7.4c-2.1-2-4.7-3.4-7.5-4c-1.8-0.4-3.6-0.4-4.3,0.7
					C155.8,45,158,43.7,155.9,43.5C156,43.5,155.9,43.5,155.9,43.5z"/>
				<g>
					<path class="st0" d="M100.1,58.2l-1.9,3c3.3,2.2,8.8,6.2,14,9.7l2.1-7.7L100.1,58.2z"/>
					<path class="st2" d="M129.9,72c0.6-1.1-0.3-3.3-1.7-3.9l-13.9-4.9l-2.1,7.7c4.9,3.3,9.5,6.2,11.8,6.6
						C128.1,78.3,129.8,72.1,129.9,72z"/>
				</g>
				<g>
					<path class="st0" d="M221.2,66.5c-3.7,0.1-9.8-0.1-15.6-0.2l-1.4,8.4l17.6-4.5L221.2,66.5z"/>
					<path class="st2" d="M191.2,67.5c-3.8,1.6-1.8,7.7-1.7,7.8c0.1,1.2,2.1,2.6,3.5,2.3l11.2-2.9l1.4-8.4
						C199.4,66.3,193.5,66.5,191.2,67.5z"/>
				</g>
				<path class="st10" d="M128.8,61.3c-4.7-6.8-1.5-19.2,7.8-20.5c0.9-0.1,1.8-0.1,2.6-0.5c1.2-0.5,1.8-1.7,2.3-2.9
					c0.9-2.6,1.2-5.5,2.7-7.8c2.4-3.8,8.2-5.5,13-3.7c4.4,1.7,7.4,5.9,7.7,10c0.3,4.1-1.7,8.1-4.8,11c-0.8,0.7-1.6,1.4-2.1,2.3
					c-1,1.6-0.7,3.7-1.2,5.5c-0.5,1.7-1.6,3.2-3.2,4.2c-2.1,1.2-4.8,1.6-7,2.6c-2.6,1.2-4.7,3.4-7.6,4
					C135.1,66.4,130.9,64.3,128.8,61.3z"/>
				<path class="st11" d="M161,32.9c0.9,1.1,3.1,1.7,3.9,1.1c0.8-0.6,0.3-1.7-0.5-2.8c-0.9-1.1-2.3-1.7-3.2-1.1
					C160.4,30.7,160.1,31.8,161,32.9z"/>
			</g>
			<g>
				<g>
					<path class="st0" d="M185.1,253.2c-0.2,0-0.3-0.1-0.5-0.2c-1.3-0.6-1.9-2.1-1.3-3.4l7.5-17c0.6-1.3,2.1-1.9,3.4-1.3
						c1.3,0.6,1.9,2.1,1.3,3.4l-7.5,17C187.5,252.9,186.3,253.5,185.1,253.2z"/>
				</g>
				<g>
					<path class="st0" d="M211.8,255.6c-0.2,0-0.3-0.1-0.5-0.2c-1.3-0.6-1.9-2.1-1.3-3.4l7.5-17c0.6-1.3,2.1-1.9,3.4-1.3
						c1.3,0.6,1.9,2.1,1.3,3.4l-7.5,17C214.2,255.3,213,255.9,211.8,255.6z"/>
				</g>
				<path class="st8" d="M189.5,250c-0.8,0.5-2.4,0.7-4.2,0.6c-1,0-1.9-0.2-2.7-0.4c-0.6-0.2-1.1,0.2-1.3,0.7
					c-0.4,1.9-0.9,4.8,0.1,5c1.5,0.3,23.7,2,23.9,1C205.9,254.3,195.2,251.2,189.5,250z"/>
				<path class="st8" d="M216.6,251.4c-0.8,0.5-2.4,0.7-4.2,0.6c-1,0-1.9-0.2-2.7-0.4c-0.6-0.2-1.1,0.2-1.3,0.7
					c-0.4,1.9-0.9,4.8,0.1,5c1.5,0.3,23.7,2,23.9,1C232.9,255.6,222.3,252.5,216.6,251.4z"/>
				<path class="st6" d="M221.8,243.5l-9.5-0.5c5.2-29.7,21-67,21-67c-5.4-13.5-11.6-46-11.8-47c0.2,1.1,6,37.9,6,46.5
					c0,8.8-34,66.7-34,66.7l-8.1-0.4c11-44.2,29.4-68.2,29.4-68.2c-6-12.8-9.5-35.2-11.4-50.8c-1.2-10.1-1.7-17.3-1.7-17.3l7.3-0.7
					l21.3-1.9c5.9,6.3,16.5,68,16.5,74.3C246.8,183.7,221.8,243.5,221.8,243.5z"/>
				<path class="st13" d="M268.5,51.4c0.6-1.4,1.8-2.5,3.3-2.9c3.8-1,11.1-2.7,13.1-1.3c2.8,1.9-8.9,6.9-16.7,5L268.5,51.4z"/>
				<g>
					<path class="st14" d="M269.4,50c-7.9,4.5-23.7,16.9-27.3,21.4c-3,3.8-0.7,5.5-0.6,5.6c0.8,1.2,3.6,1.5,5,0.4l25.7-24L269.4,50z
						"/>
				</g>
				<path class="st15" d="M217.6,40.1c-4.3-3.2-6.6,0.8-6.7,0.9c-1.3,1-1,4.1,0.3,5.6l30.9,31c0.4,0.5,1.4-0.2,1.9-0.6
					c0.2-0.1,0.3-0.3,0.4-0.5c0.9-1.4,0.8-3.6,0-5.1C240.3,63.5,223.2,44.2,217.6,40.1z"/>
				<path class="st4" d="M139.3,41c-0.8-1.3-2.2-2.2-3.7-2.4c-3.9-0.4-11.4-1-13.1,0.7c-2.4,2.3,9.9,5.5,17.3,2.4L139.3,41z"/>
				<g>
					<path class="st15" d="M138.2,39.6c8.5,3.3,26,13.1,30.2,17.1c3.5,3.3,1.5,5.4,1.4,5.5c-0.7,1.3-3.3,2-4.8,1.1l-29-19.8
						L138.2,39.6z"/>
				</g>
				<path class="st15" d="M203.7,36.2c5.1-1.6,5.9,2.9,6,3c0.9,1.3-0.4,4.2-2.1,5.2l-39.4,19.1c-0.6,0.4-1.2-0.6-1.6-1.2
					c-0.1-0.2-0.2-0.4-0.2-0.6c-0.4-1.6,0.4-3.6,1.7-4.8C174.6,50.9,197,38.3,203.7,36.2z"/>
				<g>
					<path class="st15" d="M194.5,73.3c0.1,1,0.1,2.1,0.2,3.1c0.2,2.5,0.5,5,0.8,7.5c0.1,1,0.3,2.1,0.5,3.1c0.4,2.2,0.8,4.5,1.3,6.8
						c0.2,1,0.4,2,0.7,3.1c0.4,1.6,0.8,3.2,1.2,4.8c0.3,1,0.5,2,0.9,3c0.4,1.3,0.8,2.7,1.3,4.1c2.9-0.8,6-1.2,9-1.2
						c5,0,10.1,1.1,15,0.5c2.5-0.3,5-1.1,7.4-2c-0.3-0.7-0.6-1.5-0.8-2.2c-0.4-1-0.8-2-1.1-3c-0.4-1.1-0.8-2.2-1.2-3.3
						c-0.2-0.5-0.3-0.9-0.5-1.3c-0.2-0.6-0.4-1.1-0.6-1.7c-0.7-2-1.3-3.9-1.9-5.8c-0.3-1-0.6-2.1-1-3.1c-0.5-1.7-1-3.3-1.4-4.8
						c-0.3-1.1-0.6-2.1-0.8-3.2c-0.2-0.7-0.4-1.4-0.5-2.1c-2.6-11.3-2.7-18.7-1.7-23.8c0.9-4.7-0.7-9.5-4.3-12.5l-1.4-1.2
						c-5.5-4.7-13.6-3.1-17.3,2.5c-0.7,1.1-1.2,2.3-1.5,3.6c-0.7,2.8-1.3,6-1.6,9.7c-0.1,1.3-0.2,2.7-0.3,4.1
						C194.3,62.9,194.3,68,194.5,73.3z"/>
				</g>
				<path class="st4" d="M201.9,27.1c5.5,5.8,13.9,6.7,17.4,3.3c3.5-3.3,0.8-9.6-4.6-15.4c-5.5-5.8-11.1-6-14.6-2.7
					C196.5,15.7,196.4,21.3,201.9,27.1z"/>
				<path class="st10" d="M197.6,24.2c0,0-2.3-4.9-0.6-8.9s7.4-9.1,13.5-5.1c0,0,4,3.2-0.3,7.8c-4.3,4.5-5.5,1.3-5.9,5.6
					c-0.4,4.3-4,4.2-4,5.1L197.6,24.2z"/>
				<path class="st4" d="M201.7,24.4l8.1-1.9c0.3,1.1,2.6,11.7,2.7,15.8c-0.1,1.3-2.1,2.1-4.4,1.9c-2.1-0.2-3.7-1.2-3.9-2.4l0,0
					C204.1,35.4,202.6,28.3,201.7,24.4z"/>
				<path class="st10" d="M203.6,33.1c0,0-5.6-2.9-7-7.2c-1.3-4.3,0.6-11.8,9.2-11.7c0,0,6.2,0.5,5.3,6.7c-0.9,6.2-5.2,3.7-2.6,7.5
					c0.2,0.3,0.4,0.6,0.5,0.9c1.2,2.6-1.5,5.3-4.1,4.2L203.6,33.1z"/>
				<path class="st4" d="M207.2,26.7c1.3,1.3,4.2,1.8,5.2,0.9c1-0.9,0.2-2.2-1.1-3.6s-3.2-1.9-4.2-0.9
					C206.1,24,205.9,25.3,207.2,26.7z"/>
				<path class="st10" d="M220.8,25.4c0,0-0.4,1.9-2.3,2c-1.9,0.1-4.9,0.4-5.2-1.9c-0.3-2.3-2.1-1.4-2.2-0.5c-0.1,0.9,1,2.9,0.6,4
					c-0.4,1.1-1.6,2.4-1.1,2.8c0.4,0.4,3.3,2.8,5.9,2.4c1.2-0.2,4.7-1.1,5.4-3.2C222.5,28.9,222.9,26.7,220.8,25.4z"/>
			</g>
			<g>
				<path class="st11" d="M218.7,69.8c0.1-1.4,0.9-2.7,2.1-3.5c3.1-1.9,9.1-5.4,11.2-4.8c3,0.9-6,8.6-13.4,9L218.7,69.8z"/>
				<g>
					<path class="st11" d="M221.2,66.5c-3.7,0.1-9.8-0.1-15.6-0.2l-1.4,8.4l17.6-4.5L221.2,66.5z"/>
					<path class="st6" d="M191.2,67.5c-3.8,1.6-1.8,7.7-1.7,7.8c0.1,1.2,2.1,2.6,3.5,2.3l11.2-2.9l1.4-8.4
						C199.4,66.3,193.5,66.5,191.2,67.5z"/>
				</g>
			</g>
			<g>
				<g>
					<path class="st6" d="M203,88.7c7.4-4.2,24.8-10.8,30.1-11.5c4.4-0.6,4.7,2.1,4.8,2.2c0.6,1.2-0.5,3.6-2.1,4.1l-31.3,9L203,88.7
						z"/>
				</g>
				<path class="st4" d="M203.1,89c-0.4-0.3-0.9-0.4-1.5-0.5c-3.6-0.7-10.4-1.7-12.2-0.3c-2.3,1.9,7.7,5.4,14.8,3.7L203.1,89z"/>
			</g>
			<g>
				<path class="st10" d="M307.1,19.8c0,0.8-0.6,1.4-0.7,2.2c-0.2,0.7,0.1,1.6-0.2,2.3c-0.3,0.7-1,1.2-1.4,1.8
					c-0.4,0.7-0.4,1.5-0.9,2.1c-0.5,0.6-1.3,0.8-1.9,1.3c-0.3,0.3-0.5,0.6-0.7,0.9c-0.2,0.3-0.5,0.6-0.8,0.8
					c-0.6,0.4-1.5,0.4-2.2,0.7c-0.7,0.3-1.2,1-2,1.2c-0.7,0.2-1.5-0.1-2.3,0c-0.7,0.1-1.5,0.5-2.2,0.5c-0.8,0-1.4-0.6-2.2-0.7
					c-0.7-0.2-1.6,0.1-2.3-0.2c-0.7-0.3-1.2-1-1.8-1.4c-0.7-0.4-1.5-0.4-2.1-0.9c-0.6-0.5-0.8-1.3-1.3-1.9c-0.5-0.6-1.3-0.9-1.7-1.5
					c-0.4-0.6-0.4-1.5-0.7-2.2c-0.3-0.7-1-1.2-1.2-2c-0.2-0.7,0.1-1.5,0-2.3c-0.1-0.7-0.5-1.5-0.5-2.2c0-0.8,0.6-1.4,0.7-2.2
					c0.2-0.7-0.1-1.6,0.2-2.3c0.3-0.7,1-1.2,1.4-1.8c0.4-0.7,0.4-1.5,0.9-2.1c0.5-0.6,1.3-0.8,1.9-1.3c0.6-0.5,0.9-1.3,1.5-1.7
					c0.6-0.4,1.5-0.4,2.2-0.7c0.7-0.3,1.2-1,2-1.2c0.6-0.2,1.3,0,1.9,0.1c0.1,0,0.3,0,0.4,0c0.7-0.1,1.5-0.5,2.2-0.5
					c0.8,0,1.4,0.6,2.2,0.7c0.7,0.2,1.6-0.1,2.3,0.2c0.7,0.3,1.2,1,1.8,1.4c0.7,0.4,1.5,0.4,2.1,0.9c0.6,0.5,0.8,1.3,1.3,1.9
					c0.5,0.6,1.3,0.9,1.7,1.5c0.4,0.6,0.4,1.5,0.7,2.2c0.3,0.7,1,1.2,1.2,2c0.2,0.7-0.1,1.5,0,2.3C306.7,18.3,307.2,19,307.1,19.8z"
					/>
				<path class="st16" d="M295.4,24.8l-7.1,0.6c0.1,1,1,10.1,1.9,13.5c0.4,1,2.3,1.2,4.1,0.4c1.6-0.7,2.7-2,2.5-2.9l0,0
					C296.3,34.3,295.6,28.2,295.4,24.8z"/>
				<path class="st16" d="M300.2,110.2c0.3-7.9-3.3-10.1-6.1-10.7c-0.2-0.1-0.4-0.2-0.5-0.2c-2.2-0.7-4.6,0.5-5.3,2.8l-18.4,63.1
					c-0.3,1,0.3,2,1.2,2.4c0.3,0.1,0.7,0.1,1,0.1c2.4,0,4.7-1.4,5.8-3.6C283.8,152.5,299.8,120.5,300.2,110.2z"/>
				<path class="st16" d="M276.6,169.8c-0.2-2.6-1-4.1-2.9-4.9c-2.2-0.9-4.7,0.2-5.5,2.4l-23.6,61.3c-0.4,1,0.7,2.4,1.7,2.8
					c1,0.4,2.1,0,2.5-1l1.2-2.6C270.5,187.6,276.7,178.8,276.6,169.8z"/>
				<path class="st16" d="M320.9,162.9c-1.7-1.9-3.3-2.7-5.3-2.1c-2.3,0.6-3.6,3-2.9,5.3l18.9,62.9c0.3,1,2,1.4,3,1.2
					s1.6-1.3,1.4-2.3l-0.7-2.8C326.9,180.7,326.4,170,320.9,162.9z"/>
				<path class="st16" d="M310.8,102.1c-3.7-6.9-8-7.1-10.7-6.2c-0.2,0-0.4,0-0.6,0.1c-2.3,0.5-3.7,2.8-3.2,5.1l15.9,63.8
					c0.3,1,1.3,1.6,2.3,1.4c0.3-0.1,0.6-0.2,0.9-0.4c2.1-1.3,3.3-3.6,3.2-6.1C317.9,146.8,315.6,111.1,310.8,102.1z"/>
				<path class="st8" d="M330,227.2c0.8,0.4,2.2,0.6,3.9,0.4c0.9-0.1,1.8-0.2,2.4-0.5c0.5-0.2,1,0.1,1.2,0.6c0.5,1.7,1,4.4,0.1,4.6
					c-1.4,0.3-21.8,2.7-22,1.8C315.1,231.7,324.8,228.5,330,227.2z"/>
				<path class="st8" d="M244,226.7c0.6,0.6,1.9,1.3,3.5,1.8c0.9,0.2,1.7,0.4,2.4,0.4c0.5,0,0.9,0.5,0.9,1c-0.2,1.8-0.6,4.5-1.5,4.3
					c-1.4-0.2-21.3-5.2-21.2-6.1C228.5,225.7,238.7,226.1,244,226.7z"/>
				<path class="st17" d="M286.9,97.1c0,0-20,63.3-20.6,67.4c0,0-14.9,36.3-18.3,50.1l8.5,2.4c0,0,21-34.6,21.9-49.3
					c0,0,23.8-49,23.9-57.6s0-11.2,0-11.2L286.9,97.1z"/>
				<path class="st17" d="M296.2,114.5c0,0,12.4,45.5,13.6,49.2c1.2,3.7,16.9,53.4,16.9,53.4h9.2c0,0-5.6-46.4-14.7-56.5
					c0,0-1-48.9-7.7-61.5l-15.8-0.6L296.2,114.5z"/>
				<g>
					<defs>
						<path id="SVGID_00000049935419138265774110000001021886584140827544_" d="M321.3,160.6c0,0-1-48.9-7.7-61.5l-15.8-0.6
							l-10.9-1.4c0,0-20,63.3-20.6,67.4c0,0-14.9,36.3-18.3,50.1l8.5,2.4c0,0,21-34.6,21.9-49.3c0,0,13.4-27.5,20.1-44.9
							c3.6,13.3,10.4,38.1,11.3,40.8c1.2,3.7,16.9,53.4,16.9,53.4h9.2C336,217.1,330.3,170.7,321.3,160.6z"/>
					</defs>
					<clipPath id="SVGID_00000045592317864675411960000006075806241082580117_">
						<use xlink:href="#SVGID_00000049935419138265774110000001021886584140827544_"  style="overflow:visible;"/>
					</clipPath>
				</g>
				<path class="st16" d="M314.7,96.5c1.4,0.3,2.5,1.3,3.1,2.5c1.5,3.3,4.1,9.6,3.2,11.7c-1.3,2.8-7.7-7-7.1-14.4L314.7,96.5z"/>
				<path class="st18" d="M303.1,37.6c-4.2-2.7-6,1.2-6.1,1.2c-1.1,1-0.7,3.8,0.6,5.1l30.4,26.4c0.4,0.5,1.2-0.3,1.7-0.7
					c0.2-0.1,0.3-0.3,0.3-0.5c0.8-1.3,0.5-3.3-0.3-4.6C325.4,57.7,308.5,41.1,303.1,37.6z"/>
				<g>
					<path class="st18" d="M317.6,99.1c4.6-7,12.3-23.8,13.3-29c0.9-4.3-1.8-4.8-1.9-4.9c-1.2-0.6-3.6,0.3-4.2,1.8l-10.9,30.4
						L317.6,99.1z"/>
				</g>
				<g>
					<path class="st18" d="M287,79.6c0.3-3,0.2-11.4,0.2-12.4c-0.4-6.5-1.4-10.4-1.8-15.5c-0.3-3-0.6-5.7-0.1-7.9
						c0.8-3.4,3.3-9,11.7-7.6c7.9,1.3,9.9,9.1,11,14.9c2.6,13.3,5.2,34.8,7.6,49.8c-2.9,1.7-5.9,2.4-9.1,2.3
						c-6.8-0.3-13.3-2.8-20.1-3c0,0,0,0,0,0C285.9,93.6,286.4,86,287,79.6z"/>
				</g>
				<path class="st16" d="M226.4,58.1c-1.3,0.6-2.8,0.6-4,0c-3.3-1.6-9.3-4.8-9.9-7c-0.8-3,10.4,0.6,14.6,6.6L226.4,58.1z"/>
				<path class="st18" d="M292.1,45.7c4-2.9,1.1-6,1.1-6.1c-0.5-1.4-3.3-2-5-1.3l-35.8,18.4c-0.6,0.2-0.2,1.2,0,1.9
					c0.1,0.2,0.2,0.4,0.4,0.5c1,1.2,2.9,1.7,4.4,1.4C265.1,58.9,286.8,49.4,292.1,45.7z"/>
				<g>
					<path class="st18" d="M224.9,58.6c8.2,1.7,26.6,2.6,31.9,1.6c4.3-0.8,3.8-3.4,3.8-3.5c0.1-1.3-1.6-3.2-3.2-3.2l-32.3,1.2
						L224.9,58.6z"/>
				</g>
				<path class="st10" d="M280.9,19.6c0,0-1.3-2.7-0.2-4.7c1-1.8,2.8-3.8,9.9-2.3c1,0.2,1.7,1.1,1.7,2.2l-0.1,2.9L280.9,19.6z"/>
				<path class="st16" d="M294.3,25c-0.7,4.2-1.6,7.7-4.3,9.5c-1,0.6-2.1,1.1-3.5,1.3c-0.9,0.1-1.8,0.1-2.8-0.1
					c-0.9-0.2-1.6-0.5-2.2-0.8c-1.2-0.7-1.9-1.8-2.3-3.2c-0.2-0.9-0.3-1.9-0.3-3c0-1.8,0.3-3.8,0.7-6c1.1-6.7,4.9-9.5,9-8.9
					C292.6,14.5,295.4,18.4,294.3,25z"/>
				<path class="st10" d="M288.2,21l-1.6,9.7c-0.3,1.8-1.6,3.3-3.4,3.7l-1.7,0.4c-1.2-0.7-1.9-1.8-2.3-3.2c-0.2-0.9-0.3-1.9-0.3-3
					l0.3,0.1c0.4,0.1,0.8,0.5,0.8,0.9l0.1,2c0,0.7,0.7,1.3,1.4,1.1l1.2-0.3c1-0.3,1.8-1.1,1.9-2.1l1.6-9.7L288.2,21z"/>
				<path class="st10" d="M290.9,16l-4.3-0.7c-1.4-0.2-2.9,0.1-4.1,0.9l-1.7,1.1l2.6-3.7l3.7-0.8l4.3,1L290.9,16z"/>
				<path class="st10" d="M307.1,19.8c0,0.8-0.6,1.4-0.7,2.2c-0.2,0.7,0.1,1.6-0.2,2.3c-0.3,0.7-1,1.2-1.4,1.8
					c-0.4,0.7-0.4,1.5-0.9,2.1c-0.5,0.6-1.3,0.8-1.9,1.3c-0.3,0.3-0.5,0.6-0.7,0.9c-0.1,0-0.3,0-0.4,0c-0.7,0.1-1.5,0.5-2.2,0.5
					c-0.8,0-1.4-0.6-2.2-0.7c-0.7-0.2-1.6,0.1-2.3-0.2c-0.7-0.3-1.2-1-1.8-1.4c-0.7-0.4-1.5-0.4-2.1-0.9c-0.6-0.5-0.8-1.3-1.3-1.9
					c-0.5-0.6-1.3-0.9-1.7-1.5c-0.4-0.6-0.4-1.5-0.7-2.2c-0.3-0.7-1-1.2-1.2-2c-0.2-0.7,0.1-1.5,0-2.3c-0.1-0.7-0.5-1.5-0.5-2.2
					c0-0.8,0.6-1.4,0.7-2.2c0.2-0.7-0.1-1.6,0.2-2.3c0.3-0.7,1-1.2,1.4-1.8c0.4-0.7,0.4-1.5,0.9-2.1c0.5-0.6,1.3-0.8,1.9-1.3
					c0.3-0.3,0.5-0.6,0.7-0.9c0.1,0,0.3,0,0.4,0c0.7-0.1,1.5-0.5,2.2-0.5c0.8,0,1.4,0.6,2.2,0.7c0.7,0.2,1.6-0.1,2.3,0.2
					c0.7,0.3,1.2,1,1.8,1.4c0.7,0.4,1.5,0.4,2.1,0.9c0.6,0.5,0.8,1.3,1.3,1.9c0.5,0.6,1.3,0.9,1.7,1.5c0.4,0.6,0.4,1.5,0.7,2.2
					c0.3,0.7,1,1.2,1.2,2c0.2,0.7-0.1,1.5,0,2.3C306.7,18.3,307.2,19,307.1,19.8z"/>
				<path class="st16" d="M290.3,24.5c-0.2,1.4-1.9,3.1-3,2.9c-1-0.2-1.1-1.4-0.9-2.8s1.3-2.7,2.3-2.5
					C289.8,22.3,290.5,23.1,290.3,24.5z"/>
			</g>
			<g>
				<path class="st0" d="M91,102c1.3,0.4,2.4,1.5,2.9,2.8c1.2,3.4,3.2,10,2,11.9c-1.6,2.6-6.9-7.7-5.6-15L91,102z"/>
				<g>
					<path class="st19" d="M93.1,102.7c-4.6-7-17-20.7-21.4-23.7c-3.6-2.5-5.1-0.3-5.2-0.2c-1.1,0.9-1.1,3.4,0,4.6l23.6,22.1
						L93.1,102.7z"/>
				</g>
				<path class="st20" d="M96.3,33.5c4.8,6.2,13.1,7.9,16.9,4.9c3.8-3,1.7-9.4-3.1-15.6c-4.8-6.2-10.4-7-14.2-4
					C92,21.7,91.4,27.3,96.3,33.5z"/>
				<path class="st21" d="M92.3,30.2c0,0-1.8-5,0.2-8.9s8.2-8.3,13.8-3.8c0,0,3.7,3.6-1,7.6c-4.7,4.1-5.6,0.8-6.4,5
					c-0.8,4.2-4.3,3.8-4.4,4.7L92.3,30.2z"/>
				<path class="st20" d="M96.7,30.7l7.4-1c0.1,1,1.3,10.7,1.1,14.4c-0.2,1.1-2.1,1.7-4.1,1.3c-1.8-0.4-3.2-1.4-3.3-2.5l0,0
					C97.9,40.8,97.2,34.3,96.7,30.7z"/>
				<path class="st21" d="M97.4,39.6c0,0-5.3-3.4-6.2-7.8c-0.9-4.4,1.7-11.6,10.2-10.7c0,0,6,1.1,4.6,7.1c-1.4,6-4.6,3.6-2.4,7.7
					c0.2,0.3,0.3,0.7,0.5,1c1,2.6-1.9,5.1-4.4,3.8L97.4,39.6z"/>
				<path class="st6" d="M89.3,33.9c0,0,4.5,6,6.7,6c2.2,0,3.6-1.1,5.8-7.5c2.2-6.4,3.5-14.6,2.6-16c-0.9-1.4-6.6-3.8-16.2,5.8
					C78.6,31.7,89.3,33.9,89.3,33.9z"/>
				<path class="st20" d="M101.6,33.6c1.1,1.4,4,2.2,5,1.4c1-0.8,0.4-2.2-0.7-3.6c-1.1-1.4-3-2.1-4.1-1.3
					C100.8,30.8,100.4,32.2,101.6,33.6z"/>
				<path class="st17" d="M119.5,105.3c0,0,15.2,64.6,15.4,68.8c0,0,12.1,37.3,14.4,51.4l-8.6,1.8c0,0-18.3-36.1-18.1-50.8
					c0,0-20-50.6-19.5-59.2s0.8-11.2,0.8-11.2L119.5,105.3z"/>
				<path class="st17" d="M111.7,119.3c0,0-9.2,46.2-10.1,50.1c-0.9,3.8-13.2,54.4-13.2,54.4l-9.2,0.6c0,0,2.4-46.7,10.7-57.4
					c0,0-2.4-48.9,3.4-61.9l15.7-1.7L111.7,119.3z"/>
				<path class="st20" d="M157.4,90.5c0.4-1.4,1.4-2.5,2.7-3c3.4-1.3,9.9-3.6,11.8-2.5c2.7,1.5-7.5,7.2-14.8,6.3L157.4,90.5z"/>
				<path class="st18" d="M109.2,46.5c-3.4-3.6-6.1-0.4-6.2-0.3c-1.3,0.7-1.6,3.5-0.7,5.1l22.9,33.1c0.3,0.6,1.3,0.1,1.8-0.2
					c0.2-0.1,0.3-0.2,0.5-0.4c1.1-1.1,1.3-3.1,0.8-4.6C125.8,71.5,113.6,51.2,109.2,46.5z"/>
				<g>
					<path class="st18" d="M158.9,87.8c-7.6-3.6-25.2-8.9-30.6-9.2c-4.4-0.3-4.5,2.4-4.6,2.5c-0.5,1.3,0.8,3.5,2.3,3.9l31.6,6.7
						L158.9,87.8z"/>
				</g>
				<path class="st19" d="M98.9,51.7c2.5-4.3-1.4-5.9-1.5-6c-1-1.1-3.9-0.5-5.1,0.9l-25,31.6c-0.5,0.5,0.3,1.2,0.8,1.7
					c0.2,0.2,0.3,0.3,0.5,0.3c1.4,0.7,3.3,0.3,4.6-0.6C79.9,74.9,95.7,57.2,98.9,51.7z"/>
				<g>
					<path class="st18" d="M92.6,86.1c0.3-3,0.2-11.4,0.2-12.4c-0.4-6.5-1.4-10.4-1.8-15.5c-0.3-3-0.6-5.7-0.1-7.9
						c0.8-3.4,3.3-9,11.7-7.6c7.9,1.3,9.9,9.1,11,14.9c2.6,13.3,5.2,34.8,7.6,49.8c-2.9,1.7-5.9,2.4-9.1,2.3
						c-6.8-0.3-13.3-2.8-20.1-3c0,0,0,0,0,0C91.5,100.1,92.1,92.5,92.6,86.1z"/>
				</g>
				<g>
					<defs>
						<path id="SVGID_00000093178801719304883910000017341330031156376494_" d="M128.4,78.5c-0.1,0-0.2,0-0.3,0
							c-3-8.1-14.6-27.3-18.9-31.9c-1.6-1.9-3.7-3.4-6.7-3.9c-5.4-0.9-8.3,1.1-10,3.5c-0.1,0.1-0.2,0.2-0.3,0.3l-25,31.6
							c0,0,0,0.1-0.1,0.1c-0.5,0.3-0.7,0.6-0.7,0.6c-1.1,0.9-1.1,3.4,0,4.6l23.6,22.1l1.6-1.5c0,0.9,0,1.8,0.1,2.7c0,0,0,0,0,0
							c6.8,0.2,13.3,2.7,20.1,3c3.2,0.1,6.2-0.5,9.1-2.3c-1.7-10.7-3.6-24.7-5.4-36.7l8.1,11.7c0.2,0.8,0.8,1.6,1.5,2.1
							c0.1,0.1,0.1,0.1,0.2,0.1c0.2,0.1,0.4,0.2,0.7,0.3l31.6,6.7l1.1-3.9C151.3,84.2,133.7,78.9,128.4,78.5z M72.8,79.8
							c0.2-0.1,0.3-0.2,0.4-0.3c4.2-3,12.1-11.1,18.1-18.1c0.5,3.7,1.1,7.2,1.5,12.2c0.1,1,0.1,9.4-0.2,12.4
							c-0.4,4.6-0.8,9.8-0.9,14.7C86.8,94.1,77.4,83.6,72.8,79.8z"/>
					</defs>
					<clipPath id="SVGID_00000145055868124279121790000006158217804960706744_">
						<use xlink:href="#SVGID_00000093178801719304883910000017341330031156376494_"  style="overflow:visible;"/>
					</clipPath>
				</g>
			</g>
			<g>
				<path class="st4" d="M302.7,49.8c1.3,0.6,2.8,0.7,4.1,0c3.3-1.6,9.4-4.8,10-7c0.8-3-10.5,0.5-14.8,6.6L302.7,49.8z"/>
				<g>
					<path class="st6" d="M305.4,50.3c-3.4,7.8-13.3,23.5-17.1,27.3c-3.2,3.1-5,1.2-5.1,1.1c-1.2-0.7-1.7-3.2-0.8-4.5l19.6-26.1
						L305.4,50.3z"/>
				</g>
			</g>
			<path class="st4" d="M268.5,51.4c0.6-1.4,1.8-2.5,3.3-2.9c3.8-1,11.1-2.7,13.1-1.3c2.8,1.9-8.9,6.9-16.7,5L268.5,51.4z"/>
			<path class="st15" d="M269.4,50c-7.9,4.5-23.7,16.9-27.3,21.4c-3,3.8-0.7,5.5-0.6,5.6c0.8,1.2,3.6,1.5,5,0.4l25.7-24L269.4,50z"
				/>
			<g>
				<path class="st11" d="M100.4,61.8c-1.3,0-2.5-0.7-3.3-1.8c-1.9-2.7-5.4-8-4.9-10c0.7-2.7,8.1,5.1,8.9,11.8L100.4,61.8z"/>
				<g>
					<path class="st11" d="M100.1,58.2l-1.9,3c3.3,2.2,8.8,6.2,14,9.7l2.1-7.7L100.1,58.2z"/>
					<path class="st6" d="M129.9,72c0.6-1.1-0.3-3.3-1.7-3.9l-13.9-4.9l-2.1,7.7c4.9,3.3,9.5,6.2,11.8,6.6
						C128.1,78.3,129.8,72.1,129.9,72z"/>
				</g>
			</g>
		</g>
	</g>
	<g>
		<g>
			<path class="st15" d="M45.9,116.4c0-0.1-1.6-9.3-5.9-21.8c-2.5-7.4-5.5-14.5-8.8-21.1c-4.2-8.3-8.9-15.8-14-22.4L16,52
				c11.5,14.7,18.7,31.5,22.6,43c4.3,12.4,5.9,21.5,5.9,21.6L45.9,116.4z"/>
		</g>
		<g>
			<path class="st15" d="M13.2,43.8c3.5,4.6,4.7,9.5,4.7,9.5s-4.4-2.5-7.9-7.1c-3.5-4.6-4.7-9.5-4.7-9.5S9.7,39.2,13.2,43.8z"/>
		</g>
		<g>
			<path class="st15" d="M24.4,47.8c-0.8,5.7-3.5,10-3.5,10s-1.4-4.9-0.6-10.6c0.8-5.7,3.5-10,3.5-10S25.2,42.1,24.4,47.8z"/>
		</g>
		<g>
			<path class="st15" d="M10.5,59.6C4.7,59.8,0,57.9,0,57.9s4.6-2.2,10.3-2.4c5.7-0.2,10.5,1.7,10.5,1.7S16.2,59.4,10.5,59.6z"/>
		</g>
		<g>
			<path class="st15" d="M16,69.4c-5.4,1.8-10.5,1.4-10.5,1.4s3.8-3.4,9.2-5.3c5.4-1.8,10.5-1.4,10.5-1.4S21.5,67.6,16,69.4z"/>
		</g>
		<g>
			<path class="st15" d="M21.4,79.1c-5.6,1.3-10.6,0.4-10.6,0.4s4.1-3.1,9.6-4.4c5.6-1.3,10.6-0.4,10.6-0.4S27,77.8,21.4,79.1z"/>
		</g>
		<g>
			<path class="st15" d="M25.9,88.8c-5.6,1.1-10.6,0.1-10.6,0.1s4.2-2.9,9.8-4.1c5.6-1.1,10.6-0.1,10.6-0.1S31.5,87.6,25.9,88.8z"/>
		</g>
		<g>
			<path class="st15" d="M29.8,100.7c-5.4,1.8-10.5,1.4-10.5,1.4s3.8-3.4,9.2-5.3c5.4-1.8,10.5-1.4,10.5-1.4S35.3,98.9,29.8,100.7z"
				/>
		</g>
		<g>
			<path class="st15" d="M32.4,56.9c-2.9,5-7,8-7,8s0.6-5.1,3.4-10s7-8,7-8S35.3,51.9,32.4,56.9z"/>
		</g>
		<g>
			<path class="st15" d="M45,80.3c-4.6,3.4-9.6,4.5-9.6,4.5s2.5-4.4,7.2-7.8c4.6-3.4,9.6-4.5,9.6-4.5S49.6,76.9,45,80.3z"/>
		</g>
		<g>
			<path class="st15" d="M49.7,93.6c-5.3,2.1-10.4,2-10.4,2s3.6-3.6,8.9-5.8c5.3-2.1,10.4-2,10.4-2S55.1,91.5,49.7,93.6z"/>
		</g>
		<g>
			<path class="st15" d="M39.1,68.4c-3.6,4.5-8.1,6.8-8.1,6.8s1.3-4.9,4.9-9.4C39.5,61.4,44,59,44,59S42.7,63.9,39.1,68.4z"/>
		</g>
	</g>
	<g>
		<g>
			<path class="st15" d="M71.1,112.9c0-0.1-1.1-6.7-1.2-16.4c0-5.7,0.3-11.3,1-16.6c0.8-6.7,2.3-13,4.2-18.7l1,0.3
				c-4.3,12.9-5.2,26.2-5.1,35c0.1,9.6,1.2,16.2,1.2,16.2L71.1,112.9z"/>
		</g>
		<g>
			<path class="st15" d="M75.9,55.2c-1.3,4-0.9,7.7-0.9,7.7s2.4-2.8,3.7-6.8c1.3-4,0.9-7.7,0.9-7.7S77.2,51.2,75.9,55.2z"/>
		</g>
		<g>
			<path class="st15" d="M69.2,60.7c1.9,3.7,4.8,6,4.8,6s-0.2-3.7-2.2-7.4c-1.9-3.7-4.8-6-4.8-6S67.3,57,69.2,60.7z"/>
		</g>
		<g>
			<path class="st15" d="M81.6,65.4c4-1.3,6.8-3.7,6.8-3.7s-3.7-0.4-7.7,0.9c-4,1.3-6.8,3.7-6.8,3.7S77.7,66.6,81.6,65.4z"/>
		</g>
		<g>
			<path class="st15" d="M80.2,73.4c4.2-0.1,7.5-1.6,7.5-1.6s-3.4-1.4-7.6-1.4c-4.2,0.1-7.5,1.6-7.5,1.6S76,73.5,80.2,73.4z"/>
		</g>
		<g>
			<path class="st15" d="M78.9,81.4c4.2-0.4,7.4-2.3,7.4-2.3s-3.5-1.1-7.7-0.7c-4.2,0.4-7.4,2.3-7.4,2.3S74.7,81.9,78.9,81.4z"/>
		</g>
		<g>
			<path class="st15" d="M78.1,89.1c4.1-0.6,7.3-2.5,7.3-2.5s-3.6-1-7.7-0.4c-4.1,0.6-7.3,2.5-7.3,2.5S74,89.7,78.1,89.1z"/>
		</g>
		<g>
			<path class="st15" d="M78.3,98.3c4.2-0.1,7.5-1.6,7.5-1.6s-3.4-1.4-7.6-1.4c-4.2,0.1-7.5,1.6-7.5,1.6S74.1,98.3,78.3,98.3z"/>
		</g>
		<g>
			<path class="st15" d="M65.9,68.8c3.2,2.7,6.7,3.8,6.7,3.8s-1.6-3.3-4.8-6c-3.2-2.7-6.7-3.8-6.7-3.8S62.8,66.1,65.9,68.8z"/>
		</g>
		<g>
			<path class="st15" d="M63,88c4,1.2,7.7,0.8,7.7,0.8s-2.8-2.4-6.8-3.6c-4-1.2-7.7-0.8-7.7-0.8S59,86.8,63,88z"/>
		</g>
		<g>
			<path class="st15" d="M63,98.2c4.2,0.2,7.6-1.2,7.6-1.2s-3.3-1.6-7.5-1.8c-4.2-0.2-7.6,1.2-7.6,1.2S58.8,98.1,63,98.2z"/>
		</g>
		<g>
			<path class="st15" d="M64.1,78.3c3.6,2.2,7.2,2.7,7.2,2.7s-2.1-3-5.7-5.2c-3.6-2.2-7.2-2.7-7.2-2.7S60.6,76.1,64.1,78.3z"/>
		</g>
	</g>
	<path class="st19" d="M118,111.8c-3.2,0-6.2,1-8.7,2.6c-4.2-4.8-10.4-7.8-17.2-7.8c-4.8,0-9.2,1.5-12.9,3.9
		c-5.1-3.3-11.6-5.2-18.8-5.2c-14.1,0-25.9,7.7-28.9,18h38.4h19.4h13.4h11.5h19.1C131.4,116.7,125.3,111.8,118,111.8z"/>
	<path class="st15" d="M272.8,127.4c-3.4,0-6.5,1-9.2,2.7c-5-6.2-12.7-10.2-21.3-10.2c-6.8,0-13,2.5-17.8,6.6
		c-5.5-3.7-12.7-6-20.6-6c-15,0-27.6,8.2-30.8,19.2h43h18.6h21.8h12.1h20.5C287.1,132.6,280.5,127.4,272.8,127.4z"/>
	<path class="st19" d="M330.2,120.4c-12.3,0-23.1,5-29.2,12.5c-2.6-1.9-5.9-3-9.4-3c-7.4,0-13.6,4.9-15.5,11.7h20.2h10.8h57
		C360.6,129.4,346.7,120.4,330.2,120.4z"/>
	<g>
		<g>
			<path class="st22" d="M60.3,131.4c0-0.1-3.6-11.5-1.5-29.7c2.1-17.8-7.2-25.8-7.3-25.9l0.6-0.8c0.4,0.3,9.8,8.4,7.6,26.8
				c-2.1,18,1.5,29.2,1.5,29.3L60.3,131.4z"/>
			<path class="st22" d="M53.1,89.5c3.1,0.3,5.8-0.6,5.8-0.6s-2.4-1.4-5.6-1.7c-3.1-0.3-5.8,0.6-5.8,0.6S49.9,89.2,53.1,89.5z"/>
			<path class="st22" d="M63.2,88.9c1.5-2.8,1.8-5.6,1.8-5.6s-2.3,1.7-3.8,4.4c-1.5,2.8-1.8,5.6-1.8,5.6S61.6,91.7,63.2,88.9z"/>
		</g>
		<g>
			<path class="st22" d="M54.7,81.5c-0.4,0.4-0.8,0.7-1.2,0.9c-1.3,0.6-3.5,1.2-4.9-0.1c-2-1.9-4.7-1.9-5-4
				c-0.4-2.1,0.1-7.3,2.8-8.7s4.2-4.7,8.1-1.5c3.9,3.2,5.9,1.7,6,5c0.1,3.4-0.5,7.1-2.1,8.1C56.9,82,55.3,80.9,54.7,81.5z"/>
			<path class="st0" d="M55.6,79.1c-0.2,0.4-0.4,0.7-0.7,1c-0.8,0.7-2.2,1.8-3.5,1.2c-1.9-0.9-3.8-0.1-4.6-1.5
				c-0.8-1.4-1.8-5.2-0.2-7c1.6-1.7,1.8-4.5,5.4-3.2c3.6,1.3,4.6-0.3,5.6,2s1.5,5.2,0.6,6.3C57.3,78.8,55.9,78.5,55.6,79.1z"/>
			<path class="st22" d="M55,76.5c0,0.2-0.1,0.5-0.2,0.7c-0.3,0.6-0.9,1.5-1.7,1.5c-1.3-0.1-2.2,0.8-3,0.2c-0.8-0.6-2.2-2.6-1.7-3.9
				c0.5-1.3,0-2.9,2.3-3c2.3-0.1,2.6-1.2,3.6-0.1c1.1,1.1,2,2.6,1.8,3.5C55.9,76,55,76.2,55,76.5z"/>
			<circle class="st0" cx="52" cy="75" r="1.5"/>
		</g>
	</g>
	<path class="st15" d="M109.3,121.9c-3.5,0-6.8,1-9.6,2.8c-4.7-3.6-11.2-5.8-18.3-5.8c-9.3,0-17.4,3.8-22.1,9.4
		c-2-1.4-4.4-2.3-7.1-2.3c-5.6,0-10.2,3.7-11.7,8.8h15.2H64h28.1h15h19.4C124.4,127.4,117.5,121.9,109.3,121.9z"/>
	<path class="st19" d="M172.7,129.7c-1.8,0-3.4,0.5-4.8,1.4c-2.3-2.6-5.7-4.3-9.5-4.3c-3.2,0-6,1.2-8.3,3.1
		c-1.5-1.2-3.3-2.1-5.3-2.8c0.4-1,1.1-2.8,2.1-5c0.5-1,1.1-2.1,1.8-3.3c0.4-0.1,2.1-0.5,4.3-0.3c0,0.5,0.3,0.9,0.8,1
		c0.6,0.2,1.2-0.2,1.4-0.8c0.2-0.6-0.2-1.2-0.8-1.4c-0.5-0.2-1.1,0.1-1.3,0.6c-1.8-0.2-3.2,0-4,0.1c1.3-2.1,2.9-4.4,4.9-6.4
		c0.1,0.1,0.2,0.1,0.3,0.2c0.6,0.2,1.2-0.2,1.4-0.8c0.2-0.6-0.2-1.2-0.8-1.4c-0.6-0.2-1.2,0.2-1.4,0.8c-0.1,0.3-0.1,0.5,0,0.8
		c-0.9,1-1.8,2-2.6,3c0.1-1.1,0.3-2.7,0.1-4.3c0.3-0.1,0.5-0.4,0.6-0.7c0.2-0.6-0.2-1.2-0.8-1.4c-0.6-0.2-1.2,0.2-1.4,0.8
		c-0.2,0.6,0.2,1.2,0.8,1.4c0.1,0,0.1,0,0.2,0c0.3,2.4-0.2,4.9-0.3,5.2c-1.7,2.4-3,4.7-3.9,6.6c-1.1,2.2-1.8,4-2.1,5.1
		c-1.5-0.4-3.1-0.7-4.8-0.8c0.2-1.8,0.6-5.1,0.7-9.3c0.1-3.5,0-8-0.7-12.7c0.2-0.6,1.4-4.7,3.6-7.9c0.1,0,0.2,0.1,0.3,0.1
		c1,0.2,2-0.5,2.2-1.5s-0.5-2-1.5-2.2c-1-0.2-2,0.5-2.2,1.5c-0.1,0.6,0,1.1,0.4,1.5c-1.5,2.2-2.5,4.7-3.1,6.3
		c-0.4-2.1-0.9-4.3-1.5-6.5c0.3-0.3,0.6-0.7,0.7-1.1c0.2-1-0.5-2-1.5-2.2c-1-0.2-2,0.5-2.2,1.5c-0.2,1,0.5,2,1.5,2.2
		c0.2,0,0.4,0,0.6,0c1.4,4.5,2,9.1,2.3,13.2c-1.1-0.8-3-2.2-5.7-3.2c0-0.9-0.6-1.7-1.6-1.9c-1-0.2-2,0.5-2.2,1.5
		c-0.2,1,0.5,2,1.5,2.2c0.8,0.1,1.6-0.2,2-0.9c3.4,1.3,5.5,3.1,6.1,3.6c0.1,2.3,0.1,4.5,0.1,6.3c-0.1,4.2-0.5,7.6-0.7,9.3
		c-7.8,0-14.3,4.3-15.9,10H146h8.4h9.8h6.4h10.6C180.1,132.4,176.7,129.7,172.7,129.7z"/>
	<path class="st0" d="M248.6,133.3c-2.1,0-4,0.6-5.7,1.6c-3.1-3.9-7.8-6.4-13.1-6.4c-4.2,0-8.1,1.5-11.1,4
		c-3.4-2.3-7.9-3.8-12.7-3.8c-9.3-0.1-17.2,4.9-19.2,11.7l26.6,0.2l11.5,0.1l13.5,0.1l7.5,0.1l12.7,0.1
		C257.4,136.6,253.4,133.4,248.6,133.3z"/>
	<path class="st0" d="M363,136.2c-2.1,0-4,0.6-5.7,1.6c-3.1-3.9-7.8-6.4-13.1-6.4c-4.2,0-8.1,1.5-11.1,4c-3.4-2.3-7.9-3.8-12.7-3.8
		c-9.3-0.1-17.2,4.9-19.2,11.7l26.6,0.2l11.5,0.1l13.5,0.1l7.5,0.1l12.7,0.1C371.8,139.5,367.8,136.2,363,136.2z"/>
	<path class="st15" d="M269.7,135.7c0,0-1.4-21.1-14.9-22.6C254.8,113.1,267.4,124.4,269.7,135.7z"/>
	<path class="st15" d="M272.9,135.7c0,0,3.5-27.1-13.3-32.5C259.6,103.2,272.8,120.7,272.9,135.7z"/>
</g>
</svg>
