<?xml version="1.0" encoding="utf-8"?>
<!-- Generator: Adobe Illustrator 25.4.1, SVG Export Plug-In . SVG Version: 6.00 Build 0)  -->
<svg version="1.1" id="Calque_1" xmlns="http://www.w3.org/2000/svg" xmlns:xlink="http://www.w3.org/1999/xlink" x="0px" y="0px"
	 viewBox="0 0 312.6 220.2" style="enable-background:new 0 0 312.6 220.2;" xml:space="preserve">
<style type="text/css">
	.st0{fill:#F26951;}
	.st1{fill:#3899B0;}
	.st2{fill:#EDBEA1;}
	.st3{fill:#2D334A;}
	.st4{fill:#58ACBF;}
	.st5{fill:#73BBC9;}
	.st6{fill:#42475C;}
	.st7{fill:#646879;}
	.st8{fill:#A6A6A6;}
	.st9{fill:#C9C9C9;}
	.st10{clip-path:url(#SVGID_00000157301287847575057450000006199880075816559248_);}
	.st11{fill:#8E919D;}
	.st12{fill:#FFFFFF;}
	.st13{fill:#7B7E8D;}
	.st14{opacity:0.46;fill:#FFFFFF;}
	.st15{clip-path:url(#SVGID_00000109745856518552856510000004280903408816234933_);}
	.st16{fill:#FFFBF5;}
</style>
<g>
	<g>
		<g>
			<path class="st0" d="M78.8,39.8c0,0-3.5-10.3,2.3-22.2C87,5.8,77.4-0.5,72,3.1S63,20.2,78.8,39.8z"/>
		</g>
		<g>
			<path class="st0" d="M87.8,48c0,0,3.9-10.2,16.1-15.6c12.2-5.4,8.9-16.3,2.4-17C99.7,14.8,88.3,22.9,87.8,48z"/>
		</g>
		<g>
			<path class="st0" d="M86.6,49c0,0-10.9-1.1-21.3,7.2c-10.4,8.3-18.7,0.6-16.4-5.5C51.2,44.7,63.7,38.2,86.6,49z"/>
		</g>
		<g>
			<path class="st0" d="M99.6,68c0,0-10.9-1.1-21.3,7.2S59.7,75.8,62,69.7C64.3,63.7,76.7,57.1,99.6,68z"/>
		</g>
		<g>
			<path class="st0" d="M106.9,88c0,0-10.9-1.1-21.3,7.2s-18.7,0.6-16.4-5.5C71.6,83.6,84,77.1,106.9,88z"/>
		</g>
		<g>
			<path class="st0" d="M114.8,113.1c0,0-10.9-1.1-21.3,7.2s-18.7,0.6-16.4-5.5S91.9,102.2,114.8,113.1z"/>
		</g>
		<g>
			<path class="st0" d="M99.5,67.8c0,0,3.9-10.2,16.1-15.6s8.9-16.3,2.4-17C111.4,34.6,100,42.7,99.5,67.8z"/>
		</g>
		<g>
			<path class="st0" d="M108.5,89.9c0,0,3.9-10.2,16.1-15.6c12.2-5.4,8.9-16.3,2.4-17C120.5,56.6,109,64.7,108.5,89.9z"/>
		</g>
		<g>
			<path class="st0" d="M115.6,112.7c0,0,3.9-10.2,16.1-15.6c12.2-5.4,8.9-16.3,2.4-17C127.6,79.4,116.1,87.5,115.6,112.7z"/>
		</g>
		<g>
			<path class="st0" d="M75.9,35.9c0.9,1,1.8,2.1,2.6,3.1c2.5,3.1,4.9,6.4,7.2,9.7c0.1,0.1,0.2,0.2,0.2,0.4
				c3.9,5.7,7.4,11.6,10.5,17.6c0.2,0.5,0.5,0.9,0.7,1.4c3.3,6.4,6.2,13,8.7,19.5c0.1,0.1,0.1,0.3,0.2,0.4l0,0
				c3.2,8.3,5.8,16.6,7.9,24.7c0,0.1,0.1,0.2,0.1,0.4c3.5,13.2,5.7,25.8,7.1,36.8c1.8,14.1,2.5,27,2.7,37.4l2.3,0.1
				c-0.2-10.5-0.9-23.5-2.7-37.7c-1.5-11.4-3.7-24.4-7.3-37.9c-0.1-0.4-0.2-0.9-0.4-1.3c-1.9-7-4.1-14.1-6.8-21.3
				c-0.1-0.3-0.2-0.5-0.3-0.8c-2.6-6.9-5.6-13.8-9-20.6c0,0,0-0.1-0.1-0.1c0,0,0,0,0,0c-3.4-6.7-7.3-13.3-11.6-19.7
				c0,0-0.1-0.1-0.1-0.1c-3.1-4.5-6.4-8.9-10-13.1c-0.1-0.1-0.1-0.1-0.2-0.2c-0.4-0.5-1.1-0.5-1.6-0.1
				C75.6,34.7,75.5,35.4,75.9,35.9z"/>
		</g>
	</g>
	<g>
		<path class="st1" d="M294.6,187.9c7.1,0,13.2,4.8,15,11.2h-30.1C281.4,192.7,287.5,187.9,294.6,187.9z"/>
		<path class="st1" d="M221.3,182.6c10.5,0,19.4,7,22.2,16.6h-44.3C201.9,189.6,210.8,182.6,221.3,182.6z"/>
		<path class="st1" d="M290,199.2c-3.4-11.7-16.9-20.4-32.9-20.4s-29.6,8.7-32.9,20.4H290z"/>
	</g>
	<g>
		<path class="st1" d="M148.1,190.3c10.5,0,19.3,7,22.1,16.5H126C128.7,197.3,137.6,190.3,148.1,190.3z"/>
		<path class="st1" d="M40.5,182.5c15.4,0,28.5,10.3,32.5,24.3H8C12,192.8,25,182.5,40.5,182.5z"/>
		<path class="st1" d="M141.4,206.8c-5-17.1-24.7-29.9-48.4-29.9s-43.4,12.8-48.4,29.9H141.4z"/>
	</g>
	<g>
		<g>
			<path class="st2" d="M98.9,109.4c1.4-0.4,2.4-1,3.1-3.1c0.5-1.6,0.5-2.9,0.1-3.9c-0.5-1-1.5-1.9-2.6-1.7c-0.3,0-0.6,0-0.7-0.1
				c0,0,0,0,0,0c-0.7-0.7-0.1-1.1-1.7-3c-1.6-1.9-2.9-1-3.1-0.7c-0.3,0.3,0.7,1,1.1,1.4c0.4,0.4,0.7,2,1.1,2.7
				c0.2,0.4,0.4,1.5,0.5,2.3c0.1,0.8,0.3,1.5,0.5,2.3c0.3,1.1,0.4,2.1,0.9,3C98.1,108.8,98.7,109.2,98.9,109.4z"/>
			<polygon class="st2" points="99.4,121.6 105.4,121.8 104.8,108.5 98.3,108.5 			"/>
			<path class="st2" d="M98.6,102.8c0.1,3.2,0,6.6,0.1,6.8l6,1.4c0.8-0.5,1.3-0.8,2.8-6.7l0.5-2.2l-2.1-1.6
				c-0.3-0.3-0.7-0.5-1.1-0.7l-0.5-0.2c-1-0.5-2.1-0.6-3.2-0.5l-0.7,0.1C100.1,99.2,98.8,103,98.6,102.8L98.6,102.8z"/>
			<path class="st2" d="M101.1,95.4l-1.4,6.2c-0.1,0.5,0.2,1,0.7,1.1v0c0.5,0.1,1-0.2,1.1-0.7l1.4-6.2c0.1-0.5-0.2-1-0.7-1.1l0,0
				C101.7,94.6,101.2,94.9,101.1,95.4z"/>
			<path class="st2" d="M100.5,91.7l0.5,4c0.1,0.5,0.5,0.8,1,0.7l0,0c0.5-0.1,0.8-0.5,0.7-1l-0.5-4c-0.1-0.5-0.5-0.8-1-0.7l0,0
				C100.8,90.8,100.5,91.2,100.5,91.7z"/>
			<path class="st2" d="M99.7,89.8l0.8,1.7l0,0c0.3,0.5,0.8,0.8,1.3,0.5h0c0.4-0.2,0.5-0.8,0.2-1.3l-1.2-2.1
				c-0.2-0.3-0.5-0.5-0.8-0.3l0,0C99.6,88.7,99.5,89.3,99.7,89.8z"/>
			<path class="st2" d="M103,89.2l0.9,1.7l0,0c0.3,0.5,0.9,0.7,1.4,0.4l0,0c0.4-0.3,0.5-0.9,0.2-1.4l-1.3-2
				c-0.2-0.3-0.6-0.4-0.9-0.2l0,0C102.9,88.1,102.8,88.7,103,89.2z"/>
			<path class="st2" d="M104.1,94.4l-1.3,5.5c-0.1,0.5,0.2,1,0.7,1.1l0,0c0.5,0.1,1-0.2,1.1-0.7l1.3-5.5c0.1-0.5-0.2-1-0.7-1.1l0,0
				C104.7,93.6,104.2,93.9,104.1,94.4z"/>
			<path class="st2" d="M104.1,91l0.1,3.4c0,0.5,0.4,0.9,0.9,0.9l0,0c0.5,0,0.9-0.4,0.9-0.9l-0.1-3.4c0-0.5-0.4-0.9-0.9-0.9l0,0
				C104.4,90.1,104,90.5,104.1,91z"/>
			<path class="st2" d="M107.4,91.7l0.1,1.7l0,0c0,0.5,0.5,0.9,0.9,0.8l0,0c0.4-0.1,0.7-0.6,0.7-1.1l-0.3-2.1c0-0.3-0.3-0.6-0.6-0.5
				l0,0C107.7,90.7,107.3,91.2,107.4,91.7z"/>
			<path class="st2" d="M106.6,95.9l-1.6,4.4c-0.2,0.5,0,1.1,0.4,1.2l0,0c0.4,0.2,0.9-0.1,1.1-0.7l1.6-4.4c0.2-0.5,0-1.1-0.4-1.2
				l0,0C107.3,95.1,106.8,95.4,106.6,95.9z"/>
			<path class="st2" d="M107.4,93.4l-0.6,2.2c-0.1,0.5,0.1,1,0.5,1.1l0,0c0.4,0.1,0.9-0.2,1.1-0.7l0.6-2.2c0.1-0.5-0.1-1-0.5-1.1
				l0,0C108,92.5,107.5,92.9,107.4,93.4z"/>
			<path class="st2" d="M108.9,95.8l-0.3,1.6l0,0c-0.1,0.5,0.2,1,0.7,1l0,0c0.4,0,0.8-0.3,0.9-0.8l0.2-2.1c0-0.3-0.2-0.6-0.5-0.6
				l0,0C109.4,94.9,109,95.3,108.9,95.8z"/>
			<path class="st2" d="M107.7,99.6l-1.8,4.2c-0.2,0.4,0,0.9,0.4,1.1l0,0c0.4,0.2,0.9,0,1.1-0.4l1.8-4.2c0.2-0.4,0-0.9-0.4-1.1l0,0
				C108.4,99,107.9,99.2,107.7,99.6z"/>
			<path class="st2" d="M108.6,97.2l-0.8,2.3c-0.1,0.4,0.1,0.9,0.5,1h0c0.4,0.1,0.9-0.1,1-0.5l0.8-2.3c0.1-0.4-0.1-0.9-0.5-1l0,0
				C109.2,96.6,108.7,96.8,108.6,97.2z"/>
		</g>
		<path class="st3" d="M75.1,86.8c-17.8-5.5-44,9.5-41.8,30c0.2,1.9,0.6,3.9,0.3,5.7c-0.6,2.9-2.9,5-5.3,6.7
			c-5.4,3.7-11.6,6.1-16.1,10.9c-7.2,7.6-7.9,20.9-1.3,29.8c6.1,8.2,29.1,18.7,38.6,16.6c9.5-2.1,17.3-8.9,22.1-17.4
			c1.2-2.1,2.3-4.3,4-6c3.2-3.1,8-3.9,11.8-6.1c3.6-2.1,2.1-10.8,4-14.6c3.4-7.1-4.6-12.2-3.2-17.5c2.7-10.8,2.1-13,2-19.5
			C90,96.8,83,89.3,75.1,86.8z"/>
		<path class="st1" d="M77.7,122.8c-6-4.6-10.7,1.3-10.9,1.5c-2.3,1.5-2.8,6.1-1.1,8.2l40.6,44.9c0.6,0.8,2.2-0.3,3.2-0.9
			c0.3-0.2,0.6-0.5,0.8-0.8c1.8-2.1,2.3-5.3,1.4-7.5C107.3,156.8,85.4,128.8,77.7,122.8z"/>
		<g>
			<path class="st1" d="M105.8,114.3c2.5,15.3,3,49.2,0.9,58.8c-1.8,7.9-6.6,6.8-6.8,6.8c-2.5,0.2-5.8-3.2-5.8-6.1l4.2-59.3
				L105.8,114.3z"/>
		</g>
		<g>
			<path class="st4" d="M89.2,177.2c4.4-18.5,2-19.4-0.2-29.7c-2.2-10.3-6.8-24.1-12.5-25.5c-17.9-4.3-21.2,2.3-25.3,21.5
				c-3.2,15.3-2.7,50.5-1,69c-0.2,0.5-0.4,1.7-0.7,3.2h44C90.8,199.9,88.2,181.4,89.2,177.2z"/>
		</g>
		<path class="st5" d="M69.3,130.4c-6.4-5.3-11,0.9-11.2,1c-2.3,1.5-2.5,6.4-0.7,8.8l44.6,51c0.6,0.9,2.3-0.2,3.3-0.8
			c0.3-0.2,0.6-0.5,0.8-0.8c1.8-2.1,2-5.6,1-8C101.9,168.9,77.7,137.3,69.3,130.4z"/>
		<path class="st3" d="M65.8,116c0,0-12.4-4.7-13.2-17.2C51.6,82,68.9,74.1,78,79.8c8.4,5.3,6.8,12.5,5.8,14.2
			C82.8,95.8,65.8,116,65.8,116z"/>
		<path class="st2" d="M62.1,100.1l13.5-0.9c0.1,1.8,1.1,19.4,0.2,25.9c-0.6,2-3.9,2.9-7.6,1.9c-3.3-0.9-5.6-2.9-5.6-4.8l0,0
			C63.1,118.2,62.5,106.6,62.1,100.1z"/>
		<path class="st2" d="M63,102.1c2.1,10.6,11.2,17.8,17.7,16.5c6.5-1.2,8-10.4,6-21c-2.1-10.6-8.4-15-14.9-13.8
			C65.2,85.1,61,91.5,63,102.1z"/>
		<g>
			<g>
				
					<ellipse transform="matrix(0.9977 -6.770054e-02 6.770054e-02 0.9977 -5.9279 8.92)" class="st3" cx="128.6" cy="91.9" rx="3.8" ry="5.4"/>
				<polygon class="st3" points="127.5,86.7 156.4,75.2 158,98.1 128.5,97.3 126,91.6 				"/>
				
					<ellipse transform="matrix(0.9977 -6.770296e-02 6.770296e-02 0.9977 -5.5184 10.899)" class="st6" cx="158" cy="86.9" rx="9.9" ry="14.3"/>
				<polygon class="st6" points="154.9,73 183.9,61.8 188.3,101.2 157.7,101.1 151,86 				"/>
				
					<ellipse transform="matrix(0.9977 -6.770274e-02 6.770274e-02 0.9977 -5.0566 13.0449)" class="st7" cx="189.9" cy="81.1" rx="17.1" ry="24.8"/>
				<polygon class="st7" points="184.5,57.2 200.4,50.8 205.8,106.4 189.4,105.8 177.8,79.6 				"/>
				
					<ellipse transform="matrix(0.9977 -6.736224e-02 6.736224e-02 0.9977 -4.8226 13.9143)" class="st3" cx="203.9" cy="78.5" rx="17.1" ry="28"/>
				<path class="st8" d="M217.3,77.6c0.5,6.8-0.7,13.3-3.3,18.2c-1.3,2.5-4.2,6.7-8.5,7c-3.4,0.2-6.3-2.1-8.1-4.2
					c-0.5-0.6-0.9-1.1-1.2-1.6c-3.2-4.5-5.2-10.8-5.7-17.6c-0.5-6.8,0.7-13.3,3.3-18.2c1.3-2.5,4.2-6.7,8.5-7c1.5-0.1,3,0.3,4.2,1
					c2.3,1.2,4.1,3.4,5.2,4.9C214.9,64.5,216.9,70.8,217.3,77.6z"/>
				<path class="st9" d="M213.4,74.3c0.5,6.8-0.7,13.3-3.3,18.2c-1.3,2.5-4.2,6.7-8.5,7c-1.5,0.1-3-0.3-4.2-1
					c-0.5-0.6-0.9-1.1-1.2-1.6c-3.2-4.5-5.2-10.8-5.7-17.6c-0.5-6.8,0.7-13.3,3.3-18.2c1.3-2.5,4.2-6.7,8.5-7c1.5-0.1,3,0.3,4.2,1
					c0.5,0.6,0.9,1.1,1.2,1.6C211,61.3,213,67.5,213.4,74.3z"/>
				<g>
					<defs>
						<path id="SVGID_1_" d="M217.3,77.6c0.5,6.8-0.7,13.3-3.3,18.2c-1.3,2.5-4.2,6.7-8.5,7c-3.4,0.2-6.3-2.1-8.1-4.2
							c-0.5-0.6-0.9-1.1-1.2-1.6c-3.2-4.5-5.2-10.8-5.7-17.6c-0.5-6.8,0.7-13.3,3.3-18.2c1.3-2.5,4.2-6.7,8.5-7c1.5-0.1,3,0.3,4.2,1
							c2.3,1.2,4.1,3.4,5.2,4.9C214.9,64.5,216.9,70.8,217.3,77.6z"/>
					</defs>
					<clipPath id="SVGID_00000165922839270515893960000017020672579872319633_">
						<use xlink:href="#SVGID_1_"  style="overflow:visible;"/>
					</clipPath>
					<g style="clip-path:url(#SVGID_00000165922839270515893960000017020672579872319633_);">
						<polygon class="st11" points="227.3,95.8 215.9,109.7 195.2,113.3 190.7,105.8 198.9,89.8 202.5,82.9 208.1,87.7 209.9,89.2 
							210.4,87.9 210.4,87.9 211.9,84.7 216.1,87.7 						"/>
						<polygon class="st12" points="208.1,87.7 205,87.2 205,89.7 203.4,87.7 202,91.8 200,88.9 198.9,89.8 202.5,82.9 						"/>
						<polygon class="st12" points="216.1,87.7 213.9,87.5 212.8,86.8 212.8,88.6 211.4,87.2 210.4,87.9 211.9,84.7 						"/>
						<polygon class="st13" points="197.5,107.5 206.7,93.7 209.9,96.7 212.7,93.7 219.5,96.2 223.6,109.7 208.1,113.3 						"/>
					</g>
				</g>
				<path class="st14" d="M213.4,74.3c0.5,6.8-0.7,13.3-3.3,18.2c-1.3,2.5-4.2,6.7-8.5,7c-1.5,0.1-3-0.3-4.2-1
					c-0.5-0.6-0.9-1.1-1.2-1.6c-3.2-4.5-5.2-10.8-5.7-17.6c-0.5-6.8,0.7-13.3,3.3-18.2c1.3-2.5,4.2-6.7,8.5-7c1.5-0.1,3,0.3,4.2,1
					c0.5,0.6,0.9,1.1,1.2,1.6C211,61.3,213,67.5,213.4,74.3z"/>
			</g>
			<g>
				
					<ellipse transform="matrix(0.9977 -6.770422e-02 6.770422e-02 0.9977 -6.6286 5.4332)" class="st3" cx="76.8" cy="100.5" rx="2.8" ry="4.1"/>
				<polygon class="st3" points="75.6,96.8 109.5,81.6 111.3,107.3 77.1,104.6 75.3,100 				"/>
				
					<ellipse transform="matrix(0.9977 -6.770185e-02 6.770185e-02 0.9977 -6.1577 7.7548)" class="st6" cx="111.3" cy="94.7" rx="11.2" ry="16.1"/>
				<polygon class="st6" points="107.8,79.1 140.4,66.5 145.4,110.9 111,110.8 103.5,93.7 				"/>
				
					<ellipse transform="matrix(0.9977 -6.770219e-02 6.770219e-02 0.9977 -5.6379 10.1703)" class="st7" cx="147.2" cy="88.3" rx="19.3" ry="27.9"/>
				<polygon class="st7" points="141.1,61.4 159,54.1 165.1,116.7 146.6,116 133.6,86.6 				"/>
				
					<ellipse transform="matrix(0.9977 -6.736225e-02 6.736225e-02 0.9977 -5.3741 11.1718)" class="st3" cx="163" cy="85.3" rx="19.3" ry="31.5"/>
				<path class="st8" d="M178.1,84.3c0.5,7.7-0.8,14.9-3.7,20.4c-1.5,2.8-4.7,7.6-9.6,7.9c-3.9,0.3-7.1-2.4-9.2-4.8
					c-0.5-0.6-1-1.3-1.4-1.8c-3.6-5.1-5.9-12.1-6.4-19.8c-0.5-7.7,0.8-14.9,3.7-20.4c1.5-2.8,4.7-7.6,9.6-7.9
					c1.7-0.1,3.3,0.4,4.8,1.1c2.6,1.4,4.6,3.8,5.8,5.5C175.3,69.6,177.6,76.6,178.1,84.3z"/>
				<path class="st9" d="M173.7,80.6c0.5,7.7-0.8,14.9-3.7,20.4c-1.5,2.8-4.7,7.6-9.6,7.9c-1.7,0.1-3.3-0.4-4.8-1.1
					c-0.5-0.6-1-1.3-1.4-1.8c-3.6-5.1-5.9-12.1-6.4-19.8c-0.5-7.7,0.8-14.9,3.7-20.4c1.5-2.8,4.7-7.6,9.6-7.9
					c1.7-0.1,3.3,0.4,4.8,1.1c0.6,0.6,1,1.3,1.4,1.8C170.9,65.9,173.2,73,173.7,80.6z"/>
			</g>
			<g>
				<defs>
					<path id="SVGID_00000060002083177446685050000010729042539766648451_" d="M178.1,84.3c0.5,7.7-0.8,14.9-3.7,20.4
						c-1.5,2.8-4.7,7.6-9.6,7.9c-3.9,0.3-7.1-2.4-9.2-4.8c-0.5-0.6-1-1.3-1.4-1.8c-3.6-5.1-5.9-12.1-6.4-19.8
						c-0.5-7.7,0.8-14.9,3.7-20.4c1.5-2.8,4.7-7.6,9.6-7.9c1.7-0.1,3.3,0.4,4.8,1.1c2.6,1.4,4.6,3.8,5.8,5.5
						C175.3,69.6,177.6,76.6,178.1,84.3z"/>
				</defs>
				<clipPath id="SVGID_00000144314951553925945360000010100347553932216242_">
					<use xlink:href="#SVGID_00000060002083177446685050000010729042539766648451_"  style="overflow:visible;"/>
				</clipPath>
				<g style="clip-path:url(#SVGID_00000144314951553925945360000010100347553932216242_);">
					<path class="st11" d="M181.7,93.3l-6.1,23.4c0,0-19.2,5.7-19.7,5.7c-0.6,0-9.4-11.1-9.4-11.1l9.6-20.6l2.6-5.5l3.7,4l2,2.2
						l4.1-8l2.5-4.8l3.3,4.5L181.7,93.3z"/>
					<polygon class="st12" points="162.3,89.2 161,89.1 160.8,90.5 159.2,90.1 158,92.3 157.3,89.9 156.1,90.6 158.6,85.2 					"/>
					<polygon class="st12" points="174.2,83.1 172.9,82.8 172.1,84.8 171,82.2 169.4,84.8 168.5,83.4 171,78.6 					"/>
					<polygon class="st13" points="154.3,116.1 164.8,93.5 170.1,96.9 173.7,91.3 186.9,96.1 184.7,116.5 163.9,118.6 					"/>
				</g>
			</g>
			<path class="st14" d="M173.7,80.6c0.5,7.7-0.8,14.9-3.7,20.4c-1.5,2.8-4.7,7.6-9.6,7.9c-1.7,0.1-3.3-0.4-4.8-1.1
				c-0.5-0.6-1-1.3-1.4-1.8c-3.6-5.1-5.9-12.1-6.4-19.8c-0.5-7.7,0.8-14.9,3.7-20.4c1.5-2.8,4.7-7.6,9.6-7.9
				c1.7-0.1,3.3,0.4,4.8,1.1c0.6,0.6,1,1.3,1.4,1.8C170.9,65.9,173.2,73,173.7,80.6z"/>
		</g>
		<path class="st3" d="M79.7,82.7c0,0-2.7,14.2-16,19c-6.9,2.5-9-8.3-9-8.3l6.8-10.1c0,0,5.5-4.3,9.7-3.8
			C71.5,79.5,79.7,82.7,79.7,82.7z"/>
		<path class="st3" d="M84.5,90.9c0,0-11.9-4.3-13.7-8.5c-1.8-4.1,4.4-3.6,4.4-3.6S83.1,81.8,84.5,90.9z"/>
		<path class="st3" d="M65.5,81.7c0,0,5.4-4.1,1.8-9.2c-3.6-5-9.9-3.2-11.4,0.7c-1.6,4.3,0.5,7,2.4,8.3C60.1,82.8,63.3,83,65.5,81.7
			z"/>
		<path class="st2" d="M57.8,106c1.1,2.5,4.9,4.6,6.7,3.8c1.8-0.8,1.4-3,0.3-5.4c-1.1-2.5-3.5-4.2-5.3-3.4
			C57.7,101.7,56.7,103.5,57.8,106z"/>
		<g>
			<path class="st2" d="M109,120c1.4-0.2,2.5-0.6,3.5-2.6c0.8-1.5,1-2.8,0.7-3.9c-0.3-1.1-1.2-2.1-2.3-2.1c-0.3,0-0.6-0.1-0.7-0.2
				c0,0,0,0,0,0c-0.6-0.8,0-1.1-1.2-3.2c-1.3-2.1-2.7-1.4-3-1.2c-0.3,0.2,0.6,1.1,0.9,1.5c0.3,0.5,0.4,2,0.6,2.8
				c0.1,0.4,0.2,1.5,0.1,2.4c0,0.8,0,1.6,0.1,2.3c0.2,1.1,0,2.2,0.4,3.1C108.4,119.3,108.9,119.7,109,120z"/>
			<polygon class="st2" points="107.6,132.1 113.6,133.3 115,120 108.6,119 			"/>
			<path class="st2" d="M109.8,113.4c-0.4,3.2-1.1,6.6-1,6.7l5.7,2.3c0.8-0.3,1.4-0.5,3.8-6.1l0.9-2.1l-1.8-1.9
				c-0.3-0.3-0.6-0.6-0.9-0.8l-0.4-0.3c-0.9-0.6-2-1-3.1-1l-0.7,0C111.8,110.1,110,113.6,109.8,113.4L109.8,113.4z"/>
			<path class="st2" d="M113.4,106.5l-2.4,5.9c-0.2,0.5,0,1,0.5,1.2l0,0c0.5,0.2,1,0,1.2-0.5l2.4-5.9c0.2-0.5,0-1-0.5-1.2h0
				C114.1,105.8,113.5,106,113.4,106.5z"/>
			<path class="st2" d="M113.4,102.7l-0.1,4c0,0.5,0.4,0.9,0.8,0.9l0,0c0.5,0,0.9-0.4,0.9-0.8l0.1-4c0-0.5-0.4-0.9-0.8-0.9l0,0
				C113.8,101.9,113.4,102.3,113.4,102.7z"/>
			<path class="st2" d="M112.9,100.7l0.5,1.8l0,0c0.2,0.6,0.7,0.9,1.2,0.7l0,0c0.4-0.2,0.6-0.7,0.4-1.2l-0.8-2.2
				c-0.1-0.3-0.5-0.5-0.7-0.4l0,0C113,99.6,112.7,100.2,112.9,100.7z"/>
			<path class="st2" d="M116.3,100.7l0.6,1.8l0,0c0.2,0.5,0.8,0.8,1.3,0.6l0,0c0.5-0.2,0.6-0.8,0.4-1.3l-1-2.1
				c-0.2-0.3-0.5-0.5-0.8-0.3l0,0C116.3,99.6,116.1,100.1,116.3,100.7z"/>
			<path class="st2" d="M116.5,105.9l-2.2,5.2c-0.2,0.5,0,1,0.5,1.2l0,0c0.5,0.2,1,0,1.2-0.5l2.2-5.2c0.2-0.5,0-1-0.5-1.2l0,0
				C117.3,105.2,116.7,105.5,116.5,105.9z"/>
			<path class="st2" d="M117,102.6l-0.4,3.4c-0.1,0.5,0.3,0.9,0.8,1l0,0c0.5,0.1,1-0.3,1-0.8l0.4-3.4c0.1-0.5-0.3-0.9-0.8-1l0,0
				C117.5,101.8,117.1,102.2,117,102.6z"/>
			<path class="st2" d="M120.2,103.8l-0.2,1.7l0,0c0,0.5,0.3,1,0.8,1l0,0c0.5,0,0.8-0.4,0.8-1l0-2.2c0-0.3-0.2-0.6-0.5-0.6l0,0
				C120.6,102.8,120.2,103.3,120.2,103.8z"/>
			<path class="st2" d="M118.8,107.9l-2.3,4.1c-0.3,0.5-0.2,1,0.3,1.3l0,0c0.4,0.2,0.9,0,1.2-0.5l2.3-4.1c0.3-0.5,0.2-1-0.3-1.3l0,0
				C119.6,107.2,119,107.4,118.8,107.9z"/>
			<path class="st2" d="M119.9,105.5l-1,2.1c-0.2,0.5-0.1,1,0.3,1.2l0,0c0.4,0.2,0.9-0.1,1.2-0.6l1-2.1c0.2-0.5,0.1-1-0.3-1.2l0,0
				C120.6,104.7,120.1,105,119.9,105.5z"/>
			<path class="st2" d="M121,108l-0.6,1.6l0,0c-0.2,0.5,0.1,1,0.5,1.1l0,0c0.4,0.1,0.8-0.2,1-0.7l0.5-2c0.1-0.3-0.1-0.6-0.4-0.7l0,0
				C121.7,107.3,121.2,107.6,121,108z"/>
			<path class="st2" d="M119.3,111.6l-2.5,3.9c-0.2,0.4-0.1,0.9,0.3,1.1l0,0c0.4,0.2,0.9,0.1,1.1-0.3l2.5-3.9
				c0.2-0.4,0.1-0.9-0.3-1.1l0,0C120,111.1,119.5,111.3,119.3,111.6z"/>
			<path class="st2" d="M120.5,109.4l-1.1,2.2c-0.2,0.4,0,0.9,0.3,1.1l0,0c0.4,0.2,0.9,0,1.1-0.3l1.1-2.2c0.2-0.4,0-0.9-0.3-1.1l0,0
				C121.2,108.9,120.7,109,120.5,109.4z"/>
		</g>
		<g>
			<path class="st5" d="M114.3,127.3c1.8,15.4,0.6,49.3-2,58.7c-2.1,7.9-6.9,6.4-7.1,6.5c-2.5,0.1-5.7-3.5-5.5-6.4l7.1-59
				L114.3,127.3z"/>
		</g>
	</g>
	<ellipse class="st12" cx="197.6" cy="135.6" rx="2.7" ry="2.7"/>
	<path class="st5" d="M237.4,194.2c0,0-1.4-20.2-14.4-21.7C223,172.5,235.2,183.3,237.4,194.2z"/>
	<path class="st5" d="M240.5,194.1c0,0,3.4-26-12.8-31.2C227.6,163,240.4,179.8,240.5,194.1z"/>
	<g>
		<g>
			<path class="st1" d="M251.1,185.3l-0.4-0.2c0.1-0.2,10-19,4.3-25.8c-0.4-0.5-0.8-1-1.2-1.4c-5.8-6.8-9.3-10.9-1.5-19.1
				c3.9-4.1,5.3-9.9,3.6-15.3c-1.8-5.9-6.9-10.2-14-11.8c-3.3-0.7-8-2.3-11.6-5.2c-2.2-1.8-2.9-3.2-2.9-3.3l0.4-0.2
				c0,0.1,2.9,5.7,14.2,8.2c7.3,1.6,12.5,6.1,14.3,12.1c1.7,5.5,0.3,11.5-3.7,15.7c-7.5,7.9-4.3,11.7,1.5,18.5
				c0.4,0.5,0.8,0.9,1.2,1.4c2.5,3,2.5,8.3,0.1,15.8C253.7,180.4,251.1,185.2,251.1,185.3z"/>
		</g>
		<g>
			<ellipse class="st1" cx="248.3" cy="152.5" rx="2.6" ry="2.6"/>
		</g>
		<g>
			<ellipse class="st1" cx="243.6" cy="111.2" rx="2.6" ry="2.6"/>
		</g>
		<g>
			<ellipse class="st1" cx="226.7" cy="101.2" rx="2.6" ry="2.6"/>
		</g>
		<g>
			<ellipse class="st1" cx="240" cy="113.2" rx="2.6" ry="2.6"/>
		</g>
		<g>
			<ellipse class="st1" cx="247.2" cy="150.4" rx="2.1" ry="2.1"/>
		</g>
		<g>
			<ellipse class="st1" cx="257.9" cy="135" rx="2.6" ry="2.6"/>
		</g>
		<g>
			<ellipse class="st1" cx="257.9" cy="120.3" rx="2.6" ry="2.6"/>
		</g>
		<g>
			<path class="st1" d="M248.4,144.8c0.3-0.7,1-1,1.7-0.7s1,1,0.8,1.7c-0.3,0.7-1,1-1.7,0.7C248.5,146.2,248.2,145.4,248.4,144.8z"
				/>
		</g>
		<g>
			<path class="st1" d="M248.5,141.1c0.3-0.7,1-1,1.7-0.7c0.7,0.3,1,1,0.8,1.7c-0.3,0.7-1,1-1.7,0.7
				C248.6,142.5,248.2,141.7,248.5,141.1z"/>
		</g>
		<g>
			<path class="st1" d="M254.1,128.9c0.3-0.7,1-1,1.7-0.7c0.7,0.3,1,1,0.8,1.7s-1,1-1.7,0.7C254.1,130.3,253.8,129.6,254.1,128.9z"
				/>
		</g>
		<g>
			<path class="st1" d="M253.2,116.8c0.3-0.7,1-1,1.7-0.7c0.7,0.3,1,1,0.8,1.7c-0.3,0.7-1,1-1.7,0.7
				C253.3,118.3,253,117.5,253.2,116.8z"/>
		</g>
		<g>
			<path class="st1" d="M246.6,113.9c0.3-0.7,1-1,1.7-0.7c0.7,0.3,1,1,0.8,1.7c-0.3,0.7-1,1-1.7,0.7
				C246.7,115.3,246.3,114.5,246.6,113.9z"/>
		</g>
		<g>
			<ellipse class="st1" cx="248.3" cy="112.7" rx="1.3" ry="1.3"/>
		</g>
		<g>
			<path class="st1" d="M233.5,107.4c0.3-0.7,1-1,1.7-0.7c0.7,0.3,1,1,0.8,1.7c-0.3,0.7-1,1-1.7,0.7
				C233.6,108.8,233.2,108,233.5,107.4z"/>
		</g>
		<g>
			<ellipse class="st1" cx="229" cy="106.2" rx="1.3" ry="1.3"/>
		</g>
	</g>
	<g>
		<g>
			<path class="st1" d="M261.5,200l-5.3-10.4c0-0.1-3.4-6.9-5-15.4c-2.1-11.2-0.2-20.2,5.7-25.9c2.8-2.7,5.7-5,8.2-7
				c4.2-3.3,7.8-6.2,9.7-9.9c2.1-3.9,2-8.6-0.3-14.7c-4.4-11.9-3.7-22.7-2.3-29.6c1.5-7.5,4.1-12.3,4.1-12.4l0.7,0.4
				c0,0-2.6,4.8-4,12.2c-1.4,6.8-2.1,17.5,2.3,29.2c5.1,13.7-1.1,18.7-9.7,25.5c-2.5,2-5.4,4.3-8.2,7c-4,3.8-8.1,11.3-5.5,25.2
				c1.6,8.3,4.9,15.1,5,15.2l5.3,10.4L261.5,200z"/>
		</g>
		<g>
			<ellipse class="st1" cx="262.6" cy="146.6" rx="4.4" ry="4.3"/>
		</g>
		<g>
			<ellipse class="st1" cx="275.8" cy="72.7" rx="4.4" ry="4.3"/>
		</g>
		<g>
			<ellipse class="st1" cx="272.7" cy="77.8" rx="4.4" ry="4.3"/>
		</g>
		<g>
			<ellipse class="st1" cx="275.5" cy="107.6" rx="4.4" ry="4.3"/>
		</g>
		<g>
			<ellipse class="st1" cx="278.7" cy="132.9" rx="4.4" ry="4.3"/>
		</g>
		<g>
			<path class="st1" d="M272.7,128.1c0.2-1.2,1.3-2,2.4-1.9c1.2,0.2,2,1.2,1.9,2.4c-0.2,1.2-1.3,2-2.4,1.9S272.6,129.3,272.7,128.1z
				"/>
		</g>
		<g>
			<path class="st1" d="M276.4,112.1c0.2-1.2,1.3-2,2.4-1.9c1.2,0.2,2,1.2,1.9,2.4c-0.2,1.2-1.3,2-2.4,1.9
				C277,114.3,276.2,113.2,276.4,112.1z"/>
		</g>
		<g>
			<path class="st1" d="M269.8,96.8c0.2-1.2,1.3-2,2.4-1.9s2,1.2,1.9,2.4c-0.2,1.2-1.3,2-2.4,1.9C270.4,99,269.6,97.9,269.8,96.8z"
				/>
		</g>
		<g>
			<path class="st1" d="M260.9,140.9c0.2-1.2,1.3-2,2.4-1.9c1.2,0.2,2,1.2,1.9,2.4c-0.2,1.2-1.3,2-2.4,1.9
				C261.6,143.2,260.8,142.1,260.9,140.9z"/>
		</g>
		<g>
			<path class="st1" d="M267.6,140.4c0.2-1.2,1.3-2,2.4-1.9c1.2,0.2,2,1.2,1.9,2.4c-0.2,1.2-1.3,2-2.4,1.9S267.4,141.6,267.6,140.4z
				"/>
		</g>
		<g>
			<ellipse class="st1" cx="274.1" cy="92.2" rx="2.2" ry="2.2"/>
		</g>
		<g>
			<ellipse class="st1" cx="270.4" cy="112.7" rx="4.4" ry="4.3"/>
		</g>
	</g>
	<g>
		<g>
			<path class="st0" d="M155.4,213.3l-0.7-0.3c0-0.1,3-6.3,2.9-20c-0.1-14.1,7.7-19.4,8.1-19.6l0.4,0.6c-0.1,0.1-7.8,5.3-7.7,19
				C158.5,206.9,155.5,213.1,155.4,213.3z"/>
			<path class="st0" d="M163.7,184.2c-2.4,0-4.4-1-4.4-1s2-0.8,4.4-0.8c2.4,0,4.4,1,4.4,1S166.1,184.3,163.7,184.2z"/>
			<path class="st0" d="M156,183c-0.9-2.2-0.9-4.4-0.9-4.4s1.6,1.4,2.5,3.7c0.9,2.2,0.9,4.4,0.9,4.4S157,185.2,156,183z"/>
		</g>
		<g>
			<path class="st0" d="M165.5,180.7c0.3,0.2,0.7,0.3,1.1,0.4c1.4,0.1,4.3,0.1,5.2-1.8c1.2-2.6,3.9-3.5,3.5-5.7
				c-0.4-2.2-2.8-7.1-6-7.5c-3.2-0.4-5.9-3.1-8.5,1.4c-2.7,4.5-5.2,3.7-4,7.1s2.6,5.9,4.6,6.2C163,181,164.8,180.2,165.5,180.7z"/>
			<path class="st12" d="M163.1,178c0.2,0.3,0.5,0.6,0.9,0.8c1,0.5,2.6,1.2,3.7,0.3c1.7-1.3,3.7-1,4.2-2.6c0.5-1.6,0.5-5.5-1.4-6.8
				c-2-1.3-2.8-3.9-6.1-1.8c-3.2,2.1-4.6,0.8-5,3.3s-0.2,5.5,1,6.3C161.4,178.2,162.7,177.5,163.1,178z"/>
			<path class="st0" d="M162.6,176.1c0.1,0.3,0.2,0.6,0.4,0.8c0.5,0.6,1.6,1.5,2.6,1.2c1.5-0.5,2.9,0.2,3.7-0.8
				c0.7-1,1.8-3.8,0.8-5.3c-1.1-1.4-1-3.5-3.8-2.9c-2.9,0.7-3.5-0.6-4.4,1.1c-0.9,1.7-1.6,3.8-1,4.8
				C161.3,175.8,162.5,175.7,162.6,176.1z"/>
			<path class="st16" d="M163.3,174.3c0,0.2,0,0.4,0.1,0.5c0.2,0.5,0.5,1.2,1.2,1.3c1,0.1,1.6,0.8,2.3,0.4s1.9-1.8,1.6-2.8
				c-0.3-1.1,0.2-2.2-1.5-2.5c-1.8-0.3-1.8-1.1-2.8-0.4c-0.9,0.8-1.8,1.8-1.6,2.5C162.7,173.8,163.3,174,163.3,174.3z"/>
			<ellipse class="st12" cx="165.7" cy="173.3" rx="1.1" ry="1.1"/>
		</g>
	</g>
	<g>
		<g>
			<path class="st0" d="M147.2,212.3c0-0.1-4.3-13.4-1.8-34.7c2.4-20.8-8.5-30.1-8.6-30.2l0.8-0.9c0.5,0.4,11.5,9.8,9,31.2
				c-2.4,21,1.7,34,1.8,34.2L147.2,212.3z"/>
			<path class="st0" d="M138.7,163.5c3.7,0.3,6.8-0.7,6.8-0.7s-2.9-1.6-6.6-2c-3.7-0.3-6.8,0.7-6.8,0.7S135,163.2,138.7,163.5z"/>
			<path class="st0" d="M150.6,162.9c1.8-3.2,2.1-6.5,2.1-6.5s-2.7,1.9-4.5,5.2c-1.8,3.2-2.1,6.5-2.1,6.5S148.8,166.1,150.6,162.9z"
				/>
		</g>
		<g>
			<path class="st0" d="M140.6,154.2c-0.4,0.4-0.9,0.8-1.5,1.1c-1.5,0.6-4.2,1.4-5.7-0.1c-2.3-2.2-5.5-2.2-5.9-4.7
				c-0.4-2.5,0.1-8.5,3.3-10.2c3.2-1.7,4.9-5.5,9.5-1.8c4.6,3.7,6.9,1.9,7,5.9s-0.5,8.3-2.5,9.4
				C143.2,154.7,141.3,153.5,140.6,154.2z"/>
			<path class="st12" d="M141.7,151.3c-0.2,0.4-0.4,0.8-0.8,1.1c-0.9,0.9-2.6,2.1-4.1,1.4c-2.2-1-4.5-0.1-5.4-1.8
				c-1-1.7-2.1-6.1-0.3-8.1c1.8-2,2.1-5.2,6.3-3.7c4.3,1.5,5.4-0.4,6.6,2.4c1.1,2.8,1.8,6.1,0.7,7.4
				C143.7,151.1,142,150.7,141.7,151.3z"/>
			<path class="st0" d="M141,148.4c0,0.3-0.1,0.6-0.2,0.8c-0.3,0.7-1,1.8-2,1.7c-1.5-0.1-2.6,0.9-3.5,0.2c-0.9-0.7-2.6-3-2-4.5
				c0.6-1.6,0-3.4,2.7-3.5s3-1.4,4.3-0.1c1.3,1.3,2.4,3.1,2.1,4C142,147.8,141,148,141,148.4z"/>
			<ellipse class="st12" cx="137.5" cy="146.6" rx="1.7" ry="1.7"/>
		</g>
	</g>
	<g>
		<g>
			<path class="st12" d="M28.1,154.1c0,0-2.6-4-1.4-9.7c1.2-5.7-3.5-7.4-5.4-5.3C19.4,141.3,19.3,147.4,28.1,154.1z"/>
		</g>
		<g>
			<path class="st12" d="M32.8,156.7c0,0,0.6-4.7,5.2-8.3c4.6-3.6,2-7.9-0.8-7.5C34.4,141.2,30.3,145.9,32.8,156.7z"/>
		</g>
		<g>
			<path class="st12" d="M32.4,157.2c0,0-4.8,0.7-8.3,5.3c-3.5,4.6-7.9,2.2-7.6-0.6C16.9,159.1,21.5,155,32.4,157.2z"/>
		</g>
		<g>
			<path class="st12" d="M40,163.9c0,0-4.8,0.7-8.3,5.3c-3.5,4.6-7.9,2.2-7.6-0.6C24.5,165.8,29.1,161.7,40,163.9z"/>
		</g>
		<g>
			<path class="st12" d="M45.3,171.7c0,0-4.8,0.7-8.3,5.3c-3.5,4.6-7.9,2.2-7.6-0.6C29.7,173.6,34.3,169.5,45.3,171.7z"/>
		</g>
		<g>
			<path class="st12" d="M51.3,181.5c0,0-4.8,0.7-8.3,5.3c-3.5,4.6-7.9,2.2-7.6-0.6C35.8,183.4,40.4,179.3,51.3,181.5z"/>
		</g>
		<g>
			<path class="st12" d="M39.9,163.9c0,0,0.6-4.7,5.2-8.3c4.6-3.6,2-7.9-0.8-7.5C41.5,148.4,37.5,153.1,39.9,163.9z"/>
		</g>
		<g>
			<path class="st12" d="M46.2,172.3c0,0,0.6-4.7,5.2-8.3c4.6-3.6,2-7.9-0.8-7.5C47.7,156.9,43.7,161.5,46.2,172.3z"/>
		</g>
		<g>
			<path class="st12" d="M51.6,181.3c0,0,0.6-4.7,5.2-8.3c4.6-3.6,2-7.9-0.8-7.5C53.2,165.8,49.1,170.5,51.6,181.3z"/>
		</g>
		<g>
			<path class="st12" d="M26.5,152.7c0.5,0.3,1,0.7,1.4,1.1c1.4,1.1,2.8,2.2,4.1,3.4c0,0,0.1,0.1,0.1,0.1c2.3,2,4.4,4.2,6.4,6.4
				c0.2,0.2,0.3,0.3,0.5,0.5c2.1,2.4,4,4.9,5.8,7.4c0,0.1,0.1,0.1,0.1,0.2l0,0c2.2,3.2,4.2,6.5,6,9.7c0,0,0.1,0.1,0.1,0.1
				c2.9,5.3,5.2,10.4,7,15c2.3,5.8,4,11.2,5.1,15.7l1-0.2c-1.2-4.5-2.9-9.9-5.2-15.8c-1.8-4.7-4.2-10-7.2-15.4
				c-0.1-0.2-0.2-0.3-0.3-0.5c-1.6-2.8-3.3-5.6-5.2-8.4c-0.1-0.1-0.1-0.2-0.2-0.3c-1.8-2.7-3.9-5.3-6.1-7.8c0,0,0,0,0-0.1
				c0,0,0,0,0,0c-2.2-2.5-4.5-4.9-7.1-7.2c0,0,0,0-0.1,0c-1.8-1.6-3.7-3.1-5.7-4.5c0,0-0.1,0-0.1-0.1c-0.2-0.2-0.5-0.1-0.7,0.1
				C26.2,152.3,26.2,152.6,26.5,152.7z"/>
		</g>
	</g>
	<g>
		<path class="st12" d="M278.1,195c4.2,0,7.7,2.8,8.8,6.6h-17.6C270.4,197.8,273.9,195,278.1,195z"/>
		<path class="st12" d="M235.2,191.9c6.2,0,11.4,4.1,13,9.7h-25.9C223.8,196,229,191.9,235.2,191.9z"/>
		<path class="st12" d="M275.4,201.6c-2-6.8-9.9-11.9-19.3-11.9s-17.3,5.1-19.3,11.9H275.4z"/>
	</g>
	<g>
		<path class="st5" d="M183.7,207c8.4,0,15.6,5.6,17.8,13.3H166C168.2,212.6,175.3,207,183.7,207z"/>
		<path class="st5" d="M97.1,200.7c12.4,0,22.9,8.3,26.2,19.6H71C74.2,208.9,84.7,200.7,97.1,200.7z"/>
		<path class="st5" d="M178.4,220.2c-4-13.8-19.9-24.1-38.9-24.1s-34.9,10.3-38.9,24.1H178.4z"/>
	</g>
	<g>
		<path class="st5" d="M76.6,207.5c5.7,0,10.6,3.8,12.1,9H64.5C66,211.3,70.8,207.5,76.6,207.5z"/>
		<path class="st5" d="M17.8,203.2c8.4,0,15.6,5.6,17.8,13.3H0C2.2,208.8,9.3,203.2,17.8,203.2z"/>
		<path class="st5" d="M72.9,216.5c-2.7-9.4-13.5-16.3-26.4-16.3c-12.9,0-23.7,7-26.4,16.3H72.9z"/>
	</g>
</g>
</svg>
