<?xml version="1.0" encoding="utf-8"?>
<!-- Generator: Adobe Illustrator 25.4.1, SVG Export Plug-In . SVG Version: 6.00 Build 0)  -->
<svg version="1.1" id="Calque_1" xmlns="http://www.w3.org/2000/svg" xmlns:xlink="http://www.w3.org/1999/xlink" x="0px" y="0px"
	 viewBox="0 0 1139.8 467" style="enable-background:new 0 0 1139.8 467;" xml:space="preserve">
<style type="text/css">
	.st0{fill:#F26951;}
	.st1{fill:#58ACBF;}
	.st2{fill:#73BBC9;}
	.st3{fill:#3899B0;}
	.st4{fill:#EDBEA1;}
	.st5{fill:#2D334A;}
	.st6{fill:#42475C;}
	.st7{fill:#646879;}
	.st8{fill:#A6A6A6;}
	.st9{fill:#C9C9C9;}
	.st10{clip-path:url(#SVGID_00000077318195490785300940000004378447573244116920_);}
	.st11{fill:#8E919D;}
	.st12{fill:#FFFFFF;}
	.st13{fill:#7B7E8D;}
	.st14{opacity:0.46;fill:#FFFFFF;}
	.st15{clip-path:url(#SVGID_00000148626151017648682550000017871808786829233046_);}
	.st16{fill:#FFFBF5;}
	.st17{opacity:0.4;fill:#73BBC9;}
	.st18{opacity:0.4;fill:#FFFFFF;}
</style>
<g>
	<g>
		<g>
			<path class="st0" d="M496.3,80.1c0,0-7.4-21.8,4.9-47c12.3-25.2-7.6-38.5-19-30.9S463.1,38.4,496.3,80.1z"/>
		</g>
		<g>
			<path class="st0" d="M515.3,97.4c0,0,8.2-21.5,33.8-33.1c25.6-11.5,18.7-34.5,5-35.9C540.5,27,516.3,44.1,515.3,97.4z"/>
		</g>
		<g>
			<path class="st0" d="M512.7,99.5c0,0-22.9-2.4-44.7,15.3c-21.8,17.7-39.3,1.2-34.4-11.6C438.5,90.4,464.7,76.5,512.7,99.5z"/>
		</g>
		<g>
			<path class="st0" d="M540.2,139.7c0,0-22.9-2.4-44.7,15.3c-21.8,17.7-39.3,1.2-34.4-11.6C466,130.6,492.1,116.7,540.2,139.7z"/>
		</g>
		<g>
			<path class="st0" d="M555.5,182c0,0-22.9-2.4-44.7,15.3c-21.8,17.7-39.3,1.2-34.4-11.6C481.2,172.9,507.4,159,555.5,182z"/>
		</g>
		<g>
			<path class="st0" d="M572.1,235.2c0,0-22.9-2.4-44.7,15.3c-21.8,17.7-39.3,1.2-34.4-11.6S524,212.2,572.1,235.2z"/>
		</g>
		<g>
			<path class="st0" d="M539.9,139.4c0,0,8.2-21.5,33.8-33.1s18.7-34.5,5-35.9C565.1,68.9,540.9,86.1,539.9,139.4z"/>
		</g>
		<g>
			<path class="st0" d="M558.9,186c0,0,8.2-21.5,33.8-33.1c25.6-11.5,18.7-34.5,5-35.9C584.1,115.6,560,132.8,558.9,186z"/>
		</g>
		<g>
			<path class="st0" d="M573.8,234.4c0,0,8.2-21.5,33.8-33.1c25.6-11.5,18.7-34.5,5-35.9C599,163.9,574.8,181.1,573.8,234.4z"/>
		</g>
		<g>
			<path class="st0" d="M490.4,71.6c1.9,2.2,3.7,4.4,5.5,6.6c5.3,6.7,10.4,13.5,15.1,20.5c0.2,0.3,0.4,0.5,0.5,0.8
				c8.2,12,15.5,24.5,22.1,37.2c0.5,1,1,2,1.5,3c6.9,13.6,13,27.5,18.3,41.4c0.1,0.3,0.2,0.6,0.3,0.9l0,0
				c6.7,17.6,12.2,35.3,16.7,52.4c0.1,0.3,0.1,0.5,0.2,0.8c7.3,27.9,11.9,54.6,14.9,78.1c3.8,29.9,5.2,57.1,5.6,79.2l4.8,0.1
				c-0.4-22.2-1.8-49.7-5.6-79.8c-3-24.1-7.9-51.6-15.4-80.4c-0.2-0.9-0.5-1.9-0.7-2.8c-4-14.8-8.7-30-14.3-45.2
				c-0.2-0.6-0.4-1.1-0.6-1.7c-5.5-14.7-11.8-29.3-19-43.7c0-0.1-0.1-0.2-0.2-0.3c0,0,0,0,0,0c-7.2-14.3-15.3-28.3-24.4-41.8
				c-0.1-0.1-0.1-0.2-0.2-0.3c-6.5-9.5-13.4-18.8-21-27.7c-0.1-0.1-0.2-0.3-0.3-0.4c-0.9-1-2.4-1.1-3.4-0.3
				C489.6,69.1,489.5,70.6,490.4,71.6z"/>
		</g>
	</g>
	<g>
		<g>
			<path class="st1" d="M273.5,256.2c0,0,5.4-11.1,0.4-25.3c-4.9-14.2,6.5-20,12.1-15.2C291.6,220.5,293.8,236.2,273.5,256.2z"/>
		</g>
		<g>
			<path class="st1" d="M262.3,264.2c0,0-3-12-15.8-19.8c-12.9-7.8-7.7-19.6-0.4-19.4C253.4,225.1,265.1,235.8,262.3,264.2z"/>
		</g>
		<g>
			<path class="st1" d="M263.5,265.5c0,0,12.3,0.2,22.8,11c10.5,10.8,20.8,3.1,19-4S290.5,256.4,263.5,265.5z"/>
		</g>
		<g>
			<path class="st1" d="M246.3,285.1c0,0,12.3,0.2,22.8,11s20.8,3.1,19-4S273.4,276,246.3,285.1z"/>
		</g>
		<g>
			<path class="st1" d="M235.5,306.7c0,0,12.3,0.2,22.8,11c10.5,10.8,20.8,3.1,19-4C275.6,306.6,262.5,297.5,235.5,306.7z"/>
		</g>
		<g>
			<path class="st1" d="M223.2,333.9c0,0,12.3,0.2,22.8,11s20.8,3.1,19-4C263.3,333.8,250.3,324.8,223.2,333.9z"/>
		</g>
		<g>
			<path class="st1" d="M246.5,285c0,0-3-12-15.8-19.8c-12.9-7.8-7.7-19.6-0.4-19.4C237.6,245.9,249.4,256.6,246.5,285z"/>
		</g>
		<g>
			<path class="st1" d="M233.4,308.6c0,0-3-12-15.8-19.8c-12.9-7.8-7.7-19.6-0.4-19.4C224.5,269.5,236.2,280.2,233.4,308.6z"/>
		</g>
		<g>
			<path class="st1" d="M222.4,333.3c0,0-3-12-15.8-19.8c-12.9-7.8-7.7-19.6-0.4-19.4C213.5,294.3,225.2,304.9,222.4,333.3z"/>
		</g>
		<g>
			<path class="st1" d="M277.2,252.1c-1.1,1-2.2,2.1-3.3,3.2c-3.3,3.2-6.4,6.5-9.4,9.9c-0.1,0.1-0.2,0.3-0.3,0.4
				c-5.1,5.9-9.8,12-14.1,18.4c-0.3,0.5-0.7,1-1,1.5c-4.5,6.8-8.7,13.8-12.4,20.8c-0.1,0.2-0.2,0.3-0.2,0.5l0,0
				c-4.7,8.9-8.7,18-12.2,26.8c-0.1,0.1-0.1,0.3-0.2,0.4c-5.7,14.4-9.8,28.3-12.9,40.6c-3.9,15.7-6.5,30.1-8.1,41.8l-2.5-0.2
				c1.6-11.8,4.2-26.3,8.1-42.1c3.2-12.6,7.5-27,13.4-41.8c0.2-0.5,0.4-1,0.6-1.4c3.1-7.6,6.6-15.4,10.5-23.1
				c0.1-0.3,0.3-0.6,0.4-0.9c3.8-7.4,8.1-14.8,12.9-22c0,0,0.1-0.1,0.1-0.1c0,0,0,0,0,0c4.7-7.1,9.9-14.1,15.7-20.7
				c0,0,0.1-0.1,0.1-0.1c4-4.7,8.4-9.1,12.9-13.4c0.1-0.1,0.1-0.1,0.2-0.2c0.5-0.5,1.3-0.4,1.8,0.1
				C277.7,250.8,277.7,251.6,277.2,252.1z"/>
		</g>
	</g>
	<path class="st2" d="M1052.4,375.9c5.6,3.8,9.4,8.6,11,10.9c0.1-0.2,0.2-0.3,0.3-0.5c2.7-4.3,5.8-9.2,9.4-14.3
		c-2.3-1.3-7.7-4.6-12.4-9.9c-6.1-7-8.5-14.9-8.5-14.9s7.4,3.5,13.5,10.5c4.5,5.2,7,10.8,8,13.4c3-4.2,6.3-8.6,9.9-13.1
		c-2-1.9-6.3-6.4-9.3-12.7c-4.1-8.3-4.4-16.6-4.4-16.6s6.3,5.3,10.4,13.6c2.9,5.8,3.9,11.6,4.2,14.5c3.6-4.4,7.5-8.9,11.7-13.4
		c-1.6-2.2-5.2-7.3-7.3-14c-2.8-8.9-1.9-17-1.9-17s5.4,6.2,8.2,15.1c1.9,6.1,2.1,11.9,2,14.9c2.9-3,5.8-5.9,8.9-8.8
		c-0.7-2.6-2.1-8.7-1.5-15.6c0.8-9.3,4.7-16.5,4.7-16.5s2.7,7.8,1.9,17c-0.5,5.6-2.1,10.5-3.3,13.4c2.2-2,4.5-3.9,6.8-5.9
		c1.7-2.7,4.7-6.9,9.1-10.5c7.1-6,15-8.3,15-8.3s-3.6,7.4-10.7,13.4c-4.3,3.6-8.8,5.9-11.8,7.1c-2.4,2-4.7,4-7,6.1
		c3-0.2,8.8-0.4,14.9,1.2c9,2.3,15.4,7.4,15.4,7.4s-8.1,1.3-17.1-1c-6.8-1.8-12.2-5.1-14.4-6.6c-3.1,2.9-6.1,5.8-9,8.8
		c2.7,0.6,8.7,2.1,14.5,5.6c7.9,4.8,12.7,11.6,12.7,11.6s-8.2-1.1-16.1-5.9c-6-3.7-10.2-8.4-11.9-10.5c-4.3,4.5-8.4,9.1-12.1,13.7
		c2.8,0.3,8.8,1.3,14.9,4.3c8.3,4.1,13.6,10.4,13.6,10.4s-8.2-0.4-16.5-4.5c-6.3-3.1-10.8-7.4-12.7-9.4c-3.6,4.5-7,8.9-10,13.2
		c2.9,0.2,8.8,1,15,3.8c8.5,3.8,14,9.9,14,9.9s-8.2-0.1-16.7-3.9c-6.3-2.8-11-6.9-12.9-8.8c-3.6,5-6.7,9.8-9.3,14.1
		c-0.1,0.2-0.3,0.4-0.4,0.6c1.8,0.3,8.8,1.7,15.6,5.8c7.9,4.8,12.7,11.6,12.7,11.6s-8.2-1.1-16.1-5.9c-6.8-4.1-11.3-9.7-12.4-11.2
		c-10.8,17.6-16.3,30.9-16.4,31l-2.1-0.9c0.1-0.1,5.5-13.3,16.2-30.8c-2.7-0.7-8.6-2.6-14.2-6.4c-7.6-5.3-12-12.3-12-12.3
		S1044.8,370.7,1052.4,375.9z"/>
	<path class="st1" d="M959.8,337.2c11.2,2.7,20.1,7.9,24.2,10.5c0.1-0.3,0.1-0.7,0.2-1c1.6-8.5,3.6-18.1,6.2-28.4
		c-4.5-0.6-15.1-2.5-25.7-8.1c-13.9-7.4-22.6-18.3-22.6-18.3s13.9,1,27.9,8.4c10.3,5.4,17.7,12.8,20.9,16.3
		c2.2-8.5,4.7-17.5,7.7-26.8c-4.3-1.8-13.9-6.3-22.6-14.4c-11.6-10.7-17.2-23.5-17.2-23.5s13.2,4.5,24.8,15.2
		c8.1,7.5,13.3,16,15.6,20.4c3-9.3,6.5-18.8,10.4-28.4c-3.9-2.4-12.7-8.4-20.1-17.6c-9.8-12.3-13.4-25.8-13.4-25.8
		s12.4,6.5,22.2,18.8c6.8,8.5,10.6,17.6,12.3,22.4c2.7-6.5,5.6-12.9,8.8-19.4c-2.7-3.7-8.6-12.6-11.9-23.9c-4.4-15.1-2.6-29-2.6-29
		s9,10.7,13.4,25.8c2.7,9.2,3.1,17.9,3,23.3c2.3-4.5,4.7-9,7.2-13.4c1.1-5.3,3.3-13.8,7.9-22.2c7.6-13.8,18.6-22.3,18.6-22.3
		s-1.2,13.9-8.8,27.7c-4.6,8.3-10.4,14.7-14.3,18.5c-2.6,4.6-5.1,9.2-7.4,13.9c4.6-2.2,13.7-5.9,24.4-7.2c15.7-1.8,29,2.3,29,2.3
		s-12,7.1-27.7,8.9c-11.9,1.4-22.5-0.6-26.8-1.7c-3.2,6.5-6.1,13-8.9,19.5c4.7-0.8,15-2,26.5,0c15.5,2.8,27.1,10.5,27.1,10.5
		s-13.6,3.3-29.1,0.5c-11.8-2.1-21.3-7.1-25.2-9.4c-4.1,9.8-7.6,19.6-10.7,29.1c4.6-1.2,14.8-3.3,26.2-2.3c15.7,1.4,28,8.1,28,8.1
		s-13.2,4.5-28.9,3.1c-11.8-1-21.7-5.1-25.8-7.1c-3,9.4-5.6,18.5-7.8,27.1c4.7-1.4,14.6-3.8,26-3.2c15.7,0.8,28.2,7.1,28.2,7.1
		s-13.1,5-28.8,4.1c-11.7-0.6-21.6-4.2-25.9-6.1c-2.5,10.2-4.5,19.6-6.1,28c-0.1,0.4-0.2,0.8-0.2,1.3c3.1-0.6,15-2.7,28.3-0.4
		c15.5,2.8,27.1,10.5,27.1,10.5s-13.6,3.3-29.1,0.5c-13.3-2.4-23.8-8.4-26.4-10.1c-6.3,34.5-6.9,58.9-6.9,59.2l-3.9-0.1
		c0-0.2,0.6-24.4,6.8-58.6c-4.7,0.5-15.1,1.2-26.4-1.5c-15.3-3.7-26.5-12.1-26.5-12.1S944.4,333.5,959.8,337.2z"/>
	<g>
		<path class="st3" d="M1046.6,410.5c23.5,0,43.4,15.8,49.5,37.3h-99C1003.2,426.3,1023.1,410.5,1046.6,410.5z"/>
		<path class="st3" d="M805.2,392.9c34.7,0,63.9,23.2,72.9,55H732.3C741.4,416.1,770.6,392.9,805.2,392.9z"/>
		<path class="st3" d="M1031.6,447.9c-11.2-38.7-55.5-67.6-108.5-67.6s-97.3,28.9-108.5,67.6H1031.6z"/>
	</g>
	<g>
		<path class="st3" d="M615.2,384.1c23.5,0,43.4,15.8,49.5,37.3h-99C571.8,399.9,591.7,384.1,615.2,384.1z"/>
		<path class="st3" d="M373.9,366.4c34.7,0,63.9,23.2,72.9,55H300.9C310,389.7,339.2,366.4,373.9,366.4z"/>
		<path class="st3" d="M600.2,421.4c-11.2-38.7-55.5-67.6-108.5-67.6s-97.3,28.9-108.5,67.6H600.2z"/>
	</g>
	<g>
		<path class="st2" d="M142.7,263.1c-5.1,11.4-17.6,16.9-17.6,16.9s-4.1-13,1.1-24.4c5.1-11.4,17.6-16.9,17.6-16.9
			S147.8,251.7,142.7,263.1z"/>
		<path class="st2" d="M167.5,313.8c-7,10.4-20.1,13.8-20.1,13.8s-1.9-13.5,5.1-23.9s20.1-13.8,20.1-13.8S174.5,303.4,167.5,313.8z"
			/>
		<path class="st2" d="M93.6,227.5c8.5,9.2,8.6,22.8,8.6,22.8s-13.5-1.4-22-10.6c-8.5-9.2-8.6-22.8-8.6-22.8S85.1,218.3,93.6,227.5z
			"/>
		<path class="st2" d="M103.2,270.8c12.5,0.4,22.4,9.8,22.4,9.8s-10.4,8.7-23,8.3c-12.5-0.4-22.4-9.8-22.4-9.8
			S90.7,270.4,103.2,270.8z"/>
		<path class="st2" d="M124.9,317.5c12.5,0.4,22.4,9.8,22.4,9.8s-10.4,8.7-23,8.3c-12.5-0.4-22.4-9.8-22.4-9.8
			S112.4,317.1,124.9,317.5z"/>
		<g>
			<path class="st2" d="M168.6,426.8l-2.6,0c0-0.3-0.7-30-9.8-67.2c-5.3-21.8-12.5-41.9-21.2-59.7c-10.9-22.2-24.4-41-40.1-55.6
				l1.7-1.9c15.9,14.9,29.6,33.9,40.6,56.4c8.8,18,16.1,38.3,21.4,60.3C167.9,396.6,168.6,426.5,168.6,426.8z"/>
		</g>
	</g>
	<g>
		<path class="st2" d="M71.9,327.1c0.1,10.7-7.5,19.5-7.5,19.5s-7.9-8.6-8-19.3c-0.1-10.7,7.5-19.5,7.5-19.5S71.7,316.4,71.9,327.1z
			"/>
		<path class="st2" d="M109.4,357.6c-1.7,10.6-10.7,18-10.7,18s-6.3-9.8-4.7-20.4c1.7-10.6,10.7-18,10.7-18S111.1,347,109.4,357.6z"
			/>
		<path class="st2" d="M20.9,317.2c9.9,4.1,15,14.6,15,14.6s-11,3.8-20.9-0.3c-9.9-4.1-15-14.6-15-14.6S11,313.1,20.9,317.2z"/>
		<path class="st2" d="M44,347.4c9.9-4.2,20.9-0.4,20.9-0.4s-5,10.5-14.8,14.7s-20.9,0.4-20.9,0.4S34.2,351.5,44,347.4z"/>
		<path class="st2" d="M77.7,375.8c9.9-4.2,20.9-0.4,20.9-0.4s-5,10.5-14.8,14.7c-9.9,4.2-20.9,0.4-20.9,0.4S67.8,380,77.7,375.8z"
			/>
		<g>
			<path class="st2" d="M151.1,445l-2,1c-0.1-0.2-11.4-23.1-31.8-48.7c-12-15-24.8-28.1-38.1-38.7c-16.5-13.3-33.7-23-51.2-28.8
				l0.7-2.1c17.7,5.8,35.2,15.7,51.9,29.2c13.4,10.8,26.3,23.9,38.4,39.1C139.6,421.8,150.9,444.8,151.1,445z"/>
		</g>
	</g>
	<g>
		<path class="st3" d="M59.7,416.1c-19.7,0-36.4,13.2-41.5,31.3h83.1C96.1,429.3,79.4,416.1,59.7,416.1z"/>
		<path class="st3" d="M262.2,401.2c-29.1,0-53.6,19.5-61.2,46.1h122.4C315.8,420.7,291.3,401.2,262.2,401.2z"/>
		<path class="st3" d="M72.2,447.4c9.4-32.5,46.6-56.7,91-56.7s81.6,24.3,91,56.7H72.2z"/>
	</g>
	<g>
		<g>
			<path class="st4" d="M520,216.3c3.1-0.9,5.4-2.3,7-6.9c1.2-3.7,1.2-6.6,0.1-8.9c-1.1-2.3-3.3-4.2-5.9-3.9
				c-0.7,0.1-1.3,0.1-1.6-0.2c0,0,0,0,0,0c-1.7-1.7-0.3-2.5-3.9-6.7c-3.6-4.2-6.4-2.2-7-1.6c-0.6,0.6,1.6,2.2,2.5,3.1
				c0.9,0.9,1.6,4.4,2.4,6c0.5,0.9,0.9,3.4,1.1,5.3c0.2,1.8,0.6,3.5,1.1,5.2c0.7,2.5,0.8,4.8,2,6.8
				C518.3,215.1,519.6,215.8,520,216.3z"/>
			<polygon class="st4" points="521.1,243.9 534.7,244.5 533.1,214.2 518.7,214.2 			"/>
			<path class="st4" d="M519.4,201.3c0.3,7.3-0.1,15,0.2,15.3l13.4,3.2c1.7-1,2.9-1.7,6.3-15.1l1.2-4.9l-4.7-3.7
				c-0.7-0.6-1.5-1.1-2.4-1.5l-1.1-0.5c-2.2-1.1-4.8-1.5-7.2-1.1l-1.5,0.2C522.7,193.4,519.8,201.9,519.4,201.3L519.4,201.3z"/>
			<path class="st4" d="M524.9,184.7l-3.1,14.1c-0.2,1.1,0.5,2.2,1.6,2.5v0c1.1,0.2,2.2-0.5,2.5-1.6l3.1-14.1
				c0.2-1.1-0.5-2.2-1.6-2.5l0,0C526.2,182.9,525.1,183.6,524.9,184.7z"/>
			<path class="st4" d="M523.7,176.3l1.2,8.9c0.1,1.1,1.1,1.8,2.2,1.7l0,0c1.1-0.1,1.8-1.1,1.7-2.2l-1.2-8.9
				c-0.1-1.1-1.1-1.8-2.2-1.7l0,0C524.3,174.3,523.5,175.3,523.7,176.3z"/>
			<path class="st4" d="M521.8,172l1.7,3.9l0,0c0.6,1.2,1.9,1.8,2.8,1.2l0,0c0.9-0.5,1.1-1.8,0.5-2.9l-2.6-4.7
				c-0.4-0.7-1.2-1-1.8-0.7l0,0C521.6,169.5,521.3,170.8,521.8,172z"/>
			<path class="st4" d="M529.3,170.7l2,3.8l0,0c0.7,1.1,2.1,1.6,3.1,0.9l0,0c0.9-0.6,1.1-2,0.4-3.1l-3-4.4c-0.5-0.7-1.3-0.9-1.9-0.4
				l0,0C528.9,168.2,528.7,169.5,529.3,170.7z"/>
			<path class="st4" d="M531.7,182.3l-3,12.4c-0.3,1.1,0.4,2.2,1.5,2.5l0,0c1.1,0.3,2.2-0.4,2.5-1.5l3-12.4c0.3-1.1-0.4-2.2-1.5-2.5
				l0,0C533.1,180.5,532,181.2,531.7,182.3z"/>
			<path class="st4" d="M531.6,174.8l0.3,7.7c0,1.1,1,2,2.1,2l0,0c1.1,0,2-1,2-2.1l-0.3-7.7c0-1.1-1-2-2.1-2l0,0
				C532.4,172.8,531.6,173.7,531.6,174.8z"/>
			<path class="st4" d="M539,176.3l0.1,3.9l0,0c0.1,1.2,1.1,2.1,2.1,1.9l0,0c1-0.2,1.7-1.3,1.5-2.4l-0.7-4.8
				c-0.1-0.7-0.7-1.2-1.4-1.1l0,0C539.7,174,538.9,175.1,539,176.3z"/>
			<path class="st4" d="M537.3,185.9l-3.6,9.8c-0.4,1.2,0,2.4,1,2.7l0,0c1,0.3,2.1-0.3,2.5-1.5l3.6-9.8c0.4-1.2,0-2.4-1-2.7l0,0
				C538.8,184.1,537.7,184.7,537.3,185.9z"/>
			<path class="st4" d="M539,180.1l-1.4,5c-0.3,1.2,0.2,2.3,1.2,2.6l0,0c1,0.2,2-0.5,2.4-1.7l1.4-5c0.3-1.2-0.2-2.3-1.2-2.6l0,0
				C540.4,178.2,539.3,179,539,180.1z"/>
			<path class="st4" d="M542.4,185.5l-0.8,3.7l0,0c-0.2,1.2,0.5,2.2,1.5,2.3l0,0c1,0.1,1.8-0.7,1.9-1.9l0.4-4.7
				c0.1-0.7-0.4-1.3-1-1.4l0,0C543.5,183.6,542.6,184.4,542.4,185.5z"/>
			<path class="st4" d="M539.8,194.1l-4.1,9.6c-0.4,0.9,0,2,1,2.4l0,0c0.9,0.4,2,0,2.4-1l4.1-9.6c0.4-0.9,0-2-1-2.4l0,0
				C541.3,192.8,540.2,193.2,539.8,194.1z"/>
			<path class="st4" d="M541.7,188.8l-1.7,5.2c-0.3,0.9,0.2,2,1.1,2.3h0c0.9,0.3,2-0.2,2.3-1.1l1.7-5.2c0.3-0.9-0.2-2-1.1-2.3l0,0
				C543,187.3,542,187.9,541.7,188.8z"/>
		</g>
		<path class="st5" d="M466.6,165.3c-39.9-12.4-98.8,21.6-93.7,67.7c0.5,4.3,1.4,8.8,0.6,13c-1.2,6.6-6.5,11.4-11.9,15.1
			c-12,8.3-26.1,13.9-36.2,24.6c-16,17.2-17.7,47.3-3,67.4c13.7,18.6,65.2,42.2,86.5,37.5c21.3-4.7,38.7-20.2,49.7-39.3
			c2.7-4.8,5.1-9.8,9-13.6c7.1-7.1,17.9-8.8,26.5-13.8c8.1-4.7,4.8-24.5,9-33.1c7.7-16-10.3-27.6-7.3-39.7
			c6.1-24.4,4.8-29.3,4.5-44.2C500,187.9,484.4,170.8,466.6,165.3z"/>
		<path class="st3" d="M472.4,246.6c-13.4-10.4-24,3-24.4,3.3c-5.2,3.3-6.2,13.7-2.4,18.5l91.2,101.5c1.3,1.8,5-0.7,7.3-2.1
			c0.8-0.5,1.4-1.1,1.8-1.8c4.1-4.7,5.1-11.9,3.1-16.9C538.8,323.5,489.8,260.1,472.4,246.6z"/>
		<g>
			<path class="st3" d="M535.5,227.3c5.7,34.5,6.8,111.2,2,132.9c-3.9,18-14.8,15.3-15.3,15.3c-5.6,0.4-13.1-7.2-13-13.9l9.5-134.2
				L535.5,227.3z"/>
		</g>
		<g>
			<path class="st1" d="M498.3,369.8c10-41.9,4.5-43.9-0.3-67.1c-4.9-23.2-15.4-54.5-28-57.6c-40.2-9.7-47.6,5.1-56.7,48.7
				c-7.2,34.7-6,114.3-2.2,156c-0.5,1.2-1,3.8-1.5,7.3h98.7C501.8,421,496.1,379.2,498.3,369.8z"/>
		</g>
		<path class="st2" d="M453.6,263.8c-14.4-12.1-24.6,2-25.1,2.2c-5.2,3.3-5.7,14.6-1.5,20l100.1,115.3c1.4,2,5.1-0.5,7.4-1.9
			c0.8-0.5,1.4-1.1,1.8-1.9c4-4.8,4.6-12.7,2.3-18.1C526.7,351,472.4,279.5,453.6,263.8z"/>
		<path class="st5" d="M445.7,231.3c0,0-27.9-10.7-29.5-38.9c-2.2-37.9,36.5-55.7,57-42.8c18.9,11.9,15.3,28.2,13,32.2
			C483.8,185.7,445.7,231.3,445.7,231.3z"/>
		<path class="st4" d="M437.4,195.4l30.4-2.1c0.3,4.2,2.4,43.8,0.5,58.6c-1.2,4.6-8.9,6.5-17,4.2c-7.3-2-12.6-6.6-12.7-10.9l0,0
			C439.7,236.4,438.4,209.9,437.4,195.4z"/>
		<path class="st4" d="M439.6,199.8c4.6,24,25,40.2,39.7,37.4c14.7-2.8,18-23.6,13.4-47.6c-4.6-24-18.8-33.9-33.5-31.1
			C444.5,161.3,435,175.8,439.6,199.8z"/>
		<g>
			<g>
				
					<ellipse transform="matrix(0.9978 -6.619114e-02 6.619114e-02 0.9978 -10.4174 39.2248)" class="st5" cx="586.7" cy="176.8" rx="8.4" ry="12.3"/>
				<polygon class="st5" points="584.1,165 649.1,139 652.5,190.7 586.5,189 580.8,176.1 				"/>
				
					<ellipse transform="matrix(0.9978 -6.619352e-02 6.619352e-02 0.9978 -9.5162 43.5666)" class="st6" cx="652.7" cy="165.4" rx="22.3" ry="32.4"/>
				<polygon class="st6" points="645.7,134.1 710.7,108.7 720.5,197.8 652,197.7 637,163.4 				"/>
				
					<ellipse transform="matrix(0.9978 -6.619330e-02 6.619330e-02 0.9978 -8.4999 48.2737)" class="st7" cx="724.2" cy="152.4" rx="38.4" ry="56"/>
				<polygon class="st7" points="712.1,98.3 747.6,83.8 759.8,209.6 723.1,208.1 697.1,149 				"/>
				
					<ellipse transform="matrix(0.9978 -6.619300e-02 6.619300e-02 0.9978 -8.0333 50.337)" class="st5" cx="755.6" cy="146.4" rx="38.4" ry="63.3"/>
				<path class="st8" d="M785.7,144.4c1,15.4-1.6,30-7.3,41.1c-2.9,5.6-9.3,15.2-19.1,15.9c-7.7,0.5-14.1-4.8-18.2-9.6
					c-1.1-1.3-2-2.5-2.8-3.6c-7.2-10.2-11.7-24.4-12.7-39.7c-1-15.4,1.6-30,7.4-41.1c2.9-5.7,9.3-15.2,19.1-15.9
					c3.5-0.2,6.6,0.7,9.5,2.2c5.2,2.8,9.2,7.6,11.6,11C780.2,114.9,784.7,129,785.7,144.4z"/>
				<path class="st9" d="M776.9,137c1,15.4-1.6,30-7.3,41.1c-2.9,5.6-9.3,15.2-19.1,15.9c-3.5,0.2-6.6-0.7-9.5-2.2
					c-1.1-1.3-2-2.5-2.8-3.6c-7.2-10.2-11.7-24.4-12.7-39.7c-1-15.4,1.6-30,7.4-41.1c2.9-5.7,9.3-15.2,19.1-15.9
					c3.5-0.2,6.6,0.7,9.5,2.2c1.1,1.3,2,2.5,2.8,3.6C771.4,107.5,775.9,121.6,776.9,137z"/>
				<g>
					<defs>
						<path id="SVGID_1_" d="M785.7,144.4c1,15.4-1.6,30-7.3,41.1c-2.9,5.6-9.3,15.2-19.1,15.9c-7.7,0.5-14.1-4.8-18.2-9.6
							c-1.1-1.3-2-2.5-2.8-3.6c-7.2-10.2-11.7-24.4-12.7-39.7c-1-15.4,1.6-30,7.4-41.1c2.9-5.7,9.3-15.2,19.1-15.9
							c3.5-0.2,6.6,0.7,9.5,2.2c5.2,2.8,9.2,7.6,11.6,11C780.2,114.9,784.7,129,785.7,144.4z"/>
					</defs>
					<clipPath id="SVGID_00000151544023232219368220000013976638532245642143_">
						<use xlink:href="#SVGID_1_"  style="overflow:visible;"/>
					</clipPath>
					<g style="clip-path:url(#SVGID_00000151544023232219368220000013976638532245642143_);">
						<polygon class="st11" points="808.1,185.6 782.5,217.1 736.1,225.1 725.9,208.2 744.4,171.9 752.4,156.3 765,167.2 769,170.7 
							770.2,167.8 770.2,167.8 773.6,160.5 782.9,167.2 						"/>
						<polygon class="st12" points="765,167.2 758.1,166.1 758.1,171.9 754.4,167.3 751.2,176.5 746.8,170 744.4,171.9 752.4,156.3 
													"/>
						<polygon class="st12" points="782.9,167.2 778,166.7 775.5,165.2 775.5,169.4 772.3,166.1 770.2,167.8 773.6,160.5 						"/>
						<polygon class="st13" points="741.3,212.1 761.8,180.8 768.9,187.7 775.4,180.8 790.5,186.5 799.8,217 765,225.1 						"/>
					</g>
				</g>
				<path class="st14" d="M776.9,137c1,15.4-1.6,30-7.3,41.1c-2.9,5.6-9.3,15.2-19.1,15.9c-3.5,0.2-6.6-0.7-9.5-2.2
					c-1.1-1.3-2-2.5-2.8-3.6c-7.2-10.2-11.7-24.4-12.7-39.7c-1-15.4,1.6-30,7.4-41.1c2.9-5.7,9.3-15.2,19.1-15.9
					c3.5-0.2,6.6,0.7,9.5,2.2c1.1,1.3,2,2.5,2.8,3.6C771.4,107.5,775.9,121.6,776.9,137z"/>
			</g>
			<g>
				
					<ellipse transform="matrix(0.9978 -6.619474e-02 6.619474e-02 0.9978 -11.9586 31.5772)" class="st5" cx="470.5" cy="196.2" rx="6.3" ry="9.2"/>
				<polygon class="st5" points="467.7,187.8 543.9,153.5 547.7,211.7 471.1,205.5 467,195.2 				"/>
				
					<ellipse transform="matrix(0.9978 -6.619242e-02 6.619242e-02 0.9978 -10.9227 36.6691)" class="st6" cx="547.9" cy="183.2" rx="25" ry="36.5"/>
				<polygon class="st6" points="540,147.9 613.2,119.3 624.3,219.7 547.2,219.5 530.2,180.9 				"/>
				
					<ellipse transform="matrix(0.9978 -6.619276e-02 6.619276e-02 0.9978 -9.7788 41.9679)" class="st7" cx="628.4" cy="168.6" rx="43.2" ry="63"/>
				<polygon class="st7" points="614.8,107.7 654.8,91.3 668.5,232.9 627.1,231.3 597.9,164.7 				"/>
				
					<ellipse transform="matrix(0.9978 -6.619301e-02 6.619301e-02 0.9978 -9.2537 44.2909)" class="st5" cx="663.8" cy="161.8" rx="43.2" ry="71.3"/>
				<path class="st8" d="M697.6,159.5c1.1,17.3-1.8,33.7-8.3,46.2c-3.3,6.4-10.5,17.1-21.5,17.9c-8.7,0.6-15.9-5.4-20.5-10.8
					c-1.2-1.4-2.3-2.8-3.1-4.1c-8.1-11.5-13.2-27.4-14.3-44.7c-1.1-17.3,1.8-33.7,8.3-46.2c3.3-6.4,10.5-17.1,21.5-17.9
					c3.9-0.3,7.5,0.8,10.7,2.5c5.8,3.1,10.3,8.6,13,12.4C691.4,126.3,696.5,142.2,697.6,159.5z"/>
				<path class="st9" d="M687.8,151.3c1.1,17.3-1.8,33.7-8.3,46.2c-3.3,6.4-10.5,17.1-21.5,17.9c-3.9,0.3-7.5-0.8-10.7-2.5
					c-1.2-1.4-2.3-2.8-3.1-4.1c-8.1-11.5-13.2-27.4-14.3-44.7c-1.1-17.3,1.8-33.7,8.3-46.2c3.3-6.4,10.5-17.1,21.5-17.9
					c3.9-0.3,7.5,0.8,10.7,2.5c1.2,1.4,2.3,2.8,3.2,4.1C681.6,118,686.6,133.9,687.8,151.3z"/>
			</g>
			<g>
				<defs>
					<path id="SVGID_00000026871957594399777010000003170290989085711780_" d="M697.6,159.5c1.1,17.3-1.8,33.7-8.3,46.2
						c-3.3,6.4-10.5,17.1-21.5,17.9c-8.7,0.6-15.9-5.4-20.5-10.8c-1.2-1.4-2.3-2.8-3.1-4.1c-8.1-11.5-13.2-27.4-14.3-44.7
						c-1.1-17.3,1.8-33.7,8.3-46.2c3.3-6.4,10.5-17.1,21.5-17.9c3.9-0.3,7.5,0.8,10.7,2.5c5.8,3.1,10.3,8.6,13,12.4
						C691.4,126.3,696.5,142.2,697.6,159.5z"/>
				</defs>
				<clipPath id="SVGID_00000116197723559349730990000000205759768363671442_">
					<use xlink:href="#SVGID_00000026871957594399777010000003170290989085711780_"  style="overflow:visible;"/>
				</clipPath>
				<g style="clip-path:url(#SVGID_00000116197723559349730990000000205759768363671442_);">
					<path class="st11" d="M705.7,179.8L692,232.7c0,0-43,13-44.3,12.9c-1.3,0-21-25.1-21-25.1l21.6-46.7l5.7-12.3l8.2,9.1l4.5,5
						l9.3-18.1l5.6-10.9l7.3,10.1L705.7,179.8z"/>
					<polygon class="st12" points="662.3,170.6 659.4,170.5 658.8,173.7 655.2,172.7 652.5,177.8 651.1,172.2 648.3,173.9 
						654,161.5 					"/>
					<polygon class="st12" points="689,156.8 686,156.3 684.3,160.8 681.8,154.9 678.2,160.8 676.1,157.5 681.7,146.7 					"/>
					<polygon class="st13" points="644.4,231.4 667.9,180.4 679.8,188.2 687.8,175.4 717.4,186.3 712.4,232.5 665.8,237.1 					"/>
				</g>
			</g>
			<path class="st14" d="M687.8,151.3c1.1,17.3-1.8,33.7-8.3,46.2c-3.3,6.4-10.5,17.1-21.5,17.9c-3.9,0.3-7.5-0.8-10.7-2.5
				c-1.2-1.4-2.3-2.8-3.1-4.1c-8.1-11.5-13.2-27.4-14.3-44.7c-1.1-17.3,1.8-33.7,8.3-46.2c3.3-6.4,10.5-17.1,21.5-17.9
				c3.9-0.3,7.5,0.8,10.7,2.5c1.2,1.4,2.3,2.8,3.2,4.1C681.6,118,686.6,133.9,687.8,151.3z"/>
		</g>
		<path class="st5" d="M476.9,156c0,0-6.1,32.1-36,42.9c-15.4,5.6-20.3-18.7-20.3-18.7l15.2-22.9c0,0,12.4-9.7,21.8-8.7
			C458.6,148.8,476.9,156,476.9,156z"/>
		<path class="st5" d="M487.8,174.5c0,0-26.7-9.8-30.7-19.1c-3.9-9.3,9.8-8.1,9.8-8.1S484.6,153.8,487.8,174.5z"/>
		<path class="st5" d="M445.1,153.7c0,0,12.2-9.3,4.1-20.7c-8.1-11.4-22.3-7.2-25.6,1.6c-3.7,9.7,1.2,15.8,5.3,18.7
			C432.9,156.2,440.2,156.6,445.1,153.7z"/>
		<path class="st4" d="M427.7,208.6c2.4,5.6,11,10.4,15,8.6c4-1.7,3.1-6.7,0.7-12.3c-2.4-5.6-7.9-9.4-11.9-7.7
			S425.4,203,427.7,208.6z"/>
		<g>
			<path class="st4" d="M542.8,240.3c3.2-0.5,5.7-1.4,8-5.8c1.8-3.5,2.2-6.3,1.5-8.7c-0.7-2.5-2.6-4.7-5.2-4.7
				c-0.7,0-1.3-0.1-1.5-0.5c0,0,0,0,0,0c-1.4-1.9,0.1-2.5-2.8-7.2c-2.9-4.7-6-3.2-6.7-2.6c-0.7,0.5,1.3,2.4,2,3.4
				c0.7,1,0.9,4.6,1.4,6.3c0.3,1,0.4,3.5,0.3,5.4c0,1.8,0.1,3.6,0.3,5.3c0.4,2.6,0,4.9,1,7C541.3,238.8,542.4,239.7,542.8,240.3z"/>
			<polygon class="st4" points="539.6,267.7 552.9,270.4 556.1,240.2 541.8,238 			"/>
			<path class="st4" d="M544.5,225.4c-0.8,7.3-2.4,14.8-2.2,15.1l12.8,5.2c1.9-0.8,3.1-1.2,8.6-13.9l2-4.7l-4.1-4.4
				c-0.6-0.7-1.3-1.3-2.1-1.8l-1-0.7c-2-1.4-4.5-2.2-7-2.2l-1.5,0C549,218,544.8,225.9,544.5,225.4L544.5,225.4z"/>
			<path class="st4" d="M552.4,209.8l-5.3,13.4c-0.4,1.1,0.1,2.3,1.2,2.7l0,0c1.1,0.4,2.3-0.1,2.7-1.2l5.3-13.4
				c0.4-1.1-0.1-2.3-1.2-2.7l0,0C554.1,208.2,552.9,208.7,552.4,209.8z"/>
			<path class="st4" d="M552.6,201.3l-0.2,9c0,1.1,0.8,2,1.9,2l0,0c1.1,0,2-0.8,2-1.9l0.2-9c0-1.1-0.8-2-1.9-2l0,0
				C553.5,199.4,552.6,200.2,552.6,201.3z"/>
			<path class="st4" d="M551.4,196.8l1.1,4.1l0,0c0.4,1.3,1.6,2,2.6,1.7l0,0c1-0.4,1.4-1.6,1-2.8l-1.8-5c-0.3-0.8-1-1.2-1.7-0.9l0,0
				C551.5,194.3,551.1,195.5,551.4,196.8z"/>
			<path class="st4" d="M559,196.6l1.4,4l0,0c0.5,1.2,1.8,1.9,2.9,1.4l0,0c1-0.5,1.4-1.8,0.9-3l-2.3-4.8c-0.4-0.7-1.2-1.1-1.8-0.7
				l0,0C559,194.1,558.6,195.4,559,196.6z"/>
			<path class="st4" d="M559.6,208.5l-4.9,11.7c-0.4,1.1,0.1,2.3,1.1,2.7l0,0c1.1,0.4,2.3-0.1,2.7-1.1l4.9-11.7
				c0.4-1.1-0.1-2.3-1.1-2.7l0,0C561.2,206.9,560,207.4,559.6,208.5z"/>
			<path class="st4" d="M560.6,201.1l-0.9,7.6c-0.1,1.1,0.7,2.1,1.8,2.3l0,0c1.1,0.1,2.1-0.7,2.3-1.8l0.9-7.6
				c0.1-1.1-0.7-2.1-1.8-2.3l0,0C561.8,199.2,560.8,200,560.6,201.1z"/>
			<path class="st4" d="M567.7,203.7l-0.5,3.9l0,0c-0.1,1.2,0.7,2.2,1.8,2.2l0,0c1,0,1.9-1,1.9-2.2l0.1-4.9c0-0.8-0.5-1.3-1.2-1.3
				l0,0C568.7,201.5,567.9,202.5,567.7,203.7z"/>
			<path class="st4" d="M564.6,212.9l-5.1,9.2c-0.6,1.1-0.3,2.4,0.6,2.8l0,0c0.9,0.5,2.1,0,2.7-1.1l5.1-9.2c0.6-1.1,0.3-2.4-0.6-2.8
				l0,0C566.4,211.3,565.1,211.8,564.6,212.9z"/>
			<path class="st4" d="M567.1,207.5l-2.1,4.8c-0.5,1.1-0.2,2.3,0.8,2.7l0,0c0.9,0.4,2.1-0.2,2.6-1.3l2.1-4.8
				c0.5-1.1,0.2-2.3-0.8-2.7l0,0C568.8,205.7,567.6,206.3,567.1,207.5z"/>
			<path class="st4" d="M569.7,213.3l-1.3,3.5l0,0c-0.3,1.1,0.2,2.3,1.1,2.5l0,0c0.9,0.2,1.9-0.5,2.2-1.5l1.2-4.5
				c0.2-0.7-0.2-1.4-0.8-1.5l0,0C571.1,211.6,570.1,212.2,569.7,213.3z"/>
			<path class="st4" d="M565.8,221.4l-5.5,8.8c-0.5,0.9-0.3,2,0.6,2.5l0,0c0.9,0.5,2,0.3,2.5-0.6l5.5-8.8c0.5-0.9,0.3-2-0.6-2.5l0,0
				C567.4,220.3,566.3,220.6,565.8,221.4z"/>
			<path class="st4" d="M568.4,216.4l-2.5,4.9c-0.5,0.9-0.1,2,0.8,2.4l0,0c0.9,0.5,2,0.1,2.4-0.8l2.5-4.9c0.5-0.9,0.1-2-0.8-2.4l0,0
				C570,215.2,568.9,215.5,568.4,216.4z"/>
		</g>
		<g>
			<path class="st2" d="M554.6,256.9c4,34.8,1.4,111.4-4.4,132.8c-4.8,17.8-15.5,14.6-16,14.6c-5.6,0.1-12.7-7.8-12.3-14.5l16-133.5
				L554.6,256.9z"/>
		</g>
	</g>
	<circle class="st12" cx="596.2" cy="124.7" r="6"/>
	<circle class="st12" cx="673" cy="137.3" r="6"/>
	<circle class="st12" cx="754.3" cy="275.7" r="6"/>
	<circle class="st12" cx="269" cy="245.4" r="6"/>
	<circle class="st12" cx="812" cy="202.7" r="10.9"/>
	<path class="st2" d="M782.9,441c0,0-4.8-72-51-77.4C731.9,363.6,775,402.4,782.9,441z"/>
	<path class="st2" d="M793.7,440.9c0,0,12-92.6-45.4-111.1C748.4,329.8,793.4,389.8,793.7,440.9z"/>
	<g>
		<g>
			<path class="st2" d="M867.6,421.3l-1.1-0.6c0.3-0.5,26.2-50.3,11.2-68.3c-1.1-1.3-2.2-2.6-3.2-3.8c-15.2-18.1-24.4-29-4-50.7
				c10.2-10.8,13.9-26.4,9.6-40.6c-4.8-15.7-18.2-27.2-36.9-31.4c-8.7-2-21.1-6-30.5-13.8c-5.7-4.7-7.6-8.5-7.7-8.7l1.1-0.5
				c0.1,0.1,7.7,15.1,37.3,21.8c19.1,4.3,32.8,16.1,37.8,32.2c4.4,14.6,0.7,30.6-9.8,41.8c-19.7,20.9-11.3,30.9,4,49.1
				c1,1.2,2.1,2.5,3.2,3.8c6.5,7.8,6.6,22,0.3,42C874.3,408.5,867.7,421.2,867.6,421.3z"/>
		</g>
		<g>
			
				<ellipse transform="matrix(4.764925e-02 -0.9989 0.9989 4.764925e-02 485.1397 1177.6993)" class="st2" cx="860.2" cy="334.4" rx="6.9" ry="6.9"/>
		</g>
		<g>
			
				<ellipse transform="matrix(0.6859 -0.7277 0.7277 0.6859 102.6318 687.6669)" class="st2" cx="847.9" cy="224.9" rx="6.9" ry="6.9"/>
		</g>
		<g>
			
				<ellipse transform="matrix(0.6859 -0.7277 0.7277 0.6859 108.1011 646.9115)" class="st2" cx="803.4" cy="198.2" rx="6.9" ry="6.9"/>
		</g>
		<g>
			
				<ellipse transform="matrix(0.5673 -0.8235 0.8235 0.5673 173.3113 790.0818)" class="st2" cx="838.5" cy="230.1" rx="6.9" ry="6.9"/>
		</g>
		<g>
			<circle class="st2" cx="857.3" cy="328.9" r="5.5"/>
		</g>
		<g>
			
				<ellipse transform="matrix(0.6772 -0.7358 0.7358 0.6772 73.8259 744.4291)" class="st2" cx="885.4" cy="288.1" rx="6.9" ry="6.9"/>
		</g>
		<g>
			
				<ellipse transform="matrix(0.982 -0.1888 0.1888 0.982 -31.1063 171.6908)" class="st2" cx="885.6" cy="249.1" rx="6.9" ry="6.9"/>
		</g>
		<g>
			<path class="st2" d="M860.5,313.9c0.7-1.8,2.7-2.7,4.5-2c1.8,0.7,2.7,2.7,2,4.5c-0.7,1.8-2.7,2.7-4.5,2
				C860.7,317.7,859.8,315.7,860.5,313.9z"/>
		</g>
		<g>
			<path class="st2" d="M860.7,304.1c0.7-1.8,2.7-2.7,4.5-2c1.8,0.7,2.7,2.7,2,4.5c-0.7,1.8-2.7,2.7-4.5,2
				C861,307.8,860.1,305.8,860.7,304.1z"/>
		</g>
		<g>
			<path class="st2" d="M875.4,271.8c0.7-1.8,2.7-2.7,4.5-2c1.8,0.7,2.7,2.7,2,4.5c-0.7,1.8-2.7,2.7-4.5,2
				C875.6,275.6,874.7,273.6,875.4,271.8z"/>
		</g>
		<g>
			<path class="st2" d="M873.3,239.8c0.7-1.8,2.7-2.7,4.5-2c1.8,0.7,2.7,2.7,2,4.5c-0.7,1.8-2.7,2.7-4.5,2
				C873.5,243.6,872.6,241.6,873.3,239.8z"/>
		</g>
		<g>
			<path class="st2" d="M855.7,231.9c0.7-1.8,2.7-2.7,4.5-2c1.8,0.7,2.7,2.7,2,4.5c-0.7,1.8-2.7,2.7-4.5,2
				C855.9,235.7,855,233.7,855.7,231.9z"/>
		</g>
		<g>
			<circle class="st2" cx="860.3" cy="228.8" r="3.5"/>
		</g>
		<g>
			<path class="st2" d="M821.2,214.7c0.7-1.8,2.7-2.7,4.5-2c1.8,0.7,2.7,2.7,2,4.5c-0.7,1.8-2.7,2.7-4.5,2
				C821.4,218.5,820.5,216.5,821.2,214.7z"/>
		</g>
		<g>
			
				<ellipse transform="matrix(0.4283 -0.9037 0.9037 0.4283 271.5875 852.3867)" class="st2" cx="809.4" cy="211.6" rx="3.5" ry="3.5"/>
		</g>
	</g>
	<g>
		<g>
			<path class="st2" d="M883.2,414.6l-8.4-16.6c-0.1-0.1-5.4-11.1-8-24.6c-3.4-18-0.3-32.3,9.1-41.5c4.5-4.4,9-8,13-11.2
				c6.7-5.4,12.4-10,15.5-15.8c3.3-6.3,3.1-13.8-0.5-23.6c-7-19-5.8-36.3-3.6-47.4c2.4-12.1,6.5-19.7,6.5-19.8l1.1,0.6
				c0,0.1-4.1,7.6-6.4,19.5c-2.2,11-3.3,28,3.6,46.7c8.1,22-1.8,29.9-15.3,40.8c-4,3.2-8.5,6.8-12.9,11.2
				c-6.3,6.2-12.9,18.2-8.7,40.4c2.5,13.4,7.8,24.2,7.9,24.3l8.4,16.6L883.2,414.6z"/>
		</g>
		<g>
			
				<ellipse transform="matrix(0.7947 -0.607 0.607 0.7947 -18.0815 604.6836)" class="st2" cx="884.9" cy="329.1" rx="6.9" ry="6.9"/>
		</g>
		<g>
			
				<ellipse transform="matrix(0.9128 -0.4084 0.4084 0.9128 -7.0774 388.3843)" class="st2" cx="906" cy="210.8" rx="6.9" ry="6.9"/>
		</g>
		<g>
			
				<ellipse transform="matrix(0.9422 -0.3351 0.3351 0.9422 -21.2735 314.5529)" class="st2" cx="901" cy="218.9" rx="6.9" ry="6.9"/>
		</g>
		<g>
			
				<ellipse transform="matrix(0.7947 -0.607 0.607 0.7947 24.0726 604.3369)" class="st2" cx="905.5" cy="266.6" rx="6.9" ry="6.9"/>
		</g>
		<g>
			
				<ellipse transform="matrix(0.4226 -0.9063 0.9063 0.4226 247.436 1002.5052)" class="st2" cx="910.5" cy="307.1" rx="6.9" ry="6.9"/>
		</g>
		<g>
			<path class="st2" d="M901,299.5c0.3-1.9,2-3.2,3.9-3c1.9,0.3,3.2,2,3,3.9c-0.3,1.9-2,3.2-3.9,3
				C902.1,303.1,900.8,301.4,901,299.5z"/>
		</g>
		<g>
			<path class="st2" d="M906.8,273.7c0.3-1.9,2-3.2,3.9-3c1.9,0.3,3.2,2,3,3.9c-0.3,1.9-2,3.2-3.9,3
				C907.9,277.4,906.6,275.6,906.8,273.7z"/>
		</g>
		<g>
			<path class="st2" d="M896.4,249.3c0.3-1.9,2-3.2,3.9-3c1.9,0.3,3.2,2,3,3.9s-2,3.2-3.9,3C897.4,252.9,896.1,251.2,896.4,249.3z"
				/>
		</g>
		<g>
			<path class="st2" d="M882.3,319.9c0.3-1.9,2-3.2,3.9-3c1.9,0.3,3.2,2,3,3.9c-0.3,1.9-2,3.2-3.9,3
				C883.4,323.5,882.1,321.8,882.3,319.9z"/>
		</g>
		<g>
			<path class="st2" d="M892.9,319.1c0.3-1.9,2-3.2,3.9-3s3.2,2,3,3.9c-0.3,1.9-2,3.2-3.9,3C894,322.8,892.6,321,892.9,319.1z"/>
		</g>
		<g>
			
				<ellipse transform="matrix(0.7355 -0.6776 0.6776 0.7355 75.0374 675.9736)" class="st2" cx="903.2" cy="241.9" rx="3.5" ry="3.5"/>
		</g>
		<g>
			
				<ellipse transform="matrix(0.9422 -0.3351 0.3351 0.9422 -40.1743 316.5712)" class="st2" cx="897.4" cy="274.7" rx="6.9" ry="6.9"/>
		</g>
	</g>
	<g>
		<g>
			<path class="st0" d="M665.3,459.7l-2.1-1c0.1-0.2,9.1-19.3,8.8-61.9c-0.3-43.6,23.7-60,24.7-60.7l1.3,2
				c-0.2,0.2-23.9,16.5-23.7,58.7C674.7,440,665.7,458.9,665.3,459.7z"/>
			<path class="st0" d="M690.8,369.9c-7.4-0.1-13.4-3-13.4-3s6.1-2.6,13.5-2.5c7.4,0.1,13.4,3,13.4,3S698.2,370,690.8,369.9z"/>
			<path class="st0" d="M667.3,365.9c-2.9-6.8-2.8-13.5-2.8-13.5s4.9,4.5,7.8,11.3c2.9,6.8,2.8,13.5,2.8,13.5
				S670.2,372.7,667.3,365.9z"/>
		</g>
		<g>
			<path class="st0" d="M696.3,358.8c1,0.6,2.1,1,3.3,1.1c4.3,0.3,13.1,0.3,15.9-5.6c3.8-7.9,12-10.8,10.7-17.6s-8.5-21.9-18.3-23.2
				c-9.8-1.3-17.9-9.6-26.1,4.4c-8.2,14-15.8,11.6-12.4,21.8c3.4,10.2,7.9,18.2,14,19.2C688.7,359.7,694,357.4,696.3,358.8z"/>
			<path class="st12" d="M689,350.6c0.8,1,1.6,1.8,2.7,2.4c2.9,1.6,8,3.7,11.4,1c5.1-4,11.4-3.2,12.8-8.1s1.6-17.1-4.4-21.2
				c-6-4-8.6-12.2-18.5-5.7c-9.9,6.5-14.2,2.4-15.3,10.2c-1.1,7.8-0.8,16.8,3,19.5C683.8,351.2,687.8,349.1,689,350.6z"/>
			<path class="st0" d="M687.4,344.7c0.3,0.9,0.7,1.7,1.3,2.4c1.7,1.9,4.8,4.7,7.9,3.7c4.7-1.5,9,0.7,11.2-2.4
				c2.3-3.1,5.6-11.8,2.4-16.3c-3.2-4.4-3-10.9-11.8-8.9c-8.8,2.1-10.7-2-13.6,3.4s-4.9,11.8-2.9,14.7
				C683.5,343.8,686.9,343.3,687.4,344.7z"/>
			<path class="st16" d="M689.6,339c0,0.6,0,1.1,0.2,1.7c0.5,1.5,1.6,3.7,3.6,3.9c3,0.2,4.9,2.4,6.9,1.1c2-1.3,5.8-5.4,5-8.7
				c-0.8-3.3,0.8-6.9-4.7-7.7c-5.5-0.8-5.7-3.5-8.5-1.2c-2.8,2.4-5.5,5.6-5,7.7C687.6,337.6,689.6,338.1,689.6,339z"/>
			
				<ellipse transform="matrix(0.7292 -0.6843 0.6843 0.7292 -41.3105 567.8824)" class="st12" cx="696.8" cy="336.1" rx="3.5" ry="3.5"/>
		</g>
	</g>
	<g>
		<g>
			<path class="st0" d="M656.2,449.7c-0.1-0.4-11.8-37.3-5-96.3c6.6-57.8-23.3-83.6-23.6-83.8l2.1-2.5c1.3,1.1,31.6,27.1,24.8,86.7
				c-6.7,58.3,4.7,94.6,4.8,94.9L656.2,449.7z"/>
			<path class="st0" d="M632.8,314.2c10.2,0.9,18.8-2.1,18.8-2.1s-7.9-4.5-18.1-5.4c-10.2-0.9-18.8,2.1-18.8,2.1
				S622.7,313.3,632.8,314.2z"/>
			<path class="st0" d="M665.6,312.3c5-8.9,5.8-18,5.8-18s-7.3,5.4-12.3,14.3c-5,8.9-5.8,18-5.8,18S660.6,321.2,665.6,312.3z"/>
		</g>
		<g>
			<path class="st0" d="M638.2,288.2c-1.2,1.2-2.5,2.3-4,2.9c-4.3,1.8-11.5,3.9-15.8-0.3c-6.4-6.2-15.1-6-16.3-12.9
				s0.3-23.7,9.1-28.3s13.6-15.3,26.2-5c12.6,10.4,19,5.4,19.4,16.3c0.3,10.9-1.5,23.2-7,26.2C645.2,289.7,640,286.3,638.2,288.2z"
				/>
			<path class="st12" d="M641.2,280.3c-0.5,1.2-1.2,2.3-2.1,3.1c-2.6,2.4-7.2,5.7-11.4,3.9c-6.2-2.8-12.4-0.4-15-5
				c-2.6-4.6-5.9-17-0.8-22.6c5.1-5.6,5.7-14.5,17.5-10.4c11.7,4.1,15-1.1,18.1,6.6c3.1,7.7,5,16.9,1.8,20.5
				C646.7,279.6,642.1,278.4,641.2,280.3z"/>
			<path class="st0" d="M639.1,272.1c0,0.8-0.2,1.6-0.5,2.3c-0.9,1.9-2.8,4.9-5.6,4.8c-4.1-0.2-7.1,2.6-9.6,0.5
				c-2.5-2-7.2-8.3-5.6-12.6c1.6-4.3,0-9.5,7.6-9.8s8.3-4,11.7-0.3c3.5,3.7,6.6,8.5,5.7,11.2C642,270.5,639.1,270.9,639.1,272.1z"/>
			
				<ellipse transform="matrix(0.2671 -0.9637 0.9637 0.2671 203.9418 802.4674)" class="st12" cx="629.5" cy="267.2" rx="4.8" ry="4.8"/>
		</g>
	</g>
	<g>
		<path class="st12" d="M189.9,446.4c-7.6,0-13.9,5.1-15.9,12h31.8C203.9,451.5,197.5,446.4,189.9,446.4z"/>
		<path class="st12" d="M267.5,440.7c-11.1,0-20.5,7.5-23.4,17.7H291C288,448.2,278.7,440.7,267.5,440.7z"/>
		<path class="st12" d="M194.7,458.4c3.6-12.4,17.8-21.7,34.9-21.7s31.3,9.3,34.9,21.7H194.7z"/>
	</g>
	<g>
		<path class="st2" d="M476.5,434.5c12.9,0,23.7,8.6,27.1,20.4h-54.1C452.8,443.2,463.7,434.5,476.5,434.5z"/>
		<path class="st2" d="M344.6,424.9c18.9,0,34.9,12.7,39.9,30.1h-79.7C309.7,437.6,325.7,424.9,344.6,424.9z"/>
		<path class="st2" d="M468.4,454.9c-6.1-21.2-30.3-37-59.3-37s-53.2,15.8-59.3,37H468.4z"/>
	</g>
	<g>
		<g>
			<path class="st12" d="M374.1,317.5c0,0-5.9-9.1-3.1-21.9c2.8-12.9-7.8-16.7-12.2-11.9S354.3,302.3,374.1,317.5z"/>
		</g>
		<g>
			<path class="st12" d="M384.7,323.2c0,0,1.3-10.7,11.6-18.9c10.3-8.2,4.6-17.8-1.8-16.9C388.1,288.4,379.1,298.9,384.7,323.2z"/>
		</g>
		<g>
			<path class="st12" d="M383.8,324.5c0,0-10.7,1.5-18.6,12c-7.9,10.5-17.7,5-17-1.4S359.3,319.5,383.8,324.5z"/>
		</g>
		<g>
			<path class="st12" d="M400.8,339.7c0,0-10.7,1.5-18.6,12c-7.9,10.5-17.7,5-17-1.4C366,343.9,376.3,334.6,400.8,339.7z"/>
		</g>
		<g>
			<path class="st12" d="M412.6,357.2c0,0-10.7,1.5-18.6,12c-7.9,10.5-17.7,5-17-1.4C377.7,361.4,388.1,352.2,412.6,357.2z"/>
		</g>
		<g>
			<path class="st12" d="M426.2,379.5c0,0-10.7,1.5-18.6,12c-7.9,10.5-17.7,5-17-1.4C391.4,383.8,401.7,374.5,426.2,379.5z"/>
		</g>
		<g>
			<path class="st12" d="M400.6,339.6c0,0,1.3-10.7,11.6-18.9c10.3-8.2,4.6-17.8-1.8-16.9C404.1,304.7,395.1,315.2,400.6,339.6z"/>
		</g>
		<g>
			<path class="st12" d="M414.6,358.6c0,0,1.3-10.7,11.6-18.9c10.3-8.2,4.6-17.8-1.8-16.9C418,323.7,409,334.3,414.6,358.6z"/>
		</g>
		<g>
			<path class="st12" d="M426.8,378.9c0,0,1.3-10.7,11.6-18.9c10.3-8.2,4.6-17.8-1.8-16.9C430.3,344,421.3,354.6,426.8,378.9z"/>
		</g>
		<g>
			<path class="st12" d="M370.4,314.3c1.1,0.8,2.2,1.6,3.2,2.4c3.2,2.4,6.3,5,9.2,7.6c0.1,0.1,0.2,0.2,0.3,0.3
				c5.1,4.6,9.8,9.4,14.3,14.4c0.3,0.4,0.7,0.8,1,1.2c4.7,5.4,9,11,13,16.8c0.1,0.1,0.2,0.3,0.3,0.4l0,0c5,7.3,9.5,14.7,13.5,22
				c0.1,0.1,0.1,0.2,0.2,0.3c6.5,11.9,11.6,23.5,15.6,33.8c5.1,13.2,8.9,25.4,11.5,35.4l2.2-0.5c-2.7-10.1-6.5-22.4-11.6-35.7
				c-4.1-10.6-9.4-22.6-16.1-34.8c-0.2-0.4-0.4-0.8-0.7-1.2c-3.5-6.3-7.4-12.7-11.6-18.9c-0.2-0.2-0.3-0.5-0.5-0.7
				c-4.1-6-8.7-12-13.6-17.7c0,0-0.1-0.1-0.1-0.1c0,0,0,0,0,0c-4.9-5.7-10.2-11.1-15.8-16.2c0,0-0.1-0.1-0.1-0.1
				c-4-3.6-8.2-7-12.7-10.2c-0.1,0-0.1-0.1-0.2-0.1c-0.5-0.4-1.2-0.2-1.6,0.3C369.8,313.3,369.9,314,370.4,314.3z"/>
		</g>
	</g>
	<g>
		<path class="st12" d="M431.3,448.7c6.5,0,11.9,4.3,13.6,10.3h-27.3C419.4,453,424.8,448.7,431.3,448.7z"/>
		<path class="st12" d="M364.8,443.8c9.5,0,17.6,6.4,20.1,15.2h-40.2C347.2,450.2,355.3,443.8,364.8,443.8z"/>
		<path class="st12" d="M427.2,459c-3.1-10.7-15.3-18.6-29.9-18.6c-14.6,0-26.8,8-29.9,18.6H427.2z"/>
	</g>
	<g>
		<path class="st12" d="M440.3,409c-1.3-0.5-2.7,0.2-3.2,1.5c-0.2,0.6-0.2,1.2,0,1.7c-2.2,2-4.2,4.1-6,6.3c0.4-2.3,0.9-5.8,0.7-9.3
			c0.6-0.3,1.2-0.8,1.4-1.5c0.5-1.3-0.2-2.7-1.5-3.2c-1.3-0.5-2.7,0.2-3.2,1.5c-0.5,1.3,0.2,2.7,1.5,3.2c0.2,0.1,0.3,0.1,0.5,0.1
			c0.3,5.2-1,10.6-1.2,11.4c-3.9,5-7.1,10-9.3,14c-4,7.2-6,12.8-6.1,12.8l1.3,0.5c0-0.1,2-5.5,6-12.6c1.2-2.1,2.6-4.6,4.3-7.1
			c1-0.2,4.6-0.8,9.4-0.1c0,1,0.6,2,1.7,2.3c1.3,0.5,2.7-0.2,3.2-1.5c0.5-1.3-0.2-2.7-1.5-3.2c-1.1-0.4-2.4,0.1-3,1.1
			c-3.8-0.6-6.9-0.4-8.7-0.2c3.1-4.5,6.9-9.3,11.5-13.5c0.2,0.2,0.4,0.3,0.7,0.4c1.3,0.5,2.7-0.2,3.2-1.5
			C442.3,410.9,441.6,409.4,440.3,409z"/>
		<path class="st12" d="M409.6,426.5c0.8-0.5,4-2.4,8.7-3.4c0.4,0.9,1.3,1.6,2.4,1.6c1.4,0,2.5-1.2,2.5-2.5c0-1.4-1.2-2.5-2.5-2.5
			c-1.2,0-2.2,0.9-2.4,2.1c-3.8,0.8-6.6,2.1-8.2,2.9c1.3-5.3,3.2-11.2,6-16.7c0.2,0.1,0.5,0.1,0.8,0.1c1.4,0,2.5-1.2,2.5-2.5
			c0-1.4-1.2-2.5-2.5-2.5c-1.4,0-2.5,1.2-2.5,2.5c0,0.6,0.2,1.2,0.6,1.6c-1.3,2.6-2.5,5.3-3.4,8c-0.4-2.3-1.2-5.8-2.6-8.9
			c0.5-0.5,0.8-1.1,0.8-1.9c0-1.4-1.2-2.5-2.5-2.5c-1.4,0-2.5,1.2-2.5,2.5c0,1.4,1.2,2.5,2.5,2.5c0.2,0,0.3,0,0.5-0.1
			c2.1,4.7,2.8,10.3,2.9,11.1c-1.9,6-3.1,11.9-3.7,16.4c-1.2,8.1-1.2,14.1-1.2,14.1l1.4,0c0-0.1,0-5.9,1.2-13.9
			C408.4,432.3,408.9,429.5,409.6,426.5z"/>
	</g>
	<g>
		<path class="st12" d="M944.4,428.5c12.9,0,23.7,8.6,27.1,20.4h-54.1C920.7,437.2,931.6,428.5,944.4,428.5z"/>
		<path class="st12" d="M812.5,418.9c18.9,0,34.9,12.7,39.9,30.1h-79.7C777.6,431.6,793.6,418.9,812.5,418.9z"/>
		<path class="st12" d="M936.2,448.9c-6.1-21.2-30.3-37-59.3-37c-29,0-53.2,15.8-59.3,37H936.2z"/>
	</g>
	<g>
		<path class="st2" d="M723.2,437c18.9,0,34.9,12.7,39.9,30h-79.7C688.3,449.7,704.3,437,723.2,437z"/>
		<path class="st2" d="M529,422.8c27.9,0,51.4,18.7,58.7,44.3H470.2C477.5,441.5,501.1,422.8,529,422.8z"/>
		<path class="st2" d="M711.2,467c-9-31.2-44.7-54.4-87.3-54.4c-42.6,0-78.3,23.3-87.3,54.4H711.2z"/>
	</g>
	<g>
		<path class="st17" d="M193.5,214.2c-2.1-2.7-1-7.1,5.2-11.8c6.2-4.7,21.5-8.4,21.5-8.4s-7.8,13.7-14,18.4
			C200,217,195.6,216.9,193.5,214.2z"/>
		<path class="st17" d="M186.1,200.3c-1-3.3,1.6-7,9-9.2c7.5-2.2,23.1-0.4,23.1-0.4s-12.1,10.1-19.5,12.3
			C191.3,205.3,187.1,203.6,186.1,200.3z"/>
		<path class="st17" d="M250.4,178.9c-1.5-3.1-5.9-4-12.9-0.5c-7,3.5-17.1,15.5-17.1,15.5s15.7-0.9,22.7-4.4
			C250.1,186,252,182,250.4,178.9z"/>
		<path class="st17" d="M241.3,166.1c-2.5-2.3-7-1.7-12.2,4c-5.3,5.7-10.6,20.5-10.6,20.5s14.4-6.3,19.7-12
			C243.5,172.9,243.8,168.4,241.3,166.1z"/>
		<path class="st2" d="M208.6,175.1L208.6,175.1c0.3-0.2,0.7-0.1,0.9,0.2l15.7,23.7c0.5,0.7,0.3,1.7-0.5,2.1l0,0
			c-0.7,0.4-1.7,0.2-2.1-0.5L208.3,176C208.1,175.7,208.2,175.3,208.6,175.1z"/>
	</g>
	<g>
		<path class="st18" d="M559.2,399.5c-1.6,3-6,3.8-12.9,0.1c-6.8-3.7-16.6-16-16.6-16s15.7,1.4,22.5,5.1
			C559.1,392.3,560.9,396.4,559.2,399.5z"/>
		<path class="st18" d="M549.7,412c-2.6,2.3-7,1.5-12.1-4.4c-5.1-5.9-9.9-20.8-9.9-20.8s14.2,6.8,19.3,12.6
			C552.1,405.2,552.3,409.7,549.7,412z"/>
		<path class="st18" d="M503.5,362.4c-2.2,2.7-1.2,7.1,4.9,11.9s21.2,9.1,21.2,9.1s-7.3-13.9-13.4-18.8
			C510.1,359.7,505.6,359.7,503.5,362.4z"/>
		<path class="st18" d="M495.6,376c-1.1,3.3,1.4,7,8.7,9.5s23.1,1.1,23.1,1.1s-11.8-10.5-19.1-12.9
			C500.9,371.2,496.7,372.8,495.6,376z"/>
		<path class="st12" d="M517.5,402L517.5,402c-0.3-0.2-0.4-0.6-0.2-0.9l15-24.1c0.4-0.7,1.4-0.9,2.1-0.5l0,0
			c0.7,0.5,0.9,1.4,0.4,2.1l-16.4,23.2C518.2,402.2,517.8,402.2,517.5,402z"/>
	</g>
	<path class="st12" d="M768.2,106.8c-0.2-4.4-5.3-10.4-10.7-10.7c5.4-0.5,10.3-5.8,10.7-10.7c0.2,4.8,5.4,10.2,10.7,10.7
		C773.7,96.4,768.5,102.3,768.2,106.8z"/>
</g>
</svg>
