<?xml version="1.0" encoding="utf-8"?>
<!-- Generator: Adobe Illustrator 25.4.1, SVG Export Plug-In . SVG Version: 6.00 Build 0)  -->
<svg version="1.1" id="Calque_1" xmlns="http://www.w3.org/2000/svg" xmlns:xlink="http://www.w3.org/1999/xlink" x="0px" y="0px"
	 viewBox="0 0 157.8 213.6" style="enable-background:new 0 0 157.8 213.6;" xml:space="preserve">
<style type="text/css">
	.st0{fill:#3899B0;}
	.st1{fill:#73BBC9;}
</style>
<g>
	<g>
		<path class="st0" d="M91.1,137.6c-0.2-0.1-0.3-0.1-0.5-0.2c0,0.2,0,0.3,0,0.5c-0.1-0.2-0.2-0.2-0.2-0.2c0,0,0,0,0,0
			c-0.1-0.1-0.3-0.4-1-1.3c-26.5,6.1-31.6-8-45.9-25.1C34.9,101,20.6,90.8,10.9,80.5c-5.8-6.2-10-12.4-10.3-18.6
			c14.2-12,55.3,2.8,73.7,16.7c13.9,10.6,24.2,24,22.3,39.7c-0.7,5.7-2.9,11.6-7.1,17.9C92.1,138.3,90.2,136.8,91.1,137.6z"/>
	</g>
	<g>
		<path class="st0" d="M101.8,75.6c-0.1-0.2-0.2-0.2-0.3-0.3c0,0.1-0.1,0.2-0.1,0.4c-0.1-0.3-0.1-0.2-0.1-0.2c0,0-0.1-0.3-0.4-1.1
			c-19.4-2.3-19.5-13.1-25-28.1c-0.3-0.8-0.6-1.6-1-2.4c-6-14-19.4-30.6-16.1-41.4c7.3-2.7,18.7,2.9,28.6,10.9
			c7.1,5.7,13.5,12.5,17.3,18.2c9.4,14.3,12.9,30.5-3.6,42.7C102.3,76.3,101.4,74.9,101.8,75.6z"/>
	</g>
	<g>
		<path class="st1" d="M96.3,213.6l-2-0.4c7.5-39,14.5-95.3,5.2-142.1C93.9,43.3,85.1,32,85,31.9l1.6-1.3
			c0.4,0.5,9.2,11.8,14.9,40.1C110.9,117.8,103.9,174.4,96.3,213.6z"/>
	</g>
	<g>
		<path class="st1" d="M100.9,170.9c-7.8-45.2-47.1-75.7-47.5-76l1.2-1.6c0.1,0.1,10.2,7.8,21.1,21.2c10.1,12.3,23,32,27.2,56.1
			L100.9,170.9z"/>
	</g>
	<g>
		<path class="st0" d="M157.2,53.9c-0.3,2.8-2.6,5.4-5.5,7.9c-4.2,3.7-9.9,7.2-13.6,11c-6.3,6.5-8.9,12.1-19.5,8.8
			c-0.3,0.4-0.4,0.5-0.5,0.5c0,0,0,0,0,0c0,0,0,0-0.1,0.1c0-0.1,0-0.1,0-0.2c-0.1,0-0.1,0-0.2,0.1c0.4-0.3-0.4,0.2,0.7-0.5
			c-2.3-4.1-2.8-7.8-2-11.1c1.2-4.8,5.1-8.8,10-11.9C134.5,53.3,151.7,48.6,157.2,53.9z"/>
	</g>
	<g>
		<path class="st1" d="M106.3,115.2l-2-0.5c4.1-16.1,12.4-31.8,24.7-46.5l1.6,1.3C118.4,84,110.2,99.4,106.3,115.2z"/>
	</g>
</g>
</svg>
