<?xml version="1.0" encoding="utf-8"?>
<!-- Generator: Adobe Illustrator 25.4.1, SVG Export Plug-In . SVG Version: 6.00 Build 0)  -->
<svg version="1.1" id="Calque_1" xmlns="http://www.w3.org/2000/svg" xmlns:xlink="http://www.w3.org/1999/xlink" x="0px" y="0px"
	 viewBox="0 0 96.6 108.8" style="enable-background:new 0 0 96.6 108.8;" xml:space="preserve">
<style type="text/css">
	.st0{fill:#73BBC9;}
	.st1{fill:#3899B0;}
</style>
<g>
	<path class="st0" d="M32.5,61.1c0,0-12.6,7.1-16.7,14.9C11.7,83.8,5.4,83,5.6,85c0.2,2,4.3,9.8,6.6,8.3c2.2-1.5,4.1-8.5,8.6-9.5
		c4.6-1,12.9-4.2,17.7-10c4.8-5.8,1.4-5.9,7.7-11.6c3.8-3.5-0.7-8.4-8.5-2C37.8,60.3,35.2,59.4,32.5,61.1z"/>
	<g>
		<path class="st1" d="M23,44.2c0.9-3.8-0.3-7.8-2.3-11.1c-2-3.3-5-5.9-7.4-8.9C9.2,18.9,6.6,11.9,7.1,5.3c0-0.7,0.1-1.4,0.1-2.1
			c-11.2-9.5-7,4.4-2.4,13.6c5.2,10.4,13.5,18.7,13,23.7c-0.2,2.4-0.1,8.2,0.6,13.9c0.2-0.6,0.4-1.2,0.7-1.8
			C20.2,49.8,22.3,47.2,23,44.2z"/>
		<path class="st0" d="M22.5,68.9c4,3.1,11.4,4,15.2,1.4c3.8-2.6-3.5-17.6-4.2-26c-0.7-8.5-1.9-15.3-7.2-19.8
			C21.8,20.8,15.1,11.9,13,9c-0.5-0.7-1-1.3-1.6-1.9c-1.6-1.6-3-2.9-4.2-4c0,0.7-0.1,1.4-0.1,2.1c-0.5,6.6,2.2,13.6,6.3,18.9
			c2.4,3.1,5.4,5.6,7.4,8.9c2,3.3,3.2,7.3,2.3,11.1c-0.8,3.1-2.8,5.6-4.1,8.5c-0.2,0.6-0.5,1.2-0.7,1.8C19,60.9,20.4,67.2,22.5,68.9
			z"/>
	</g>
	<g>
		<path class="st1" d="M54.3,82.4c3.8-0.6,7.7,0.9,10.8,3.2c3.1,2.3,5.4,5.5,8.3,8.1c4.9,4.5,11.6,7.7,18.3,7.8c0.7,0,1.4,0,2.1,0.1
			c8.5,12-4.9,6.6-13.8,1.3c-10-6-17.5-15-22.6-14.9c-2.4,0-8.1-0.6-13.8-1.7c0.6-0.1,1.2-0.3,1.8-0.5
			C48.5,84.8,51.2,82.9,54.3,82.4z"/>
		<path class="st0" d="M29.6,80.9c-2.8-4.2-3.1-11.7-0.2-15.3c2.9-3.6,17.2,5,25.6,6.3c8.4,1.4,15.1,3.2,19.1,8.8
			c3.4,4.7,11.6,12.1,14.4,14.5c0.6,0.5,1.2,1.1,1.7,1.8c1.5,1.7,2.7,3.2,3.6,4.5c-0.7,0-1.4-0.1-2.1-0.1
			c-6.7-0.1-13.4-3.3-18.3-7.8c-2.9-2.6-5.1-5.8-8.3-8.1c-3.1-2.3-7-3.8-10.8-3.2c-3.1,0.5-5.9,2.3-8.8,3.4
			c-0.6,0.2-1.2,0.4-1.8,0.5C37.3,85,31.1,83.1,29.6,80.9z"/>
	</g>
</g>
</svg>
