<?xml version="1.0" encoding="utf-8"?>
<!-- Generator: Adobe Illustrator 25.4.1, SVG Export Plug-In . SVG Version: 6.00 Build 0)  -->
<svg version="1.1" id="Calque_1" xmlns="http://www.w3.org/2000/svg" xmlns:xlink="http://www.w3.org/1999/xlink" x="0px" y="0px"
	 viewBox="0 0 70.3 168.6" style="enable-background:new 0 0 70.3 168.6;" xml:space="preserve">
<style type="text/css">
	.st0{fill:#F26951;}
</style>
<g>
	<g>
		<path class="st0" d="M16.1,74.4c2.5-1.6,11.9-7.2,26.2-10.2c1.1,2.8,3.9,4.9,7.1,4.8c4.2-0.1,7.5-3.5,7.4-7.6
			c-0.1-4.2-3.5-7.5-7.6-7.4c-3.7,0.1-6.7,2.7-7.3,6.2c-11.4,2.3-19.8,6.2-24.5,8.7c3.9-16,9.7-33.5,17.9-50
			c0.7,0.2,1.5,0.4,2.3,0.3c4.2-0.1,7.5-3.5,7.4-7.6c-0.1-4.2-3.5-7.5-7.6-7.4C33.3,4.3,30,7.7,30,11.8c0,1.9,0.7,3.6,1.9,4.9
			c-4,7.9-7.4,16-10.3,24.1c-1.3-7-3.6-17.3-8-26.8c1.5-1.4,2.4-3.4,2.4-5.6C16,4.3,12.6,0.9,8.4,1C4.3,1.1,0.9,4.5,1,8.6
			c0.1,4.2,3.5,7.5,7.6,7.4c0.5,0,0.9-0.1,1.4-0.2c6.4,14.2,8.4,30.8,8.7,33.3C12.9,67.4,9.5,84.8,7.5,98.4
			C3.9,122.9,4,140.7,4,140.8l4.1,0c0-0.2-0.1-17.6,3.5-41.8C12.6,91.8,14.1,83.4,16.1,74.4z"/>
	</g>
</g>
<g>
	<g>
		<path class="st0" d="M31.1,129.1c2-0.2,9.7-0.9,19.7,1.6c-0.2,2.1,1,4.3,3,5.2c2.6,1.2,5.8,0.1,7-2.5c1.2-2.6,0.1-5.8-2.5-7
			c-2.3-1.1-5.1-0.3-6.5,1.7c-7.9-2.1-14.4-2.2-18.2-2c7.4-8.9,16.4-18.2,26.8-26.1c0.4,0.4,0.9,0.7,1.4,0.9c2.6,1.2,5.8,0.1,7-2.5
			c1.2-2.6,0.1-5.8-2.5-7c-2.6-1.2-5.8-0.1-7,2.5c-0.6,1.2-0.6,2.5-0.3,3.6c-5,3.8-9.6,7.9-14,12.1c1.4-4.8,3-12.1,3.2-19.4
			c1.4-0.4,2.6-1.4,3.3-2.8c1.2-2.6,0.1-5.8-2.5-7c-2.6-1.2-5.8-0.1-7,2.5c-1.2,2.6-0.1,5.8,2.5,7c0.3,0.1,0.6,0.3,0.9,0.3
			c-0.3,11-4.2,22.1-4.8,23.8c-9.3,9.7-16.8,19.6-22.3,27.6C8.5,156,3.1,167.2,3,167.3l2.6,1.2c0.1-0.1,5.4-11.2,15.1-25.3
			C23.6,139,27.1,134.1,31.1,129.1z"/>
	</g>
</g>
</svg>
