<?xml version="1.0" encoding="utf-8"?>
<!-- Generator: Adobe Illustrator 25.4.1, SVG Export Plug-In . SVG Version: 6.00 Build 0)  -->
<svg version="1.1" id="Calque_1" xmlns="http://www.w3.org/2000/svg" xmlns:xlink="http://www.w3.org/1999/xlink" x="0px" y="0px"
	 viewBox="0 0 358.5 385.9" style="enable-background:new 0 0 358.5 385.9;" xml:space="preserve">
<style type="text/css">
	.st0{fill:#73BBC9;}
</style>
<path class="st0" d="M319.3,356.4c-8.8,0-17,2.8-23.7,7.6c-15.7-19-43-31.6-74.1-31.6c-23.8,0-45.4,7.4-61.2,19.3
	c-2.1-1.4-4.4-2.6-6.7-3.7c11.9-18.2,25.7-42.3,37.3-70.7c8.4-20.6,14.7-41.2,19-61.6c36.1,14.6,43.8-25.6,43.8-25.6
	s-1.3,6.4-20.4,8.1c-12.6,1.1-19.3,8.1-22.4,12.8c2.3-11.8,3.8-23.5,4.7-35.1c36.9,15.8,44.8-25.2,44.8-25.2s-1.3,6.4-20.4,8.1
	c-16.2,1.4-22.7,12.7-24.3,16c0.3-3.6,0.4-7.2,0.6-10.8c0.3-8.8,0.2-17.6-0.4-26.3c35.9,14.3,43.5-25.7,43.5-25.7s-1.3,6.4-20.4,8.1
	c-14,1.2-20.8,9.8-23.4,14.2c-0.7-9.5-1.9-18.8-3.5-28.1c36.8-1.9,28.4-40.6,28.4-40.6s1.3,6.4-15.6,15.4
	c-8.7,4.6-12.7,11.2-14.5,16.4c-2-9.5-4.5-18.9-7.6-28.1c35.7-16.2,11.7-49.5,11.7-49.5s3.8,5.3-8.1,20.4c-5.7,7.3-7,14.4-6.8,19.8
	C197,53,194.1,46,190.9,39c1.6-38.2-38.5-32.4-38.5-32.4s6.5-0.9,14.3,16.6c5.9,13.2,16.5,16.6,21.4,17.5c3.3,7.3,6.4,14.7,9,22.2
	c-3.9-4.1-11.1-9.2-22.6-9c-19.2,0.4-21.1-5.9-21.1-5.9s11.8,38.8,45.8,21c3.5,10.6,6.4,21.4,8.5,32.2c-3.5-4.3-11-10.8-23.9-10.6
	c-19.2,0.4-21.1-5.9-21.1-5.9s11.9,38.9,45.9,20.9c0,0.1,0,0.2,0.1,0.3c0,0.1,0,0.2,0,0.2c0,0,0,0,0,0c1.6,9,2.8,18,3.5,27.2
	c-3.4-4.3-10.9-11.1-24.1-10.8c-19.2,0.4-21.1-5.9-21.1-5.9s11.8,38.6,45.6,21.1c0.5,8.6,0.6,17.3,0.4,26c-0.1,3-0.2,6-0.4,8.9
	c-3.1-4.2-10.7-11.8-24.7-11.6c-19.2,0.4-21.1-5.9-21.1-5.9s11.8,38.6,45.6,21.1c-0.9,11.8-2.5,23.6-4.9,35.6
	c-1.5-4.3-6.8-14.9-21.5-18.4c-18.7-4.4-19.1-10.9-19.1-10.9s2,41.1,40.2,31.3c-4.2,20.5-10.5,41.2-18.9,61.8
	c-11.6,28.4-25.4,52.6-37.3,70.7c-6.1-2.5-12.6-3.9-19.5-4.3c1.5-16.6,2.2-37.2,0.1-59.7c-1.6-17.5-4.6-34.2-9.1-50
	c30.6-2.9,21.4-33.8,21.4-33.8s1.4,4.9-11.3,13.1c-8.4,5.4-10.6,12.7-11.1,17.1c-2.7-9.1-5.9-17.8-9.5-26.3
	c31.6-2.4,22.2-33.9,22.2-33.9s1.4,4.9-11.3,13.1c-10.9,6.9-11.3,17.1-11.2,20c-1.1-2.6-2.3-5.2-3.5-7.8c-3-6.3-6.3-12.4-9.8-18.3
	c30.3-3,21.2-33.8,21.2-33.8s1.4,4.9-11.3,13.1c-9.4,6-11,14.4-11.2,18.4c-3.9-6.4-8.2-12.5-12.7-18.4c25.1-14.7,5.1-38.8,5.1-38.8
	s3.3,4-5.3,16.5c-4.4,6.4-4.8,12.4-4.2,16.8c-4.9-5.9-10-11.6-15.5-17c19.1-24.3-9.8-38.9-9.8-38.9s4.6,2.4,1.7,17.2
	c-1.4,7.2,0.3,12.6,2.4,16.3c-4.4-4-9-7.9-13.7-11.6c-12.8-27.3-38.7-8.7-38.7-8.7s4.2-3,16.1,6.5c8.9,7.1,17.6,5.6,21.4,4.5
	c5,3.9,9.8,8,14.4,12.3c-4.3-1.5-11.1-2.4-19.1,1.9c-13.3,7.2-16.9,3.6-16.9,3.6s22.4,22.9,39.7-1.9c6.3,6.2,12.2,12.6,17.7,19.5
	c-4-1.7-11.6-3.6-20.6,1.3c-13.3,7.2-16.9,3.6-16.9,3.6s22.4,22.9,39.8-2c0.1,0.1,0.1,0.1,0.2,0.2c0,0.1,0.1,0.1,0.1,0.1
	c0,0,0,0,0,0c4.4,5.7,8.5,11.6,12.3,17.8c-3.9-1.8-11.7-3.8-20.8,1.2c-13.3,7.2-16.9,3.6-16.9,3.6s22.3,22.7,39.6-1.8
	c3.5,5.8,6.7,11.9,9.7,18.1c1,2.1,2,4.3,2.9,6.4c-3.7-1.8-11.8-4.4-21.5,0.9c-13.3,7.2-16.9,3.6-16.9,3.6s22.3,22.7,39.6-1.8
	c3.6,8.6,6.8,17.5,9.5,26.7c-2.6-2.5-10.2-8-21.8-5c-14.7,3.7-17.3-0.7-17.3-0.7s16.4,28.1,39.5,7.3c4.5,15.9,7.6,32.7,9.2,50.2
	c2.1,22.4,1.4,43-0.1,59.5c-0.1,0-0.3,0-0.4,0c-27.4,0-50.6,18.4-57.8,43.5h65.2h50.3h94.1h27.3h51.1
	C353.6,368.9,337.9,356.4,319.3,356.4z"/>
</svg>
