<?xml version="1.0" encoding="utf-8"?>
<!-- Generator: Adobe Illustrator 25.4.1, SVG Export Plug-In . SVG Version: 6.00 Build 0)  -->
<svg version="1.1" id="Calque_1" xmlns="http://www.w3.org/2000/svg" xmlns:xlink="http://www.w3.org/1999/xlink" x="0px" y="0px"
	 viewBox="0 0 227.3 282.4" style="enable-background:new 0 0 227.3 282.4;" xml:space="preserve">
<style type="text/css">
	.st0{fill:#F26951;}
	.st1{fill:#FFFBF5;}
</style>
<g>
	<g>
		<path class="st0" d="M130.9,92.8c6.6-10.9,8-22.2,8-22.2s-9.4,6.4-16,17.3c-6.6,10.9-8,22.2-8,22.2S124.2,103.7,130.9,92.8z"/>
		<path class="st0" d="M97.9,22.6c-4.2-4.7-5.2-0.2-14.6-0.1c-9.5,0-7.6,6.6-9.9,11.9c-2.2,5.3,3.3,13.3,6.4,16
			c3.1,2.7,6.9-0.6,12-0.2c3.4,0.3,5.9-3.3,7.1-5.7c0.5-0.9,0.7-1.8,0.7-2.8c0.1-1.5,3.7-1.9,4.8-4.8C105.8,33.5,102,27.3,97.9,22.6
			z M92.8,38.5c-1.9,2.7-5.7,3.3-8.4,1.4c-2.7-1.9-3.3-5.7-1.4-8.4c1.9-2.7,5.7-3.3,8.4-1.4C94.1,32.1,94.8,35.8,92.8,38.5z"/>
	</g>
	<g>
		<path class="st0" d="M174.8,98.5c0.4,1.2,0.9,2.3,1.7,3.2c2.2,2.6,6.3,6.2,10.4,4.9c6.2-2,11.8,0.9,14.8-3.2
			c3-4.2,7.4-15.6,3.1-21.5c-4.3-5.9-4-14.4-15.6-11.7s-14.2-2.6-17.9,4.4c-3.7,7-6.5,15.7-3.9,19.4
			C169.7,97.3,174.2,96.7,174.8,98.5z"/>
		<path class="st1" d="M177.7,91c-0.1,0.8,0,1.5,0.2,2.2c0.7,1.9,2.2,5,4.8,5.1c4,0.3,6.5,3.2,9.1,1.5c2.6-1.7,7.7-7.2,6.6-11.5
			c-1.1-4.3,1-9.1-6.2-10.2s-7.5-4.7-11.2-1.5c-3.7,3.1-7.2,7.4-6.6,10.2C175.1,89.1,177.7,89.8,177.7,91z"/>
		
			<ellipse transform="matrix(0.7292 -0.6843 0.6843 0.7292 -8.9498 151.7951)" class="st0" cx="187.3" cy="87.2" rx="4.6" ry="4.6"/>
	</g>
	<path class="st0" d="M174.1,247.2c-6.8,0-13.2,1.4-19.1,3.9c-2.3-2.1-4.7-4.1-7.2-6c3.5-10.3,10-35,9.8-77.7
		c-0.1-15.5,2.3-28.3,5.7-38.8c2.9,1.1,8.9,3.1,15.9,3.2c9.8,0.2,17.9-3.3,17.9-3.3s-7.9-3.8-17.7-3.9c-6.6-0.1-12.4,1.4-15.5,2.4
		c1.3-3.7,2.7-7,4.1-10.1c0.5,0.1,1,0.3,1.4,0.3c7.1,1.1,14.1-1.9,17.1-0.1c1.3,0.8,2.8,1.4,4.3,1.5c5.7,0.5,17.3,0.3,21-7.4
		c5-10.5,15.8-14.3,14.1-23.3c-1.7-9.1-11.2-29-24.2-30.7c-12.9-1.7-23.7-12.7-34.6,5.8c-10.8,18.5-21,15.3-16.4,28.9
		c3.7,11,8.2,19.9,14.1,23.7c-2.7,5.7-5.1,12.3-7,20c-0.5-3.3-1.4-7.5-3.2-11.8c-3.8-9-10.3-15-10.3-15s-0.2,8.7,3.6,17.8
		c2.7,6.4,6.7,11.2,8.9,13.5c-1.6,8-2.6,17.1-2.5,27.3c0.2,40.8-5.9,65.3-9.4,75.8c-9.6-6.3-21-10.2-33.1-11
		c-2-20.6-2.6-50.8,3.1-88.2c5.6-37.3-0.9-64.4-9-82.3c2,0.2,4.1,0.1,6.2-1c7-3.6,9.8-18.8,9.8-32.4c0.1-13.6-8.1-7.7-23.4-21.1
		c-15.3-13.5-21.7-0.4-32.9,5S52.1,38.5,53.3,47.1c1.2,8.7,12,8.9,19.7,16.8c5.2,5.4,14.3,3.1,19.6,1.1c2-0.7,3.7-2,5.2-3.5
		c0.8-0.7,1.9-0.8,3.3-0.6c3.7,7.8,7.3,17.6,9.6,29.5c-3.8-1.9-10.9-5-19.5-6c-12.7-1.6-23.5,1.7-23.5,1.7s9.7,6,22.3,7.6
		c9.1,1.2,17.2-0.2,21.1-1.1c2.4,14.1,3,31,0,50.8c-5.6,37.4-5.1,67.8-3.1,88.6c-0.2,0-0.4,0-0.6,0c-17.6,0-33.7,6.6-45.9,17.4
		c-4.7-1.5-9.6-2.3-14.8-2.3C24.5,247.2,5.8,262,0,282.4h40.7h52.7h34h46.7h46.7C215,262,196.3,247.2,174.1,247.2z M161.9,78.4
		c1.5-10.4,7-4.9,20.2-13.5c13.1-8.6,16.6,2.1,24.5,7.5c7.9,5.3,7.6,21.5,5.8,28c-1.8,6.5-10.2,5.4-16.9,10.7
		c-4.5,3.5-11.2,0.8-15.1-1.4c-1.4-0.8-2.6-1.9-3.6-3.2c-1.6-2-6.9,0.7-11-2.2C160.9,100.7,160.5,88.7,161.9,78.4z M101.9,51.9
		c-0.7,1.4-1.6,2.8-2.8,3.8c-3.3,2.9-9.2,6.8-14.3,4.3c-7.6-3.7-15.4-1-18.4-6.9c-3.1-5.9-6.6-21.4,0-28.2
		c6.6-6.7,7.8-17.8,22.2-12.1c14.4,5.7,18.7-0.7,22.2,9c3.5,9.7,5.4,21.3,1.4,25.7C108.7,51.2,103.1,49.6,101.9,51.9z"/>
</g>
</svg>
