<?xml version="1.0" encoding="utf-8"?>
<!-- Generator: Adobe Illustrator 25.4.1, SVG Export Plug-In . SVG Version: 6.00 Build 0)  -->
<svg version="1.1" id="Calque_1" xmlns="http://www.w3.org/2000/svg" xmlns:xlink="http://www.w3.org/1999/xlink" x="0px" y="0px"
	 viewBox="0 0 282.9 234" style="enable-background:new 0 0 282.9 234;" xml:space="preserve">
<style type="text/css">
	.st0{fill:#73BBC9;}
	.st1{fill:#58ACBF;}
	.st2{fill:#3B3E54;}
</style>
<g>
	<path class="st0" d="M125.2,182.4c-2.8,4.3-8.9,5.5-18.3,0.2c-9.4-5.3-15.7-19.5-15.7-19.5s16.4-1.3,25.8,4.1
		C126.4,172.5,127.9,178.1,125.2,182.4z"/>
	<path class="st0" d="M96.9,185.7c-2.8,4.3-8.9,5.5-18.3,0.2c-9.4-5.3-15.7-19.5-15.7-19.5s16.4-1.3,25.8,4.1
		C98.1,175.8,99.7,181.5,96.9,185.7z"/>
	<path class="st0" d="M123.7,213.2c2.6,2.3,2.8,6.6-1.8,12.3c-4.6,5.7-14.8,8.5-14.8,8.5s0.9-11.2,5.5-16.9
		C117.1,211.3,121.1,210.8,123.7,213.2z"/>
	<path class="st1" d="M150,194.8c0,0-1.9,10.1-12.7,18.1c-6.3,4.6-15.8,8.5-29.7,9.2c-26.1,1.2-61.3-9.2-80.4-15.8
		c-5.3-1.8-5.6-9.1-0.5-11.4c18.5-8.3,52.4-22,78.6-23.2c13.9-0.7,23.7,2.3,30.4,6.4C147.2,184.9,150,194.8,150,194.8z"/>
	<path class="st0" d="M151.5,194.7c0,0-3.6,14.7-23.7,26.4c-6.2-4.8-10.7-14-11.2-24.7c-0.5-10.8,3.1-20.4,8.9-25.7
		C146.5,180.4,151.5,194.7,151.5,194.7z"/>
	<path class="st1" d="M125.9,194.1c-0.2-3.7,2.6-6.7,6.3-6.9c3.7-0.2,6.7,2.6,6.9,6.3c0.2,3.7-2.6,6.7-6.3,6.9
		C129.2,200.6,126.1,197.8,125.9,194.1z"/>
	<path class="st2" d="M129.3,194c-0.1-1.7,1.3-3.2,3-3.3c1.7-0.1,3.2,1.3,3.3,3c0.1,1.7-1.3,3.2-3,3.3
		C130.9,197,129.4,195.7,129.3,194z"/>
	<g>
		<path class="st0" d="M32.3,199.9c-3.9,4-10.6,4.1-19.6-3.6C3.8,188.7,0,172.2,0,172.2s17.8,2,26.7,9.7
			C35.6,189.6,36.2,195.9,32.3,199.9z"/>
		<path class="st0" d="M32.3,200.7c-4.2-3.6-11-3.1-19.1,5.4C5,214.5,2.8,231.3,2.8,231.3s17.5-3.7,25.7-12.1
			C36.6,210.7,36.6,204.3,32.3,200.7z"/>
	</g>
</g>
<g>
	<path class="st0" d="M231.2,101.5c-2.2,3.4-7.1,4.4-14.6,0.2c-7.5-4.3-12.5-15.6-12.5-15.6s13.1-1,20.6,3.3
		C232.2,93.6,233.4,98.1,231.2,101.5z"/>
	<path class="st0" d="M208.6,104.2c-2.2,3.4-7.1,4.4-14.6,0.2c-7.5-4.3-12.5-15.6-12.5-15.6s13.1-1,20.6,3.3
		C209.6,96.3,210.9,100.8,208.6,104.2z"/>
	<path class="st0" d="M230,126.1c2.1,1.9,2.2,5.2-1.4,9.8c-3.7,4.6-11.8,6.8-11.8,6.8s0.7-8.9,4.4-13.5
		C224.8,124.6,228,124.2,230,126.1z"/>
	<path class="st1" d="M251.1,111.4c0,0-1.5,8.1-10.1,14.4c-5.1,3.7-12.6,6.8-23.7,7.3c-20.9,1-48.9-7.4-64.2-12.6
		c-4.2-1.4-4.5-7.3-0.4-9.1c14.7-6.6,41.9-17.6,62.7-18.6c11.1-0.5,18.9,1.9,24.3,5.1C248.8,103.5,251.1,111.4,251.1,111.4z"/>
	<path class="st0" d="M252.2,111.4c0,0-2.9,11.7-18.9,21.1c-5-3.8-8.6-11.2-9-19.8c-0.4-8.6,2.5-16.3,7.1-20.5
		C248.3,99.9,252.2,111.4,252.2,111.4z"/>
	<path class="st1" d="M231.8,110.9c-0.1-2.9,2.1-5.4,5-5.5c2.9-0.1,5.4,2.1,5.5,5c0.1,2.9-2.1,5.4-5,5.5
		C234.4,116.1,231.9,113.8,231.8,110.9z"/>
	<path class="st2" d="M234.5,110.8c-0.1-1.4,1-2.6,2.4-2.6c1.4-0.1,2.6,1,2.6,2.4c0.1,1.4-1,2.6-2.4,2.6
		C235.8,113.2,234.6,112.2,234.5,110.8z"/>
	<g>
		<path class="st0" d="M157.1,115.5c-3.1,3.2-8.5,3.3-15.6-2.8c-7.1-6.1-10.2-19.3-10.2-19.3s14.2,1.6,21.3,7.7
			C159.7,107.3,160.1,112.4,157.1,115.5z"/>
		<path class="st0" d="M157.1,116.1c-3.4-2.9-8.8-2.5-15.3,4.3c-6.5,6.7-8.3,20.1-8.3,20.1s14-3,20.5-9.7
			C160.5,124.1,160.4,119,157.1,116.1z"/>
	</g>
</g>
<circle class="st0" cx="253.7" cy="54.6" r="9.3"/>
<circle class="st0" cx="272.3" cy="73.8" r="6.2"/>
<circle class="st0" cx="259.4" cy="92.3" r="3.6"/>
<circle class="st0" cx="263.8" cy="15.8" r="12.3"/>
</svg>
