<?xml version="1.0" encoding="utf-8"?>
<!-- Generator: Adobe Illustrator 25.4.1, SVG Export Plug-In . SVG Version: 6.00 Build 0)  -->
<svg version="1.1" id="Calque_1" xmlns="http://www.w3.org/2000/svg" xmlns:xlink="http://www.w3.org/1999/xlink" x="0px" y="0px"
	 viewBox="0 0 132.7 123.3" style="enable-background:new 0 0 132.7 123.3;" xml:space="preserve">
<style type="text/css">
	.st0{fill:#F26951;}
</style>
<path class="st0" d="M33.9,122.3C33.3,108.7,17.6,90,1,89.4c16.6-1.6,31.9-18,32.9-32.9c0.7,14.8,16.8,31.7,32.9,32.9
	C50.8,90.3,34.9,108.4,33.9,122.3z"/>
<path class="st0" d="M87.3,42.7C86.9,34,77,22.2,66.5,21.8C77,20.8,86.6,10.4,87.3,1c0.4,9.3,10.6,20,20.8,20.8
	C98,22.4,87.9,33.9,87.3,42.7z"/>
<path class="st0" d="M118.5,66.9c-0.3-5.5-6.5-12.9-13.2-13.2c6.6-0.6,12.7-7.2,13.2-13.2c0.3,5.9,6.7,12.7,13.2,13.2
	C125.2,54.1,118.9,61.4,118.5,66.9z"/>
</svg>
