<?xml version="1.0" encoding="utf-8"?>
<!-- Generator: Adobe Illustrator 25.4.1, SVG Export Plug-In . SVG Version: 6.00 Build 0)  -->
<svg version="1.1" id="Calque_1" xmlns="http://www.w3.org/2000/svg" xmlns:xlink="http://www.w3.org/1999/xlink" x="0px" y="0px"
	 viewBox="0 0 170.7 97.9" style="enable-background:new 0 0 170.7 97.9;" xml:space="preserve">
<style type="text/css">
	.st0{fill:url(#SVGID_1_);}
	.st1{fill:#FFFFFF;}
</style>
<g>
	<linearGradient id="SVGID_1_" gradientUnits="userSpaceOnUse" x1="7.0631" y1="73.2594" x2="91.2972" y2="24.6269">
		<stop  offset="0" style="stop-color:#EC6952"/>
		<stop  offset="0.4469" style="stop-color:#EC6952"/>
		<stop  offset="0.5" style="stop-color:#EC6952"/>
		<stop  offset="0.8768" style="stop-color:#BA4228"/>
		<stop  offset="1" style="stop-color:#A83519"/>
	</linearGradient>
	<circle class="st0" cx="49.2" cy="48.9" r="48.6"/>
	<path class="st1" d="M56.7,49.4c0.1-2.6,0.3-5.1,0.6-7.7c0-0.1,0.1-0.3,0.1-0.4c1.9-15.3,6.8-30,9.4-37.6c-0.8-0.3-1.5-0.6-2.3-0.8
		c-1,2.9-2.3,6.7-3.6,11.2c-1-2.1-2.4-3.9-3.7-5.5c-2.1-2.7-4-5.1-3.6-8c0,0,0,0,0,0c-0.8-0.1-1.6-0.1-2.5-0.2
		c-0.4,3.9,1.9,6.8,4.1,9.7c2,2.5,4,5.1,4.4,8.3c0,0,0,0,0,0c-0.6,2.3-1.3,4.8-1.9,7.3c-1.7-4.7-5-8.7-8-12.5C46.3,9,43,5,43.3,1.4
		c0-0.2-0.1-0.5-0.2-0.7c-0.8,0.1-1.5,0.2-2.3,0.3c0,0,0,0.1,0,0.1c-0.4,4.6,3.2,9,6.9,13.6c3.9,4.9,8.4,10.4,8.7,16.7
		c-0.3,1.4-0.5,2.7-0.7,4.1c-2.2-4.6-5.9-8.1-9.8-11.7c-5.7-5.3-11.5-10.8-13.5-20.7c-0.8,0.3-1.6,0.6-2.3,0.9
		c2.2,10.4,8.5,16.3,14.1,21.6c4.9,4.5,9.4,8.8,10.7,15.5c-0.2,1.3-0.3,2.5-0.4,3.8c-2.9-4-7.7-8.1-12.7-12.4
		c-8.2-7-17.4-14.8-19.9-23.8c0,0,0-0.1-0.1-0.1c-0.7,0.5-1.4,1-2.1,1.5c2.9,9.4,12.2,17.3,20.4,24.3c6.3,5.4,12.3,10.4,14,15.1
		c-0.1,2.2-0.1,4.5,0,6.7c-7.4-2.1-14.8-9.3-22-16.3C24,31.8,16.1,24.2,7.8,23.4c-0.5,0.7-0.9,1.5-1.3,2.3c0.1,0.1,0.3,0.1,0.5,0.1
		c7.6,0.4,15.3,7.9,23.5,15.9C38.2,49.2,46.1,57,54.4,59c0.2,1.9,0.4,3.7,0.7,5.5c-3.2-1.9-7.3-3-12-4.2c-4.1-1.1-8.3-2.1-12.5-4
		c-4.1-1.8-7.5-5-11-8.4c-4.9-4.6-9.9-9.4-17.3-11.3c-0.1,0-0.1,0-0.2,0c-0.2,0.8-0.4,1.6-0.6,2.4c0,0,0.1,0,0.1,0
		c6.8,1.7,11.6,6.3,16.2,10.7c3.7,3.6,7.3,6.9,11.8,8.9c4.4,1.9,8.9,3.1,12.9,4.1c5.6,1.5,10.5,2.7,13.4,5.5
		c0.3,1.3,0.7,2.5,1.1,3.7c0.2,0.5,0.4,0.9,0.9,0.9c0.1,0,0.7-0.4,0.8-0.5c0.4-0.4,0.8-0.6,0.6-1.2c-2.3-6.6-2.9-14-2.6-21.5
		C56.8,49.5,56.8,49.4,56.7,49.4z"/>
	<path class="st1" d="M92.4,41.8c0-5.6-4.7-12.7-9.9-12.7c-1.9,0-5.2,1.9-7.8,7.2L73,39.6l0.6-3.6c0.7-4,3.3-13.7,4.9-19.6
		c0.2-0.9,1.1-3.3,1.6-5c-1.7-1.4-3.4-2.6-5.2-3.8c-2.5,6.8-9.4,37.1-9.4,48.4c0.1,10.5,4.7,16.2,13.1,16.1
		C88.9,72.2,92.4,48,92.4,41.8z M75.4,67.1c-2.7,0-4.4-2.4-4.4-6.3c0-4.5,0.5-7.7,0.7-8.9c0-0.2,0.1-0.4,0.1-0.4l0.1-0.6l0.7,0.1
		l0.6,0.1c0.7-2.7,4.8-18,11.1-18c0.7,0,1.3,0.2,1.8,0.6c1,0.9,1,2.8,1.1,4.5l0,0.2C87.1,38.7,86,67,75.4,67.1z"/>
	<g>
		<g>
			<path class="st1" d="M106.5,84.1c0,0.1,0,0.1,0,0.2s0,0.2-0.1,0.3c0,0.1-0.1,0.2-0.1,0.2c0,0.1-0.1,0.1-0.2,0.1
				c-0.1,0-0.2,0-0.3-0.1c-0.1-0.1-0.2-0.1-0.4-0.2c-0.1-0.1-0.3-0.1-0.5-0.2c-0.2-0.1-0.5-0.1-0.7-0.1c-0.3,0-0.5,0-0.7,0.1
				c-0.2,0.1-0.4,0.2-0.5,0.3c-0.1,0.1-0.2,0.3-0.3,0.5c-0.1,0.2-0.1,0.3-0.1,0.5c0,0.2,0.1,0.5,0.2,0.6c0.2,0.2,0.4,0.3,0.6,0.4
				c0.2,0.1,0.5,0.3,0.8,0.4c0.3,0.1,0.6,0.3,0.8,0.5c0.2,0.2,0.4,0.4,0.6,0.7c0.2,0.3,0.2,0.6,0.2,1c0,0.4-0.1,0.8-0.3,1.2
				c-0.2,0.4-0.4,0.7-0.7,1s-0.7,0.5-1.1,0.6c-0.4,0.2-0.9,0.2-1.5,0.2c-0.3,0-0.6,0-0.8-0.1c-0.3,0-0.5-0.1-0.7-0.2
				c-0.2-0.1-0.4-0.1-0.5-0.2c-0.1-0.1-0.3-0.2-0.3-0.2c0,0-0.1-0.1-0.1-0.2c0-0.1,0-0.1,0-0.2c0,0,0-0.1,0-0.2c0-0.1,0-0.1,0-0.2
				c0-0.1,0-0.1,0.1-0.2c0-0.1,0-0.1,0.1-0.2c0-0.1,0.1-0.1,0.1-0.1c0,0,0.1-0.1,0.1-0.1c0.1,0,0.2,0,0.3,0.1s0.2,0.2,0.4,0.3
				c0.2,0.1,0.4,0.2,0.6,0.3c0.3,0.1,0.6,0.1,0.9,0.1c0.3,0,0.6,0,0.9-0.1c0.2-0.1,0.4-0.2,0.6-0.3c0.2-0.1,0.3-0.3,0.4-0.5
				c0.1-0.2,0.1-0.4,0.1-0.6c0-0.3-0.1-0.5-0.2-0.6c-0.2-0.2-0.4-0.3-0.6-0.4c-0.2-0.1-0.5-0.3-0.8-0.4c-0.3-0.1-0.5-0.3-0.8-0.5
				c-0.2-0.2-0.4-0.4-0.6-0.6s-0.2-0.6-0.2-1c0-0.4,0.1-0.8,0.2-1.1c0.2-0.3,0.4-0.6,0.7-0.9c0.3-0.3,0.6-0.5,1.1-0.6
				c0.4-0.1,0.9-0.2,1.4-0.2c0.2,0,0.5,0,0.7,0.1c0.2,0,0.4,0.1,0.6,0.1c0.2,0.1,0.3,0.1,0.5,0.2c0.1,0.1,0.2,0.1,0.3,0.2
				C106.5,83.9,106.5,84,106.5,84.1z"/>
			<path class="st1" d="M116.3,92c0,0,0,0.1-0.1,0.1c0,0-0.1,0.1-0.1,0.1c-0.1,0-0.1,0-0.2,0.1c-0.1,0-0.2,0-0.3,0
				c-0.1,0-0.2,0-0.3,0c-0.1,0-0.1,0-0.2-0.1c0,0-0.1-0.1-0.1-0.1c0,0,0-0.1,0-0.1l0.3-1.6c-0.1,0.2-0.3,0.4-0.5,0.7
				c-0.2,0.2-0.5,0.4-0.7,0.6c-0.3,0.2-0.6,0.4-0.9,0.5c-0.3,0.1-0.7,0.2-1,0.2c-0.4,0-0.8-0.1-1.1-0.2c-0.3-0.1-0.5-0.3-0.7-0.5
				c-0.2-0.2-0.3-0.4-0.4-0.7c-0.1-0.3-0.1-0.6-0.1-0.9c0-0.2,0-0.4,0-0.6c0-0.2,0.1-0.4,0.1-0.6l1-5.2c0,0,0-0.1,0.1-0.1
				c0,0,0.1-0.1,0.1-0.1c0.1,0,0.1,0,0.2-0.1c0.1,0,0.2,0,0.4,0s0.3,0,0.4,0c0.1,0,0.2,0,0.2,0.1c0.1,0,0.1,0.1,0.1,0.1
				c0,0,0,0.1,0,0.1l-1,5.1c0,0.2-0.1,0.3-0.1,0.5c0,0.2,0,0.3,0,0.5c0,0.2,0,0.4,0.1,0.5c0,0.2,0.1,0.3,0.2,0.4
				c0.1,0.1,0.2,0.2,0.3,0.3c0.1,0.1,0.3,0.1,0.5,0.1c0.3,0,0.7-0.1,1-0.3c0.3-0.2,0.7-0.4,1-0.8c0.3-0.3,0.6-0.7,0.8-1.2
				c0.2-0.5,0.4-1,0.5-1.5l0.7-3.7c0,0,0-0.1,0.1-0.1c0,0,0.1-0.1,0.1-0.1c0.1,0,0.1,0,0.2-0.1c0.1,0,0.2,0,0.4,0s0.3,0,0.4,0
				c0.1,0,0.2,0,0.2,0.1c0.1,0,0.1,0.1,0.1,0.1c0,0,0,0.1,0,0.1L116.3,92z"/>
			<path class="st1" d="M127.9,92c0,0.1-0.1,0.2-0.2,0.2c-0.1,0-0.3,0.1-0.6,0.1c-0.1,0-0.2,0-0.3,0c-0.1,0-0.1,0-0.2-0.1
				c0,0-0.1,0-0.1-0.1c0,0,0-0.1,0-0.1l0.3-1.5c-0.1,0.2-0.2,0.4-0.4,0.7c-0.2,0.2-0.5,0.4-0.7,0.6c-0.3,0.2-0.6,0.4-1,0.5
				c-0.3,0.1-0.7,0.2-1.1,0.2c-0.4,0-0.7,0-0.9-0.1c-0.3-0.1-0.5-0.2-0.7-0.4c-0.2-0.2-0.3-0.3-0.4-0.6c-0.1-0.2-0.2-0.4-0.3-0.7
				c-0.1-0.2-0.1-0.5-0.1-0.7c0-0.2,0-0.4,0-0.6c0-0.4,0-0.8,0.1-1.2c0.1-0.4,0.2-0.9,0.3-1.3c0.1-0.4,0.3-0.9,0.6-1.3
				c0.2-0.4,0.5-0.8,0.8-1.1c0.3-0.3,0.7-0.6,1.1-0.8s0.9-0.3,1.5-0.3c0.3,0,0.5,0,0.7,0.1s0.4,0.1,0.6,0.2c0.2,0.1,0.4,0.2,0.5,0.4
				c0.2,0.1,0.3,0.3,0.4,0.4l0.9-4.7c0,0,0-0.1,0.1-0.1c0,0,0.1-0.1,0.1-0.1c0.1,0,0.1,0,0.2-0.1s0.2,0,0.4,0c0.1,0,0.3,0,0.4,0
				c0.1,0,0.2,0,0.2,0.1c0.1,0,0.1,0.1,0.1,0.1c0,0,0,0.1,0,0.1L127.9,92z M127.6,85.9c-0.3-0.4-0.6-0.7-0.9-1
				c-0.3-0.2-0.7-0.3-1.1-0.3c-0.3,0-0.6,0.1-0.9,0.2c-0.3,0.2-0.5,0.4-0.7,0.6c-0.2,0.3-0.4,0.5-0.5,0.9c-0.2,0.3-0.3,0.7-0.4,1
				c-0.1,0.3-0.2,0.7-0.2,1c0,0.3-0.1,0.6-0.1,0.9c0,0.6,0.1,1.1,0.3,1.4c0.2,0.3,0.5,0.5,1,0.5c0.3,0,0.7-0.1,1-0.3
				c0.3-0.2,0.7-0.4,1-0.8c0.3-0.3,0.6-0.7,0.8-1.2c0.2-0.4,0.4-0.9,0.5-1.5L127.6,85.9z"/>
		</g>
	</g>
	<path class="st1" d="M107.1,19.6c0,3.4,2,4.5,2.9,4.5c5.2,0,6.3-5.1,6.3-6.8c0-1.9-1.1-2.7-2.2-3.2l-0.3-0.2l0.1-0.4
		c0.2-0.9,0.2-1.6-0.1-1.9c-0.3-0.4-0.9-0.5-2.1-0.5C108.1,11.1,107,17.3,107.1,19.6z"/>
	<path class="st1" d="M133,28.4c-1.9,0-5.2,1.9-7.8,7.2l-1.7,3.3l0.6-3.6c0.7-4,3.3-13.7,4.9-19.6c0.4-1.3,0.7-2.4,0.8-3.1
		c-0.2-0.5-3.1-2.1-5.1-2.2c-1.8,2.3-8.7,32.5-8.7,44.9c0,0.9,0.1,1.8,0.2,2.9l0,0.1l0,0.1c-0.6,3.8-2.4,10.2-7.4,10.2
		c-1.5,0-3.2-1.3-3.2-4.9c-0.1-6.5,3.9-22.5,6.4-30.9c0.1-0.3,0-0.5-0.1-0.8c-0.8-1-3.5-1.4-5.7-1.5l0,0c-0.6,0-0.9,0.2-1,0.7
		c-1.7,5.5-5.7,23.7-5.6,32.1c0,6.1,2.4,9.1,7,9.1c6.1,0,9.1-3.8,10.6-7l0.5-1l0.5,1c2.1,4.2,5.9,6.3,11,6.3
		c10.3-0.1,13.8-24.3,13.7-30.5C142.9,35.4,138.2,28.3,133,28.4z M137.6,37.7c0,0.3-1.1,28.6-11.7,28.7c-2.7,0-4.4-2.4-4.4-6.3
		c0-4.5,0.5-7.7,0.7-8.9c0-0.2,0.1-0.4,0.1-0.4l0.1-0.6l0.7,0.1l0.6,0.1c0.7-2.7,4.9-18,11.1-18c0.7,0,1.3,0.2,1.8,0.6
		c1,0.9,1,2.8,1.1,4.5L137.6,37.7z"/>
	<path class="st1" d="M156.5,72.4c9.6-0.1,13.6-11.1,13.6-16.8c0-1.9-1-3-2-3c-0.6,0-0.6,0.2-0.7,0.4c0,4.8-5.3,14.5-12.5,14.5
		c-4.3,0-6.5-2.2-6.5-6.4c0-5.9,1.5-9.8,1.5-10l0.5-1.3l0.5,1.2c0,0.1,1.2,2.8,4.5,2.7c6.9,0,9.2-9.4,9.2-17.5
		c0-6.2-3.4-8.4-6.6-8.4c-6.9,0-14.1,18-14,30.7C144.2,67.7,150.4,72.5,156.5,72.4z M151,48c0.9-5.5,3.4-11.6,5.4-15.5
		c0.3-0.7,0.9-1.6,1.8-1.6c1.1,0,1.6,1.1,1.6,3.9c0,6.3-2.3,15.5-6.1,15.5c-1.7,0-2.5-1.4-2.7-2.2L151,48L151,48z"/>
</g>
</svg>
