<?xml version="1.0" encoding="utf-8"?>
<!-- Generator: Adobe Illustrator 26.0.3, SVG Export Plug-In . SVG Version: 6.00 Build 0)  -->
<svg version="1.1" id="Calque_1" xmlns="http://www.w3.org/2000/svg" xmlns:xlink="http://www.w3.org/1999/xlink" x="0px" y="0px"
	 viewBox="0 0 173.2 100.9" style="enable-background:new 0 0 173.2 100.9;" xml:space="preserve">
<style type="text/css">
	.st0{fill:url(#SVGID_1_);}
	.st1{fill:#FFFFFF;}
</style>
<g>
	<linearGradient id="SVGID_1_" gradientUnits="userSpaceOnUse" x1="8.2977" y1="75.2721" x2="93.0839" y2="26.3208">
		<stop  offset="0" style="stop-color:#EC6952"/>
		<stop  offset="0.4469" style="stop-color:#EC6952"/>
		<stop  offset="0.5" style="stop-color:#EC6952"/>
		<stop  offset="0.8768" style="stop-color:#BA4228"/>
		<stop  offset="1" style="stop-color:#A83519"/>
	</linearGradient>
	<circle class="st0" cx="50.7" cy="50.8" r="48.9"/>
	<path class="st1" d="M58.3,51.2c0.1-2.6,0.3-5.2,0.6-7.8c0-0.1,0.1-0.3,0.1-0.4c1.9-15.4,6.9-30.2,9.5-37.8
		c-0.8-0.3-1.6-0.6-2.4-0.8c-1,2.9-2.3,6.8-3.7,11.3c-1-2.1-2.4-3.9-3.7-5.5c-2.1-2.7-4-5.1-3.6-8c0,0,0,0,0,0
		c-0.8-0.1-1.7-0.1-2.5-0.2c-0.4,3.9,1.9,6.9,4.2,9.8c2,2.5,4,5.1,4.4,8.4c0,0,0,0,0,0c-0.6,2.3-1.3,4.8-1.9,7.4
		c-1.7-4.7-5-8.8-8.1-12.5c-3.5-4.3-6.7-8.3-6.4-12c0-0.2-0.1-0.5-0.2-0.7c-0.8,0.1-1.5,0.2-2.3,0.3c0,0,0,0.1,0,0.1
		c-0.4,4.6,3.2,9,7,13.7c4,4.9,8.4,10.5,8.8,16.9c-0.3,1.4-0.5,2.7-0.8,4.1c-2.2-4.7-6-8.2-9.9-11.8c-5.7-5.3-11.6-10.8-13.6-20.8
		c-0.8,0.3-1.6,0.6-2.4,0.9c2.2,10.5,8.6,16.4,14.2,21.7c4.9,4.6,9.5,8.9,10.8,15.6c-0.2,1.3-0.3,2.5-0.4,3.8
		c-2.9-4.1-7.7-8.2-12.8-12.5c-8.2-7-17.6-14.9-20-24c0,0,0-0.1-0.1-0.1c-0.7,0.5-1.4,1-2.1,1.5c2.9,9.4,12.3,17.4,20.6,24.5
		C48,41.7,54,46.8,55.8,51.4c-0.1,2.3-0.1,4.5,0,6.7c-7.5-2.1-14.9-9.4-22.2-16.4C25.3,33.6,17.4,25.9,9.1,25
		c-0.5,0.8-0.9,1.5-1.3,2.3c0.1,0.1,0.3,0.1,0.5,0.1c7.7,0.4,15.4,8,23.7,16C39.6,51,47.6,58.9,56,60.9c0.2,1.9,0.4,3.7,0.7,5.5
		c-3.2-1.9-7.4-3-12-4.2c-4.1-1.1-8.4-2.2-12.6-4c-4.1-1.8-7.5-5-11.1-8.4C16,45.1,11,40.3,3.5,38.4c-0.1,0-0.1,0-0.2,0
		c-0.2,0.8-0.4,1.6-0.6,2.4c0,0,0.1,0,0.1,0c6.8,1.7,11.7,6.3,16.3,10.8c3.8,3.6,7.3,7,11.8,8.9c4.4,1.9,9,3.1,13,4.1
		c5.7,1.5,10.6,2.7,13.5,5.5c0.3,1.3,0.7,2.5,1.1,3.7c0.2,0.5,0.4,0.9,1,0.9c0.1,0,0.7-0.4,0.8-0.5c0.4-0.4,0.8-0.6,0.6-1.2
		C58.7,66.5,58,59,58.3,51.4C58.3,51.4,58.3,51.3,58.3,51.2z"/>
	<path class="st1" d="M94.2,43.6c0-5.7-4.7-12.8-10-12.8c-2,0-5.2,1.9-7.9,7.3l-1.7,3.3l0.6-3.6c0.7-4.1,3.4-13.8,5-19.7
		c0.2-0.9,1.1-3.3,1.7-5.1c-1.7-1.4-3.4-2.6-5.3-3.8C74,16.1,67.1,46.6,67.2,58c0.1,10.5,4.7,16.3,13.2,16.2
		C90.7,74.2,94.2,49.8,94.2,43.6z M77,69.1c-2.7,0-4.4-2.4-4.5-6.3c0-4.6,0.5-7.8,0.8-9c0-0.2,0.1-0.4,0.1-0.4l0.1-0.6l0.7,0.1
		l0.6,0.1c0.7-2.7,4.9-18.1,11.1-18.2c0.7,0,1.4,0.2,1.8,0.6c1,1,1.1,2.8,1.1,4.6l0,0.2C88.8,40.5,87.8,69,77,69.1z"/>
	<path class="st1" d="M108.9,21.2c0,3.5,2,4.6,3,4.6c5.2,0,6.4-5.1,6.3-6.9c0-2-1.1-2.7-2.2-3.3l-0.4-0.2l0.1-0.4
		c0.2-0.9,0.2-1.6-0.1-1.9c-0.3-0.4-0.9-0.5-2.1-0.5C110,12.7,108.9,19,108.9,21.2z"/>
	<path class="st1" d="M135.1,30.1c-2,0-5.2,1.9-7.9,7.3l-1.7,3.3l0.6-3.6c0.7-4.1,3.4-13.8,5-19.7c0.4-1.3,0.7-2.4,0.9-3.1
		c-0.2-0.5-3.1-2.1-5.1-2.2c-1.8,2.4-8.8,32.7-8.7,45.2c0,0.9,0.1,1.9,0.2,2.9l0,0.1l0,0.1c-0.6,3.8-2.5,10.2-7.5,10.3
		c-1.5,0-3.2-1.3-3.2-5c-0.1-6.6,4-22.7,6.4-31.1c0.1-0.3,0-0.5-0.1-0.8c-0.8-1-3.6-1.4-5.7-1.5l0,0c-0.6,0-0.9,0.2-1,0.7
		c-1.7,5.6-5.7,23.8-5.7,32.3c0,6.1,2.4,9.2,7.1,9.2c6.1,0,9.2-3.9,10.7-7.1l0.5-1.1l0.5,1c2.2,4.2,5.9,6.3,11.1,6.3
		c10.4-0.1,13.9-24.4,13.8-30.7C145,37.2,140.3,30,135.1,30.1z M139.7,39.5c0,0.3-1.1,28.8-11.8,28.9c-2.7,0-4.4-2.4-4.5-6.3
		c0-4.6,0.5-7.8,0.8-9c0-0.2,0.1-0.4,0.1-0.4l0.1-0.6l0.7,0.1l0.6,0.1c0.7-2.7,4.9-18.1,11.1-18.2c0.7,0,1.4,0.2,1.8,0.6
		c1,0.9,1.1,2.8,1.1,4.6L139.7,39.5z"/>
	<path class="st1" d="M158.8,74.4c9.6-0.1,13.7-11.2,13.7-16.9c0-1.9-1-3.1-2-3.1c-0.6,0-0.7,0.2-0.7,0.4c0,4.8-5.4,14.6-12.5,14.6
		c-4.3,0-6.6-2.2-6.6-6.5c0-6,1.5-9.9,1.5-10l0.5-1.3l0.5,1.3c0,0.1,1.2,2.8,4.5,2.8c6.9,0,9.3-9.5,9.2-17.6c0-6.3-3.4-8.5-6.6-8.5
		c-6.9,0-14.2,18.2-14.1,30.9C146.3,69.7,152.6,74.5,158.8,74.4z M153.2,49.9c1-5.6,3.4-11.7,5.4-15.6c0.3-0.7,0.9-1.6,1.8-1.6
		c1.1,0,1.6,1.1,1.6,3.9c0,6.4-2.3,15.6-6.1,15.6c-1.7,0-2.5-1.4-2.7-2.2L153.2,49.9L153.2,49.9z"/>
</g>
</svg>
