<?xml version="1.0" encoding="utf-8"?>
<!-- Generator: Adobe Illustrator 26.0.3, SVG Export Plug-In . SVG Version: 6.00 Build 0)  -->
<svg version="1.1" id="Calque_1" xmlns="http://www.w3.org/2000/svg" xmlns:xlink="http://www.w3.org/1999/xlink" x="0px" y="0px"
	 viewBox="0 0 482.8 86.3" style="enable-background:new 0 0 482.8 86.3;" xml:space="preserve">
<style type="text/css">
	.st0{fill:#FFFFFF;}
</style>
<g>
	<path class="st0" d="M398.5,22.9l-27.2,20.5l27.2,19.5V86h-17.2l-31.5-25v25h-27.2V0.4H350v25.3l31.8-25.3h16.9L398.5,22.9z"/>
	<path class="st0" d="M482.8,0v86.3H407V0H482.8z M455.3,23.1h-21V63h21V23.1z"/>
	<path class="st0" d="M102.5,0v86.3H75.2V23.1H64.7v63h-27v-63H27.2v63H0V0H102.5z"/>
	<path class="st0" d="M188.5,0v86.3h-75.8V0H188.5z M161.2,23.1h-21V63h21V23.1z"/>
	<polygon class="st0" points="236.6,0 236.6,58.3 264,58.3 264,23.1 285.1,23.1 285.1,63.2 226.2,63.2 226.2,0.1 198.9,0.1 
		198.9,86.3 312.4,86.3 312.4,0 	"/>
</g>
</svg>
