<?xml version="1.0" encoding="utf-8"?>
<!-- Generator: Adobe Illustrator 25.4.1, SVG Export Plug-In . SVG Version: 6.00 Build 0)  -->
<svg version="1.1" id="Calque_1" xmlns="http://www.w3.org/2000/svg" xmlns:xlink="http://www.w3.org/1999/xlink" x="0px" y="0px"
	 viewBox="0 0 170.4 97.6" style="enable-background:new 0 0 170.4 97.6;" xml:space="preserve">
<style type="text/css">
	.st0{fill:#73BBC9;}
	.st1{fill:#FFFFFF;}
</style>
<g>
	<g>
		<path class="st0" d="M131.3,17.3c1.5,5.8,7,9.4,7,9.4s3-5.8,1.4-11.6c-1.5-5.8-7-9.4-7-9.4S129.8,11.5,131.3,17.3z"/>
		<path class="st0" d="M115.5,39.3c2.5,5.5,8.4,8.1,8.4,8.1s2-6.2-0.5-11.7c-2.5-5.5-8.4-8.1-8.4-8.1S113,33.8,115.5,39.3z"/>
		<path class="st0" d="M157.3,4.3c-4.7,3.7-5.9,10.1-5.9,10.1s6.5,0.4,11.3-3.3c4.7-3.7,5.9-10.1,5.9-10.1S162.1,0.6,157.3,4.3z"/>
		<path class="st0" d="M149.3,24c-6-0.8-11.4,2.9-11.4,2.9s4.3,4.9,10.2,5.7c6,0.8,11.4-2.9,11.4-2.9S155.3,24.8,149.3,24z"/>
	</g>
	<path class="st0" d="M135.4,44.4c-4.8-0.6-9.2,1.6-10.8,2.5c2.3-4.1,4.8-8,7.4-11.6c6.9-9.7,14.8-17.5,23.4-23.2l-0.7-1
		C146,16.9,138,24.8,131,34.6c-5.6,7.8-10.6,16.9-14.9,26.9c-0.7,1.7-1.4,3.3-2,5c-10.2-8-23.1-12.7-37-12.7
		c-18,0-34.1,7.8-45.1,20.3c-0.2,0-0.4,0-0.6,0C16.4,74,3.9,84,0,97.6h18.9h43.6h72.6c-3.4-12.1-10.6-22.6-20.1-30.3
		c0.7-1.7,1.4-3.5,2.2-5.3c2.2-5.1,4.5-9.8,7-14.4c1,1,4.8,4.8,10,5.5c6,0.8,11.4-2.9,11.4-2.9S141.3,45.2,135.4,44.4z"/>
	<path class="st1" d="M96.7,78.7c-0.2-0.9-1.1-1.5-2.1-1.5H63.8l6.7-5.6c0.3-0.3,0.5-0.7,0.6-1.1c0-0.4-0.2-0.8-0.5-1.2L70,68.8
		c-0.6-0.6-1.7-0.6-2.3-0.1l-11,9.3c-0.4,0.3-0.6,0.7-0.6,1.2c0,0.5,0.2,0.9,0.6,1.2l11,9.3c0.3,0.3,0.7,0.4,1.1,0.4
		c0.4,0,0.9-0.2,1.2-0.5l0.5-0.5c0.3-0.3,0.5-0.7,0.5-1.2c0-0.4-0.2-0.8-0.6-1.1l-6.7-5.6h30.9c0.7,0,1.3-0.3,1.7-0.8
		C96.7,79.9,96.8,79.3,96.7,78.7z"/>
</g>
</svg>
