<?xml version="1.0" encoding="utf-8"?>
<!-- Generator: Adobe Illustrator 25.4.1, SVG Export Plug-In . SVG Version: 6.00 Build 0)  -->
<svg version="1.1" id="Calque_1" xmlns="http://www.w3.org/2000/svg" xmlns:xlink="http://www.w3.org/1999/xlink" x="0px" y="0px"
	 viewBox="0 0 1920.1 328.7" style="enable-background:new 0 0 1920.1 328.7;" xml:space="preserve">
<style type="text/css">
	.st0{fill:#58ACBF;}
	.st1{fill:#FFFFFF;}
	.st2{fill:#73BBC9;}
</style>
<g>
	<path class="st0" d="M0.1,53h1920v268.2c0,0-188,28.7-287.1-56.1c-99.1-84.7-281.6-68.2-389-40c-117.5,30.9-223.4,39.8-352.7,20.8
		c-161.4-23.8-237.2-28.4-430.7-24.7c-212.2,4-294.5,114.5-460.4,69.1C0.3,253.9,0.1,53,0.1,53z"/>
	<path class="st1" d="M0.1,0.1h1920v260.2c0,0-97.6,90.3-255.5-16.3c-116.2-78.4-296.5-109.7-403.8-77.5
		c-117.5,35.2-243.9,88.4-373.3,66.6c-161.4-27.1-212.4-88.3-405.8-95.3c-246.2-8.9-315.5,158-481.4,106.3
		C0.3,202.6,0.1,0.1,0.1,0.1z"/>
	<path class="st2" d="M0.1,0h1920v210.1c0,0-164.5,20-274.1-38.9c-114.1-61.3-276.3-46.3-383.6-19
		c-117.5,29.9-255.4,86.1-384.7,67.7C716.3,197,659.6,118.2,466,121.7c-212.2,3.8-275.6,155.4-466,56.2C0,142.8,0.1,0,0.1,0z"/>
</g>
</svg>
