<?xml version="1.0" encoding="utf-8"?>
<!-- Generator: Adobe Illustrator 25.4.1, SVG Export Plug-In . SVG Version: 6.00 Build 0)  -->
<svg version="1.1" id="Calque_1" xmlns="http://www.w3.org/2000/svg" xmlns:xlink="http://www.w3.org/1999/xlink" x="0px" y="0px"
	 viewBox="0 0 331.4 850.1" style="enable-background:new 0 0 331.4 850.1;" xml:space="preserve">
<style type="text/css">
	.st0{fill:#58ACBF;}
	.st1{fill:#73BBC9;}
	.st2{fill:#3899B0;}
</style>
<g>
	<path class="st0" d="M0,3.8c88.9,34.6,27.1,209.5,119.3,189.7c52.8-11.4,105.5-5.6,136.4,19.2c33.6,27,42.8,76.3,22.2,109
		c-15.8,25-42.1,43.5-28.5,92.5c18.4,66,97.2,85.8,75.1,159.4c-31.2,104.4-121.4,12.1-179.9,87.3c-45.5,43.3-21.2,113.5-36.4,138.1
		C68.8,862.9,0,843.5,0,843.5L0,3.8z"/>
	<path class="st1" d="M0,131.4c62.2,24.2,19,146.5,83.4,132.7c37-8,73.8-3.9,95.4,13.5c23.5,18.9,29.9,53.3,15.5,76.3
		c-11,17.5-29.5,30.4-19.9,64.7c12.9,46.2,67.9,60,52.6,111.5c-21.8,73-84.9,8.5-125.8,61c-31.9,30.3-14.8,79.4-25.5,96.6
		C48.1,732.2,0,718.6,0,718.6L0,131.4z"/>
	<path class="st2" d="M0,241.5c38.6,15,11.8,90.8,51.7,82.2c22.9-4.9,45.7-2.4,59.2,8.3c14.6,11.7,18.6,33.1,9.6,47.3
		c-6.8,10.9-18.3,18.9-12.3,40.1c8,28.6,42.1,37.2,32.6,69.1c-13.5,45.3-52.7,5.3-78,37.8c-19.7,18.8-9.2,49.2-15.8,59.9
		C29.8,613.9,0,605.5,0,605.5L0,241.5z"/>
</g>
</svg>
