<?xml version="1.0" encoding="utf-8"?>
<!-- Generator: Adobe Illustrator 25.4.1, SVG Export Plug-In . SVG Version: 6.00 Build 0)  -->
<svg version="1.1" id="Calque_1" xmlns="http://www.w3.org/2000/svg" xmlns:xlink="http://www.w3.org/1999/xlink" x="0px" y="0px"
	 viewBox="0 0 36.9 36.9" style="enable-background:new 0 0 36.9 36.9;" xml:space="preserve">
<style type="text/css">
	.st0{fill:url(#SVGID_1_);}
	.st1{fill:url(#SVGID_00000116921235878222750180000013511626799312112043_);}
	.st2{fill:#F26951;}
</style>
<g>
	
		<linearGradient id="SVGID_1_" gradientUnits="userSpaceOnUse" x1="20.4211" y1="37.3982" x2="20.4211" y2="1.7494" gradientTransform="matrix(1 0 0 -1 0 38)">
		<stop  offset="8.490570e-02" style="stop-color:#535153"/>
		<stop  offset="0.2077" style="stop-color:#5D5B5D;stop-opacity:0.8926"/>
		<stop  offset="0.4185" style="stop-color:#787778;stop-opacity:0.7084"/>
		<stop  offset="0.6917" style="stop-color:#A4A3A4;stop-opacity:0.4696"/>
		<stop  offset="1" style="stop-color:#DEDEDE;stop-opacity:0.2"/>
	</linearGradient>
	<path class="st0" d="M17.4,1.1c0,0-2.5-1.3-4.3,0.3c-2.4,2-1,7.3-1,7.3l-2.6,3.7c0,0-4.8-0.4-4.3,3.7c0.5,4,0.9,8.2,0.9,8.2
		s-3.5,3.6,0.2,7.2c3,3,7.6-0.6,7.6-0.6s1,5.5,4.8,5.3c3.8-0.3,3.1-3.3,7.3-4.8c4.1-1.4,9.6,1.9,10.2-2.7c0.4-3.3-2.2-6.9-7.2-6.6
		l-0.7-6.9c0,0-1-2.6-4.9-2.9c-0.8,0-2.2-2.7-2.2-2.7S24.6,9,24,5C23.5,1.8,19.6,0.3,17.4,1.1z"/>
	
		<linearGradient id="SVGID_00000142163415636119050940000014396246940170041493_" gradientUnits="userSpaceOnUse" x1="4.9487" y1="5.9513" x2="28.2564" y2="29.2591" gradientTransform="matrix(1 0 0 -1 0 38)">
		<stop  offset="0" style="stop-color:#FFFFFF"/>
		<stop  offset="0.4236" style="stop-color:#FDFDFD"/>
		<stop  offset="0.5761" style="stop-color:#F6F6F6"/>
		<stop  offset="0.6845" style="stop-color:#EBEBEB"/>
		<stop  offset="0.7713" style="stop-color:#DADADA"/>
		<stop  offset="0.797" style="stop-color:#EBEBEB"/>
		<stop  offset="0.8292" style="stop-color:#F6F6F6"/>
		<stop  offset="0.8744" style="stop-color:#FDFDFD"/>
		<stop  offset="1" style="stop-color:#FFFFFF"/>
	</linearGradient>
	<path style="fill:url(#SVGID_00000142163415636119050940000014396246940170041493_);" d="M16.8,1.1c0,0-2.3-1.1-4.4,0.3
		c-2.6,1.8-1.9,6.5-1.9,6.5l-3,3.3c0,0-4.8-0.4-4.8,3.4c-0.1,3.7-0.2,7.5-0.2,7.5s-4.1,3.4-0.7,6.8c2.8,2.8,8-0.6,8-0.6
		s0.4,5.3,4.4,5c4-0.2,3.6-3.1,8.2-4.5c4.4-1.4,9.9,1.8,10.9-2.6c0.7-3.1-1.6-6.4-6.8-6.1v-6.3c0,0-0.7-2.4-4.7-2.6
		c-0.8,0-2-2.5-2-2.5s3.4-0.5,3.1-4.1C22.8,1.8,19,0.5,16.8,1.1z"/>
	<g>
		<path class="st2" d="M14.5,6.5c0,0,0.7,0.3,1.2,0.2c1.3-0.2,1.6-0.9,2.1-1.1C18.1,5.5,19,5.1,19,5.1s-0.5-0.5-1.4-0.4
			S16.7,5.2,16,5.2s-1.5-0.5-1.8-0.5v4.7l-3.7,3.9h1.2v7.8H17v-7.8h1.2l-3.7-3.9C14.5,9.4,14.5,6.5,14.5,6.5z M15.4,17.2h-2v-3.1h2
			V17.2z"/>
		<path class="st2" d="M9.5,14.6v1.1H8.7v-1.1h-1v1.1H7.1v-1.1h-1v7.7c0,0,1.9-0.4,4.4-0.6c0-0.4,0-7.1,0-7.1S9.5,14.6,9.5,14.6z
			 M9.1,19.7H7.6v-2.4h1.6L9.1,19.7L9.1,19.7z"/>
		<path class="st2" d="M18.6,14.6c0,0,0,6.7,0,7.1c2.5,0.2,4.4,0.6,4.4,0.6v-7.7h-1v1.1h-0.7v-1.1h-1v1.1h-0.7v-1.1
			C19.6,14.6,18.6,14.6,18.6,14.6z M20,17.3h1.6v2.4H20V17.3z"/>
		<path class="st2" d="M29.7,24.4c-2.9-0.6-5.4-0.4-7.5,0l0,0c-10.9-2.7-17.4,0.9-17.6,1.1c-0.2,0.1-0.2,0.3-0.1,0.4
			s0.2,0.2,0.3,0.2c0.1,0,0.1,0,0.2,0s6-3.4,16-1.3c-1.2,0.4-2.2,0.8-3,1.2c-2.6,1.4-4,3-4,3.1c-0.1,0.1-0.1,0.3,0,0.5
			c0.1,0,0.1,0.1,0.2,0.1c0.1,0,0.2,0,0.2-0.1c0,0,1.3-1.6,3.9-3c2.3-1.2,6.2-2.5,11.4-1.5c0.2,0,0.3-0.1,0.4-0.3
			C29.9,24.6,29.8,24.4,29.7,24.4z"/>
	</g>
</g>
</svg>
