<?xml version="1.0" encoding="utf-8"?>
<!-- Generator: Adobe Illustrator 25.4.1, SVG Export Plug-In . SVG Version: 6.00 Build 0)  -->
<svg version="1.1" id="Calque_1" xmlns="http://www.w3.org/2000/svg" xmlns:xlink="http://www.w3.org/1999/xlink" x="0px" y="0px"
	 viewBox="0 0 36.9 36.9" style="enable-background:new 0 0 36.9 36.9;" xml:space="preserve">
<style type="text/css">
	.st0{clip-path:url(#SVGID_00000031900644968070546520000016416362188125906836_);}
	.st1{filter:url(#Adobe_OpacityMaskFilter);}
	.st2{clip-path:url(#SVGID_00000135666726083423530130000003590290769156178573_);}
	.st3{clip-path:url(#SVGID_00000023995516453502878440000002372338792814537622_);}
	.st4{clip-path:url(#SVGID_00000083805713802593932600000000096757873475764137_);}
	.st5{clip-path:url(#SVGID_00000051350721930086069990000007620264426813527981_);}
	.st6{clip-path:url(#SVGID_00000176748363726357555890000002324524066211856298_);}
	.st7{clip-path:url(#SVGID_00000009556816964217061430000006804188106111670426_);}
	.st8{clip-path:url(#SVGID_00000077289607324854260040000010928218088765356973_);}
	
		.st9{clip-path:url(#SVGID_00000066500517953058691250000012865569485246320773_);fill:url(#SVGID_00000144320172784315939760000006742336112487424444_);}
	
		.st10{clip-path:url(#SVGID_00000135666726083423530130000003590290769156178573_);mask:url(#SVGID_00000177459871366724942660000010261951542289905820_);fill:url(#SVGID_00000174583529317346798960000015160744430943437703_);}
	.st11{fill:url(#SVGID_00000062876974105537649130000012418095345611088798_);}
	.st12{fill:url(#SVGID_00000146494437594924798260000011432904057676081030_);}
	.st13{fill:#F26951;}
</style>
<g>
	<g>
		<g>
			<g>
				<defs>
					<polygon id="SVGID_1_" points="1,1 2,1 1,2 					"/>
				</defs>
				<clipPath id="SVGID_00000046340562779838781200000000813052974623375503_">
					<use xlink:href="#SVGID_1_"  style="overflow:visible;"/>
				</clipPath>
			</g>
			<g>
				<defs>
					<polygon id="SVGID_00000081630550649135702090000017477440335956058024_" points="1,1 2,1 1,2 					"/>
				</defs>
				<defs>
					<polygon id="SVGID_00000124133923103868403490000016981909947422912185_" points="-1,-1 -2,-1 -1,-2 					"/>
				</defs>
				<clipPath id="SVGID_00000103974017003012960080000001324426855275741333_">
					<use xlink:href="#SVGID_00000081630550649135702090000017477440335956058024_"  style="overflow:visible;"/>
				</clipPath>
				
					<clipPath id="SVGID_00000066473559062762889420000006298148477631491999_" style="clip-path:url(#SVGID_00000103974017003012960080000001324426855275741333_);">
					<use xlink:href="#SVGID_00000124133923103868403490000016981909947422912185_"  style="overflow:visible;"/>
				</clipPath>
				<defs>
					<filter id="Adobe_OpacityMaskFilter" filterUnits="userSpaceOnUse" x="7" y="0.4" width="26.9" height="36.2">
						<feColorMatrix  type="matrix" values="1 0 0 0 0  0 1 0 0 0  0 0 1 0 0  0 0 0 1 0"/>
					</filter>
				</defs>
				
					<mask maskUnits="userSpaceOnUse" x="7" y="0.4" width="26.9" height="36.2" id="SVGID_00000177459871366724942660000010261951542289905820_">
					<g class="st1">
						<g>
							<g>
								<defs>
									<polygon id="SVGID_00000012454066072614227130000009937357804531021468_" points="1,1 2,1 1,2 									"/>
								</defs>
								<defs>
									<polygon id="SVGID_00000061468980389907301150000006464243799365985976_" points="-1,-1 -2,-1 -1,-2 									"/>
								</defs>
								
									<clipPath id="SVGID_00000038405076950071876850000017903732422775289004_" style="clip-path:url(#SVGID_00000066473559062762889420000006298148477631491999_);">
									<use xlink:href="#SVGID_00000012454066072614227130000009937357804531021468_"  style="overflow:visible;"/>
								</clipPath>
								
									<clipPath id="SVGID_00000144306140367053933340000003310252813599597971_" style="clip-path:url(#SVGID_00000038405076950071876850000017903732422775289004_);">
									<use xlink:href="#SVGID_00000061468980389907301150000006464243799365985976_"  style="overflow:visible;"/>
								</clipPath>
							</g>
							<g>
								<defs>
									<polygon id="SVGID_00000011747730203982775850000017900629737738885047_" points="1,1 2,1 1,2 									"/>
								</defs>
								<defs>
									<polygon id="SVGID_00000150097097190314618550000008639250108105356684_" points="-1,-1 -2,-1 -1,-2 									"/>
								</defs>
								<defs>
									<polygon id="SVGID_00000103983879742331396570000010803093539673993871_" points="1,1 2,1 1,2 									"/>
								</defs>
								
									<clipPath id="SVGID_00000034050345368417646850000010765535927915874701_" style="clip-path:url(#SVGID_00000066473559062762889420000006298148477631491999_);">
									<use xlink:href="#SVGID_00000011747730203982775850000017900629737738885047_"  style="overflow:visible;"/>
								</clipPath>
								
									<clipPath id="SVGID_00000060027413513259123020000003794898242104194984_" style="clip-path:url(#SVGID_00000034050345368417646850000010765535927915874701_);">
									<use xlink:href="#SVGID_00000150097097190314618550000008639250108105356684_"  style="overflow:visible;"/>
								</clipPath>
								
									<clipPath id="SVGID_00000150082900011198241660000012304942575574607786_" style="clip-path:url(#SVGID_00000060027413513259123020000003794898242104194984_);">
									<use xlink:href="#SVGID_00000103983879742331396570000010803093539673993871_"  style="overflow:visible;"/>
								</clipPath>
							</g>
							<g>
								<defs>
									<polygon id="SVGID_00000093887274306693995720000015164401062029697168_" points="1,1 2,1 1,2 									"/>
								</defs>
								<defs>
									<polygon id="SVGID_00000171716622673925864250000014904498873439228834_" points="-1,-1 -2,-1 -1,-2 									"/>
								</defs>
								<defs>
									<polygon id="SVGID_00000160897291000727613190000017915172139394054300_" points="1,1 2,1 1,2 									"/>
								</defs>
								<defs>
									<polygon id="SVGID_00000115473034082958338700000007914768395452882080_" points="-1,-1 -2,-1 -1,-2 									"/>
								</defs>
								
									<clipPath id="SVGID_00000005258472481424258050000007424908793270291353_" style="clip-path:url(#SVGID_00000066473559062762889420000006298148477631491999_);">
									<use xlink:href="#SVGID_00000093887274306693995720000015164401062029697168_"  style="overflow:visible;"/>
								</clipPath>
								
									<clipPath id="SVGID_00000088837968672000632740000017469089775199551644_" style="clip-path:url(#SVGID_00000005258472481424258050000007424908793270291353_);">
									<use xlink:href="#SVGID_00000171716622673925864250000014904498873439228834_"  style="overflow:visible;"/>
								</clipPath>
								
									<clipPath id="SVGID_00000181775694219272963910000003124126135391787155_" style="clip-path:url(#SVGID_00000088837968672000632740000017469089775199551644_);">
									<use xlink:href="#SVGID_00000160897291000727613190000017915172139394054300_"  style="overflow:visible;"/>
								</clipPath>
								
									<clipPath id="SVGID_00000116215213393648829880000001866425257683759035_" style="clip-path:url(#SVGID_00000181775694219272963910000003124126135391787155_);">
									<use xlink:href="#SVGID_00000115473034082958338700000007914768395452882080_"  style="overflow:visible;"/>
								</clipPath>
								
									<linearGradient id="SVGID_00000018929397735586049770000013577032203624072609_" gradientUnits="userSpaceOnUse" x1="-57.3035" y1="775.7803" x2="-62.4174" y2="810.9279" gradientTransform="matrix(1 0 0.1455 1 -35.0965 -774.11)">
									<stop  offset="8.490570e-02" style="stop-color:#FFFFFF"/>
									<stop  offset="0.163" style="stop-color:#F5F5F5"/>
									<stop  offset="0.2972" style="stop-color:#D9D9D9"/>
									<stop  offset="0.4712" style="stop-color:#ACACAC"/>
									<stop  offset="0.6784" style="stop-color:#6E6E6E"/>
									<stop  offset="0.9109" style="stop-color:#202020"/>
									<stop  offset="1" style="stop-color:#000000"/>
								</linearGradient>
								
									<path style="clip-path:url(#SVGID_00000116215213393648829880000001866425257683759035_);fill:url(#SVGID_00000018929397735586049770000013577032203624072609_);" d="
									M31.1,14.1c-4-1.6-8.7-1.9-10.6-2C17.2,5,14.8,2.3,14.3,1.8c-0.8-0.9-1.9-1.4-3-1.4c-0.5,0-1,0.1-1.4,0.3
									C8.6,1.4,8,3,8.4,4.8c1,4.3,3.4,8.8,4.6,10.9c-4.5,5.2-5.6,8.3-5.8,8.9c-0.5,1.6,0.1,3.5,1.4,4.7c0.8,0.7,1.8,1.1,2.7,1.1
									c0.6,0,1.2-0.2,1.7-0.5c0.7-0.5,1.4-1,2-1.6l0.3,4c0.1,1.1,0.6,2.2,1.4,3s1.8,1.3,2.8,1.3h3.6c1,0,1.9-0.5,2.5-1.3
									c0.6-0.9,0.7-2,0.4-3.1l-2.6-10.3c1.6,0.2,3.1,0.3,4.4,0.3c2.4,0,3.6-0.3,3.9-0.4c1.5-0.4,2.4-1.9,2.2-3.6
									C33.8,16.4,32.6,14.8,31.1,14.1z"/>
							</g>
						</g>
					</g>
				</mask>
				
					<linearGradient id="SVGID_00000055693731953657641890000011731445002879545010_" gradientUnits="userSpaceOnUse" x1="-57.3035" y1="775.7803" x2="-62.4174" y2="810.9279" gradientTransform="matrix(1 0 0.1455 1 -35.0965 -774.11)">
					<stop  offset="8.490570e-02" style="stop-color:#FFFFFF"/>
					<stop  offset="0.163" style="stop-color:#F5F5F5"/>
					<stop  offset="0.2972" style="stop-color:#D9D9D9"/>
					<stop  offset="0.4712" style="stop-color:#ACACAC"/>
					<stop  offset="0.6784" style="stop-color:#6E6E6E"/>
					<stop  offset="0.9109" style="stop-color:#202020"/>
					<stop  offset="1" style="stop-color:#000000"/>
				</linearGradient>
				
					<path style="clip-path:url(#SVGID_00000066473559062762889420000006298148477631491999_);mask:url(#SVGID_00000177459871366724942660000010261951542289905820_);fill:url(#SVGID_00000055693731953657641890000011731445002879545010_);" d="
					M31.1,14.1c-4-1.6-8.7-1.9-10.6-2C17.2,5,14.8,2.3,14.3,1.8c-0.8-0.9-1.9-1.4-3-1.4c-0.5,0-1,0.1-1.4,0.3C8.6,1.4,8,3,8.4,4.8
					c1,4.3,3.4,8.8,4.6,10.9c-4.5,5.2-5.6,8.3-5.8,8.9c-0.5,1.6,0.1,3.5,1.4,4.7c0.8,0.7,1.8,1.1,2.7,1.1c0.6,0,1.2-0.2,1.7-0.5
					c0.7-0.5,1.4-1,2-1.6l0.3,4c0.1,1.1,0.6,2.2,1.4,3s1.8,1.3,2.8,1.3h3.6c1,0,1.9-0.5,2.5-1.3c0.6-0.9,0.7-2,0.4-3.1l-2.6-10.3
					c1.6,0.2,3.1,0.3,4.4,0.3c2.4,0,3.6-0.3,3.9-0.4c1.5-0.4,2.4-1.9,2.2-3.6C33.8,16.4,32.6,14.8,31.1,14.1z"/>
			</g>
		</g>
	</g>
	
		<linearGradient id="SVGID_00000087384792290202781350000001586692372592057991_" gradientUnits="userSpaceOnUse" x1="-57.3035" y1="775.7803" x2="-62.4174" y2="810.9279" gradientTransform="matrix(1 0 0.1455 1 -35.0965 -774.11)">
		<stop  offset="8.490570e-02" style="stop-color:#535153"/>
		<stop  offset="0.2077" style="stop-color:#5D5B5D;stop-opacity:0.8926"/>
		<stop  offset="0.4185" style="stop-color:#787778;stop-opacity:0.7084"/>
		<stop  offset="0.6917" style="stop-color:#A4A3A4;stop-opacity:0.4696"/>
		<stop  offset="1" style="stop-color:#DEDEDE;stop-opacity:0.2"/>
	</linearGradient>
	<path style="fill:url(#SVGID_00000087384792290202781350000001586692372592057991_);" d="M31.1,14.1c-4-1.6-8.7-1.9-10.6-2
		C17.2,5,14.8,2.3,14.3,1.8c-0.8-0.9-1.9-1.4-3-1.4c-0.5,0-1,0.1-1.4,0.3C8.6,1.4,8,3,8.4,4.8c1,4.3,3.4,8.8,4.6,10.9
		c-4.5,5.2-5.6,8.3-5.8,8.9c-0.5,1.6,0.1,3.5,1.4,4.7c0.8,0.7,1.8,1.1,2.7,1.1c0.6,0,1.2-0.2,1.7-0.5c0.7-0.5,1.4-1,2-1.6l0.3,4
		c0.1,1.1,0.6,2.2,1.4,3s1.8,1.3,2.8,1.3h3.6c1,0,1.9-0.5,2.5-1.3c0.6-0.9,0.7-2,0.4-3.1l-2.6-10.3c1.6,0.2,3.1,0.3,4.4,0.3
		c2.4,0,3.6-0.3,3.9-0.4c1.5-0.4,2.4-1.9,2.2-3.6C33.8,16.4,32.6,14.8,31.1,14.1z"/>
	
		<linearGradient id="SVGID_00000000933275985883203100000005894459468643903394_" gradientUnits="userSpaceOnUse" x1="4.3676" y1="800.8827" x2="23.7128" y2="781.5375" gradientTransform="matrix(1 0 0 1 0 -774.11)">
		<stop  offset="0" style="stop-color:#FFFFFF"/>
		<stop  offset="0.4236" style="stop-color:#FDFDFD"/>
		<stop  offset="0.5761" style="stop-color:#F6F6F6"/>
		<stop  offset="0.6845" style="stop-color:#EBEBEB"/>
		<stop  offset="0.7713" style="stop-color:#DADADA"/>
		<stop  offset="0.797" style="stop-color:#EBEBEB"/>
		<stop  offset="0.8292" style="stop-color:#F6F6F6"/>
		<stop  offset="0.8744" style="stop-color:#FDFDFD"/>
		<stop  offset="1" style="stop-color:#FFFFFF"/>
	</linearGradient>
	<path style="fill:url(#SVGID_00000000933275985883203100000005894459468643903394_);" d="M28.7,12.9c-3.7-1.4-8.4-1.7-10.4-1.8
		c-2.2-6.5-4.2-9-4.6-9.4C13,0.9,12,0.4,10.9,0.4c-0.5,0-1,0.1-1.4,0.3C8.1,1.3,7.3,2.8,7.4,4.4c0.4,3.9,2.1,8,3,9.9
		c-5.2,4.7-6.8,7.5-7,8.1c-0.7,1.4-0.4,3.1,0.8,4.2c0.7,0.7,1.6,1,2.5,1c0.6,0,1.2-0.1,1.8-0.5c0.8-0.4,1.5-0.9,2.2-1.4l-0.3,3.6
		c-0.1,1,0.3,2,1,2.7s1.7,1.2,2.7,1.2h3.6c1,0,2-0.4,2.7-1.2s1-1.8,0.9-2.8L20,19.9c1.6,0.2,3,0.2,4.3,0.2c2.4,0,3.6-0.3,3.9-0.3
		c1.5-0.4,2.7-1.7,2.8-3.3C31.1,14.9,30.2,13.4,28.7,12.9z"/>
	<g>
		<g>
			<path class="st13" d="M16.5,15.1c0.1,0.7-0.3,1.3-0.9,1.4c-0.7,0.1-1.3-0.3-1.4-1c-0.1-0.7,0.3-1.3,1-1.4
				C15.7,14,16.4,14.4,16.5,15.1z"/>
			<path class="st13" d="M15.4,18c-0.2,0-0.4,0-0.6-0.1l-0.9,11.7h3.6l-1.4-11.7C15.9,17.9,15.7,18,15.4,18C15.5,18,15.4,18,15.4,18
				z"/>
			<path class="st13" d="M14.9,13c0.1,0,0.2,0,0.3,0C13,6.2,11,4,11,4c0.4,4,2.6,8.5,3,9.4C14.3,13.2,14.5,13.1,14.9,13
				C14.8,13,14.9,13,14.9,13z"/>
			<path class="st13" d="M27.4,16.2c-3.9-1.5-9.2-1.6-9.8-1.6c0,0.1,0,0.1,0,0.2c0.1,0.4,0.1,0.7,0,1C24.5,16.9,27.4,16.2,27.4,16.2
				z"/>
			<path class="st13" d="M13.3,16.5c-5.4,4.7-6.7,7.4-6.7,7.4c3.8-2.1,7.4-6.4,7.6-6.6C13.8,17.2,13.5,16.9,13.3,16.5z"/>
		</g>
	</g>
</g>
</svg>
