<?xml version="1.0" encoding="utf-8"?>
<!-- Generator: Adobe Illustrator 25.4.1, SVG Export Plug-In . SVG Version: 6.00 Build 0)  -->
<svg version="1.1" id="Calque_1" xmlns="http://www.w3.org/2000/svg" xmlns:xlink="http://www.w3.org/1999/xlink" x="0px" y="0px"
	 viewBox="0 0 36.9 36.9" style="enable-background:new 0 0 36.9 36.9;" xml:space="preserve">
<style type="text/css">
	.st0{clip-path:url(#SVGID_00000055705128709220835340000002936961863703124112_);}
	.st1{filter:url(#Adobe_OpacityMaskFilter);}
	.st2{clip-path:url(#SVGID_00000148620874818931840200000002832852139037067402_);}
	.st3{clip-path:url(#SVGID_00000061464955048141889030000012121638176105036453_);}
	
		.st4{clip-path:url(#SVGID_00000109725216533853919640000001680419088402296965_);fill:url(#SVGID_00000174562946841824085050000006274483135702455730_);}
	
		.st5{clip-path:url(#SVGID_00000148620874818931840200000002832852139037067402_);mask:url(#SVGID_00000025442653745522696980000005536936610255565487_);fill:url(#SVGID_00000048463792665429465400000017190342442042181282_);}
	.st6{fill:url(#SVGID_00000101788352839525861730000016171483644007470486_);}
	.st7{fill:url(#SVGID_00000156580714148031769280000003785981769628704953_);}
	.st8{fill:#73BBC9;}
</style>
<g>
	<g>
		<g>
			<defs>
				<polygon id="SVGID_1_" points="1,1 2,1 1,2 				"/>
			</defs>
			<defs>
				<polygon id="SVGID_00000116951749620733053580000006440221888637088655_" points="-1,-1 -2,-1 -1,-2 				"/>
			</defs>
			<clipPath id="SVGID_00000106839723874591790210000009507957304026738081_">
				<use xlink:href="#SVGID_1_"  style="overflow:visible;"/>
			</clipPath>
			
				<clipPath id="SVGID_00000163760624263940425360000000615565037756710830_" style="clip-path:url(#SVGID_00000106839723874591790210000009507957304026738081_);">
				<use xlink:href="#SVGID_00000116951749620733053580000006440221888637088655_"  style="overflow:visible;"/>
			</clipPath>
			<defs>
				<filter id="Adobe_OpacityMaskFilter" filterUnits="userSpaceOnUse" x="7" y="0.4" width="26.9" height="36.2">
					<feColorMatrix  type="matrix" values="1 0 0 0 0  0 1 0 0 0  0 0 1 0 0  0 0 0 1 0"/>
				</filter>
			</defs>
			
				<mask maskUnits="userSpaceOnUse" x="7" y="0.4" width="26.9" height="36.2" id="SVGID_00000001635721194864864130000001499501522767806871_">
				<g class="st1">
					<g>
						<defs>
							<polygon id="SVGID_00000055684834949754945990000012012066914586589597_" points="1,1 2,1 1,2 							"/>
						</defs>
						<defs>
							<polygon id="SVGID_00000101065458554266855380000011901953459030644389_" points="-1,-1 -2,-1 -1,-2 							"/>
						</defs>
						
							<clipPath id="SVGID_00000018204854807924894010000002776446268913185681_" style="clip-path:url(#SVGID_00000163760624263940425360000000615565037756710830_);">
							<use xlink:href="#SVGID_00000055684834949754945990000012012066914586589597_"  style="overflow:visible;"/>
						</clipPath>
						
							<clipPath id="SVGID_00000124160566915179320330000002263895898521725610_" style="clip-path:url(#SVGID_00000018204854807924894010000002776446268913185681_);">
							<use xlink:href="#SVGID_00000101065458554266855380000011901953459030644389_"  style="overflow:visible;"/>
						</clipPath>
						
							<linearGradient id="SVGID_00000163757729152017393390000011074907375123382430_" gradientUnits="userSpaceOnUse" x1="-0.995" y1="36.2196" x2="-6.1089" y2="1.0721" gradientTransform="matrix(1 0 -0.1455 -1 26.741 37.89)">
							<stop  offset="8.490570e-02" style="stop-color:#FFFFFF"/>
							<stop  offset="0.163" style="stop-color:#F5F5F5"/>
							<stop  offset="0.2972" style="stop-color:#D9D9D9"/>
							<stop  offset="0.4712" style="stop-color:#ACACAC"/>
							<stop  offset="0.6784" style="stop-color:#6E6E6E"/>
							<stop  offset="0.9109" style="stop-color:#202020"/>
							<stop  offset="1" style="stop-color:#000000"/>
						</linearGradient>
						
							<path style="clip-path:url(#SVGID_00000124160566915179320330000002263895898521725610_);fill:url(#SVGID_00000163757729152017393390000011074907375123382430_);" d="
							M31.1,14.1c-4-1.6-8.7-1.9-10.6-2C17.2,5,14.8,2.3,14.3,1.8c-0.8-0.9-1.9-1.4-3-1.4c-0.5,0-1,0.1-1.4,0.3C8.6,1.4,8,3,8.4,4.8
							c1,4.3,3.4,8.8,4.6,10.9c-4.5,5.2-5.6,8.3-5.8,8.9c-0.5,1.6,0.1,3.5,1.4,4.7c0.8,0.7,1.8,1.1,2.7,1.1c0.6,0,1.2-0.2,1.7-0.5
							c0.7-0.5,1.4-1,2-1.6l0.3,4c0.1,1.1,0.6,2.2,1.4,3s1.8,1.3,2.8,1.3h3.6c1,0,1.9-0.5,2.5-1.3c0.6-0.9,0.7-2,0.4-3.1l-2.6-10.3
							c1.6,0.2,3.1,0.3,4.4,0.3c2.4,0,3.6-0.3,3.9-0.4c1.5-0.4,2.4-1.9,2.2-3.6C33.8,16.4,32.6,14.8,31.1,14.1z"/>
					</g>
				</g>
			</mask>
			
				<linearGradient id="SVGID_00000178904175726283900450000000604140560337341630_" gradientUnits="userSpaceOnUse" x1="-0.995" y1="36.2196" x2="-6.1089" y2="1.0721" gradientTransform="matrix(1 0 -0.1455 -1 26.741 37.89)">
				<stop  offset="8.490570e-02" style="stop-color:#FFFFFF"/>
				<stop  offset="0.163" style="stop-color:#F5F5F5"/>
				<stop  offset="0.2972" style="stop-color:#D9D9D9"/>
				<stop  offset="0.4712" style="stop-color:#ACACAC"/>
				<stop  offset="0.6784" style="stop-color:#6E6E6E"/>
				<stop  offset="0.9109" style="stop-color:#202020"/>
				<stop  offset="1" style="stop-color:#000000"/>
			</linearGradient>
			
				<path style="clip-path:url(#SVGID_00000163760624263940425360000000615565037756710830_);mask:url(#SVGID_00000001635721194864864130000001499501522767806871_);fill:url(#SVGID_00000178904175726283900450000000604140560337341630_);" d="
				M31.1,14.1c-4-1.6-8.7-1.9-10.6-2C17.2,5,14.8,2.3,14.3,1.8c-0.8-0.9-1.9-1.4-3-1.4c-0.5,0-1,0.1-1.4,0.3C8.6,1.4,8,3,8.4,4.8
				c1,4.3,3.4,8.8,4.6,10.9c-4.5,5.2-5.6,8.3-5.8,8.9c-0.5,1.6,0.1,3.5,1.4,4.7c0.8,0.7,1.8,1.1,2.7,1.1c0.6,0,1.2-0.2,1.7-0.5
				c0.7-0.5,1.4-1,2-1.6l0.3,4c0.1,1.1,0.6,2.2,1.4,3s1.8,1.3,2.8,1.3h3.6c1,0,1.9-0.5,2.5-1.3c0.6-0.9,0.7-2,0.4-3.1l-2.6-10.3
				c1.6,0.2,3.1,0.3,4.4,0.3c2.4,0,3.6-0.3,3.9-0.4c1.5-0.4,2.4-1.9,2.2-3.6C33.8,16.4,32.6,14.8,31.1,14.1z"/>
		</g>
	</g>
	
		<linearGradient id="SVGID_00000162339730381705533940000002566184715904438914_" gradientUnits="userSpaceOnUse" x1="-0.995" y1="36.2196" x2="-6.1089" y2="1.0721" gradientTransform="matrix(1 0 -0.1455 -1 26.741 37.89)">
		<stop  offset="8.490570e-02" style="stop-color:#535153"/>
		<stop  offset="0.2077" style="stop-color:#5D5B5D;stop-opacity:0.8926"/>
		<stop  offset="0.4185" style="stop-color:#787778;stop-opacity:0.7084"/>
		<stop  offset="0.6917" style="stop-color:#A4A3A4;stop-opacity:0.4696"/>
		<stop  offset="1" style="stop-color:#DEDEDE;stop-opacity:0.2"/>
	</linearGradient>
	<path style="fill:url(#SVGID_00000162339730381705533940000002566184715904438914_);" d="M31.1,14.1c-4-1.6-8.7-1.9-10.6-2
		C17.2,5,14.8,2.3,14.3,1.8c-0.8-0.9-1.9-1.4-3-1.4c-0.5,0-1,0.1-1.4,0.3C8.6,1.4,8,3,8.4,4.8c1,4.3,3.4,8.8,4.6,10.9
		c-4.5,5.2-5.6,8.3-5.8,8.9c-0.5,1.6,0.1,3.5,1.4,4.7c0.8,0.7,1.8,1.1,2.7,1.1c0.6,0,1.2-0.2,1.7-0.5c0.7-0.5,1.4-1,2-1.6l0.3,4
		c0.1,1.1,0.6,2.2,1.4,3s1.8,1.3,2.8,1.3h3.6c1,0,1.9-0.5,2.5-1.3c0.6-0.9,0.7-2,0.4-3.1l-2.6-10.3c1.6,0.2,3.1,0.3,4.4,0.3
		c2.4,0,3.6-0.3,3.9-0.4c1.5-0.4,2.4-1.9,2.2-3.6C33.8,16.4,32.6,14.8,31.1,14.1z"/>
	
		<linearGradient id="SVGID_00000010297425494387971200000004120835506648614836_" gradientUnits="userSpaceOnUse" x1="4.3676" y1="11.1173" x2="23.7128" y2="30.4625" gradientTransform="matrix(1 0 0 -1 0 37.89)">
		<stop  offset="0" style="stop-color:#FFFFFF"/>
		<stop  offset="0.4236" style="stop-color:#FDFDFD"/>
		<stop  offset="0.5761" style="stop-color:#F6F6F6"/>
		<stop  offset="0.6845" style="stop-color:#EBEBEB"/>
		<stop  offset="0.7713" style="stop-color:#DADADA"/>
		<stop  offset="0.797" style="stop-color:#EBEBEB"/>
		<stop  offset="0.8292" style="stop-color:#F6F6F6"/>
		<stop  offset="0.8744" style="stop-color:#FDFDFD"/>
		<stop  offset="1" style="stop-color:#FFFFFF"/>
	</linearGradient>
	<path style="fill:url(#SVGID_00000010297425494387971200000004120835506648614836_);" d="M28.7,12.9c-3.7-1.4-8.4-1.7-10.4-1.8
		c-2.2-6.5-4.2-9-4.6-9.4C13,0.9,12,0.4,10.9,0.4c-0.5,0-1,0.1-1.4,0.3C8.1,1.3,7.3,2.8,7.4,4.4c0.4,3.9,2.1,8,3,9.9
		c-5.2,4.7-6.8,7.5-7,8.1c-0.7,1.4-0.4,3.1,0.8,4.2c0.7,0.7,1.6,1,2.5,1c0.6,0,1.2-0.1,1.8-0.5c0.8-0.4,1.5-0.9,2.2-1.4l-0.3,3.6
		c-0.1,1,0.3,2,1,2.7s1.7,1.2,2.7,1.2h3.6c1,0,2-0.4,2.7-1.2s1-1.8,0.9-2.8L20,19.9c1.6,0.2,3,0.2,4.3,0.2c2.4,0,3.6-0.3,3.9-0.3
		c1.5-0.4,2.7-1.7,2.8-3.3C31.1,14.9,30.2,13.4,28.7,12.9z"/>
	<g>
		<g>
			<path class="st8" d="M16.5,15.1c0.1,0.7-0.3,1.3-0.9,1.4c-0.7,0.1-1.3-0.3-1.4-1c-0.1-0.7,0.3-1.3,1-1.4
				C15.7,14,16.4,14.4,16.5,15.1z"/>
			<path class="st8" d="M15.4,18c-0.2,0-0.4,0-0.6-0.1l-0.9,11.7h3.6l-1.4-11.7C15.9,17.9,15.7,18,15.4,18C15.5,18,15.4,18,15.4,18z
				"/>
			<path class="st8" d="M14.9,13c0.1,0,0.2,0,0.3,0C13,6.2,11,4,11,4c0.4,4,2.6,8.5,3,9.4C14.3,13.2,14.5,13.1,14.9,13
				C14.8,13,14.9,13,14.9,13z"/>
			<path class="st8" d="M27.4,16.2c-3.9-1.5-9.2-1.6-9.8-1.6c0,0.1,0,0.1,0,0.2c0.1,0.4,0.1,0.7,0,1C24.5,16.9,27.4,16.2,27.4,16.2z
				"/>
			<path class="st8" d="M13.3,16.5c-5.4,4.7-6.7,7.4-6.7,7.4c3.8-2.1,7.4-6.4,7.6-6.6C13.8,17.2,13.5,16.9,13.3,16.5z"/>
		</g>
	</g>
</g>
</svg>
