<?xml version="1.0" encoding="utf-8"?>
<!-- Generator: Adobe Illustrator 25.4.1, SVG Export Plug-In . SVG Version: 6.00 Build 0)  -->
<svg version="1.1" id="Calque_1" xmlns="http://www.w3.org/2000/svg" xmlns:xlink="http://www.w3.org/1999/xlink" x="0px" y="0px"
	 viewBox="0 0 36.9 36.9" style="enable-background:new 0 0 36.9 36.9;" xml:space="preserve">
<style type="text/css">
	.st0{fill:url(#SVGID_1_);}
	.st1{fill:url(#SVGID_00000134249649241353214100000002392997920595082924_);}
	.st2{fill:#F26951;}
</style>
<g>
	
		<linearGradient id="SVGID_1_" gradientUnits="userSpaceOnUse" x1="23.0447" y1="286.5791" x2="23.0447" y2="258.5463" gradientTransform="matrix(1 -9.395396e-04 9.395396e-04 -1.0608 -4.1731 307.9979)">
		<stop  offset="8.490570e-02" style="stop-color:#535153"/>
		<stop  offset="0.2077" style="stop-color:#5D5B5D;stop-opacity:0.8926"/>
		<stop  offset="0.4185" style="stop-color:#787778;stop-opacity:0.7084"/>
		<stop  offset="0.6917" style="stop-color:#A4A3A4;stop-opacity:0.4696"/>
		<stop  offset="1" style="stop-color:#DEDEDE;stop-opacity:0.2"/>
	</linearGradient>
	<path class="st0" d="M33.1,11.8c0.2-1.2-0.8-6.3-5.2-7.4s-5.8,3.2-5.8,3.2c-1.9-1.4-6.2-1.4-7.9-0.1c0,0-2.2-4.4-6.3-3.4
		c-4.2,1-4.3,6.1-3.9,7.3c-0.9,1.1-2.3,3.5-1.7,7.7c0.6,4,7.1,3.6,7.1,3.6s-1.3,8.8,2.3,10.7h8.8l8.8,0.2c3.3-1.8,0.4-10.7,0.4-10.7
		s6.5,0.5,6.4-3.4C36.1,15.4,34.2,12.9,33.1,11.8z"/>
	
		<linearGradient id="SVGID_00000119803851445430711360000010636220563454584214_" gradientUnits="userSpaceOnUse" x1="5.8803" y1="11.6453" x2="28.74" y2="34.5049" gradientTransform="matrix(1 0 0 -1 0 38)">
		<stop  offset="0" style="stop-color:#FFFFFF"/>
		<stop  offset="0.4236" style="stop-color:#FDFDFD"/>
		<stop  offset="0.5761" style="stop-color:#F6F6F6"/>
		<stop  offset="0.6845" style="stop-color:#EBEBEB"/>
		<stop  offset="0.7713" style="stop-color:#DADADA"/>
		<stop  offset="0.797" style="stop-color:#EBEBEB"/>
		<stop  offset="0.8292" style="stop-color:#F6F6F6"/>
		<stop  offset="0.8744" style="stop-color:#FDFDFD"/>
		<stop  offset="1" style="stop-color:#FFFFFF"/>
	</linearGradient>
	<path style="fill:url(#SVGID_00000119803851445430711360000010636220563454584214_);" d="M31.7,10c0.3-1.1-0.2-5.7-4.4-6.7
		s-6.1,3-6.1,3c-1.8-1.2-6.1-1.2-7.8,0c0,0-1.8-4-6.1-3S2.6,8.9,2.9,10c-0.9,1-2.5,3.2-2.1,6.9C1.2,20.4,7.4,20,7.4,20
		s-1.9,7.6,1.5,9.2l8.4-0.1l8.4,0.1c3.3-1.6,1.5-9.2,1.5-9.2s6.3,0.4,6.6-3.1C34.2,13.1,32.7,11,31.7,10z"/>
	<g>
		<g>
			<ellipse class="st2" cx="17.2" cy="12.4" rx="3.4" ry="3.3"/>
			<path class="st2" d="M24.3,25.3c-0.1-3.9-1.9-8.6-7.1-8.6c-5.3,0-7,4.7-7.1,8.6H24.3z"/>
		</g>
		<g>
			<g>
				<ellipse class="st2" cx="8.5" cy="8.6" rx="2" ry="2"/>
				<path class="st2" d="M12.8,16.3c-0.1-2.3-1.1-5.1-4.3-5.1S4.3,14,4.2,16.3H12.8z"/>
			</g>
			<g>
				<ellipse class="st2" cx="26" cy="8.6" rx="2" ry="2"/>
				<path class="st2" d="M30.2,16.3c-0.1-2.3-1.1-5.1-4.3-5.1s-4.2,2.8-4.3,5.1H30.2z"/>
			</g>
		</g>
	</g>
</g>
</svg>
