<?xml version="1.0" encoding="utf-8"?>
<!-- Generator: Adobe Illustrator 25.4.1, SVG Export Plug-In . SVG Version: 6.00 Build 0)  -->
<svg version="1.1" id="Calque_1" xmlns="http://www.w3.org/2000/svg" xmlns:xlink="http://www.w3.org/1999/xlink" x="0px" y="0px"
	 viewBox="0 0 36.9 36.9" style="enable-background:new 0 0 36.9 36.9;" xml:space="preserve">
<style type="text/css">
	.st0{clip-path:url(#SVGID_00000153692188244420445090000017068534287146880150_);}
	.st1{filter:url(#Adobe_OpacityMaskFilter);}
	.st2{clip-path:url(#SVGID_00000004524562758762134520000008784154104044141209_);}
	.st3{clip-path:url(#SVGID_00000109712901224860859320000010203085447040561825_);}
	
		.st4{clip-path:url(#SVGID_00000002356142106649544960000001844281674266939547_);fill:url(#SVGID_00000116192988736928207990000001805876800310559165_);}
	
		.st5{clip-path:url(#SVGID_00000004524562758762134520000008784154104044141209_);mask:url(#SVGID_00000060029135533317785030000004087887292729363598_);fill:url(#SVGID_00000063620063007640453810000016797284624983425960_);}
	.st6{fill:url(#SVGID_00000143577074739208828510000012650226934068553108_);}
	.st7{fill:url(#SVGID_00000040549962295246332290000006842429859986346159_);}
	.st8{fill:#F26951;}
</style>
<g>
	<g>
		<g>
			<defs>
				<polygon id="SVGID_1_" points="1,1 2,1 1,2 				"/>
			</defs>
			<defs>
				<polygon id="SVGID_00000160189183353123767680000014533514725104861101_" points="-1,-1 -2,-1 -1,-2 				"/>
			</defs>
			<clipPath id="SVGID_00000175305028952434184740000014123661441430596761_">
				<use xlink:href="#SVGID_1_"  style="overflow:visible;"/>
			</clipPath>
			
				<clipPath id="SVGID_00000023242511581991890250000010588960863824112572_" style="clip-path:url(#SVGID_00000175305028952434184740000014123661441430596761_);">
				<use xlink:href="#SVGID_00000160189183353123767680000014533514725104861101_"  style="overflow:visible;"/>
			</clipPath>
			<defs>
				<filter id="Adobe_OpacityMaskFilter" filterUnits="userSpaceOnUse" x="4.4" y="0.9" width="31.3" height="35.1">
					<feColorMatrix  type="matrix" values="1 0 0 0 0  0 1 0 0 0  0 0 1 0 0  0 0 0 1 0"/>
				</filter>
			</defs>
			
				<mask maskUnits="userSpaceOnUse" x="4.4" y="0.9" width="31.3" height="35.1" id="SVGID_00000157268218420610226600000018315089417773672615_">
				<g class="st1">
					<g>
						<defs>
							<polygon id="SVGID_00000017515317196922525620000005766257667789588631_" points="1,1 2,1 1,2 							"/>
						</defs>
						<defs>
							<polygon id="SVGID_00000183238516390956319570000015155049597726460554_" points="-1,-1 -2,-1 -1,-2 							"/>
						</defs>
						
							<clipPath id="SVGID_00000158723269999364878910000009296827510047494063_" style="clip-path:url(#SVGID_00000023242511581991890250000010588960863824112572_);">
							<use xlink:href="#SVGID_00000017515317196922525620000005766257667789588631_"  style="overflow:visible;"/>
						</clipPath>
						
							<clipPath id="SVGID_00000094596430633413441540000000566020084201184647_" style="clip-path:url(#SVGID_00000158723269999364878910000009296827510047494063_);">
							<use xlink:href="#SVGID_00000183238516390956319570000015155049597726460554_"  style="overflow:visible;"/>
						</clipPath>
						
							<linearGradient id="SVGID_00000136373931262972901860000017095841792927947141_" gradientUnits="userSpaceOnUse" x1="-24.9736" y1="36.8382" x2="-29.8058" y2="1.8475" gradientTransform="matrix(1 0 -0.1381 -1 50.15 38)">
							<stop  offset="8.490570e-02" style="stop-color:#FFFFFF"/>
							<stop  offset="0.163" style="stop-color:#F5F5F5"/>
							<stop  offset="0.2972" style="stop-color:#D9D9D9"/>
							<stop  offset="0.4712" style="stop-color:#ACACAC"/>
							<stop  offset="0.6784" style="stop-color:#6E6E6E"/>
							<stop  offset="0.9109" style="stop-color:#202020"/>
							<stop  offset="1" style="stop-color:#000000"/>
						</linearGradient>
						
							<path style="clip-path:url(#SVGID_00000094596430633413441540000000566020084201184647_);fill:url(#SVGID_00000136373931262972901860000017095841792927947141_);" d="
							M20.1,36c3.3,0,6.2-1.4,8.3-3.7c0.5,0.2,1,0.3,1.4,0.3c0.3,0,0.6,0,0.9-0.1l1.3-0.3c1.5-0.4,2.5-1.7,2.7-3.4
							c0.1-0.6,0.2-1.6-0.7-4.8c3.5-5.9,1-12-1-14.6c-4.2-5.5-9.8-8.5-15.7-8.5c-2.1,0-3.6,0.4-3.8,0.5C12,1.8,11,3.1,10.8,4.7
							c-0.1,0.7,0,1.3,0.1,2C6.4,9,3.7,14.4,4.6,20.8C5.8,29.2,12.7,36,20.1,36z"/>
					</g>
				</g>
			</mask>
			
				<linearGradient id="SVGID_00000103957967723667788210000003466088213356359353_" gradientUnits="userSpaceOnUse" x1="-24.9736" y1="36.8382" x2="-29.8058" y2="1.8475" gradientTransform="matrix(1 0 -0.1381 -1 50.15 38)">
				<stop  offset="8.490570e-02" style="stop-color:#FFFFFF"/>
				<stop  offset="0.163" style="stop-color:#F5F5F5"/>
				<stop  offset="0.2972" style="stop-color:#D9D9D9"/>
				<stop  offset="0.4712" style="stop-color:#ACACAC"/>
				<stop  offset="0.6784" style="stop-color:#6E6E6E"/>
				<stop  offset="0.9109" style="stop-color:#202020"/>
				<stop  offset="1" style="stop-color:#000000"/>
			</linearGradient>
			
				<path style="clip-path:url(#SVGID_00000023242511581991890250000010588960863824112572_);mask:url(#SVGID_00000157268218420610226600000018315089417773672615_);fill:url(#SVGID_00000103957967723667788210000003466088213356359353_);" d="
				M20.1,36c3.3,0,6.2-1.4,8.3-3.7c0.5,0.2,1,0.3,1.4,0.3c0.3,0,0.6,0,0.9-0.1l1.3-0.3c1.5-0.4,2.5-1.7,2.7-3.4
				c0.1-0.6,0.2-1.6-0.7-4.8c3.5-5.9,1-12-1-14.6c-4.2-5.5-9.8-8.5-15.7-8.5c-2.1,0-3.6,0.4-3.8,0.5C12,1.8,11,3.1,10.8,4.7
				c-0.1,0.7,0,1.3,0.1,2C6.4,9,3.7,14.4,4.6,20.8C5.8,29.2,12.7,36,20.1,36z"/>
		</g>
	</g>
	
		<linearGradient id="SVGID_00000176031734878037704980000006726131457515306661_" gradientUnits="userSpaceOnUse" x1="-24.9736" y1="36.8382" x2="-29.8058" y2="1.8475" gradientTransform="matrix(1 0 -0.1381 -1 50.15 38)">
		<stop  offset="8.490570e-02" style="stop-color:#535153"/>
		<stop  offset="0.2077" style="stop-color:#5D5B5D;stop-opacity:0.8926"/>
		<stop  offset="0.4185" style="stop-color:#787778;stop-opacity:0.7084"/>
		<stop  offset="0.6917" style="stop-color:#A4A3A4;stop-opacity:0.4696"/>
		<stop  offset="1" style="stop-color:#DEDEDE;stop-opacity:0.2"/>
	</linearGradient>
	<path style="fill:url(#SVGID_00000176031734878037704980000006726131457515306661_);" d="M20.1,36c3.3,0,6.2-1.4,8.3-3.7
		c0.5,0.2,1,0.3,1.4,0.3c0.3,0,0.6,0,0.9-0.1l1.3-0.3c1.5-0.4,2.5-1.7,2.7-3.4c0.1-0.6,0.2-1.6-0.7-4.8c3.5-5.9,1-12-1-14.6
		c-4.2-5.5-9.8-8.5-15.7-8.5c-2.1,0-3.6,0.4-3.8,0.5C12,1.8,11,3.1,10.8,4.7c-0.1,0.7,0,1.3,0.1,2C6.4,9,3.7,14.4,4.6,20.8
		C5.8,29.2,12.7,36,20.1,36z"/>
	
		<linearGradient id="SVGID_00000172424498385370207780000004154320241256078514_" gradientUnits="userSpaceOnUse" x1="5.9715" y1="9.466" x2="28.8382" y2="32.3326" gradientTransform="matrix(1 0 0 -1 0 38)">
		<stop  offset="0" style="stop-color:#FFFFFF"/>
		<stop  offset="0.4236" style="stop-color:#FDFDFD"/>
		<stop  offset="0.5761" style="stop-color:#F6F6F6"/>
		<stop  offset="0.6845" style="stop-color:#EBEBEB"/>
		<stop  offset="0.7713" style="stop-color:#DADADA"/>
		<stop  offset="0.797" style="stop-color:#EBEBEB"/>
		<stop  offset="0.8292" style="stop-color:#F6F6F6"/>
		<stop  offset="0.8744" style="stop-color:#FDFDFD"/>
		<stop  offset="1" style="stop-color:#FFFFFF"/>
	</linearGradient>
	<path style="fill:url(#SVGID_00000172424498385370207780000004154320241256078514_);" d="M14.6,31.6c3.3,0,6.4-1.2,8.8-3.2
		c0.4,0.2,0.9,0.2,1.4,0.2c0.3,0,0.6,0,0.9-0.1l1.3-0.3c1.5-0.3,2.7-1.5,3.1-3c0.2-0.6,0.4-1.4-0.1-4.2c4.3-5.2,2.6-10.6,1-12.8
		c-3.4-4.8-8.6-7.4-14.6-7.4c-2.1,0-3.6,0.3-3.9,0.4c-1.4,0.4-2.6,1.5-3,2.9c-0.1,0.6-0.1,1.2,0,1.8c-4.9,2-8.3,6.8-8.3,12.4
		C1.2,25.6,7.2,31.6,14.6,31.6z"/>
	<g>
		<path class="st8" d="M18.9,21.9c0.1-0.2,0.1-0.5,0.2-0.8c-0.4-0.2-0.7-0.4-1.1-0.6c-0.1,0.5-0.2,1-0.3,1.4h-2.6v-3.3h1.2
			c0,0,0-0.1-0.1-0.1c-0.1-0.2-0.2-0.3-0.3-0.5H15v-2.4c-0.3-1.2-0.4-2.3-0.4-3.4c-0.1-1.1-0.1-2.1-0.5-3.1
			c-4.9,0.2-8.8,4.2-8.8,9.1c0,5,4.1,9.1,9.1,9.1c3.8,0,7-2.2,8.4-5.5C21.6,21.8,18.9,21.9,18.9,21.9z M11.7,11.2
			c-0.6,0.7-1.1,1.7-1.5,3H8.1C9,12.8,10.2,11.8,11.7,11.2z M7.8,14.8h2.3c-0.2,0.9-0.4,2-0.4,3.2H7C7,16.9,7.3,15.8,7.8,14.8z
			 M7.9,21.9c-0.5-1-0.9-2.1-0.9-3.3h2.7c0,1.3,0.2,2.3,0.5,3.3H7.9z M8.3,22.5h2c0.4,1.2,1,2.2,1.6,2.9
			C10.4,24.7,9.2,23.7,8.3,22.5z M14,25.7c-0.7-0.5-1.7-1.4-2.4-3.2H14V25.7z M14,21.9h-2.6c-0.3-0.9-0.5-2-0.5-3.3H14V21.9z M14,18
			h-3.1c0-1.3,0.2-2.3,0.4-3.2H14V18z M14,14.2h-2.6c0.7-2,1.7-3,2.5-3.5H14V14.2z M15.1,25.7v-3.2h2.4
			C16.8,24.2,15.8,25.2,15.1,25.7z M17.2,25.3c0.6-0.7,1.2-1.6,1.6-2.9h2.1C19.9,23.7,18.7,24.8,17.2,25.3z"/>
		<path class="st8" d="M27.6,10.7c0,0,2.8,3.8-1.2,8l-0.1,0.1c-0.3-1.3-0.9-2.6-0.9-2.6c1.3-1.3,1.8-3.5,1.8-3.5
			c0.2-0.5-0.2-0.2-0.2-0.2c-0.9,2-2.2,2.5-2.2,2.5c-0.3-0.6-0.6-1.1-0.6-1.1c0.9-1.2,1.5-3.6,1.5-3.6c0.1-0.4-0.2-0.3-0.2-0.3
			c-1,2.3-2,2.6-2,2.6c-0.1-0.3-0.7-1.2-0.7-1.2C23.6,10,23.3,8,23.3,8C23.2,7.7,23,8,23,8c-0.1,2.1-0.8,2.4-0.8,2.4
			c-3.2-3.6-5.4-4-5.4-4c-1.3-0.3-1.1,0-1.1,0c3.6,1.8,5.6,4.3,5.6,4.3c-2.7,0.2-4.1-0.5-4.1-0.5c-0.6-0.2-0.1,0.4-0.1,0.4
			c3.7,1.4,4.8,1.3,4.8,1.3c0.2,0.3,0.8,1.1,0.8,1.1c-2.9,1-5.1,0.1-5.1,0.1c-0.5,0-0.1,0.4-0.1,0.4c4.4,1.1,6,0.7,6,0.7
			c0.1,0.2,0.5,1.1,0.5,1.1c-2.6,1-5.5,0.6-5.5,0.6c-0.5,0-0.1,0.4-0.1,0.4c4.7,1.3,6.2,0.5,6.2,0.5c0.3,0.5,0.7,2,0.9,2.7l0,0l0,0
			c0.1,0.6,0.9,3.8,0.6,4.6l-1.3,0.3c0,0,0.4-2.8-0.2-4.5c-1.6,0.6-5.3,1.1-7-2c-2.7-4.7,0.1-8.1-4-12.6
			C13.6,5.3,22.2,3.1,27.6,10.7z"/>
	</g>
</g>
</svg>
