<?xml version="1.0" encoding="utf-8"?>
<!-- Generator: Adobe Illustrator 25.4.1, SVG Export Plug-In . SVG Version: 6.00 Build 0)  -->
<svg version="1.1" id="Calque_1" xmlns="http://www.w3.org/2000/svg" xmlns:xlink="http://www.w3.org/1999/xlink" x="0px" y="0px"
	 viewBox="0 0 36.9 36.9" style="enable-background:new 0 0 36.9 36.9;" xml:space="preserve">
<style type="text/css">
	.st0{fill:url(#SVGID_1_);}
	.st1{fill:url(#SVGID_00000123420840445902404260000001221916062078129565_);}
	.st2{fill:#F26951;}
</style>
<g>
	
		<linearGradient id="SVGID_1_" gradientUnits="userSpaceOnUse" x1="20.1571" y1="37.0235" x2="20.1571" y2="1.6" gradientTransform="matrix(1 0 0 -1 0 38)">
		<stop  offset="8.490570e-02" style="stop-color:#535153"/>
		<stop  offset="0.2077" style="stop-color:#5D5B5D;stop-opacity:0.8926"/>
		<stop  offset="0.4185" style="stop-color:#787778;stop-opacity:0.7084"/>
		<stop  offset="0.6917" style="stop-color:#A4A3A4;stop-opacity:0.4696"/>
		<stop  offset="1" style="stop-color:#DEDEDE;stop-opacity:0.2"/>
	</linearGradient>
	<path class="st0" d="M19.5,13.4c0,0-1.1-3-3.3-3.8c-2.7-0.9-3.7,0-3.7,0S10.1,8.1,7,10.3c-3.6,2.6-1.4,6.5-1.4,6.5s-5.3,9.7,4,17.2
		c6.6,5.3,14.1,0.6,14.1,0.6s4.4,2.7,6.3,1.4s5-16.2,4.8-18c-0.3-2.1-0.7-3.2-0.7-3.2s1.9-1.7,2.1-4.1c0.3-4.3-3.2-6-6.3-6.7
		C29,2.8,26,0.6,23.4,1.2c-2.6,0.5-4.3,6-2.6,8.4C22.3,11.6,19.5,13.4,19.5,13.4z"/>
	
		<linearGradient id="SVGID_00000001637703348460907290000009877709005977910686_" gradientUnits="userSpaceOnUse" x1="4.8031" y1="6.82" x2="32.481" y2="34.4979" gradientTransform="matrix(1 0 0 -1 0 38)">
		<stop  offset="0" style="stop-color:#FFFFFF"/>
		<stop  offset="0.4236" style="stop-color:#FDFDFD"/>
		<stop  offset="0.5761" style="stop-color:#F6F6F6"/>
		<stop  offset="0.6845" style="stop-color:#EBEBEB"/>
		<stop  offset="0.7713" style="stop-color:#DADADA"/>
		<stop  offset="0.797" style="stop-color:#EBEBEB"/>
		<stop  offset="0.8292" style="stop-color:#F6F6F6"/>
		<stop  offset="0.8744" style="stop-color:#FDFDFD"/>
		<stop  offset="1" style="stop-color:#FFFFFF"/>
	</linearGradient>
	<path style="fill:url(#SVGID_00000001637703348460907290000009877709005977910686_);" d="M17.8,12.2c0,0-0.6-2.8-2.7-3.5
		c-2.6-0.8-3.8,0-3.8,0S9.2,7.2,5.7,9.3c-4.1,2.5-2.4,6-2.4,6S-3.4,24.2,4.7,31c5.7,4.7,13.9,0.5,13.9,0.5s3.8,2.4,5.9,1.2
		s7.8-14.7,8-16.4c0.1-2-0.1-3-0.1-3s2.2-1.6,2.8-3.8c1.1-4-2.2-5.7-5.2-6.4c-0.7-1.1-3.4-3.2-6.1-2.7s-5.4,5.7-4.1,8
		C20.9,10.5,17.8,12.2,17.8,12.2z"/>
	<g>
		<path class="st2" d="M9.6,19.2c-0.6,0.5-3,1.8-1.3,2c1.1-0.5,2-1.6,3.3-1.4c1.6-0.2,2.7,0.4,3.9,1.4c0.2,0.2,0.5,0,0.6-0.1
			c0.2-0.2,0-0.4-0.1-0.5c-0.5-0.4-1-0.7-1.6-1.1c0.7-2.8,3.9-1.4,4.6,0.7c0.6,1.2,0.5,2.4,0.4,3.6C18.2,30.3,8.2,31.6,5.1,26
			c-0.6-1.3-1.2-2.7-1.1-4.5C4.3,18.9,7.5,16.5,9.6,19.2z M18.4,23c0.1-0.9-0.9-1.3-1.2-0.3c-0.2,0.7-0.2,1.5-0.7,2.2
			c-0.4,0.5-1.1,1.3-0.5,1.8C17.5,27,18.1,24,18.4,23z"/>
		<path class="st2" d="M28,17.3c-0.5-0.2-0.9-0.3-1.3-0.5c-0.6-0.2-1.1-0.3-1.7-0.3c-0.2,0-0.4,0.2-0.7,0.3c1.1,0.7,2.3,0.8,3.2,1.8
			c-0.1,0.3-0.2,0.6-0.4,1c-0.1,0-0.3,0-0.4-0.1c-0.7-0.5-1.5-0.4-2.3-0.4c-0.1,0-0.3,0.2-0.4,0.3c0.9,0.4,1.8,0.9,2.6,1.3
			c-0.2,0.5-0.4,0.9-0.6,1.5c-0.2-0.1-0.5-0.1-0.8-0.2c-0.5-0.2-1-0.1-1.5,0.1c-0.1,0-0.1,0.2-0.2,0.3c0.7,0.3,1.4,0.6,2,0.9
			c-0.3,0.7-0.5,1.3-0.8,1.9c-0.4,1-0.8,2-1.2,3.1c-0.1,0.3-0.3,0.5-0.4,0.7c-0.3,0.5-1,0.4-1.2-0.1c-0.1-0.2-0.2-0.4-0.2-0.7
			c0-0.8,0.1-1.5,0.1-2.3c0-0.3,0-0.6,0-0.9c0-3.1,0-6.1,0-9.2c0-0.6,0.1-1.3,0.2-1.9c0.1-0.9,1.3-1.8,2.2-1.9c1,0,2,0,2.9,0.5
			c1,0.5,1.6,1.3,1.6,2.4c0,0.6-0.1,1.1-0.3,1.6C28.2,16.7,28.1,16.9,28,17.3z"/>
		<path class="st2" d="M26.6,6.2c0.7,0.3,0.8,0.4,0.6,1.1c0,0.1-0.1,0.3-0.1,0.4c0,0.8,0,0.8-0.7,1.3c0.1,0.2,0.1,0.4,0.2,0.5
			c0.1,0,0.1,0,0.2,0c0.2-0.1,0.5-0.2,0.7-0.3c0.3-0.2,0.7-0.3,0.6-0.8c0-0.1,0-0.2,0.1-0.2c0.2-0.2,0.3-0.3,0.5-0.4
			c0.1-0.1,0.3-0.3,0.4-0.5c0.2,0.1,0.4,0.3,0.5,0.4c0.5-0.6,0.5-0.6,1.3-0.3c0.2,0.1,0.4,0.2,0.6,0.2c-0.2,1.4-0.2,1.4-1,1.6
			c0,0.2,0,0.4,0.1,0.7c-0.3,0-0.5-0.1-0.8-0.1c-0.1,0.4-0.4,0.5-0.7,0.3c-0.9-0.5-1.5,0.2-2.3,0.5c-0.1,0.1-0.2,0.4-0.3,0.6
			C26.2,11.1,26,11,25.7,11c0-0.1-0.1-0.2,0-0.3c0.1-0.6-0.2-1.2-0.7-1.5c-0.5-0.4-0.6-0.8-0.4-1.2c-0.2-0.5-0.9-0.3-1-0.9
			c0.2-0.1,0.5-0.3,0.8-0.4c-0.2-0.3-0.4-0.6-0.6-0.9c0.3-0.4,0.7-0.8,1.1-1.3c0,0,0.2,0,0.3,0c0.4,0.2,0.7,0.6,1.2,0.6
			c0.1,0,0.3,0.3,0.3,0.5C26.7,5.7,26.6,6,26.6,6.2z"/>
		<path class="st2" d="M7,13.7c0.8-1,1.7-1.5,2.9-1.4c0.6,0,1,0.3,1.2,1c-0.2,0-0.4,0-0.5-0.1C9.9,13,9.3,12.9,8.7,13
			c-0.3,0.1-0.6,0.2-1.1,0.4c0.3,0.1,0.3,0.1,0.4,0.1c1.1-0.2,2.1,0.3,3.1,0.8c0.4,0.2,0.7,0.4,1.1,0.2c0.1-0.4,0.2-0.7,0.4-1.2
			c-0.1-0.2-0.2-0.4-0.3-0.7c0.6-0.3,1.2-0.1,1.7-0.1c0.1,0,0.3,0.2,0.4,0.4c0,0.1-0.1,0.3-0.2,0.4c-0.5,0.2-0.6,0.6-0.7,1
			c-0.2,0.8-0.5,1.5-0.7,2.3c-0.2,0.6-0.2,1.2-0.4,1.9c-0.2,0-0.4,0-0.7,0.1c0.2-1.2,0.3-2.3,0.4-3.5c-0.4-0.2-0.7-0.4-1-0.6
			c-0.8,0.9-1.4,0.6-2.1,0.2c-0.3-0.2-0.5-0.5-0.8-0.7C7.7,13.9,7.4,13.8,7,13.7z"/>
		<path class="st2" d="M8.4,17.2c0.7-0.8,1.7-1,2.6-0.5c0.1,1-0.7,1.1-1.2,1.5C9.4,17.8,8.9,17.5,8.4,17.2z"/>
		<path class="st2" d="M15.5,17c-0.5,0.4-1,0.7-1.5,1.1c-0.3-0.2-0.6-0.4-1-0.6c0.1-0.3,0.1-0.6,0.2-0.8
			C14.1,16.3,14.8,16.4,15.5,17z"/>
	</g>
</g>
</svg>
