<?xml version="1.0" encoding="utf-8"?>
<!-- Generator: Adobe Illustrator 25.4.1, SVG Export Plug-In . SVG Version: 6.00 Build 0)  -->
<svg version="1.1" id="Calque_1" xmlns="http://www.w3.org/2000/svg" xmlns:xlink="http://www.w3.org/1999/xlink" x="0px" y="0px"
	 viewBox="0 0 36.9 36.9" style="enable-background:new 0 0 36.9 36.9;" xml:space="preserve">
<style type="text/css">
	.st0{clip-path:url(#SVGID_00000126319598721000330910000003476130471167589811_);}
	.st1{filter:url(#Adobe_OpacityMaskFilter);}
	.st2{clip-path:url(#SVGID_00000090287329206329115230000010323820625938987697_);}
	.st3{clip-path:url(#SVGID_00000048473602161925011130000005063325698434877056_);}
	.st4{clip-path:url(#SVGID_00000052080896084610958520000003626312576325029279_);}
	.st5{clip-path:url(#SVGID_00000014636538900574726770000012086288398079659937_);}
	.st6{clip-path:url(#SVGID_00000006683081954925670850000012977549734492950928_);}
	.st7{clip-path:url(#SVGID_00000076600053956930344990000015500604145501373586_);}
	.st8{clip-path:url(#SVGID_00000060729641110435971580000004871341284251387559_);}
	
		.st9{clip-path:url(#SVGID_00000043431355324616475970000006912462763017333919_);fill:url(#SVGID_00000183244661095756078290000006156032251432040086_);}
	
		.st10{clip-path:url(#SVGID_00000090287329206329115230000010323820625938987697_);mask:url(#SVGID_00000030476508940005450630000010820181628724094107_);fill:url(#SVGID_00000062886696057567991610000002274129061324961422_);}
	.st11{fill:url(#SVGID_00000132055415523339617960000014419129937461177524_);}
	.st12{fill:url(#SVGID_00000183966507010026909400000017923436781654880934_);}
	.st13{fill:#F26951;}
</style>
<g>
	<g>
		<g>
			<g>
				<defs>
					<polygon id="SVGID_1_" points="1,1 2,1 1,2 					"/>
				</defs>
				<clipPath id="SVGID_00000099656146534652744280000018046388939521640585_">
					<use xlink:href="#SVGID_1_"  style="overflow:visible;"/>
				</clipPath>
			</g>
			<g>
				<defs>
					<polygon id="SVGID_00000010297091735656385190000001207124193370509955_" points="1,1 2,1 1,2 					"/>
				</defs>
				<defs>
					<polygon id="SVGID_00000132769475078675914780000012959212210232851096_" points="-1,-1 -2,-1 -1,-2 					"/>
				</defs>
				<clipPath id="SVGID_00000072962617321634389300000007707813727664466622_">
					<use xlink:href="#SVGID_00000010297091735656385190000001207124193370509955_"  style="overflow:visible;"/>
				</clipPath>
				
					<clipPath id="SVGID_00000089555959500985017200000002861549709948585648_" style="clip-path:url(#SVGID_00000072962617321634389300000007707813727664466622_);">
					<use xlink:href="#SVGID_00000132769475078675914780000012959212210232851096_"  style="overflow:visible;"/>
				</clipPath>
				<defs>
					<filter id="Adobe_OpacityMaskFilter" filterUnits="userSpaceOnUse" x="3.9" y="0.7" width="31.3" height="35.6">
						<feColorMatrix  type="matrix" values="1 0 0 0 0  0 1 0 0 0  0 0 1 0 0  0 0 0 1 0"/>
					</filter>
				</defs>
				
					<mask maskUnits="userSpaceOnUse" x="3.9" y="0.7" width="31.3" height="35.6" id="SVGID_00000030476508940005450630000010820181628724094107_">
					<g class="st1">
						<g>
							<g>
								<defs>
									<polygon id="SVGID_00000084508440698504662410000014265719232678782878_" points="1,1 2,1 1,2 									"/>
								</defs>
								<defs>
									<polygon id="SVGID_00000160158053901581727540000005306878655949328301_" points="-1,-1 -2,-1 -1,-2 									"/>
								</defs>
								
									<clipPath id="SVGID_00000053533021275771454340000013054113745972901534_" style="clip-path:url(#SVGID_00000089555959500985017200000002861549709948585648_);">
									<use xlink:href="#SVGID_00000084508440698504662410000014265719232678782878_"  style="overflow:visible;"/>
								</clipPath>
								
									<clipPath id="SVGID_00000170965175379303007320000013210366913156676508_" style="clip-path:url(#SVGID_00000053533021275771454340000013054113745972901534_);">
									<use xlink:href="#SVGID_00000160158053901581727540000005306878655949328301_"  style="overflow:visible;"/>
								</clipPath>
							</g>
							<g>
								<defs>
									<polygon id="SVGID_00000057124272222298476020000016556114668926899891_" points="1,1 2,1 1,2 									"/>
								</defs>
								<defs>
									<polygon id="SVGID_00000010298551551218660050000014210065719624579978_" points="-1,-1 -2,-1 -1,-2 									"/>
								</defs>
								<defs>
									<polygon id="SVGID_00000135667229112318492010000015265773763998120625_" points="1,1 2,1 1,2 									"/>
								</defs>
								
									<clipPath id="SVGID_00000080188682210691342480000009791061568433221564_" style="clip-path:url(#SVGID_00000089555959500985017200000002861549709948585648_);">
									<use xlink:href="#SVGID_00000057124272222298476020000016556114668926899891_"  style="overflow:visible;"/>
								</clipPath>
								
									<clipPath id="SVGID_00000147905973692703139640000001022317638798077832_" style="clip-path:url(#SVGID_00000080188682210691342480000009791061568433221564_);">
									<use xlink:href="#SVGID_00000010298551551218660050000014210065719624579978_"  style="overflow:visible;"/>
								</clipPath>
								
									<clipPath id="SVGID_00000036223333286763370850000001007312822491845299_" style="clip-path:url(#SVGID_00000147905973692703139640000001022317638798077832_);">
									<use xlink:href="#SVGID_00000135667229112318492010000015265773763998120625_"  style="overflow:visible;"/>
								</clipPath>
							</g>
							<g>
								<defs>
									<polygon id="SVGID_00000022524192139595372460000004343777146331164805_" points="1,1 2,1 1,2 									"/>
								</defs>
								<defs>
									<polygon id="SVGID_00000059286098289267992800000007951869869091339924_" points="-1,-1 -2,-1 -1,-2 									"/>
								</defs>
								<defs>
									<polygon id="SVGID_00000116944634123812877820000006226759104408436872_" points="1,1 2,1 1,2 									"/>
								</defs>
								<defs>
									<polygon id="SVGID_00000154420353084322668010000002902754156256738231_" points="-1,-1 -2,-1 -1,-2 									"/>
								</defs>
								
									<clipPath id="SVGID_00000109723164127395080190000009360575910025726133_" style="clip-path:url(#SVGID_00000089555959500985017200000002861549709948585648_);">
									<use xlink:href="#SVGID_00000022524192139595372460000004343777146331164805_"  style="overflow:visible;"/>
								</clipPath>
								
									<clipPath id="SVGID_00000021112511049058420390000005945845961251676315_" style="clip-path:url(#SVGID_00000109723164127395080190000009360575910025726133_);">
									<use xlink:href="#SVGID_00000059286098289267992800000007951869869091339924_"  style="overflow:visible;"/>
								</clipPath>
								
									<clipPath id="SVGID_00000176746685790003543260000016934975725507701397_" style="clip-path:url(#SVGID_00000021112511049058420390000005945845961251676315_);">
									<use xlink:href="#SVGID_00000116944634123812877820000006226759104408436872_"  style="overflow:visible;"/>
								</clipPath>
								
									<clipPath id="SVGID_00000072966857498492056110000016256476630791224497_" style="clip-path:url(#SVGID_00000176746685790003543260000016934975725507701397_);">
									<use xlink:href="#SVGID_00000154420353084322668010000002902754156256738231_"  style="overflow:visible;"/>
								</clipPath>
								
									<linearGradient id="SVGID_00000183944158269603759690000016380570641516464528_" gradientUnits="userSpaceOnUse" x1="-65.4141" y1="775.4925" x2="-70.0917" y2="810.2182" gradientTransform="matrix(1 0 0.1347 1 -19.4716 -774.11)">
									<stop  offset="8.490570e-02" style="stop-color:#FFFFFF"/>
									<stop  offset="0.163" style="stop-color:#F5F5F5"/>
									<stop  offset="0.2972" style="stop-color:#D9D9D9"/>
									<stop  offset="0.4712" style="stop-color:#ACACAC"/>
									<stop  offset="0.6784" style="stop-color:#6E6E6E"/>
									<stop  offset="0.9109" style="stop-color:#202020"/>
									<stop  offset="1" style="stop-color:#000000"/>
								</linearGradient>
								
									<path style="clip-path:url(#SVGID_00000072966857498492056110000016256476630791224497_);fill:url(#SVGID_00000183944158269603759690000016380570641516464528_);" d="
									M23.9,13.4c-0.4,0-0.8,0-1.2,0.1c0.3-0.5,0.6-1.1,0.9-1.5c1-1.3,1.1-3.2,0.3-4.9c-0.9-1.7-2.4-2.7-4.1-2.7
									c-0.4,0-0.7,0.1-1,0.2c-0.3-0.3-0.7-0.6-0.9-0.8l-0.1-0.1c-0.5-1.3-1.6-2.4-2.9-2.8c-0.4-0.1-0.8-0.2-1.2-0.2
									c-0.9,0-1.7,0.4-2.4,1c-1,1.1-2.2,3.4-1.9,6.5c-0.6-0.4-1.3-0.6-2-0.6c-0.1,0-0.2,0-0.3,0c-1.3,0.1-2.4,1-2.8,2.3
									c-0.8,2.5-0.5,7.5,3.7,12c1.1,1.3,2.5,3,4.7,3c0.1,0,0.2,0,0.4,0c0.6,2.7,1.5,5.5,2.8,8.4c0.7,1.7,2.3,2.8,3.9,2.9l2.6,0.1
									c1.3,0,2.4-0.7,2.9-1.9c0.5-1.1,0.4-2.4-0.1-3.6c0.7-0.1,1.3-0.2,1.9-0.5c2.1-0.9,3.1-2.4,3.8-3.4c0.7-1,0.8-1.1,1.6-1.3
									c1.3-0.2,2.3-1.2,2.6-2.5c0.3-1.4-0.1-2.9-1-4.1C33.9,18.2,29.9,13.4,23.9,13.4z"/>
							</g>
						</g>
					</g>
				</mask>
				
					<linearGradient id="SVGID_00000023257999984641321440000010793621579277294777_" gradientUnits="userSpaceOnUse" x1="-65.4141" y1="775.4925" x2="-70.0917" y2="810.2182" gradientTransform="matrix(1 0 0.1347 1 -19.4716 -774.11)">
					<stop  offset="8.490570e-02" style="stop-color:#FFFFFF"/>
					<stop  offset="0.163" style="stop-color:#F5F5F5"/>
					<stop  offset="0.2972" style="stop-color:#D9D9D9"/>
					<stop  offset="0.4712" style="stop-color:#ACACAC"/>
					<stop  offset="0.6784" style="stop-color:#6E6E6E"/>
					<stop  offset="0.9109" style="stop-color:#202020"/>
					<stop  offset="1" style="stop-color:#000000"/>
				</linearGradient>
				
					<path style="clip-path:url(#SVGID_00000089555959500985017200000002861549709948585648_);mask:url(#SVGID_00000030476508940005450630000010820181628724094107_);fill:url(#SVGID_00000023257999984641321440000010793621579277294777_);" d="
					M23.9,13.4c-0.4,0-0.8,0-1.2,0.1c0.3-0.5,0.6-1.1,0.9-1.5c1-1.3,1.1-3.2,0.3-4.9c-0.9-1.7-2.4-2.7-4.1-2.7c-0.4,0-0.7,0.1-1,0.2
					c-0.3-0.3-0.7-0.6-0.9-0.8l-0.1-0.1c-0.5-1.3-1.6-2.4-2.9-2.8c-0.4-0.1-0.8-0.2-1.2-0.2c-0.9,0-1.7,0.4-2.4,1
					c-1,1.1-2.2,3.4-1.9,6.5c-0.6-0.4-1.3-0.6-2-0.6c-0.1,0-0.2,0-0.3,0c-1.3,0.1-2.4,1-2.8,2.3c-0.8,2.5-0.5,7.5,3.7,12
					c1.1,1.3,2.5,3,4.7,3c0.1,0,0.2,0,0.4,0c0.6,2.7,1.5,5.5,2.8,8.4c0.7,1.7,2.3,2.8,3.9,2.9l2.6,0.1c1.3,0,2.4-0.7,2.9-1.9
					c0.5-1.1,0.4-2.4-0.1-3.6c0.7-0.1,1.3-0.2,1.9-0.5c2.1-0.9,3.1-2.4,3.8-3.4c0.7-1,0.8-1.1,1.6-1.3c1.3-0.2,2.3-1.2,2.6-2.5
					c0.3-1.4-0.1-2.9-1-4.1C33.9,18.2,29.9,13.4,23.9,13.4z"/>
			</g>
		</g>
	</g>
	
		<linearGradient id="SVGID_00000174581547452089535400000001676957179273765781_" gradientUnits="userSpaceOnUse" x1="-65.4141" y1="775.4925" x2="-70.0917" y2="810.2182" gradientTransform="matrix(1 0 0.1347 1 -19.4716 -774.11)">
		<stop  offset="8.490570e-02" style="stop-color:#535153"/>
		<stop  offset="0.2077" style="stop-color:#5D5B5D;stop-opacity:0.8926"/>
		<stop  offset="0.4185" style="stop-color:#787778;stop-opacity:0.7084"/>
		<stop  offset="0.6917" style="stop-color:#A4A3A4;stop-opacity:0.4696"/>
		<stop  offset="1" style="stop-color:#DEDEDE;stop-opacity:0.2"/>
	</linearGradient>
	<path style="fill:url(#SVGID_00000174581547452089535400000001676957179273765781_);" d="M23.9,13.4c-0.4,0-0.8,0-1.2,0.1
		c0.3-0.5,0.6-1.1,0.9-1.5c1-1.3,1.1-3.2,0.3-4.9c-0.9-1.7-2.4-2.7-4.1-2.7c-0.4,0-0.7,0.1-1,0.2c-0.3-0.3-0.7-0.6-0.9-0.8l-0.1-0.1
		c-0.5-1.3-1.6-2.4-2.9-2.8c-0.4-0.1-0.8-0.2-1.2-0.2c-0.9,0-1.7,0.4-2.4,1c-1,1.1-2.2,3.4-1.9,6.5c-0.6-0.4-1.3-0.6-2-0.6
		c-0.1,0-0.2,0-0.3,0c-1.3,0.1-2.4,1-2.8,2.3c-0.8,2.5-0.5,7.5,3.7,12c1.1,1.3,2.5,3,4.7,3c0.1,0,0.2,0,0.4,0
		c0.6,2.7,1.5,5.5,2.8,8.4c0.7,1.7,2.3,2.8,3.9,2.9l2.6,0.1c1.3,0,2.4-0.7,2.9-1.9c0.5-1.1,0.4-2.4-0.1-3.6c0.7-0.1,1.3-0.2,1.9-0.5
		c2.1-0.9,3.1-2.4,3.8-3.4c0.7-1,0.8-1.1,1.6-1.3c1.3-0.2,2.3-1.2,2.6-2.5c0.3-1.4-0.1-2.9-1-4.1C33.9,18.2,29.9,13.4,23.9,13.4z"/>
	
		<linearGradient id="SVGID_00000106113756999277195180000004422066408444424605_" gradientUnits="userSpaceOnUse" x1="6.0507" y1="800.0377" x2="24.1474" y2="781.9409" gradientTransform="matrix(1 0 0 1 0 -774.11)">
		<stop  offset="0" style="stop-color:#FFFFFF"/>
		<stop  offset="0.4236" style="stop-color:#FDFDFD"/>
		<stop  offset="0.5761" style="stop-color:#F6F6F6"/>
		<stop  offset="0.6845" style="stop-color:#EBEBEB"/>
		<stop  offset="0.7713" style="stop-color:#DADADA"/>
		<stop  offset="0.797" style="stop-color:#EBEBEB"/>
		<stop  offset="0.8292" style="stop-color:#F6F6F6"/>
		<stop  offset="0.8744" style="stop-color:#FDFDFD"/>
		<stop  offset="1" style="stop-color:#FFFFFF"/>
	</linearGradient>
	<path style="fill:url(#SVGID_00000106113756999277195180000004422066408444424605_);" d="M21.5,12.3c-0.4,0-0.8,0-1.2,0.1
		c0.3-0.5,0.7-1,1.1-1.4c1.2-1.3,1.6-3,1-4.5s-2.1-2.4-3.8-2.4c-0.4,0-0.7,0.1-1.1,0.1c-0.3-0.3-0.6-0.5-0.8-0.7l-0.1-0.1
		c-0.4-1.2-1.3-2.2-2.5-2.6c-0.4-0.1-0.8-0.2-1.2-0.2c-0.9,0-1.8,0.3-2.5,0.9c-1.1,1-2.7,3.1-2.8,5.8C7.1,7.1,6.5,7,5.8,7
		C5.7,7,5.6,7,5.5,7C4.2,7.1,3,7.9,2.4,9.1c-1.1,2.3-2,7.1,1.6,11.2c0.9,1.1,2.6,2.3,4.8,2.3c0.1,0,0.2,0,0.4,0
		c0.2,2.4,0.8,4.9,1.6,7.5c0.5,1.5,1.9,2.6,3.5,2.6l2.6,0.1c1.3,0,2.5-0.7,3.2-1.7c0.6-1,0.8-2.2,0.4-3.3c0.7,0,1.3-0.2,2-0.4
		c2.2-0.8,3.4-2.2,4.3-3.1c0.8-0.9,1-1,1.8-1.2c1.3-0.2,2.4-1.1,3-2.3c0.5-1.2,0.3-2.6-0.4-3.7C30.8,16.6,27.4,12.3,21.5,12.3z"/>
	<path class="st13" d="M19.2,16.4c0,0-2.8,0.8-2.6,3.7c0,0,2.2-1.2,3.5-1.7c3-1.2,5.9,0.1,5.9,0.1c0.3,0.2-0.2,0.2-0.2,0.2
		c-1.7-0.3-2.7-0.1-3.2,0c-2.6,0.6-4.4,1.8-4.4,1.8l0,0c-0.4,0.2-1.1,0.7-1.4,0.9l0,0l0,0c-0.2,0.2-1.1,0.9-1.7,1.4
		c-0.8-4.4-0.7-10.2,3.6-14.6c0,0,0.4-0.4-0.2-0.4c0,0-1.5,0.9-3,3c-0.3-0.2-0.6-0.4-0.8-0.6C15.3,9.9,16.1,9,15.6,8
		c-0.8-1.6-2.2-1.5-2.7-3.4c0,0-2.2,1.9-1.2,4.8c0,0,0.3,1.5,2.2,1.2c-0.2-0.2-0.6-0.7-0.6-0.7s-0.5-0.6-0.8-2c-0.4-1.4,0-2.2,0-2.2
		c0.1-0.2,0.1,0.1,0.1,0.1c0,1.1,0.2,1.7,0.3,1.9c0.2,0.5,0.8,2,1.5,2.7c0,0,0,0.1,0.1,0.1l0,0l0,0c0.1,0.1,0.5,0.6,0.8,0.8
		c-1,1.6-2,3.8-2.4,6.6c-0.5-0.1-1.1-0.2-1.5-0.5c0.5-0.7,1-2.4-0.2-3.5c-1.9-1.7-3.8-0.8-5.5-3.1c0,0-1.9,3.8,1.1,7.1
		c0,0,1.3,1.8,3.5,0.5c0,0-1-0.4-3-2.5C5.8,14.3,6,12.5,6,12.5c0-0.3,0.2,0.1,0.2,0.1c1,3.2,4.7,5,5.1,5.2l0,0l0,0
		c0.2,0.1,1.1,0.5,1.7,0.7c-0.3,2.8,0.1,6.3,1.5,10.5H17c0,0-1-2.1-1.7-5.1c0.3-0.4,1-1.5,1.7-1.9c0.5,0.9,2.1,2.6,4.1,1.8
		c3.2-1.2,3.2-3.9,6.9-4.5C28.1,19.3,24.8,14.9,19.2,16.4z"/>
</g>
</svg>
