<?xml version="1.0" encoding="utf-8"?>
<!-- Generator: Adobe Illustrator 25.4.1, SVG Export Plug-In . SVG Version: 6.00 Build 0)  -->
<svg version="1.1" id="Calque_1" xmlns="http://www.w3.org/2000/svg" xmlns:xlink="http://www.w3.org/1999/xlink" x="0px" y="0px"
	 viewBox="0 0 36.9 36.9" style="enable-background:new 0 0 36.9 36.9;" xml:space="preserve">
<style type="text/css">
	.st0{clip-path:url(#SVGID_00000137836849942301772440000018126969002061970854_);}
	.st1{filter:url(#Adobe_OpacityMaskFilter);}
	.st2{clip-path:url(#SVGID_00000108299145793354460750000010234976783317441459_);}
	.st3{clip-path:url(#SVGID_00000036233675325832105670000001600500689588815760_);}
	
		.st4{clip-path:url(#SVGID_00000114038262366503967470000017851922819228878722_);fill:url(#SVGID_00000008850458990892636730000007139447337498215356_);}
	
		.st5{clip-path:url(#SVGID_00000108299145793354460750000010234976783317441459_);mask:url(#SVGID_00000143601576493434103940000017546192070528936380_);fill:url(#SVGID_00000164515936344213813030000000853816278995539083_);}
	.st6{fill:url(#SVGID_00000111193490369708995980000015275979186661607319_);}
	.st7{fill:url(#SVGID_00000052068377231235287770000016744939787438141612_);}
	.st8{fill:#73BBC9;}
</style>
<g>
	<g>
		<g>
			<defs>
				<polygon id="SVGID_1_" points="1,1 2,1 1,2 				"/>
			</defs>
			<defs>
				<polygon id="SVGID_00000052062105568554103350000001461485163069477538_" points="-1,-1 -2,-1 -1,-2 				"/>
			</defs>
			<clipPath id="SVGID_00000045586277647485571490000003472281061907817865_">
				<use xlink:href="#SVGID_1_"  style="overflow:visible;"/>
			</clipPath>
			
				<clipPath id="SVGID_00000116226046965295124160000012026987024665680816_" style="clip-path:url(#SVGID_00000045586277647485571490000003472281061907817865_);">
				<use xlink:href="#SVGID_00000052062105568554103350000001461485163069477538_"  style="overflow:visible;"/>
			</clipPath>
			<defs>
				<filter id="Adobe_OpacityMaskFilter" filterUnits="userSpaceOnUse" x="3.9" y="0.7" width="31.3" height="35.6">
					<feColorMatrix  type="matrix" values="1 0 0 0 0  0 1 0 0 0  0 0 1 0 0  0 0 0 1 0"/>
				</filter>
			</defs>
			
				<mask maskUnits="userSpaceOnUse" x="3.9" y="0.7" width="31.3" height="35.6" id="SVGID_00000107555628324013576350000000787840267742886822_">
				<g class="st1">
					<g>
						<defs>
							<polygon id="SVGID_00000079474616548152907480000003300588259310780089_" points="1,1 2,1 1,2 							"/>
						</defs>
						<defs>
							<polygon id="SVGID_00000153704981101476693240000007929469241567834554_" points="-1,-1 -2,-1 -1,-2 							"/>
						</defs>
						
							<clipPath id="SVGID_00000070799613884846101190000012256213747544727733_" style="clip-path:url(#SVGID_00000116226046965295124160000012026987024665680816_);">
							<use xlink:href="#SVGID_00000079474616548152907480000003300588259310780089_"  style="overflow:visible;"/>
						</clipPath>
						
							<clipPath id="SVGID_00000111164043540670810190000000888732563476174216_" style="clip-path:url(#SVGID_00000070799613884846101190000012256213747544727733_);">
							<use xlink:href="#SVGID_00000153704981101476693240000007929469241567834554_"  style="overflow:visible;"/>
						</clipPath>
						
							<linearGradient id="SVGID_00000084530621659598217940000010772984594447553949_" gradientUnits="userSpaceOnUse" x1="-13.2852" y1="36.5075" x2="-17.9628" y2="1.7818" gradientTransform="matrix(1 0 -0.1347 -1 37.7759 37.89)">
							<stop  offset="8.490570e-02" style="stop-color:#FFFFFF"/>
							<stop  offset="0.163" style="stop-color:#F5F5F5"/>
							<stop  offset="0.2972" style="stop-color:#D9D9D9"/>
							<stop  offset="0.4712" style="stop-color:#ACACAC"/>
							<stop  offset="0.6784" style="stop-color:#6E6E6E"/>
							<stop  offset="0.9109" style="stop-color:#202020"/>
							<stop  offset="1" style="stop-color:#000000"/>
						</linearGradient>
						
							<path style="clip-path:url(#SVGID_00000111164043540670810190000000888732563476174216_);fill:url(#SVGID_00000084530621659598217940000010772984594447553949_);" d="
							M23.9,13.4c-0.4,0-0.8,0-1.2,0.1c0.3-0.5,0.6-1.1,0.9-1.5c1-1.3,1.1-3.2,0.3-4.9c-0.9-1.7-2.4-2.7-4.1-2.7
							c-0.4,0-0.7,0.1-1,0.2c-0.3-0.3-0.7-0.6-0.9-0.8l-0.1-0.1c-0.5-1.3-1.6-2.4-2.9-2.8c-0.4-0.1-0.8-0.2-1.2-0.2
							c-0.9,0-1.7,0.4-2.4,1c-1,1.1-2.2,3.4-1.9,6.5c-0.6-0.4-1.3-0.6-2-0.6c-0.1,0-0.2,0-0.3,0c-1.3,0.1-2.4,1-2.8,2.3
							c-0.8,2.5-0.5,7.5,3.7,12c1.1,1.3,2.5,3,4.7,3c0.1,0,0.2,0,0.4,0c0.6,2.7,1.5,5.5,2.8,8.4c0.7,1.7,2.3,2.8,3.9,2.9l2.6,0.1
							c1.3,0,2.4-0.7,2.9-1.9c0.5-1.1,0.4-2.4-0.1-3.6c0.7-0.1,1.3-0.2,1.9-0.5c2.1-0.9,3.1-2.4,3.8-3.4c0.7-1,0.8-1.1,1.6-1.3
							c1.3-0.2,2.3-1.2,2.6-2.5c0.3-1.4-0.1-2.9-1-4.1C33.9,18.2,29.9,13.4,23.9,13.4z"/>
					</g>
				</g>
			</mask>
			
				<linearGradient id="SVGID_00000083800469880762755100000010140863185972385418_" gradientUnits="userSpaceOnUse" x1="-13.2852" y1="36.5075" x2="-17.9628" y2="1.7818" gradientTransform="matrix(1 0 -0.1347 -1 37.7759 37.89)">
				<stop  offset="8.490570e-02" style="stop-color:#FFFFFF"/>
				<stop  offset="0.163" style="stop-color:#F5F5F5"/>
				<stop  offset="0.2972" style="stop-color:#D9D9D9"/>
				<stop  offset="0.4712" style="stop-color:#ACACAC"/>
				<stop  offset="0.6784" style="stop-color:#6E6E6E"/>
				<stop  offset="0.9109" style="stop-color:#202020"/>
				<stop  offset="1" style="stop-color:#000000"/>
			</linearGradient>
			
				<path style="clip-path:url(#SVGID_00000116226046965295124160000012026987024665680816_);mask:url(#SVGID_00000107555628324013576350000000787840267742886822_);fill:url(#SVGID_00000083800469880762755100000010140863185972385418_);" d="
				M23.9,13.4c-0.4,0-0.8,0-1.2,0.1c0.3-0.5,0.6-1.1,0.9-1.5c1-1.3,1.1-3.2,0.3-4.9c-0.9-1.7-2.4-2.7-4.1-2.7c-0.4,0-0.7,0.1-1,0.2
				c-0.3-0.3-0.7-0.6-0.9-0.8l-0.1-0.1c-0.5-1.3-1.6-2.4-2.9-2.8c-0.4-0.1-0.8-0.2-1.2-0.2c-0.9,0-1.7,0.4-2.4,1
				c-1,1.1-2.2,3.4-1.9,6.5c-0.6-0.4-1.3-0.6-2-0.6c-0.1,0-0.2,0-0.3,0c-1.3,0.1-2.4,1-2.8,2.3c-0.8,2.5-0.5,7.5,3.7,12
				c1.1,1.3,2.5,3,4.7,3c0.1,0,0.2,0,0.4,0c0.6,2.7,1.5,5.5,2.8,8.4c0.7,1.7,2.3,2.8,3.9,2.9l2.6,0.1c1.3,0,2.4-0.7,2.9-1.9
				c0.5-1.1,0.4-2.4-0.1-3.6c0.7-0.1,1.3-0.2,1.9-0.5c2.1-0.9,3.1-2.4,3.8-3.4c0.7-1,0.8-1.1,1.6-1.3c1.3-0.2,2.3-1.2,2.6-2.5
				c0.3-1.4-0.1-2.9-1-4.1C33.9,18.2,29.9,13.4,23.9,13.4z"/>
		</g>
	</g>
	
		<linearGradient id="SVGID_00000115494986119617955310000011059898197051832991_" gradientUnits="userSpaceOnUse" x1="-13.2852" y1="36.5075" x2="-17.9628" y2="1.7818" gradientTransform="matrix(1 0 -0.1347 -1 37.7759 37.89)">
		<stop  offset="8.490570e-02" style="stop-color:#535153"/>
		<stop  offset="0.2077" style="stop-color:#5D5B5D;stop-opacity:0.8926"/>
		<stop  offset="0.4185" style="stop-color:#787778;stop-opacity:0.7084"/>
		<stop  offset="0.6917" style="stop-color:#A4A3A4;stop-opacity:0.4696"/>
		<stop  offset="1" style="stop-color:#DEDEDE;stop-opacity:0.2"/>
	</linearGradient>
	<path style="fill:url(#SVGID_00000115494986119617955310000011059898197051832991_);" d="M23.9,13.4c-0.4,0-0.8,0-1.2,0.1
		c0.3-0.5,0.6-1.1,0.9-1.5c1-1.3,1.1-3.2,0.3-4.9c-0.9-1.7-2.4-2.7-4.1-2.7c-0.4,0-0.7,0.1-1,0.2c-0.3-0.3-0.7-0.6-0.9-0.8l-0.1-0.1
		c-0.5-1.3-1.6-2.4-2.9-2.8c-0.4-0.1-0.8-0.2-1.2-0.2c-0.9,0-1.7,0.4-2.4,1c-1,1.1-2.2,3.4-1.9,6.5c-0.6-0.4-1.3-0.6-2-0.6
		c-0.1,0-0.2,0-0.3,0c-1.3,0.1-2.4,1-2.8,2.3c-0.8,2.5-0.5,7.5,3.7,12c1.1,1.3,2.5,3,4.7,3c0.1,0,0.2,0,0.4,0
		c0.6,2.7,1.5,5.5,2.8,8.4c0.7,1.7,2.3,2.8,3.9,2.9l2.6,0.1c1.3,0,2.4-0.7,2.9-1.9c0.5-1.1,0.4-2.4-0.1-3.6c0.7-0.1,1.3-0.2,1.9-0.5
		c2.1-0.9,3.1-2.4,3.8-3.4c0.7-1,0.8-1.1,1.6-1.3c1.3-0.2,2.3-1.2,2.6-2.5c0.3-1.4-0.1-2.9-1-4.1C33.9,18.2,29.9,13.4,23.9,13.4z"/>
	
		<linearGradient id="SVGID_00000068674384148125798820000003401011640011975052_" gradientUnits="userSpaceOnUse" x1="6.0507" y1="11.9624" x2="24.1474" y2="30.0591" gradientTransform="matrix(1 0 0 -1 0 37.89)">
		<stop  offset="0" style="stop-color:#FFFFFF"/>
		<stop  offset="0.4236" style="stop-color:#FDFDFD"/>
		<stop  offset="0.5761" style="stop-color:#F6F6F6"/>
		<stop  offset="0.6845" style="stop-color:#EBEBEB"/>
		<stop  offset="0.7713" style="stop-color:#DADADA"/>
		<stop  offset="0.797" style="stop-color:#EBEBEB"/>
		<stop  offset="0.8292" style="stop-color:#F6F6F6"/>
		<stop  offset="0.8744" style="stop-color:#FDFDFD"/>
		<stop  offset="1" style="stop-color:#FFFFFF"/>
	</linearGradient>
	<path style="fill:url(#SVGID_00000068674384148125798820000003401011640011975052_);" d="M21.5,12.3c-0.4,0-0.8,0-1.2,0.1
		c0.3-0.5,0.7-1,1.1-1.4c1.2-1.3,1.6-3,1-4.5s-2.1-2.4-3.8-2.4c-0.4,0-0.7,0.1-1.1,0.1c-0.3-0.3-0.6-0.5-0.8-0.7l-0.1-0.1
		c-0.4-1.2-1.3-2.2-2.5-2.6c-0.4-0.1-0.8-0.2-1.2-0.2c-0.9,0-1.8,0.3-2.5,0.9c-1.1,1-2.7,3.1-2.8,5.8C7.1,7.1,6.5,7,5.8,7
		C5.7,7,5.6,7,5.5,7C4.2,7.1,3,7.9,2.4,9.1c-1.1,2.3-2,7.1,1.6,11.2c0.9,1.1,2.6,2.3,4.8,2.3c0.1,0,0.2,0,0.4,0
		c0.2,2.4,0.8,4.9,1.6,7.5c0.5,1.5,1.9,2.6,3.5,2.6l2.6,0.1c1.3,0,2.5-0.7,3.2-1.7c0.6-1,0.8-2.2,0.4-3.3c0.7,0,1.3-0.2,2-0.4
		c2.2-0.8,3.4-2.2,4.3-3.1c0.8-0.9,1-1,1.8-1.2c1.3-0.2,2.4-1.1,3-2.3c0.5-1.2,0.3-2.6-0.4-3.7C30.8,16.6,27.4,12.3,21.5,12.3z"/>
	<path class="st8" d="M19.2,16.4c0,0-2.8,0.8-2.6,3.7c0,0,2.2-1.2,3.5-1.7c3-1.2,5.9,0.1,5.9,0.1c0.3,0.2-0.2,0.2-0.2,0.2
		c-1.7-0.3-2.7-0.1-3.2,0c-2.6,0.6-4.4,1.8-4.4,1.8l0,0c-0.4,0.2-1.1,0.7-1.4,0.9l0,0l0,0c-0.2,0.2-1.1,0.9-1.7,1.4
		c-0.8-4.4-0.7-10.2,3.6-14.6c0,0,0.4-0.4-0.2-0.4c0,0-1.5,0.9-3,3c-0.3-0.2-0.6-0.4-0.8-0.6C15.3,9.9,16.1,9,15.6,8
		c-0.8-1.6-2.2-1.5-2.7-3.4c0,0-2.2,1.9-1.2,4.8c0,0,0.3,1.5,2.2,1.2c-0.2-0.2-0.6-0.7-0.6-0.7s-0.5-0.6-0.8-2c-0.4-1.4,0-2.2,0-2.2
		c0.1-0.2,0.1,0.1,0.1,0.1c0,1.1,0.2,1.7,0.3,1.9c0.2,0.5,0.8,2,1.5,2.7c0,0,0,0.1,0.1,0.1l0,0l0,0c0.1,0.1,0.5,0.6,0.8,0.8
		c-1,1.6-2,3.8-2.4,6.6c-0.5-0.1-1.1-0.2-1.5-0.5c0.5-0.7,1-2.4-0.2-3.5c-1.9-1.7-3.8-0.8-5.5-3.1c0,0-1.9,3.8,1.1,7.1
		c0,0,1.3,1.8,3.5,0.5c0,0-1-0.4-3-2.5C5.8,14.3,6,12.5,6,12.5c0-0.3,0.2,0.1,0.2,0.1c1,3.2,4.7,5,5.1,5.2l0,0l0,0
		c0.2,0.1,1.1,0.5,1.7,0.7c-0.3,2.8,0.1,6.3,1.5,10.5H17c0,0-1-2.1-1.7-5.1c0.3-0.4,1-1.5,1.7-1.9c0.5,0.9,2.1,2.6,4.1,1.8
		c3.2-1.2,3.2-3.9,6.9-4.5C28.1,19.3,24.8,14.9,19.2,16.4z"/>
</g>
</svg>
