<?xml version="1.0" encoding="utf-8"?>
<!-- Generator: Adobe Illustrator 25.4.1, SVG Export Plug-In . SVG Version: 6.00 Build 0)  -->
<svg version="1.1" id="Calque_1" xmlns="http://www.w3.org/2000/svg" xmlns:xlink="http://www.w3.org/1999/xlink" x="0px" y="0px"
	 viewBox="0 0 36.9 36.9" style="enable-background:new 0 0 36.9 36.9;" xml:space="preserve">
<style type="text/css">
	.st0{filter:url(#Adobe_OpacityMaskFilter);}
	.st1{clip-path:url(#SVGID_00000130629786317000906680000014297265045851537029_);}
	
		.st2{clip-path:url(#SVGID_00000001637430003571394570000017852862923891617924_);fill:url(#SVGID_00000060023065931725060040000012269631333879481754_);}
	.st3{mask:url(#SVGID_1_);fill:url(#SVGID_00000002381608707475295730000004582794864531905673_);}
	.st4{fill:url(#SVGID_00000161630460131136314780000007342573357140734345_);}
	.st5{fill:url(#SVGID_00000032648424490462258740000006916771145795392423_);}
	.st6{fill:#73BBC9;}
</style>
<g>
	<g>
		<g>
			<g>
				<defs>
					<filter id="Adobe_OpacityMaskFilter" filterUnits="userSpaceOnUse" x="4" y="5.4" width="32.5" height="26.3">
						<feColorMatrix  type="matrix" values="1 0 0 0 0  0 1 0 0 0  0 0 1 0 0  0 0 0 1 0"/>
					</filter>
				</defs>
				<mask maskUnits="userSpaceOnUse" x="4" y="5.4" width="32.5" height="26.3" id="SVGID_1_">
					<g class="st0">
						<g>
							<defs>
								<polygon id="SVGID_00000143604879916517148600000012355463796539780773_" points="0.9,2.3 1.9,2.3 0.9,3.3 								"/>
							</defs>
							<defs>
								<polygon id="SVGID_00000174590371397560514520000002376307080465849223_" points="-1.1,0.3 -2.1,0.3 -1.1,-0.7 								"/>
							</defs>
							<clipPath id="SVGID_00000047749734774668748160000003176970465866390164_">
								<use xlink:href="#SVGID_00000143604879916517148600000012355463796539780773_"  style="overflow:visible;"/>
							</clipPath>
							
								<clipPath id="SVGID_00000161630474973913172530000012063612416262005392_" style="clip-path:url(#SVGID_00000047749734774668748160000003176970465866390164_);">
								<use xlink:href="#SVGID_00000174590371397560514520000002376307080465849223_"  style="overflow:visible;"/>
							</clipPath>
							
								<linearGradient id="SVGID_00000065789377781519311550000017370064963316413068_" gradientUnits="userSpaceOnUse" x1="-27.4858" y1="32.354" x2="-31.289" y2="4.8146" gradientTransform="matrix(1 0 -0.1381 -1 52.2063 37.89)">
								<stop  offset="8.490570e-02" style="stop-color:#FFFFFF"/>
								<stop  offset="0.163" style="stop-color:#F5F5F5"/>
								<stop  offset="0.2972" style="stop-color:#D9D9D9"/>
								<stop  offset="0.4712" style="stop-color:#ACACAC"/>
								<stop  offset="0.6784" style="stop-color:#6E6E6E"/>
								<stop  offset="0.9109" style="stop-color:#202020"/>
								<stop  offset="1" style="stop-color:#000000"/>
							</linearGradient>
							
								<path style="clip-path:url(#SVGID_00000161630474973913172530000012063612416262005392_);fill:url(#SVGID_00000065789377781519311550000017370064963316413068_);" d="
								M6.5,30c0.9,1.1,2.2,1.7,3.4,1.7c0.1,0,0.1,0,0.2,0c1.3-0.1,2.3-0.8,2.9-2.1c0-0.1,0.1-0.2,0.1-0.3c1.8,1.3,3.9,2.2,6.2,2.2
								l0,0c1.2,0,2.3-0.2,3.4-0.7c3.3-1.5,4.9-3.9,6.2-5.8c1.4-2,2.2-3.2,4.8-3.6c1.3-0.2,2.4-1.3,2.7-2.7c0.3-1.5-0.1-3.1-1.1-4.4
								c-0.3-0.4-7.1-8.9-17.1-8.9c-1.8,0-3.5,0.3-5.2,0.8C10.2,7,5.4,10.9,6.9,19.7c-2.3,2.6-2.6,3.6-2.8,4.2
								c-0.4,1.5,0.1,3.3,1.1,4.6L6.5,30z"/>
						</g>
					</g>
				</mask>
				
					<linearGradient id="SVGID_00000059284113205257074500000012515533040703829651_" gradientUnits="userSpaceOnUse" x1="-27.4858" y1="32.354" x2="-31.289" y2="4.8146" gradientTransform="matrix(1 0 -0.1381 -1 52.2063 37.89)">
					<stop  offset="8.490570e-02" style="stop-color:#FFFFFF"/>
					<stop  offset="0.163" style="stop-color:#F5F5F5"/>
					<stop  offset="0.2972" style="stop-color:#D9D9D9"/>
					<stop  offset="0.4712" style="stop-color:#ACACAC"/>
					<stop  offset="0.6784" style="stop-color:#6E6E6E"/>
					<stop  offset="0.9109" style="stop-color:#202020"/>
					<stop  offset="1" style="stop-color:#000000"/>
				</linearGradient>
				<path style="mask:url(#SVGID_1_);fill:url(#SVGID_00000059284113205257074500000012515533040703829651_);" d="M6.5,30
					c0.9,1.1,2.2,1.7,3.4,1.7c0.1,0,0.1,0,0.2,0c1.3-0.1,2.3-0.8,2.9-2.1c0-0.1,0.1-0.2,0.1-0.3c1.8,1.3,3.9,2.2,6.2,2.2l0,0
					c1.2,0,2.3-0.2,3.4-0.7c3.3-1.5,4.9-3.9,6.2-5.8c1.4-2,2.2-3.2,4.8-3.6c1.3-0.2,2.4-1.3,2.7-2.7c0.3-1.5-0.1-3.1-1.1-4.4
					c-0.3-0.4-7.1-8.9-17.1-8.9c-1.8,0-3.5,0.3-5.2,0.8C10.2,7,5.4,10.9,6.9,19.7c-2.3,2.6-2.6,3.6-2.8,4.2
					c-0.4,1.5,0.1,3.3,1.1,4.6L6.5,30z"/>
			</g>
		</g>
		
			<linearGradient id="SVGID_00000097492897600820403550000007107919507292543666_" gradientUnits="userSpaceOnUse" x1="-27.4858" y1="32.354" x2="-31.289" y2="4.8146" gradientTransform="matrix(1 0 -0.1381 -1 52.2063 37.89)">
			<stop  offset="8.490570e-02" style="stop-color:#535153"/>
			<stop  offset="0.2077" style="stop-color:#5D5B5D;stop-opacity:0.8926"/>
			<stop  offset="0.4185" style="stop-color:#787778;stop-opacity:0.7084"/>
			<stop  offset="0.6917" style="stop-color:#A4A3A4;stop-opacity:0.4696"/>
			<stop  offset="1" style="stop-color:#DEDEDE;stop-opacity:0.2"/>
		</linearGradient>
		<path style="fill:url(#SVGID_00000097492897600820403550000007107919507292543666_);" d="M6.5,30c0.9,1.1,2.2,1.7,3.4,1.7
			c0.1,0,0.1,0,0.2,0c1.3-0.1,2.3-0.8,2.9-2.1c0-0.1,0.1-0.2,0.1-0.3c1.8,1.3,3.9,2.2,6.2,2.2l0,0c1.2,0,2.3-0.2,3.4-0.7
			c3.3-1.5,4.9-3.9,6.2-5.8c1.4-2,2.2-3.2,4.8-3.6c1.3-0.2,2.4-1.3,2.7-2.7c0.3-1.5-0.1-3.1-1.1-4.4c-0.3-0.4-7.1-8.9-17.1-8.9
			c-1.8,0-3.5,0.3-5.2,0.8C10.2,7,5.4,10.9,6.9,19.7c-2.3,2.6-2.6,3.6-2.8,4.2c-0.4,1.5,0.1,3.3,1.1,4.6L6.5,30z"/>
	</g>
	<g>
		
			<linearGradient id="SVGID_00000175292273039482240710000005201755614929088700_" gradientUnits="userSpaceOnUse" x1="4.4075" y1="8.5621" x2="26.9324" y2="31.087" gradientTransform="matrix(1 0 0 -1 0 37.89)">
			<stop  offset="0" style="stop-color:#FFFFFF"/>
			<stop  offset="0.4236" style="stop-color:#FDFDFD"/>
			<stop  offset="0.5761" style="stop-color:#F6F6F6"/>
			<stop  offset="0.6845" style="stop-color:#EBEBEB"/>
			<stop  offset="0.7713" style="stop-color:#DADADA"/>
			<stop  offset="0.797" style="stop-color:#EBEBEB"/>
			<stop  offset="0.8292" style="stop-color:#F6F6F6"/>
			<stop  offset="0.8744" style="stop-color:#FDFDFD"/>
			<stop  offset="1" style="stop-color:#FFFFFF"/>
		</linearGradient>
		<path style="fill:url(#SVGID_00000175292273039482240710000005201755614929088700_);" d="M2.2,27c0.8,1,1.9,1.5,3.1,1.5
			c0.1,0,0.1,0,0.2,0c1.3-0.1,2.5-0.8,3.2-1.8c0.1-0.1,0.1-0.2,0.2-0.3c1.6,1.2,3.6,2,5.9,2l0,0c1.2,0,2.3-0.2,3.5-0.7
			c3.5-1.4,5.5-3.4,7-5.1c1.7-1.8,2.7-2.8,5.3-3.2c1.4-0.2,2.6-1.1,3.1-2.4s0.4-2.8-0.5-3.9c-0.2-0.3-5.9-7.9-15.8-7.9
			c-1.8,0-3.5,0.2-5.3,0.7c-3,0.9-8.3,4.3-8,12.1c-2.7,2.3-3.2,3.2-3.4,3.7c-0.6,1.3-0.4,2.9,0.5,4L2.2,27z"/>
	</g>
	<path class="st6" d="M13,9.9c0,0-5.4,1.3-5,8.3v0.1c1.3-0.9,2.8-1.8,2.8-1.8c-0.2-2.2,1-4.6,1-4.6c0.3-0.6,0.3-0.1,0.3-0.1
		c-0.6,2.5,0.1,4,0.1,4c0.7-0.3,1.4-0.6,1.4-0.6c0.1-1.8,1.4-4.5,1.4-4.5c0.2-0.4,0.4-0.1,0.4-0.1c-0.8,2.8-0.2,4-0.2,4
		c0.3-0.2,1.6-0.5,1.6-0.5c0.4-1.9,2.2-3.5,2.2-3.5c0.3-0.2,0.3,0.2,0.3,0.2c-1.5,2-1.1,2.9-1.1,2.9c5.3-1,7.7,0.3,7.7,0.3
		c0.7,0.4-0.3,0.4-0.3,0.4c-4.7-0.9-6.9,0.3-6.9,0.3c2.3,2.2,4.2,2.7,4.2,2.7c0.7,0.3-0.2,0.4-0.2,0.4c-4.5-1.5-5.4-2.4-5.4-2.4
		c-0.4,0.1-1.6,0.4-1.6,0.4c1.9,3.2,4.7,4,4.7,4c0.5,0.4-0.2,0.5-0.2,0.5c-4.9-2.3-6-3.9-6-3.9c-0.3,0-1.3,0.6-1.3,0.6
		c1.6,2.9,4.6,4.7,4.6,4.7c0.4,0.3-0.2,0.4-0.2,0.4c-5.3-2.4-6-4.3-6-4.3c-0.7,0.2-2.2,1.3-2.9,1.8l0,0l0,0c-0.6,0.5-3.7,2.8-4,3.7
		l1,1.3c0,0,1.8-2.9,3.5-4c1,1.8,4,5,7.9,3.5c6-2.3,6-7.5,13.2-8.6C29.9,15.6,23.7,7.1,13,9.9z"/>
</g>
</svg>
