<?xml version="1.0" encoding="utf-8"?>
<!-- Generator: Adobe Illustrator 25.4.1, SVG Export Plug-In . SVG Version: 6.00 Build 0)  -->
<svg version="1.1" id="Calque_1" xmlns="http://www.w3.org/2000/svg" xmlns:xlink="http://www.w3.org/1999/xlink" x="0px" y="0px"
	 viewBox="0 0 36.9 36.9" style="enable-background:new 0 0 36.9 36.9;" xml:space="preserve">
<style type="text/css">
	.st0{filter:url(#Adobe_OpacityMaskFilter);}
	.st1{filter:url(#Adobe_OpacityMaskFilter_00000088119876623878960140000009388490594751066282_);}
	.st2{mask:url(#SVGID_1_);fill:url(#SVGID_00000091705441058767948690000010250415814329133956_);}
	.st3{fill:url(#SVGID_00000092435600858641003180000017653190228568689057_);}
	.st4{fill:url(#SVGID_00000135689302477293496690000016095126274083829127_);}
	.st5{fill:#73BBC9;}
</style>
<g>
	<defs>
		<filter id="Adobe_OpacityMaskFilter" filterUnits="userSpaceOnUse" x="6.1" y="0.2" width="26" height="36.3">
			<feColorMatrix  type="matrix" values="1 0 0 0 0  0 1 0 0 0  0 0 1 0 0  0 0 0 1 0"/>
		</filter>
	</defs>
	<mask maskUnits="userSpaceOnUse" x="6.1" y="0.2" width="26" height="36.3" id="SVGID_1_">
		<g class="st0">
			<defs>
				
					<filter id="Adobe_OpacityMaskFilter_00000065796966142688086830000002078912861882387590_" filterUnits="userSpaceOnUse" x="6.1" y="0.2" width="26" height="36.3">
					<feFlood  style="flood-color:white;flood-opacity:1" result="back"/>
					<feBlend  in="SourceGraphic" in2="back" mode="normal"/>
				</filter>
			</defs>
			<mask maskUnits="userSpaceOnUse" x="6.1" y="0.2" width="26" height="36.3" id="SVGID_1_">
				<g style="filter:url(#Adobe_OpacityMaskFilter_00000065796966142688086830000002078912861882387590_);">
				</g>
			</mask>
			
				<linearGradient id="SVGID_00000002367035945920853260000013329484759995566980_" gradientUnits="userSpaceOnUse" x1="15.0744" y1="0.2114" x2="10.0413" y2="36.8423" gradientTransform="matrix(1 0 0.1374 1 4.0252 0)">
				<stop  offset="8.490570e-02" style="stop-color:#FFFFFF"/>
				<stop  offset="0.163" style="stop-color:#F5F5F5"/>
				<stop  offset="0.2972" style="stop-color:#D9D9D9"/>
				<stop  offset="0.4712" style="stop-color:#ACACAC"/>
				<stop  offset="0.6784" style="stop-color:#6E6E6E"/>
				<stop  offset="0.9109" style="stop-color:#202020"/>
				<stop  offset="1" style="stop-color:#000000"/>
			</linearGradient>
			<path style="mask:url(#SVGID_1_);fill:url(#SVGID_00000002367035945920853260000013329484759995566980_);" d="M8,14.8l1.8,13.4
				c0.6,4.6,4.1,8.4,7.8,8.4h8.8c3.7,0,6.3-3.8,5.6-8.4l-1.8-13.4c0.7-0.9,1-2.1,0.8-3.5l0-0.3c-0.5-3.7-2.5-6.3-6-6.9
				c-1.1-2.3-4-3.8-6-3.8l-3.6,0.5c-2,0-3.6,0.8-4.2,2.7c-3.3,0.6-5.5,3.7-5.1,7.4l0,0.3C6.4,12.6,7.1,13.9,8,14.8z"/>
		</g>
	</mask>
	
		<linearGradient id="SVGID_00000030488379741732947890000004140566824965279876_" gradientUnits="userSpaceOnUse" x1="15.0744" y1="0.2114" x2="10.0413" y2="36.8423" gradientTransform="matrix(1 0 0.1374 1 4.0252 0)">
		<stop  offset="8.490570e-02" style="stop-color:#535153"/>
		<stop  offset="0.2077" style="stop-color:#5D5B5D;stop-opacity:0.8926"/>
		<stop  offset="0.4185" style="stop-color:#787778;stop-opacity:0.7084"/>
		<stop  offset="0.6917" style="stop-color:#A4A3A4;stop-opacity:0.4696"/>
		<stop  offset="1" style="stop-color:#DEDEDE;stop-opacity:0.2"/>
	</linearGradient>
	<path style="fill:url(#SVGID_00000030488379741732947890000004140566824965279876_);" d="M8,14.8l1.8,13.4c0.6,4.6,4.1,8.4,7.8,8.4
		h8.8c3.7,0,6.3-3.8,5.6-8.4l-1.8-13.4c0.7-0.9,1-2.1,0.8-3.5l0-0.3c-0.5-3.7-2.5-6.3-6-6.9c-1.1-2.3-4-3.8-6-3.8l-3.6,0.5
		c-2,0-3.6,0.8-4.2,2.7c-3.3,0.6-5.5,3.7-5.1,7.4l0,0.3C6.4,12.6,7.1,13.9,8,14.8z"/>
	
		<linearGradient id="SVGID_00000100380360528749563400000003474396832134586282_" gradientUnits="userSpaceOnUse" x1="5.8599" y1="28.6306" x2="28.4478" y2="6.0427">
		<stop  offset="0" style="stop-color:#FFFFFF"/>
		<stop  offset="0.4236" style="stop-color:#FDFDFD"/>
		<stop  offset="0.5761" style="stop-color:#F6F6F6"/>
		<stop  offset="0.6845" style="stop-color:#EBEBEB"/>
		<stop  offset="0.7713" style="stop-color:#DADADA"/>
		<stop  offset="0.797" style="stop-color:#EBEBEB"/>
		<stop  offset="0.8292" style="stop-color:#F6F6F6"/>
		<stop  offset="0.8744" style="stop-color:#FDFDFD"/>
		<stop  offset="1" style="stop-color:#FFFFFF"/>
	</linearGradient>
	<path style="fill:url(#SVGID_00000100380360528749563400000003474396832134586282_);" d="M6,13.3v12.1c0,4.2,3,7.6,6.7,7.6h8.8
		c3.7,0,6.7-3.4,6.7-7.6V13.3c0.8-0.8,1.3-1.9,1.3-3.2V9.8c0-3.4-2.6-6.2-6-6.7c-0.9-1.7-2.6-2.9-4.6-2.9h-3.6c-2,0-3.7,1.2-4.6,2.9
		c-3.4,0.5-6,3.3-6,6.7v0.3C4.7,11.4,5.2,12.5,6,13.3z"/>
	<g>
		<path class="st5" d="M22.3,7.4H12c-1.7,0-3,1.1-3,2.4v0.3h16.5V9.8C25.4,8.5,24,7.4,22.3,7.4z"/>
		<path class="st5" d="M18.9,4.6h-3.6c-0.6,0-1,0.5-1,1.1v0.4H20V5.7C20,5.1,19.5,4.6,18.9,4.6z"/>
		<g>
			<path class="st5" d="M10.2,11.8v13.6c0,1.7,1.2,3.2,2.6,3.2h8.8c1.4,0,2.6-1.4,2.6-3.2V11.8H10.2z M11.9,18.6h2.5l1.2,2.3
				l-0.7-0.4L14,22.2c0,0-1.2,0.1-1.9-0.6c0,0-0.5-0.5-0.1-1.3l0.6-1.2L11.9,18.6z M16.6,25.1h-2c0,0-0.8,0.1-1.2-0.7L12,21.8
				c0,0,0,0,0,0l0,0c0.1,0.2,0.5,0.7,2,0.6h2.6V25.1z M15.9,18.7l-2.3-1.3l1-1.8c0,0,0.3-0.7,1.2-0.8l2.8,0c0,0,0.1,0,0.1,0h-0.1
				c-0.2,0-0.8,0.2-1.5,1.6L15.9,18.7z M18.7,15c0,0,0.6-0.2,1.1,0.6l0.7,1.1l0.8-0.4l-1.2,2.3l-2.5,0l0.6-0.5l-0.9-1.7
				C17.3,16.4,17.8,15.3,18.7,15z M21,24.3c0,0-0.1,0.7-1,0.7l-1.3,0.1L18.6,26l-1.3-2.3l1.3-2.3l0.1,0.8l1.8,0
				C20.4,22.3,21.1,23.3,21,24.3z M22.6,21.7l-1.4,2.6c0,0,0,0,0,0l0,0c0.1-0.2,0.3-0.8-0.5-2.1l-1.3-2.3l2.2-1.4l1,1.8
				C22.6,20.3,23,20.9,22.6,21.7z"/>
			<path d="M12,21.8L12,21.8C12,21.7,12,21.8,12,21.8z"/>
			<path d="M21.2,24.3L21.2,24.3C21.1,24.3,21.2,24.3,21.2,24.3z"/>
			<path d="M18.6,14.8L18.6,14.8C18.6,14.8,18.6,14.8,18.6,14.8z"/>
		</g>
	</g>
</g>
</svg>
